<svg xmlns="http://www.w3.org/2000/svg" xmlns:xlink="http://www.w3.org/1999/xlink" viewBox="-3287 -2040 164 49">
  <defs>
    <style>
      .cls-1 {
        fill: none;
      }

      .cls-2 {
        clip-path: url(#clip-Artboard_2);
      }

      .cls-3 {
        clip-path: url(#clip-path);
      }

      .cls-4 {
        fill: #fff;
      }
    </style>
    <clipPath id="clip-path">
      <path id="Path_4250" data-name="Path 4250" class="cls-1" d="M0-500H142.842v48.355H0Z" transform="translate(0 500)"/>
    </clipPath>
    <clipPath id="clip-Artboard_2">
      <rect x="-3287" y="-2040" width="164" height="49"/>
    </clipPath>
  </defs>
  <g id="Artboard_2" data-name="Artboard – 2" class="cls-2">
    <g id="Group_5198" data-name="Group 5198" transform="translate(-3287 -2040)">
      <g id="Group_4678" data-name="Group 4678" transform="translate(0 0)">
        <path id="Path_4196" data-name="Path 4196" d="M27.155,8.355H-123.956A6.062,6.062,0,0,1-130,2.311V-33.956A6.062,6.062,0,0,1-123.956-40H27.155A6.062,6.062,0,0,1,33.2-33.956V2.311a6.062,6.062,0,0,1-6.044,6.044" transform="translate(130 40)"/>
      </g>
      <g id="Group_4737" data-name="Group 4737" class="cls-3" transform="translate(10.477 0)">
        <g id="Group_4715" data-name="Group 4715" transform="translate(0 0)">
          <path id="Path_4225" data-name="Path 4225" class="cls-1" d="M-54.2,0H77.039a5.8,5.8,0,0,1,5.8,5.8v36.75a5.8,5.8,0,0,1-5.8,5.8H-54.2a5.8,5.8,0,0,1-5.8-5.8V5.8A5.8,5.8,0,0,1-54.2,0" transform="translate(60 0)"/>
        </g>
        <g id="Group_4716" data-name="Group 4716" transform="translate(12.666 15.115)">
          <path id="Path_4226" data-name="Path 4226" class="cls-4" d="M-173.773-74.307a6.221,6.221,0,0,1,2.963-5.22,6.372,6.372,0,0,0-5.018-2.713c-2.111-.222-4.159,1.263-5.234,1.263-1.1,0-2.753-1.242-4.537-1.205a6.681,6.681,0,0,0-5.624,3.43c-2.432,4.21-.618,10.4,1.712,13.8,1.165,1.668,2.527,3.528,4.31,3.462,1.744-.071,2.4-1.112,4.5-1.112,2.085,0,2.7,1.112,4.515,1.069,1.872-.028,3.05-1.673,4.175-3.356a13.739,13.739,0,0,0,1.909-3.888,6.013,6.013,0,0,1-3.67-5.53" transform="translate(192.378 82.262)"/>
        </g>
        <g id="Group_4717" data-name="Group 4717" transform="translate(23.735 8.511)">
          <path id="Path_4227" data-name="Path 4227" class="cls-4" d="M-38.307-40.987a6.124,6.124,0,0,0,1.4-4.388,6.237,6.237,0,0,0-4.033,2.086,5.827,5.827,0,0,0-1.438,4.226,5.152,5.152,0,0,0,4.07-1.924" transform="translate(42.408 45.375)"/>
        </g>
        <g id="Group_4718" data-name="Group 4718" transform="translate(44.473 21.367)">
          <path id="Path_4228" data-name="Path 4228" class="cls-4" d="M-73.624-77.774-74.832-81.5q-.192-.573-.72-2.692h-.043q-.213.911-.678,2.692l-1.187,3.728Zm4.175,5.955h-2.437l-1.335-4.2h-4.64l-1.272,4.2h-2.373l4.6-14.282h2.84Z" transform="translate(81.507 86.101)"/>
        </g>
        <g id="Group_4719" data-name="Group 4719" transform="translate(58.418 25.138)">
          <path id="Path_4229" data-name="Path 4229" class="cls-4" d="M-70.838-49.678a4.24,4.24,0,0,0-.678-2.479,2.345,2.345,0,0,0-1.992-1.017,2.375,2.375,0,0,0-1.536.562,2.6,2.6,0,0,0-.9,1.473,2.974,2.974,0,0,0-.106.7v1.719a2.754,2.754,0,0,0,.689,1.9,2.287,2.287,0,0,0,1.79.774,2.345,2.345,0,0,0,2.012-1,4.383,4.383,0,0,0,.721-2.628m2.331-.084a5.832,5.832,0,0,1-1.427,4.152,4.185,4.185,0,0,1-3.175,1.356,3.176,3.176,0,0,1-2.941-1.462v5.4h-2.288V-51.4q0-1.65-.085-3.385h2.012l.128,1.633h.043A3.811,3.811,0,0,1-72.764-55a3.82,3.82,0,0,1,3.04,1.44,5.7,5.7,0,0,1,1.217,3.795" transform="translate(78.422 54.997)"/>
        </g>
        <g id="Group_4720" data-name="Group 4720" transform="translate(70.262 25.138)">
          <path id="Path_4230" data-name="Path 4230" class="cls-4" d="M-70.838-49.678a4.241,4.241,0,0,0-.679-2.479,2.34,2.34,0,0,0-1.99-1.017,2.385,2.385,0,0,0-1.538.562,2.6,2.6,0,0,0-.9,1.473,3.042,3.042,0,0,0-.107.7v1.719a2.764,2.764,0,0,0,.688,1.9,2.292,2.292,0,0,0,1.792.774,2.343,2.343,0,0,0,2.012-1,4.383,4.383,0,0,0,.721-2.628m2.332-.084a5.832,5.832,0,0,1-1.427,4.152,4.187,4.187,0,0,1-3.175,1.356,3.179,3.179,0,0,1-2.941-1.462v5.4h-2.288V-51.4q0-1.65-.085-3.385h2.012l.128,1.633h.043A3.809,3.809,0,0,1-72.764-55a3.825,3.825,0,0,1,3.041,1.44,5.7,5.7,0,0,1,1.217,3.795" transform="translate(78.422 54.997)"/>
        </g>
        <g id="Group_4721" data-name="Group 4721" transform="translate(84.563 21.155)">
          <path id="Path_4231" data-name="Path 4231" class="cls-4" d="M-82.736-97.962A3.811,3.811,0,0,1-84.005-95a5.627,5.627,0,0,1-3.89,1.25,6.791,6.791,0,0,1-3.7-.89l.529-1.907a6.376,6.376,0,0,0,3.305.891,3.118,3.118,0,0,0,2.012-.583,1.9,1.9,0,0,0,.722-1.556,1.992,1.992,0,0,0-.594-1.464,5.515,5.515,0,0,0-1.969-1.1q-3.751-1.4-3.752-4.091a3.614,3.614,0,0,1,1.323-2.882,5.237,5.237,0,0,1,3.507-1.124,6.931,6.931,0,0,1,3.242.678l-.574,1.865a5.668,5.668,0,0,0-2.744-.657,2.789,2.789,0,0,0-1.893.593,1.7,1.7,0,0,0-.575,1.294,1.744,1.744,0,0,0,.659,1.4,7.378,7.378,0,0,0,2.076,1.1,7.046,7.046,0,0,1,2.712,1.736,3.62,3.62,0,0,1,.872,2.478" transform="translate(91.594 108.45)"/>
        </g>
        <g id="Group_4722" data-name="Group 4722" transform="translate(94.735 22.782)">
          <path id="Path_4232" data-name="Path 4232" class="cls-4" d="M-58.568-40.025H-61.09v5q0,1.908,1.335,1.906a4.02,4.02,0,0,0,1.016-.106l.063,1.737a5.18,5.18,0,0,1-1.778.253,2.749,2.749,0,0,1-2.121-.827,4.052,4.052,0,0,1-.763-2.776v-5.191h-1.5v-1.717h1.5v-1.886l2.247-.678v2.564h2.522v1.721" transform="translate(64.839 44.31)"/>
        </g>
        <g id="Group_4723" data-name="Group 4723" transform="translate(102.275 25.141)">
          <path id="Path_4233" data-name="Path 4233" class="cls-4" d="M-72.06-49.748a4.612,4.612,0,0,0-.613-2.43A2.265,2.265,0,0,0-74.729-53.4a2.3,2.3,0,0,0-2.1,1.226,4.678,4.678,0,0,0-.614,2.473,4.581,4.581,0,0,0,.614,2.43,2.309,2.309,0,0,0,2.08,1.228,2.3,2.3,0,0,0,2.056-1.247,4.64,4.64,0,0,0,.631-2.453m2.372-.053a5.644,5.644,0,0,1-1.356,3.9,4.839,4.839,0,0,1-3.771,1.568,4.606,4.606,0,0,1-3.613-1.5,5.473,5.473,0,0,1-1.346-3.792,5.608,5.608,0,0,1,1.388-3.919,4.81,4.81,0,0,1,3.74-1.526A4.712,4.712,0,0,1-71-53.569,5.409,5.409,0,0,1-69.688-49.8" transform="translate(79.775 55.074)"/>
        </g>
        <g id="Group_4724" data-name="Group 4724" transform="translate(114.291 25.138)">
          <path id="Path_4234" data-name="Path 4234" class="cls-4" d="M-51.481-20.779a3.981,3.981,0,0,0-.721-.062,2.158,2.158,0,0,0-1.865.911,3.428,3.428,0,0,0-.571,2.034v5.4h-2.288v-7.055c0-1.186-.023-2.269-.067-3.242H-55l.084,1.97h.063a3.524,3.524,0,0,1,1.144-1.631A2.763,2.763,0,0,1-52.055-23a3.815,3.815,0,0,1,.572.042l0,2.183" transform="translate(56.993 23.004)"/>
        </g>
        <g id="Group_4725" data-name="Group 4725" transform="translate(120.883 25.122)">
          <path id="Path_4235" data-name="Path 4235" class="cls-4" d="M-65.1-40.136a3.1,3.1,0,0,0-.444-1.759,2,2,0,0,0-1.822-.955,2.168,2.168,0,0,0-1.821.932,3.421,3.421,0,0,0-.677,1.779Zm2.182.594a5.367,5.367,0,0,1-.084,1.038H-69.87a2.986,2.986,0,0,0,.995,2.333,3.407,3.407,0,0,0,2.245.719,7.57,7.57,0,0,0,2.777-.487l.359,1.588a8.609,8.609,0,0,1-3.452.636,5,5,0,0,1-3.763-1.408A5.212,5.212,0,0,1-72.075-38.9,5.893,5.893,0,0,1-70.8-42.781a4.385,4.385,0,0,1,3.6-1.652,3.835,3.835,0,0,1,3.37,1.652,5.551,5.551,0,0,1,.909,3.239" transform="translate(72.075 44.433)"/>
        </g>
        <g id="Group_4726" data-name="Group 4726" transform="translate(45.325 9.235)">
          <path id="Path_4236" data-name="Path 4236" class="cls-4" d="M-36.2-38.231l-.594-1.833c-.062-.188-.177-.625-.354-1.322h-.021c-.073.3-.177.739-.334,1.322l-.583,1.833Zm2.052,2.927h-1.2L-36-37.366h-2.281L-38.9-35.3h-1.167l2.26-7.02h1.4Z" transform="translate(40.071 42.324)"/>
        </g>
        <g id="Group_4727" data-name="Group 4727" transform="translate(52.039 11.194)">
          <path id="Path_4237" data-name="Path 4237" class="cls-4" d="M-45.438,0l-1.917,5.061h-1.094L-50.3,0h1.209l.865,2.677c.146.447.271.875.364,1.28h.031c.084-.364.208-.791.364-1.28L-46.617,0h1.178" transform="translate(50.303)"/>
        </g>
        <g id="Group_4728" data-name="Group 4728" transform="translate(57.839 11.09)">
          <path id="Path_4238" data-name="Path 4238" class="cls-4" d="M-27.916-24.7c-1.25,0-1.875.3-1.875,1.021a.717.717,0,0,0,.771.791,1.076,1.076,0,0,0,1.1-1.03Zm.157,2.521-.084-.583h-.031a1.726,1.726,0,0,1-1.479.7,1.473,1.473,0,0,1-1.552-1.49c0-1.249,1.083-1.9,2.958-1.9v-.093c0-.667-.354-1-1.052-1a2.363,2.363,0,0,0-1.322.376l-.229-.739a3.239,3.239,0,0,1,1.74-.438c1.322,0,1.99.7,1.99,2.094v1.864a7.514,7.514,0,0,0,.073,1.208Z" transform="translate(30.905 27.343)"/>
        </g>
        <path id="Path_4239" data-name="Path 4239" class="cls-4" d="M659.426-404.593h1.125v5.061h-1.125Zm.541-.834a.661.661,0,0,1-.666-.677.663.663,0,0,1,.688-.666.656.656,0,0,1,.687.666.659.659,0,0,1-.708.677" transform="translate(-595.538 415.787)"/>
        <path id="Path_4240" data-name="Path 4240" class="cls-4" d="M692.891-408.269h1.125v7.384h-1.125Z" transform="translate(-625.881 417.14)"/>
        <g id="Group_4729" data-name="Group 4729" transform="translate(69.769 11.089)">
          <path id="Path_4241" data-name="Path 4241" class="cls-4" d="M-27.915-24.709c-1.25,0-1.875.3-1.875,1.021a.717.717,0,0,0,.77.791,1.076,1.076,0,0,0,1.1-1.03Zm.157,2.521-.085-.583h-.03a1.726,1.726,0,0,1-1.479.7,1.473,1.473,0,0,1-1.552-1.49c0-1.249,1.083-1.9,2.958-1.9v-.093c0-.667-.354-1-1.052-1a2.363,2.363,0,0,0-1.322.376l-.23-.741a3.24,3.24,0,0,1,1.74-.438c1.322,0,1.991.7,1.991,2.094V-23.4a7.812,7.812,0,0,0,.071,1.208Z" transform="translate(30.904 27.354)"/>
        </g>
        <g id="Group_4730" data-name="Group 4730" transform="translate(75.774 8.871)">
          <path id="Path_4242" data-name="Path 4242" class="cls-4" d="M-22.484-28.978a1.294,1.294,0,0,0-1.24,1.344v.885A1.24,1.24,0,0,0-22.5-25.479c.842,0,1.345-.687,1.345-1.78,0-1.021-.523-1.719-1.324-1.719m.229,4.4a1.72,1.72,0,0,1-1.593-.9h-.021l-.064.781h-.957c.03-.406.041-.865.041-1.364v-6.02h1.127v3.063h.02a1.737,1.737,0,0,1,1.614-.844c1.219,0,2.073,1.042,2.073,2.562,0,1.571-.949,2.717-2.24,2.717" transform="translate(24.891 32.081)"/>
        </g>
        <path id="Path_4243" data-name="Path 4243" class="cls-4" d="M851.133-408.269h1.124v7.384h-1.124Z" transform="translate(-768.819 417.14)"/>
        <g id="Group_4731" data-name="Group 4731" transform="translate(85.098 11.079)">
          <path id="Path_4244" data-name="Path 4244" class="cls-4" d="M-32.046-19.747c0-.781-.4-1.333-1.116-1.333a1.336,1.336,0,0,0-1.23,1.333Zm1.03.8h-3.376a1.452,1.452,0,0,0,1.593,1.5,3.8,3.8,0,0,0,1.365-.239l.175.781a4.219,4.219,0,0,1-1.7.312,2.35,2.35,0,0,1-2.521-2.551,2.472,2.472,0,0,1,2.4-2.718,2.127,2.127,0,0,1,2.1,2.406,2.168,2.168,0,0,1-.039.51" transform="translate(35.477 21.861)"/>
        </g>
        <g id="Group_4732" data-name="Group 4732" transform="translate(93.939 11.09)">
          <path id="Path_4245" data-name="Path 4245" class="cls-4" d="M-23.166-7.678c-.812,0-1.333.76-1.333,1.822,0,1.042.531,1.8,1.322,1.8s1.322-.812,1.322-1.823c0-1.03-.52-1.8-1.311-1.8m-.043,4.458a2.409,2.409,0,0,1-2.437-2.6A2.465,2.465,0,0,1-23.124-8.5a2.39,2.39,0,0,1,2.437,2.594A2.48,2.48,0,0,1-23.209-3.22" transform="translate(25.646 8.5)"/>
        </g>
        <g id="Group_4733" data-name="Group 4733" transform="translate(100.509 11.089)">
          <path id="Path_4246" data-name="Path 4246" class="cls-4" d="M-41.428-48.254H-42.55V-51.16c0-.9-.344-1.344-1.022-1.344a1.169,1.169,0,0,0-1.126,1.24v3.01H-45.82v-3.615c0-.447-.013-.927-.043-1.448h.989l.053.781h.032a1.814,1.814,0,0,1,1.6-.885c1.06,0,1.758.812,1.758,2.135v3.032" transform="translate(45.863 53.42)"/>
        </g>
        <g id="Group_4734" data-name="Group 4734" transform="translate(109.225 9.933)">
          <path id="Path_4247" data-name="Path 4247" class="cls-4" d="M-28.748-19.656h-1.237V-17.2q0,.938.655.938a2.231,2.231,0,0,0,.5-.053l.031.854a2.506,2.506,0,0,1-.874.126c-.888,0-1.416-.489-1.416-1.771v-2.552h-.737V-20.5h.737v-.927l1.1-.334v1.26h1.237v.845" transform="translate(31.826 21.761)"/>
        </g>
        <g id="Group_4735" data-name="Group 4735" transform="translate(113.864 8.871)">
          <path id="Path_4248" data-name="Path 4248" class="cls-4" d="M-41.057-68.963h-1.126v-2.885c0-.906-.344-1.364-1.02-1.364a1.1,1.1,0,0,0-1.124,1.2v3.051h-1.126v-7.384h1.126v3.04h.022a1.7,1.7,0,0,1,1.521-.823c1.072,0,1.728.833,1.728,2.156v3.01" transform="translate(45.453 76.347)"/>
        </g>
        <g id="Group_4736" data-name="Group 4736" transform="translate(119.545 11.079)">
          <path id="Path_4249" data-name="Path 4249" class="cls-4" d="M-32.036-19.747c0-.781-.395-1.333-1.114-1.333a1.335,1.335,0,0,0-1.23,1.333Zm1.031.8H-34.38a1.451,1.451,0,0,0,1.593,1.5,3.773,3.773,0,0,0,1.363-.239l.176.781a4.218,4.218,0,0,1-1.7.312,2.35,2.35,0,0,1-2.52-2.551,2.471,2.471,0,0,1,2.394-2.718,2.127,2.127,0,0,1,2.1,2.406,2.169,2.169,0,0,1-.038.51" transform="translate(35.466 21.861)"/>
        </g>
      </g>
    </g>
  </g>
</svg>
