<?xml version="1.0" encoding="utf-8"?>
<!-- Generator: Adobe Illustrator 16.0.0, SVG Export Plug-In . SVG Version: 6.00 Build 0)  -->
<!DOCTYPE svg PUBLIC "-//W3C//DTD SVG 1.1//EN" "http://www.w3.org/Graphics/SVG/1.1/DTD/svg11.dtd">
<svg version="1.1" id="Layer_1" xmlns="http://www.w3.org/2000/svg" xmlns:xlink="http://www.w3.org/1999/xlink" x="0px" y="0px"
	 width="977.777px" height="397.222px" viewBox="0 0 977.777 397.222" enable-background="new 0 0 977.777 397.222"
	 xml:space="preserve">
<g>
	<path fill-rule="evenodd" clip-rule="evenodd" fill="none" d="M496.736,271.66c1.605,3.112,1.489,4.178-1.813,5.873
		C375.887,338.611,256.909,399.8,137.988,461.103c-3.497,1.804-4.504,1.091-6.146-2.108
		C75.391,349.008,18.849,239.068-37.785,129.176c-1.674-3.248-1.501-4.456,1.922-6.207C23.618,92.54,83.013,61.948,142.429,31.39
		c59.563-30.632,119.148-61.225,178.636-92.002c3.408-1.762,4.267-0.991,5.809,2.014"/>
	
		<linearGradient id="SVGID_1_" gradientUnits="userSpaceOnUse" x1="58.4702" y1="186.4595" x2="362.4277" y2="186.4595" gradientTransform="matrix(0.8812 -0.4728 0.4728 0.8812 -69.8462 122.2581)">
		<stop  offset="0" style="stop-color:#FFFFFF"/>
		<stop  offset="0.5376" style="stop-color:#000000"/>
	</linearGradient>
	<path fill-rule="evenodd" clip-rule="evenodd" fill="url(#SVGID_1_)" d="M303.463,274.568c-1.309,0.107-2.614,0.258-3.925,0.311
		c-0.84,0.036-1.786-0.073-2.174,0.813c-0.452,1.035,0.008,2.116,0.858,2.637c6.202,3.811,12.582,7.032,20.85,5.607
		c-2.341-3.438-5.543-4.194-8.229-5.73c-2.405-1.374-5.711-0.893-7.436-3.636c1.862-2.165,0.141-3.856-1.045-5.212
		c-3.273-3.745-7.109-6.94-11.643-9.041c-1.552-0.72-3.832-2.454-5.253,0.001c-1.152,1.993,0.332,3.683,1.806,5.171
		C291.81,270.071,297.302,272.905,303.463,274.568z M121.099,117.794c6.812-7.152,4.163-14.073-1.722-20.803
		c-1.527-1.745-2.782-3.744-4.035-5.708c-1.986-3.109-4.671-4.484-8.413-4.166c-6.638,0.564-13.291,0.995-19.945,1.35
		c-3.929,0.209-6.657,2.267-8.275,5.545c-3.02,6.116-6.182,12.175-8.232,18.741c-1.112,3.562-0.644,6.472,2.007,9.138
		c4.112,4.131,8.15,8.34,12.167,12.564c1.45,1.525,3.172,2.961,5.205,2.458C102.119,133.875,116.702,134.625,121.099,117.794z
		 M73.503,223.326c-0.015,0.029-0.03,0.06-0.043,0.088c2.394,1.157,4.782,2.324,7.184,3.468c7.831,3.728,25.223-6.952,25.54-15.678
		c0.005-0.166-0.008-0.332,0.002-0.498c0.698-12.864-1.758-24.131-14.864-30.283c-2.065-0.969-3.731-2.758-5.655-4.063
		c-2.354-1.594-4.832-2.007-7.524-0.663c-5.352,2.668-10.753,5.24-16.126,7.863c-3.029,1.48-4.334,3.937-4.056,7.271
		c0.537,6.458,1.041,12.917,1.617,19.369c0.421,4.701,2.716,8.056,7.181,9.897C69.06,221.046,71.259,222.241,73.503,223.326z
		 M139.396,59.862c6.565,0.772,14.47,2.304,22.405,2.479c9.492,0.209,17.22-5.321,25.163-9.741c0.641-0.357,1.141-1.209,1.417-1.942
		c1.739-4.607-3.195-16.716-7.869-18.537c-7.284-2.841-14.708-5.323-22.1-7.878c-2.033-0.703-4.088-0.816-6.345-0.591
		c-9.306,0.928-15.781,7.391-23.364,11.63c-2.22,1.241-2.215,3.975-1.147,6.333c2.131,4.701,4.32,9.376,6.473,14.068
		C134.855,57.484,136.479,58.337,139.396,59.862z M135.638,296.017c1.107-1.583,1.852-3.572,0.846-5.15
		c-3.886-6.102-6.378-13.204-12.662-17.627c-7.156-5.039-15.778-5.889-23.782-8.475c-1.855-0.601-3.966,0.267-5.475,1.816
		c-3.25,3.342-6.447,6.735-9.737,10.039c-2.649,2.661-2.795,5.47-0.868,8.571c3.164,5.094,6.167,10.291,9.48,15.284
		c1.857,2.801,4.447,5.045,7.942,5.545c6.759,0.968,13.548,1.72,20.319,2.608c3.124,0.411,5.593-0.678,7.394-3.171
		C131.337,302.356,133.461,299.167,135.638,296.017z M104.489,184.157c2.113,1.024,4.101,1.378,6.271,0.217
		c3.667-1.964,7.46-3.701,11.048-5.791c2.613-1.519,4.9-3.844,5.666-6.682c3.064-11.363,6.31-22.93-5.997-31.436
		c-0.531-0.368-0.928-0.954-1.322-1.489c-2.068-2.809-4.823-3.275-7.981-2.371c-5.436,1.555-10.887,3.066-16.299,4.699
		c-3.982,1.2-6.449,3.66-6.975,8.07c-0.593,4.95-1.517,9.865-2.475,14.761c-0.643,3.292,0.234,6.012,2.745,8.044
		C94.206,176.259,99.375,180.174,104.489,184.157z M170.828,86.115c3.125-5.991-2.426-17.827-8.837-18.856
		c-6.888-1.107-13.852-1.925-20.815-2.313c-3.596-0.201-7.173,0.989-9.797,3.924c-3.546,3.966-7.017,8.007-10.714,11.83
		c-2.251,2.327-2.309,4.64-0.809,7.207c0.921,1.576,1.983,3.073,3.008,4.585c10.036,14.825,5.92,11.628,23.214,10.467
		C157.92,102.165,164.019,93.426,170.828,86.115z M114.32,222.139c-2.856-2.455-6.45-1.468-10.097,1.624
		c-2.914,2.468-6.171,4.532-9.239,6.823c-2.43,1.813-4.04,4.134-3.111,7.288c1.691,5.746,3.477,11.471,5.418,17.138
		c0.969,2.825,3.304,4.644,6.022,5.59c5.97,2.083,12.032,3.901,18.046,5.855c1.851,0.602,3.605,0.434,5.327-0.411
		c7.221-3.551,11.022-11.612,8.957-19.294c-0.908-3.371-2.052-6.684-3.187-9.991c-1.121-3.273-3.441-5.731-6.199-7.592
		C122.818,226.848,119.107,224.927,114.32,222.139z M125.934,119.998c-1.549,3.209-2.759,5.768-4.016,8.301
		c-1.224,2.463-1.233,5.06,0.423,7.094c3.034,3.73,6.374,7.225,9.741,10.666c1.177,1.203,2.954,1.697,4.659,1.202
		c9.09-2.645,18.657-4.596,22.405-15.189c0.489-1.383,1.37-2.681,2.289-3.847c3.221-4.083,3.194-8.146,0.327-12.395
		c-1.393-2.064-2.585-4.27-3.833-6.429c-0.866-1.501-2.043-3.174-3.713-3.01c-7.825,0.766-16.048-0.238-23.096,4.451
		C127.666,113.141,127.866,117.62,125.934,119.998z M122.767,222.688c3.027,0.966,5.285,4.166,8.906,3.814
		c3.11-0.302,13.152-9.744,13.93-12.881c2.786-11.266-4.759-26.899-15.518-32.165c-1.431-0.701-2.88-0.631-4.363-0.229
		c-13.265,3.586-16.951,8.861-15.745,22.536c0.015,0.164,0.056,0.331,0.048,0.495C109.671,213.53,113.375,220.029,122.767,222.688z
		 M156.276,356.608c2.744,1.02,5.848,3.212,9.825,3.774c10.011,1.416,18.905-2.886,28.139-5.169
		c4.885-1.209,7.665-12.004,4.081-14.275c-5.03-3.189-10.398-5.989-16.192-7.629c-8.485-2.404-17.133-0.998-25.727-0.758
		c-3.936,0.111-6.362,2.135-8.086,5.608c-5.749,11.583-5.797,11.587,5.835,17.422C154.598,355.806,155.05,356.017,156.276,356.608z
		 M165.532,300.731c-4.835-3.388-11.416-2.977-17.553-4.172c-5.09-0.993-15.646,9.957-14.861,15.095
		c0.073,0.481,0.203,1.07,0.526,1.377c5.157,4.889,9.387,11.086,16.142,13.832c8.474,3.446,17.439,1.629,26.073,0.421
		c5.429-0.759,9.013-10.612,5.391-14.175C176.697,308.634,172.581,303.388,165.532,300.731z M226.015,34.269
		c-10.016-4.639-20.606-2.406-31.182-0.503c-1.026,0.185-1.75,0.866-2.143,1.893c-1.347,3.521,3.016,14.96,6.476,16.232
		c14.2,5.221,28.754,7.467,43.819,4.634c4.022-0.755,5.726-3.672,4.244-7.278c-0.973-2.362-2.567-4.246-4.828-5.541
		C237.061,40.653,231.738,37.568,226.015,34.269z M155.238,262.891c-14.545-6.235-15.71-6.02-23.009,3.812
		c-0.395,0.533-0.817,1.059-1.122,1.642c-0.72,1.381-1.133,3.019-0.398,4.331c3.54,6.321,6.325,13.199,12.358,17.792
		c5.377,4.091,12.045,3.136,18.111,4.457c5.782,1.259,13.479-8.298,10.601-13.523C167.617,273.844,164.187,265.203,155.238,262.891z
		 M162.293,177.196c4.727-10.028,3.396-19.961-3.848-28.14c-2.042-2.307-4.245-3.146-7.062-1.962
		c-16.675,7.01-15.793,2.721-18.76,20.997c-0.026,0.164-0.073,0.325-0.104,0.489c-1.33,7.034,7.122,18.935,14.195,19.946
		c0.637,0.092,1.415,0.131,1.946-0.149C153.808,185.671,159.078,183.092,162.293,177.196z M179.494,82.393
		c0.451,0.096,1.25,0.33,2.069,0.439c13.039,1.732,25.341-0.205,36.762-7.08c2.763-1.661,3.484-3.842,3.012-6.701
		c-0.507-3.074-0.477-6.493-4.437-7.594c-5.61-1.561-11.147-3.446-16.827-4.684c-10.702-2.333-18.547,4.495-27.057,9.033
		c-0.452,0.241-0.628,1.13-0.79,1.756C171.301,71.153,175.861,80.776,179.494,82.393z M145.99,255.051
		c5.002,1.958,8.865,3.48,12.734,4.983c1.834,0.713,3.723,0.739,5.131-0.71c4.378-4.505,8.376-9.004,5.221-16.243
		c-1.06-2.429-1.801-5.006-2.56-7.554c-2.418-8.134-9.565-11.429-16.199-14.355c-5.141-2.269-7.485,4.371-11.435,6.426
		c-0.143,0.074-0.25,0.218-0.383,0.317c-2.93,2.205-3.555,4.928-2.233,8.363c1.493,3.877,2.802,7.83,4.013,11.805
		C141.385,251.71,143.861,253.956,145.99,255.051z M202.622,100.873c2.279-4.584,0.054-12.582-4.252-13.145
		c-10.631-1.392-21.176-3.143-29.695,7.021c-8.393,10.013-8.968,9.532-1.695,20.374c0.37,0.55,0.744,1.103,1.162,1.616
		c0.775,0.951,1.764,1.349,3.028,1.432C181.742,118.858,198.151,109.865,202.622,100.873z M163.215,132.879
		c-0.506,1.047-1.013,2.094-1.518,3.141c-3.208,6.643-0.759,14.836,5.51,18.531c1.085,0.639,2.227,0.738,3.361,0.4
		c5.578-1.658,11.339-3.217,15.081-8.057c2.209-2.855,3.595-6.336,5.491-9.449c3.086-5.065,1.912-13.415-2.47-17.211
		c-0.839-0.725-1.752-1-2.747-0.84C176.584,120.896,166.472,121.123,163.215,132.879z M161.518,223.774
		c1.285,0.502,3.073,2.132,4.744,1.011c4.417-2.966,9.172-6.192,9.698-11.972c0.945-10.374-0.99-19.904-10.516-26.257
		c-0.972-0.647-1.792-1.445-3.063-1.453c-3.121-0.024-12.603,7.025-13.511,10.077C145.441,206.711,150.338,218.041,161.518,223.774z
		 M186.374,311.315c5.773,3.126,12.08,1.787,18.151,2.305c3.054,0.26,5.011-0.97,6.282-3.787c1.319-2.923,1.107-5.443-1.067-7.814
		c-7.791-8.503-17.183-13.907-28.807-15.216c-3.306-0.372-5.065,1.343-6.183,3.916c-1.25,2.875-4.835,5.831-1.959,9.01
		C176.771,304.128,181.133,308.306,186.374,311.315z M189.913,179.461c1.261-6.181,5.564-14.693-1.813-22.707
		c-1.296-1.409-2.487-2.577-4.602-2.408c-8.447,0.677-14.021,5.573-15.747,13.936c-0.438,2.117-0.899,4.229-1.308,6.351
		c-1.038,5.376,4.69,15.017,9.907,16.705c1.005,0.324,2.005,0.236,2.879-0.328C183.122,188.496,187.372,186.359,189.913,179.461z
		 M193.207,333.54c10.46,7.354,21.418,3.714,32.293,1.41c2.504-0.531,3.201-2.574,3.537-4.886c0.373-2.568-0.817-4-2.931-5.183
		c-10.392-5.815-21.355-9.102-33.41-8.121c-4.712,0.384-7.593,2.956-8.719,8.08c-0.961,4.375,2.426,5.294,5.181,6.736
		C190.488,332.27,191.856,332.886,193.207,333.54z M182.872,256.426c-1.707-0.656-3.403-1.34-5.123-1.963
		c-2.803-1.015-5.179-0.647-6.993,2.015c-2.087,3.067-5.903,5.667-3.59,10.059c5.048,9.586,10.626,18.653,23.257,19.209
		c2.445,0.108,5.102,1.467,6.812-1.256c1.847-2.944,4.324-6.292,2.436-9.724C195.602,267.373,191.661,259.623,182.872,256.426z
		 M205.731,345.323c-3.255,6.898-2.043,8.999,5.252,10.206c6.719,1.113,13.506,1.931,20.13,0.482
		c6.962-1.523,13.438-4.733,19.614-8.3c1.53-0.885,3.127-2.732,2.345-5.048c-0.613-1.813-2.306-2.174-3.996-2.483
		c-13.058-2.394-25.965-1.426-38.776,1.696C208.304,342.362,206.547,343.236,205.731,345.323z M182.45,252.718
		c3.087,0.923,6.015,4.739,9.51,2.068c3.066-2.341,5.459-6.228,4.433-10.039c-2.21-8.201-3.548-17.179-12.534-21.631
		c-2.152-1.066-4.135-3.958-6.578-2.073c-3.296,2.542-8.73,4.982-7.845,9.494C171.122,239.139,170.952,249.523,182.45,252.718z
		 M227.563,112.498c2.113-4.31,0.659-10.344-2.876-10.475c-5.393-0.198-10.849-1.016-16.229,1.146
		c-6.21,2.499-9.795,7.834-14.087,12.306c-2.655,2.767,2.122,12.719,5.786,13.04C207.892,129.193,223.991,119.785,227.563,112.498z
		 M246.088,89.017c1.905-3.819,0.25-6.871-3.81-8.246c-11.189-3.791-21.721-3.226-31.915,3.258c-3.176,2.019-5.268,3.79-4.342,7.845
		c0.951,4.164,2.678,6.741,7.611,6.874c10.206,0.273,19.715-1.892,28.702-6.611C243.803,91.364,245.377,90.708,246.088,89.017z
		 M198.948,217.831c4.297-9.236,0.644-23.208-7.044-28.449c-0.651-0.442-1.479-0.884-2.221-0.88
		c-3.776,0.016-11.045,7.012-10.982,10.882c0.077,4.646,0.44,9.311,1.066,13.915c0.469,3.46,8.41,11.002,11.54,10.816
		C195.445,223.867,197.026,220.066,198.948,217.831z M214.137,146.529c0.944-1.956,1.994-3.688,2.639-5.558
		c1.19-3.463-1.406-10.841-3.867-11.471c-3.501-0.896-14.434,3.167-16.617,6.499c-2.359,3.604-4.615,7.324-6.437,11.218
		c-2.426,5.184,1.172,8.911,4.002,12.499c2.593,3.288,5.381,0.64,8.045-0.415C208.003,156.887,211.818,152.298,214.137,146.529z
		 M262.188,66.188c-10.517-5.208-14.463-5.772-29.66-4.025c-2.563,0.295-6.315-0.621-6.182,3.833
		c0.121,4.011,0.335,7.936,5.891,8.819c6.007,0.954,11.913,2.126,18.039,2.628c6.243,0.515,12.197-0.229,18.245-0.945
		c1.441-0.169,2.987-1.1,3.203-2.755c0.233-1.788-0.825-3.229-2.371-4.06C267.014,68.426,264.58,67.344,262.188,66.188z
		 M211.885,184.736c1.539-7.326,5.733-14.941-0.335-22.551c-0.961-1.207-1.628-2.359-3.532-2.139
		c-5.913,0.676-11.844,6.042-13.085,11.984c-0.511,2.446-1.169,4.86-1.677,7.307c-0.955,4.599,2.977,12.615,7.659,13.79
		c4.551,1.143,6.852-2.997,9.297-6.07C210.73,186.405,211.188,185.708,211.885,184.736z M205.795,252.109
		c-1.78-0.616-4.579-3.43-7.27-0.47c-2.258,2.479-5.27,5.526-3.351,9.253c4.185,8.125,8.363,16.532,19.136,17.69
		c2.222,0.239,4.592,1.813,6.347-0.813c1.708-2.561,3.123-5.484,1.538-8.422C218.476,262.451,214.437,255.72,205.795,252.109z
		 M217.733,282.4c-2.888-0.749-5.808-1.398-8.659-2.274c-2.831-0.869-4.843-0.247-6.089,2.56c-1.263,2.851-3.248,5.563-0.215,8.6
		c7.08,7.089,14.668,12.961,25.526,12.091c2.095-0.168,4.648,0.762,5.748-1.728c1.22-2.76,0.783-5.593-1.432-7.836
		C228.189,289.333,223.614,285.03,217.733,282.4z M206.694,249.07c7.528,4.384,12.149,2.134,11.333-5.668
		c-0.804-7.675-2.759-15.469-9.959-20.245c-1.888-1.25-3.566-4.431-6.351-2.229c-2.795,2.209-6.865,4.733-5.88,8.602
		C197.758,237.081,197.513,246.307,206.694,249.07z M223.7,319.342c7.044,4.788,15.893,3.925,24.821,2.287
		c1.612-0.295,3.481-0.335,3.721-2.559c0.25-2.314-0.314-4.413-2.617-5.418c-9.404-4.107-18.803-8.174-29.433-7.884
		c-3.192,0.088-4.945,1.314-5.767,4.293c-0.868,3.145,0.402,5.099,3.212,6.362C219.303,317.171,220.929,318.002,223.7,319.342z
		 M247.308,122.535c3.025-6.48,1.284-8.652-4.554-9.181c-10.594-0.961-16.962,5.537-23.203,12.249
		c-2.679,2.88,0.228,5.939,1.008,8.852c0.421,1.576,1.386,2.662,3.248,2.406C234.142,135.428,241.61,129.509,247.308,122.535z
		 M279.693,69.55c5.286,1.458,10.567,2.932,15.862,4.361c0.988,0.268,2.035,0.228,2.743-0.648c0.697-0.865,0.111-1.555-0.548-2.105
		c-7.936-6.611-15.815-13.393-25.605-17.131c-4.631-1.767-9.595-2.688-14.436-3.869c-1.668-0.407-3.693-1.676-5.013,0.39
		c-1.282,2.008-0.638,4.122,0.488,6.122c1.051,1.865,2.883,2.626,4.553,3.716C264.5,64.805,272.641,65.854,279.693,69.55z
		 M219.969,217.918c3.067-6.501,0.313-20.162-4.883-25.087c-1.91-1.809-3.494-1.922-5.688-0.503
		c-8.621,5.573-8.928,21.105-0.469,28.044C214.033,224.56,217.163,223.864,219.969,217.918z M235.741,149.602
		c0.902-1.292,1.045-2.783,1.163-4.281c0.529-6.768-1.513-8.506-7.97-6.777c-7.774,2.079-14.732,9.946-15.782,18.002
		c-0.47,3.606,1.362,6.581,3.699,8.89c2.344,2.315,4.593-0.276,6.743-1.207C230.098,161.42,232.019,154.745,235.741,149.602z
		 M266.006,101.167c1.485-2.907,0.969-4.332-1.865-5.35c-11.123-3.989-21.239-1.176-30.894,4.595
		c-3.057,1.83-1.783,4.601-1.38,7.186c0.44,2.838,2.375,3.122,4.746,3.234c8.177,0.387,15.719-2,23.117-5.055
		C262.175,104.767,264.755,103.845,266.006,101.167z M230.806,187.062c1.276-5.715,4.776-12.405,0.511-19.522
		c-0.763-1.276-1.251-2.706-3.264-2.452c-4.296,0.54-9.622,5.03-10.74,9.369c-0.829,3.222-1.579,6.471-2.189,9.741
		c-0.628,3.365,3.067,10.737,6.037,11.156c3.981,0.561,6.119-2.523,7.979-5.549C229.486,189.238,229.829,188.668,230.806,187.062z
		 M230.111,271.318c0.293,0.102,1.515,0.771,2.797,0.918c2.6,0.299,5.493,3.293,7.761,0.211c2.356-3.203,0.9-6.593-0.931-9.753
		c-3.216-5.548-7.14-10.376-13.006-13.287c-1.959-0.973-3.884-3.183-6.272-1.038c-2.355,2.116-4.054,5.082-2.66,7.988
		C220.485,261.96,223.062,267.881,230.111,271.318z M228.913,247.464c5.106,2.526,7.938,0.937,7.63-5.594
		c-0.328-6.989-2.871-13.333-8.052-18.229c-1.665-1.574-3.323-4.669-6.104-3.241c-2.961,1.521-5.574,4.362-5.117,7.966
		C218.243,236.056,220.084,243.511,228.913,247.464z M239.722,278.04c-2.328-2.249-5.413-2.519-8.264-3.251
		c-1.761-0.453-4.024-1.825-5.247,0.804c-1.164,2.511-2.769,5.247-0.334,7.867c5.86,6.31,12.232,11.77,21.596,11.563
		c2.035-0.046,4.603,1.208,5.782-1.41c1.246-2.769,0.057-5.358-2.09-7.13C247.5,283.458,244.535,279.438,239.722,278.04z
		 M275.005,329.983c0.052-3.027-2.107-3.455-4.222-3.9c-8.177-1.722-16.453-0.89-24.687-0.825c-2.958,0.021-5.92,0.772-8.857,1.322
		c-2.682,0.502-3.182,2.546-3.199,4.897c-0.015,1.964,0.771,3.066,2.805,3.397c12.298,2.014,24.368,1.847,35.908-3.604
		C273.488,330.923,274.171,330.463,275.005,329.983z M288.514,86.942c-10.039-5.238-20.622-7.022-31.796-5.314
		c-2.514,0.385-5.008,0.284-5.173,3.945c-0.155,3.424,1.476,4.642,4.549,5.283c9.639,2.013,19.337,2.376,29.107,1.483
		c1.139-0.105,2.313-0.356,3.358-0.803c1.024-0.439,2.255-0.967,2.238-2.385C290.781,87.745,289.605,87.278,288.514,86.942z
		 M237.345,217.934c2.777-5.747,0.739-17.762-3.577-22.562c-2.088-2.322-3.823-1.907-5.973-0.281
		c-6.244,4.724-6.252,18.815,0.042,24.603C232.526,224.006,234.595,223.622,237.345,217.934z M239.268,134.936
		c-1.059,2.865-0.625,5.681,1.027,8.066c1.53,2.212,3.643,0.437,5.452,0.057c6.256-1.311,10.834-5.382,15.386-9.498
		c2.01-1.82,3.736-3.82,4.22-6.555c0.335-1.902,0.232-3.522-2.403-3.962C255.177,121.749,242.472,128.027,239.268,134.936z
		 M235.051,156.297c-0.75,1.838-1.788,3.616-2.19,5.526c-0.84,3.981,2.479,9.02,5.256,8.361c6.82-1.616,15.944-14.709,15.174-21.672
		c-0.33-3.005-1.235-4.248-4.795-3.612C241.599,146.132,237.831,150.459,235.051,156.297z M262.797,302.602
		c-5.973-2.72-12.417-5.179-19.55-5.328c-2.348-0.05-4.329,0.078-5.256,2.634c-0.944,2.604-0.126,4.656,2.171,5.955
		c6.724,3.8,13.769,6.845,21.695,5.828c3.031-0.388,7.923,1.428,8.748-2.358C271.626,304.643,266.147,304.53,262.797,302.602z
		 M281.521,107.964c-9.964-3.536-19.021-0.914-27.611,4.158c-2.24,1.321-2.568,3.813-1.875,6.232
		c0.666,2.319,2.694,2.065,4.525,2.091c8.333,0.126,15.887-2.771,23.292-6.125c1.139-0.517,2.083-1.653,2.881-2.685
		C284.069,109.907,283.618,108.565,281.521,107.964z M246.711,189.56c0.929-4.846,4.298-10.455,1.641-16.841
		c-1.191-2.863-2.778-3.591-5.828-2.286c-7.342,3.146-7.589,10.004-8.781,16.255c-0.839,4.397,1.697,8.666,5.129,9.952
		C242.426,197.968,244.515,193.663,246.711,189.56z M247.193,245.673c3.882,1.805,4.551-1.458,4.573-3.89
		c0.073-7.707-2.268-14.616-8.218-19.939c-2.337-2.091-4.297-2.004-6.15,0.721c-1.467,2.153-2.241,4.359-1.863,6.98
		C236.597,236.9,239.696,242.784,247.193,245.673z M249.334,267.246c1.862,0.529,4.519,3.048,7.122,1.013
		c1.95-1.524,1.365-4.463,0.387-6.545c-2.857-6.068-6.468-11.616-12.78-14.708c-1.713-0.838-3.635-2.406-5.459-0.554
		c-1.833,1.859-2.972,4.597-1.634,6.854C240.038,258.483,242.218,264.576,249.334,267.246z M254.964,272.155
		c-1.521-0.65-3.021-1.359-4.568-1.937c-1.99-0.74-4.197-1.955-5.807,0.452c-1.525,2.285-1.546,4.939,0.438,6.882
		c5.213,5.108,10.535,10.217,18.486,10.558c1.873,0.08,4.316,1.307,5.426-0.963c1.16-2.376-0.409-4.596-2.064-6.195
		C263.31,277.512,259.735,274.004,254.964,272.155z M252.446,217.488c1.321-5.875,1.628-12.667-2.215-19.1
		c-2.119-3.542-4.433-3.309-7.131-0.519c-4.493,4.651-3.677,16.909,1.574,21.94C248.367,223.348,249.665,223.118,252.446,217.488z
		 M251.879,160.755c-2.023,3.619-3.755,7.016-1.491,10.964c0.954,1.663,1.971,2.386,4.012,1.615
		c5.162-1.954,13.024-12.758,13.137-18.329c0.086-4.364-1.14-5.271-5.463-4.018C256.871,152.494,253.766,156.182,251.879,160.755z
		 M300.529,99.085c-6.144-2.837-14.425-3.736-24.037-2.661c-2.245,0.25-4.932-0.005-5.147,3.374
		c-0.213,3.356,2.333,3.601,4.642,3.947c7.486,1.123,14.989,1.966,22.587,1.375c2.491-0.195,5.941,0.099,6.54-2.414
		C305.785,99.878,301.752,100.417,300.529,99.085z M278.324,136.838c1.065-2.667,3.131-5.13-0.781-5.98
		c-6.416-1.392-18.534,5.345-21.189,11.508c-1.437,3.333,0.388,7.709,3.04,7.038C267.374,147.387,273.607,142.683,278.324,136.838z
		 M263.884,299.764c5.569,3.127,11.619,3.589,17.8,3.151c1.571-0.11,3.876,0.333,4.364-1.513c0.592-2.243-1.559-3.389-3.239-4.422
		c-4.998-3.073-10.586-4.768-16.245-5.728c-3.158-0.536-8.038-3.564-9.627,1.021C255.303,296.991,260.682,297.996,263.884,299.764z
		 M260.433,191.112c0.984-2.876,2.583-7.083,2.526-11.651c-0.028-2.329-0.142-5.125-2.539-6.055
		c-2.414-0.937-4.305,1.216-5.966,2.781c-3.937,3.702-4.33,8.862-5.042,13.728c-0.52,3.548,1.224,7.215,4.41,8.143
		c2.932,0.854,4.425-2.72,5.762-5.191C259.664,192.72,259.73,192.567,260.433,191.112z M290.123,315.554
		c-10.093-1.719-20.475-1.799-30.873-0.306c-1.729,0.25-2.585,1.351-2.438,3.173c0.121,1.507,0.764,2.557,2.332,2.791
		c10.57,1.578,21.111,2.513,31.28-2.033c0.707-0.316,1.735-0.859,1.823-1.42C292.424,316.641,291.257,316.186,290.123,315.554z
		 M298.973,329.23c-2.311-1.154-3.677-0.263-5.087,0.004c-5.523,1.048-10.772,3.985-16.049,4.572
		c-5.986,0.665-11.113,3.059-16.616,4.641c-2.162,0.621-3.948,2.594-3.157,4.93c0.813,2.402,3.213,1.077,4.814,0.696
		 M294.577,117.492c-5.323-2.285-20.431,0.423-24.569,4.565c-1.556,1.558-2.008,3.503-1.28,5.519
		c0.694,1.921,2.496,1.234,3.909,1.18c7.267-0.274,13.951-2.79,20.541-5.56c1.012-0.427,1.854-1.393,2.614-2.252
		C297.166,119.391,296.669,118.255,294.577,117.492z M313.7,91.571c0.216-0.368,0.432-0.738,0.647-1.107
		c-1.238-1.033-2.423-2.135-3.718-3.09c-8.609-6.349-18.198-10.546-28.605-12.921c-2.029-0.462-4.633-1.918-5.695,0.816
		c-1.002,2.588,1.61,3.637,3.544,4.603c1.936,0.966,4.118,1.568,5.835,2.819c3.189,2.321,7.413,0.7,10.335,2.654
		C301.511,89.005,307.813,89.534,313.7,91.571z M264.666,263.555c1.531,0.337,3.547,2.615,5.497,0.644
		c2.1-2.124,0.834-4.744-0.291-6.95c-2.442-4.791-5.87-8.834-10.175-12.058c-1.51-1.131-3.241-2.994-5.27-1.332
		c-1.905,1.559-2.756,4.016-1.641,6.313C255.4,255.56,258.25,260.865,264.666,263.555z M259.992,242.791
		c3.222,1.857,5.36,0.759,5.142-3.331c-0.332-6.179-1.777-12.189-6.347-16.84c-1.191-1.213-2.266-3.265-4.489-2.339
		c-1.824,0.757-2.509,2.559-2.941,4.39C249.96,230.576,254.194,239.45,259.992,242.791z M264.459,219.298
		c2.495-5.454,1.653-15.447-1.376-20.154c-1.346-2.094-2.471-2.429-4.8-0.955c-4.928,3.122-4.646,19.524,1.846,22.847
		C262.879,222.443,263.687,220.792,264.459,219.298z M271.591,280.604c1.347,1.083,3.237,1.704,5.259,1.771
		c1.878,0.064,4.458,1.56,5.445-0.658c0.995-2.234-0.655-4.489-2.438-6.081c-4.205-3.75-8.419-7.543-13.977-9.235
		c-1.73-0.527-3.805-2.544-5.224,0.065c-1.142,2.101-1.183,4.649,0.854,6.426C264.615,275.599,267.361,278.802,271.591,280.604z
		 M276.939,166.182c1.412-2.865,2.72-5.039,2.827-7.606c0.076-1.802-0.238-3.289-2.708-3.135
		c-5.783,0.358-14.581,11.144-13.731,16.971c0.674,4.607,3.137,5.652,6.716,2.507C273.015,172.306,275.818,169.415,276.939,166.182z
		 M290.291,142.71c1.88-3.654,1.465-5.195-2.162-5.086c-7.748,0.234-12.75,5.075-17.424,10.338
		c-1.256,1.414-0.792,3.503,0.002,5.237c0.61,1.334,1.794,1.359,2.986,1.012C280.833,152.133,286.183,147.571,290.291,142.71z
		 M272.73,193.232c0.425-4.404,3.17-9.1,1.47-14.421c-0.799-2.502-1.884-3.083-4.307-1.581c-4.963,3.075-5.834,8.125-6.863,13.155
		c-0.732,3.57,0.173,7.411,3.234,8.636C269.891,200.474,270.517,195.95,272.73,193.232z M292.602,289.389
		c-5.018-2.583-9.963-3.964-15.03-4.821c-1.743-0.296-4.384-1.627-5.168,1.087c-0.736,2.553,1.205,4.215,3.415,5.428
		c4.435,2.434,9.247,3.769,14.156,4.554c2.959,0.474,7.715,1.353,8.519-1.231C299.392,291.514,294.634,290.714,292.602,289.389z
		 M317.554,112.948c-8.493-5.18-17.464-5.52-26.627-4.68c-1.977,0.181-3.627,1.185-3.792,3.299c-0.184,2.372,1.92,2.403,3.492,2.61
		c7.527,0.985,15.091,1.318,22.675,0.911C314.788,115.006,316.262,114.734,317.554,112.948z M275.942,259.892
		c2.184-0.217,4.438,2.851,6.324,0.578c1.585-1.908,0.136-4.438-1.049-6.48c-2.349-4.045-5.164-7.728-8.89-10.608
		c-1.404-1.085-2.972-2.616-4.854-1.165c-1.636,1.259-1.693,3.329-1.009,5.05C268.447,252.261,271.363,256.63,275.942,259.892z
		 M271.923,240.77c4.165,2.144,4.904-0.083,4.87-2.392c-0.082-5.593-1.496-10.842-5.312-15.157
		c-1.155-1.306-2.158-3.447-4.297-2.703c-2.058,0.715-2.616,2.935-2.918,4.901C263.509,230.334,268.383,239.125,271.923,240.77z
		 M306.551,125.91c-5.068-2.15-19.023,0.58-22.782,4.458c-1.127,1.163-1.676,2.56-1.067,4.097c0.633,1.601,2.196,1.269,3.472,1.221
		c6.437-0.235,12.256-2.799,18.158-4.995c1.042-0.388,1.96-1.226,2.8-2.005C308.379,127.535,308.657,126.433,306.551,125.91z
		 M275.868,219.208c1.912-6.187,1.825-12.308-0.907-18.3c-1.566-3.433-3.431-2.957-5.452-0.364
		c-3.412,4.378-2.366,15.718,1.689,19.476C273.229,221.903,274.614,221.672,275.868,219.208z M307.162,308.725
		c-1.665-1.853-3.35-2.327-5.219-2.605c-7.735-1.147-15.483-0.658-23.229-0.275c-1.404,0.071-3.348-0.084-3.38,2.041
		c-0.031,2.012,1.599,2.819,3.336,3.09C288.216,312.457,297.706,313.034,307.162,308.725z M284.766,275.836
		c1.505,1.025,3.441,1.479,5.44,1.689c1.256,0.131,2.772,0.903,3.621-0.605c0.782-1.391-0.275-2.595-1.066-3.597
		c-3.679-4.663-8.649-7.682-13.795-10.398c-1.589-0.837-3.68-1.668-4.958,0.277c-1.22,1.857-0.591,3.902,1.037,5.407
		C277.965,271.307,280.774,274.177,284.766,275.836z M288.058,168.642c1.299-1.842,2.167-3.983,2.389-6.331
		c0.136-1.436-0.167-2.569-2.092-2.585c-6.003-0.045-14.416,12.156-12.361,17.796c0.948,2.601,2.113,2.424,3.991,1.089
		C283.583,176.051,286.05,172.611,288.058,168.642z M282.614,195.786c1.445-3.95,3.124-8.293,2.403-13.064
		c-0.6-3.962-2.095-4.505-5.16-1.797c-4.202,3.709-4.919,8.872-5.043,14.003c-0.051,2.126,0.529,5.118,3.288,5.453
		C280.601,200.687,281.328,197.986,282.614,195.786z M282.671,153.719c-0.291,1.176-0.743,2.639-0.014,4.093
		c0.584,1.164,1.674,0.983,2.612,0.651c6.598-2.327,12.057-6.251,16.132-11.957c1.311-1.837,0.852-3.056-1.661-3.216
		C295.016,142.989,284.763,149.075,282.671,153.719z M309.8,289.347c-3.115-4.93-18.086-11.549-22.538-10.034
		c-3.278,1.116-1.588,3.441-0.119,4.47C293.847,288.481,301.311,290.373,309.8,289.347z M286.432,217.556
		c0.845-4.628,1.152-10.025-1.254-15.246c-1.471-3.185-3.256-2.776-5.151-0.365c-2.568,3.271-1.635,14.359,1.34,17.383
		C283.575,221.573,285.021,221.098,286.432,217.556z M287.994,257.179c1.285,0.08,2.762,2.166,4.268,0.895
		c1.692-1.431,0.35-3.496-0.274-5.073c-1.814-4.594-5.244-8.041-8.844-11.267c-1.086-0.975-2.578-1.857-4.045-0.628
		c-1.292,1.084-1.495,2.831-0.823,4.14C280.602,249.781,282.544,254.706,287.994,257.179z M326.824,104.903
		c-4.113-5.254-10.175-7.244-15.652-10.046c-3.489-1.783-7.566-2.451-11.419-3.463c-1.541-0.405-3.711-1.175-4.507,0.676
		c-0.956,2.221,1.604,2.41,2.872,3.192c1.125,0.693,2.565,0.942,3.565,1.758c2.956,2.411,7.025,0.451,9.862,2.493
		C316.156,102.833,321.771,102.944,326.824,104.903z M295.231,141.659c3.199,1.154,19.527-4.122,21.351-6.515
		c1.406-1.848,0.254-2.286-1.248-2.557c-4.152-0.751-8.236-0.389-12.179,1.073c-2.758,1.023-5.885,1.515-7.747,4.111
		C294.529,138.997,293.285,140.595,295.231,141.659z M309.642,152.639c1.229-2.364,2.375-3.945-0.742-4.199
		c-3.976-0.324-14.231,5.943-15.602,9.675c-0.466,1.273-0.659,2.627,0.206,3.817c0.587,0.807,1.53,0.631,2.294,0.326
		C301.447,160.005,306.284,156.627,309.642,152.639z M328.31,121.982c-7.966-3.966-15.971-4.332-24.118-3.743
		c-1.541,0.112-3.277,0.595-3.409,2.338c-0.182,2.441,2.094,2.295,3.605,2.407c4.787,0.348,9.589,0.626,14.387,0.637
		C321.821,123.628,325.063,124.163,328.31,121.982z M292.266,302.3c7.906,2.013,15.761,1.407,23.583-0.501
		c0.642-0.156,1.408-0.434,1.331-1.216c-0.125-1.238-1.212-1.444-2.201-1.574c-7.396-0.965-14.829-0.955-22.265-0.739
		c-1.083,0.031-2.559,0.07-2.653,1.64C289.978,301.29,291.199,301.8,292.266,302.3z M297.185,254.86
		c1.537,0.592,2.801,1.783,4.016,0.917c1.577-1.125,0.51-2.846,0.017-4.081c-1.875-4.691-4.959-8.538-8.938-11.653
		c-0.9-0.705-1.837-1.74-3.062-1.054c-1.357,0.764-1.471,2.268-0.971,3.529C290.216,247.485,292.709,252.109,297.185,254.86z
		 M311.236,317.125c-3.217,0.719-6.433,1.449-9.654,2.149c-2.24,0.487-3.64,3.074-6.314,2.48c-4.528-1.007-8.429,1.236-12.501,2.516
		c-1.177,0.37-2.944,0.751-2.415,2.532c0.499,1.682,2.181,1.229,3.433,0.987C293.523,325.907,302.871,322.914,311.236,317.125z
		 M305.877,268.729c0.174,0.072,0.914,0.552,1.704,0.667c1.575,0.231,3.664,1.43,4.625-0.149c0.926-1.521-0.868-3.022-1.902-4.228
		c-2.858-3.335-6.903-5.089-10.457-7.495c-1.195-0.809-2.814-1.863-4.009-0.335c-1.219,1.56-0.328,3.244,0.975,4.412
		C299.52,264.026,301.989,266.767,305.877,268.729z M326.549,139.446c-7.989-2.112-13.862,0.091-19.593,2.894
		c-1.218,0.596-1.974,1.866-1.971,3.292c0.001,1.064,0.978,1.399,1.794,1.209C313.277,145.321,320.076,144.558,326.549,139.446z
		 M335.095,129.688c-6.859-4.011-14.201-3.658-21.569-2.844c-0.646,0.071-1.489,0.876-1.729,1.528
		c-0.382,1.04,0.632,1.44,1.44,1.544C320.508,130.847,327.787,131.65,335.095,129.688z M301.904,292.333
		c1.028,1.243,1.329,1.972,1.825,2.149c7.224,2.555,14.587,2.122,21.967,0.852c0.638-0.109,1.455-0.471,1.216-1.26
		c-0.15-0.499-0.855-1.114-1.373-1.178C317.948,291.938,310.345,291.28,301.904,292.333z M336.996,116.202
		c0.168-0.442,0.335-0.881,0.503-1.321c-8.529-4.924-17.093-9.747-27.127-10.27c-0.217,0.625-0.436,1.25-0.653,1.875
		C318.812,109.725,327.905,112.963,336.996,116.202z"/>
	<path fill-rule="evenodd" clip-rule="evenodd" fill="none" d="M99.375,232.481c10.797,13.642,1.421,24.837-3.532,36.459
		c-0.821,1.925-3.004,2.437-5.094,2.678c-5.792,0.665-11.584,1.356-17.359,2.154c-3.724,0.514-6.331-0.864-8.505-3.895
		c-4.01-5.59-6.946-11.761-10.013-17.854c-1.645-3.266-1.646-6.682,0.551-9.946c3.72-5.528,7.38-11.099,10.924-16.74
		c1.998-3.18,4.711-4.497,8.389-4.212c2.324,0.181,4.676,0.384,6.989,0.214C90.642,220.687,97.763,222.737,99.375,232.481z"/>
	<path fill-rule="evenodd" clip-rule="evenodd" fill="none" d="M155.012,334.003c-2.216,1.141-4.495,2.177-6.636,3.443
		c-4.159,2.457-8.217,2.273-12.226-0.22c-5.5-3.424-10.962-6.908-16.443-10.365c-2.83-1.785-4.007-4.306-3.364-7.615
		c1.139-5.871,2.334-11.731,3.423-17.613c0.548-2.957,2.369-4.688,5.059-5.607c2.198-0.752,4.631-1.007,6.648-2.072
		c12.8-6.766,23.275-1.946,33.129,6.354c0.126,0.108,0.268,0.197,0.397,0.302c6.778,5.505,4.84,25.822-2.85,29.833
		c-2.357,1.229-4.728,2.434-7.092,3.65C155.042,334.063,155.027,334.033,155.012,334.003z"/>
	<path fill-rule="evenodd" clip-rule="evenodd" fill="none" d="M64.121,183.005c-2.974,1.412-4.632,2.194-6.568,1.771
		c-5.042-1.104-10.094-2.17-15.13-3.297c-2.525-0.567-4.711-2.207-4.367-4.727c1.178-8.607-0.086-17.667,4.772-25.66
		c1.178-1.937,2.505-3.511,4.291-4.711c6.49-4.365,12.94-8.801,19.592-12.909c4.268-2.636,16.907,0.709,19.541,4.872
		c0.417,0.661,0.797,1.573,0.697,2.301c-1.25,9.002-1.484,18.504-7.364,25.958C74.67,172.835,68.688,178.226,64.121,183.005z"/>
	<path fill-rule="evenodd" clip-rule="evenodd" fill="none" d="M250.46,328.128c1.207,3.634,2.473,7.249,3.602,10.907
		c0.905,2.938,0.29,5.564-1.917,7.812c-4.786,4.873-9.471,9.842-14.313,14.658c-2.503,2.489-5.855,3.208-9.208,3.005
		c-5.982-0.36-11.94-1.09-17.911-1.627c-3.638-0.328-5.793-2.134-6.324-5.853c-0.659-4.614-1.444-9.21-2.157-13.816
		c-0.33-2.136,0.249-4.345,1.844-5.466c6.884-4.835,12.752-11.211,21.083-13.892c7.314-2.355,14.485-0.073,21.698,0.496
		C248.722,324.5,249.862,326.291,250.46,328.128z"/>
	<path fill-rule="evenodd" clip-rule="evenodd" fill="none" d="M142.379,285.686c-6.258,1.688-12.496,3.459-18.783,5.027
		c-3.133,0.783-5.835-0.155-8.077-2.65c-3.333-3.71-6.704-7.407-10.301-10.857c-3.205-3.076-3.685-6.527-2.246-10.428
		c1.954-5.306,4.027-10.567,6.056-15.846c1.18-3.066,3.209-4.985,6.698-4.947c0.663,0.007,1.371,0.043,1.983-0.161
		c14.201-4.708,21.484,4.844,28.715,14.129c1.807,2.32,2.287,5.546,1.929,8.545c-0.491,4.125-1.388,8.2-2.025,12.309
		C145.949,283.238,144.469,284.612,142.379,285.686z"/>
	<path fill-rule="evenodd" clip-rule="evenodd" fill="none" d="M104.004,173.702c1.74,9.838,5.049,19.968-1.443,29.903
		c-9.481,14.509-4.451,13.147-22.331,12.24c-1.825-0.093-3.659-0.145-5.473-0.357c-2.952-0.347-4.764-1.785-5.268-4.983
		c-0.826-5.253-1.966-10.458-2.999-15.677c-0.766-3.86,0.437-7.435,2.76-10.185c4.501-5.327,9.344-10.397,14.375-15.231
		C88.306,164.91,101.099,167.6,104.004,173.702z"/>
	<path fill-rule="evenodd" clip-rule="evenodd" fill="none" d="M178.629,300.691c5.107-2.146,8.875-3.952,12.798-5.303
		c3.145-1.083,6.505-1.457,9.794-0.383c3.323,1.084,6.656,2.165,9.896,3.47c7.38,2.972,11.529,10.86,10.018,18.764
		c-0.359,1.883-1.283,3.384-2.875,4.501c-5.181,3.627-10.279,7.375-15.536,10.889c-2.393,1.6-5.25,2.37-8.09,1.444
		c-5.695-1.858-11.34-3.878-16.948-5.985c-3.077-1.157-3.96-3.84-3.948-6.872c0.018-3.83,0.328-7.671,0.112-11.484
		C173.576,304.958,174.949,301.497,178.629,300.691z"/>
	<path fill-rule="evenodd" clip-rule="evenodd" fill="none" d="M104.046,229.947c-0.737-2.974-4.435-5.51-4.193-9.653
		c0.497-8.45,6.248-14.414,10.344-21.123c0.876-1.433,2.919-1.366,4.638-1.154c2.478,0.302,4.954,0.678,7.442,0.807
		c5.12,0.268,8.38,2.692,9.703,7.721c0.377,1.436,0.886,2.921,1.695,4.144c6.205,9.369,2.006,18.184-1.354,27.033
		c-0.63,1.66-2.094,2.782-3.764,2.999c-4.774,0.619-9.574,1.183-14.378,1.36c-2.623,0.098-4.69-1.472-5.921-3.93
		C106.991,235.621,105.676,233.116,104.046,229.947z"/>
	<path fill-rule="evenodd" clip-rule="evenodd" fill="none" d="M184.15,294.276c-7.775,5.9-15.195,4.946-22.387-0.915
		c-0.127-0.105-0.284-0.174-0.425-0.261c-11.646-7.266-13.641-13.385-8.522-26.136c0.572-1.426,1.389-2.625,2.81-3.347
		c10.678-5.422,27.705-2.04,35.026,6.965c2.038,2.51,3.536,16.211,1.905,18.876C190.659,292.563,186.744,292.44,184.15,294.276z"/>
	<path fill-rule="evenodd" clip-rule="evenodd" fill="none" d="M311.271,348.11c-1.209,0.623-1.651,0.857-2.099,1.079
		c-11.661,5.778-11.634,5.737-17.426-5.826c-1.736-3.466-1.893-6.621,0.388-9.832c4.98-7.007,9.062-14.76,16.087-20.091
		c4.797-3.64,10.264-6.241,15.838-8.34c3.971-1.495,10.919,7.222,8.943,11.851c-3.731,8.748-5.65,18.441-12.806,25.584
		C317.354,345.372,313.737,346.532,311.271,348.11z"/>
	<path fill-rule="evenodd" clip-rule="evenodd" fill="none" d="M262.85,339.959c-0.441,0.073-0.991-0.177-1.419-0.408
		c-4.575-2.466-6.966-17.485-3.11-20.954c4.647-4.181,8.28-9.684,13.896-11.508c6.363-4.029,13.03-4.159,19.344-5.101
		c5.027-0.748,10.738,8.044,8.077,12.836"/>
	<path fill-rule="evenodd" clip-rule="evenodd" fill="none" d="M95.809,98.425c6.079-2.584,11.746-4.98,17.399-7.406
		c2.394-1.026,4.858-1.168,7.33-0.522c3.771,0.985,5.074,4.103,3.258,7.77c-6.804,13.736-17.356,24.007-30.073,32.207
		c-3.098,1.997-14.86-1.403-16.86-4.599c-0.583-0.931-0.692-1.919-0.221-2.849C81.486,113.435,86.076,103.632,95.809,98.425z"/>
	<path fill-rule="evenodd" clip-rule="evenodd" fill="none" d="M235.8,292.538c7.232-5.754,16.197-3.294,24.737-2.071
		c5.906,0.847,8.905,12.745,4.421,16.605c-4.705,4.05-7.957,9.951-14.459,11.782c-7.298,2.055-14.467,0.139-21.649-0.838
		c-1.487-0.203-2.547-1.517-3.218-2.923c-0.282-0.595-0.448-1.249-0.635-1.884C221.538,301.462,222.067,300.401,235.8,292.538z"/>
	<path fill-rule="evenodd" clip-rule="evenodd" fill="none" d="M171.607,235.333c2.773,6.116,1.662,11.875,0.726,17.615
		c-0.096,0.593-0.596,1.191-1.052,1.644c-5.065,5.04-19.656,4.627-24.474-0.667c-0.112-0.123-0.213-0.256-0.327-0.376
		c-12.811-13.368-9.916-10.083-5.479-27.619c0.749-2.962,2.745-4.215,5.817-4.459C157.71,220.606,166.443,225.522,171.607,235.333z"
		/>
	<path fill-rule="evenodd" clip-rule="evenodd" fill="none" d="M106.246,164.541c-3.478,1.928-13.907-0.222-16.219-3.122
		c-0.401-0.505-1.005-1.182-0.927-1.686c1.498-9.529,0.765-19.903,9.069-27.045c4.407-3.791,9.246-7.078,13.868-10.62
		c3.263-2.499,5.976-0.418,8.737,1.027c2.567,1.343,3.873,3.232,3.539,6.438c-1.383,13.258-7.24,24.249-16.471,33.619
		C107.26,163.739,106.593,164.24,106.246,164.541z"/>
	<path fill-rule="evenodd" clip-rule="evenodd" fill="none" d="M121.872,81.166c-9.169,5.815-18.937,10.344-29.103,14.102
		c-5.389,1.992-13.215-0.332-15.963-5.063c-0.775-1.334-0.668-2.646,0.491-3.612c5.885-4.897,11.283-10.723,17.889-14.317
		c6.911-3.762,14.562-6.674,22.82-7.141c4.128-0.233,8.205-1.38,12.299-2.134c2.838-0.523,5.514-0.202,6.922,2.581
		c1.442,2.852-1.117,4.213-2.84,5.633C130.274,74.603,126.05,77.856,121.872,81.166z"/>
	<path fill-rule="evenodd" clip-rule="evenodd" fill="none" d="M223.973,295.207c-2.155,1.04-5.438,1.667-9.002,0.366
		c-3.902-1.427-7.848-2.758-11.842-3.899c-3.538-1.013-5.335-3.149-5.334-6.816c0-0.167-0.05-0.338-0.024-0.497
		c0.735-4.392-3.156-10.261,1.75-13c6.331-3.536,13.263-7.26,21.212-4.297c2.492,0.929,4.997,1.887,7.575,2.502
		c7.68,1.836,8.866,7.736,9.83,13.945c0.31,1.998-0.847,3.489-2.522,4.526C232.087,290.223,228.549,292.391,223.973,295.207z"/>
	<path fill-rule="evenodd" clip-rule="evenodd" fill="none" d="M134.922,157.191c4.492,8.982,1.798,27.499-5.113,35.527
		c-0.828,0.961-1.74,1.51-2.967,1.558c-0.662,0.026-1.328-0.009-1.99-0.045c-13.036-0.714-12.306-0.885-15.251-13.614
		c-2.989-12.919,4.756-20.287,12.265-27.94C124.908,149.576,132.633,152.612,134.922,157.191z"/>
	<path fill-rule="evenodd" clip-rule="evenodd" fill="none" d="M136.769,207.926c-7.429-9.677-1.524-17.891,2.897-26.25
		c0.472-0.891,1.24-1.456,2.325-1.688c5.669-1.215,13.043,2.871,15.231,8.384c1.347,3.389,3.292,6.589,4.243,10.072
		c1.611,5.901-0.61,11.44-2.642,16.893c-0.414,1.108-1.179,1.961-2.342,2.442c-6.725,2.785-14.743-0.191-18.118-6.751
		C137.833,209.994,137.3,208.96,136.769,207.926z"/>
	<path fill-rule="evenodd" clip-rule="evenodd" fill="none" d="M208.339,263.982c-11.307,5.478-23.302,2.57-30.448-7.107
		c-1.891-2.563-1.814-14.377,0.083-16.856c0.774-1.01,1.903-1.185,3.006-1.571c10.805-3.786,19.581,0.405,27.297,7.403
		c4.3,3.899,4.014,9.639,3.724,14.951C211.891,262.813,209.513,263.259,208.339,263.982z"/>
	<path fill-rule="evenodd" clip-rule="evenodd" fill="none" d="M293.211,296.815c-5.557,2.374-11.517,3.343-17.429,3.874
		c-4.269,0.384-4.472-4.257-6.015-6.987c-1.381-2.441-1.692-4.878,0.594-7.293c8.041-8.496,18.008-12.744,29.489-13.85
		c3.202-0.308,5.342,1.038,6.882,3.851c1.486,2.711,1.289,5.013-0.757,7.296C301.909,288.242,299.183,294.085,293.211,296.815z"/>
	<path fill-rule="evenodd" clip-rule="evenodd" fill="none" d="M190.039,214.636c3.98,6.182,3.128,10.863,2.793,15.482
		c-0.075,1.037-0.606,1.89-1.47,2.496c-4.488,3.152-15.633,1.924-19.305-2.14c-1.448-1.604-2.856-3.243-4.284-4.867
		c-5.64-6.411-6.196-13.81-1.653-20.963c1.138-1.79,2.789-2.038,4.692-2.225C181.652,201.351,185.86,209.909,190.039,214.636z"/>
	<path fill-rule="evenodd" clip-rule="evenodd" fill="none" d="M315.072,304.733c-1.334,0.686-2.651,1.406-4.005,2.049
		c-2.808,1.333-5.581,3.484-8.495,0.084c-3.416-3.982-3.736-7.831-1.207-11.826c6.471-10.217,15.692-16.994,26.591-21.793
		c2.218-0.977,4.077-1.066,5.904,0.778c1.644,1.659,2.856,3.444,1.771,5.765C330.928,289.862,327.241,300.804,315.072,304.733z"/>
	<path fill-rule="evenodd" clip-rule="evenodd" fill="none" d="M247.268,266.578c7.842-5.095,16.404-3.579,24.755-2.377
		c3.876,0.557,5.06,4.548,6.3,7.796c1.147,3.004-1.539,4.308-3.095,6.196c-8.047,9.752-18.644,8.751-29.338,7.013
		c-4.898-0.795-4.682-5.408-5.873-8.92c-1.036-3.052,0.101-5.169,2.599-6.797C244.149,268.49,245.716,267.546,247.268,266.578z"/>
	<path fill-rule="evenodd" clip-rule="evenodd" fill="none" d="M244.052,264.683c-9.471,7.261-17.663,0.875-25.547-2.955
		c-4.135-2.009-2.814-7.816-2.859-11.979c-0.035-3.085,3.467-2.926,5.613-4.005c8.962-4.498,16.937-0.163,24.819,3.008
		c3.66,1.473,5.325,5.724,5.35,9.582C251.457,262.731,246.646,262.774,244.052,264.683z"/>
	<path fill-rule="evenodd" clip-rule="evenodd" fill="none" d="M159.217,144.268c3.67,7.238,1.496,25.758-3.702,31.527
		c-2.46,2.732-13.285,0.558-13.896-3.227c-0.99-6.119-3.093-12.194-1.349-18.656c1.509-5.598,5.446-9.462,8.85-13.65
		C151.351,137.517,157.046,139.987,159.217,144.268z"/>
	<path fill-rule="evenodd" clip-rule="evenodd" fill="none" d="M151.612,115.343c0.924,1.584,0.499,3.237,0.231,4.874
		c-1.639,10.016-5.631,18.914-11.992,26.9c-3.074,3.861-6.171,3.689-10.07,1.942c-3.795-1.701-3.952-4.437-3.653-8.188
		c0.957-12.045,6.846-20.795,16.605-27.45C146.275,111.007,149.71,111.523,151.612,115.343z"/>
	<path fill-rule="evenodd" clip-rule="evenodd" fill="none" d="M226.12,230.513c0.629,2.88,2.711,6.43,0.417,9.884
		c-1.734,2.61-12.536,4.414-15.583,2.706c-4.053-2.271-7.999-4.788-11.754-7.523c-3.129-2.278-4.339-12.294-2.082-15.319
		c0.445-0.595,1.296-0.99,2.041-1.243C207.971,216.031,221.33,221.523,226.12,230.513z"/>
	<path fill-rule="evenodd" clip-rule="evenodd" fill="none" d="M178.316,175.471c3.212,5.324,4.58,11.131,2.837,17.459
		c-0.762,2.761-0.325,6.581-4.513,6.674c-4.567,0.101-9.71,0.731-12.388-4.326c-2.014-3.798-3.628-7.838-5.086-11.892
		c-1.347-3.75,1.987-14.925,4.811-17.183c1.983-1.586,9.438,0.78,11.487,3.815C176.571,171.66,177.322,173.54,178.316,175.471z"/>
	<path fill-rule="evenodd" clip-rule="evenodd" fill="none" d="M143.07,88.746c2.364-1.215,4.691-2.507,7.103-3.619
		c1.597-0.734,3.384-0.712,4.671,0.55c1.192,1.169,1.004,2.963,0.272,4.217c-3.067,5.26-6.057,10.462-10.224,15.139
		c-4.088,4.588-8.579,8.602-12.956,12.824c-4.05,3.905-7.313,1.716-10.589-0.602c-3.638-2.574-0.647-5.02,0.659-7.244
		C129.756,96.823,132.583,94.011,143.07,88.746z"/>
	<path fill-rule="evenodd" clip-rule="evenodd" fill="none" d="M207.474,200.264c0.355,1.141,0.637,1.927,0.846,2.732
		c0.982,3.802,2.903,8.132-0.746,11.079c-3.757,3.033-12.524,1.347-15.623-2.182c-1.649-1.878-3.181-3.857-4.827-5.736
		c-3.999-4.567-4.714-12.535-1.698-17.664c0.971-1.651,2.294-1.491,3.837-1.533C198.992,186.692,202.55,194.626,207.474,200.264z"/>
	<path fill-rule="evenodd" clip-rule="evenodd" fill="none" d="M257.615,245.672c8.085-4.728,15.891-3.903,23.636-2.723
		c3.302,0.502,4.783,3.393,5.801,6.297c1.043,2.981-1.641,3.927-3.169,5.558c-7.41,7.907-16.637,6.184-25.646,4.636
		c-4.131-0.709-4.752-4.948-5.374-8.245C252.121,247.264,256.052,246.725,257.615,245.672z"/>
	<path fill-rule="evenodd" clip-rule="evenodd" fill="none" d="M288.993,254.369c5.639-3.115,11.83-4.179,18.068-5.015
		c3.125-0.418,5.651,0.938,7.122,3.573c1.325,2.377-0.954,3.855-2.08,5.63c-5.838,9.196-15.096,11.723-25.018,13.109
		c-4.251,0.594-5.223-2.622-6.738-5.347c-1.493-2.684-0.779-4.665,1.62-6.403C284.38,258.166,286.656,256.226,288.993,254.369z"/>
	<path fill-rule="evenodd" clip-rule="evenodd" fill="none" d="M255.728,243.125c-7.73,5.67-14.952-0.08-22.138-3.088
		c-3.683-1.541-3.25-6.311-3.332-9.871c-0.082-3.55,3.469-2.979,5.603-3.731c8.146-2.878,15.548,0.251,22.161,4.228
		C264.745,234.708,263.76,239.752,255.728,243.125z"/>
	<path fill-rule="evenodd" clip-rule="evenodd" fill="none" d="M179.116,134.54c2.142,8.748,2.374,18.274-2.703,27.39
		c-0.915,1.642-2.364,1.758-3.875,1.147c-2.795-1.131-6.987-0.65-7.676-4.522c-1.605-9.025-2.961-18.021,4.181-25.903
		C172.979,128.308,175.76,128.224,179.116,134.54z"/>
	<path fill-rule="evenodd" clip-rule="evenodd" fill="none" d="M156.29,76.79c-7.196,3.406-12.934,9.276-20.533,12.019
		c-1.875,0.676-3.587,1.682-5.708,1.398c-2.274-0.303-4.351-1.062-5.183-3.293c-0.855-2.297,1.376-3.152,2.705-4.238
		c3.857-3.156,7.581-6.566,11.779-9.2c8.877-5.571,19.035-7.781,29.092-10.14c0.834-0.197,1.739-0.248,2.009,0.828
		c0.275,1.093-0.324,1.954-1.131,2.581C164.991,70.112,160.636,73.445,156.29,76.79z"/>
	<path fill-rule="evenodd" clip-rule="evenodd" fill="none" d="M238.838,213.776c3.062,5.82,1.733,8.737-4.684,10.293
		c-10.631,2.58-22.85-7.011-22.115-17.25c0.188-2.606,1.231-3.805,3.826-4.241C222.926,201.393,235.494,207.416,238.838,213.776z"/>
	<path fill-rule="evenodd" clip-rule="evenodd" fill="none" d="M193.771,160.067c1.867,6.067,6.04,11.619,4.371,18.505
		c-0.552,2.277,0.166,5.631-3.094,6.11c-3.251,0.478-6.729,0.15-9.326-2.395c-5.802-5.686-7.897-15.978-4.879-23.439
		c2.506-6.196,5.122-6.782,10.209-2.285C192.177,157.558,193.283,158.569,193.771,160.067z"/>
	<path fill-rule="evenodd" clip-rule="evenodd" fill="none" d="M173.301,106.747c1.388,2.611,0.574,5.227-0.092,7.787
		c-2.014,7.746-4.646,15.206-9.874,21.504c-1.517,1.825-2.91,3.201-5.441,1.844c-2.306-1.234-5.287-1.884-4.906-5.426
		c1.2-11.185,5.042-20.956,14.921-27.438C170.427,103.366,171.876,103.812,173.301,106.747z"/>
	<path fill-rule="evenodd" clip-rule="evenodd" fill="none" d="M220.718,186.553c0.695,1.746,0.944,2.362,1.186,2.98
		c1.299,3.306,2.475,6.87-0.37,9.71c-2.122,2.122-10.233,0.635-12.543-1.892c-2.243-2.456-4.387-5.009-6.46-7.611
		c-2.793-3.504-3.174-10.458-1.021-14.215c1.01-1.76,2.444-1.289,3.923-1.131C213.686,175.271,216.921,182.092,220.718,186.553z"/>
	<path fill-rule="evenodd" clip-rule="evenodd" fill="none" d="M287.59,237.813c-6.987,3.562-13.266,2.058-19.358,0.829
		c-3.157-0.636-4.505-3.777-4.778-6.932c-0.276-3.199,2.647-3.406,4.602-4.385c5.855-2.932,12.074-3.16,18.439-2.39
		c3.625,0.439,7.21,1.316,8.35,5.125c1.097,3.666-3.037,4.175-4.839,6.072C289.119,237.068,287.848,237.641,287.59,237.813z"/>
	<path fill-rule="evenodd" clip-rule="evenodd" fill="none" d="M267.818,224.415c-8.469,4.67-15.531,1.656-22.259-2.195
		c-3.154-1.805-3.852-5.6-3.284-8.88c0.535-3.08,4.006-2.543,6.264-2.925c7.03-1.191,13.625,0.595,19.405,4.54
		C273.343,218.639,272.909,221.856,267.818,224.415z"/>
	<path fill-rule="evenodd" clip-rule="evenodd" fill="none" d="M298.744,234.184c4.012-3.002,9.007-2.952,13.63-4.059
		c2.705-0.648,5.489-0.04,6.949,2.622c1.382,2.518-1.165,3.814-2.353,5.466c-5.47,7.603-13.665,9.406-22.231,10.289
		c-3.56,0.367-4.778-2.559-6.082-5.001c-1.366-2.558,1.094-3.541,2.514-4.673C293.475,236.99,295.546,234.69,298.744,234.184z"/>
	<path fill-rule="evenodd" clip-rule="evenodd" fill="none" d="M175.488,80.211c0.925-0.669,2.006-1.327,3.139-0.495
		c1.144,0.84,0.824,2.141,0.558,3.223c-0.272,1.104-0.778,2.193-1.38,3.166c-5.166,8.34-11.292,15.867-18.702,22.354
		c-2.362,2.068-4.315,2.638-6.957,0.454c-2.824-2.335-1.241-4.267-0.034-6.507C157.472,92.455,165.265,85.076,175.488,80.211z"/>
	<path fill-rule="evenodd" clip-rule="evenodd" fill="none" d="M249.308,199.909c2.888,5.62,1.95,7.502-4.314,8.652
		c-8.41,1.543-19.661-6.944-19.674-14.774c-0.005-2.694,0.708-4.33,3.818-4.6C235.568,188.63,246.391,194.232,249.308,199.909z"/>
	<path fill-rule="evenodd" clip-rule="evenodd" fill="none" d="M184.183,148.419c-3.589-6.712-0.959-20.637,4.755-26.065
		c1.937-1.84,3.292-0.949,4.609,0.463c1.894,2.034,2.452,4.616,2.696,7.317c0.548,6.111,1.044,12.217-1.674,18.002
		c-0.786,1.674-0.641,4.43-3.328,4.321C188.341,152.34,185.832,150.995,184.183,148.419z"/>
	<path fill-rule="evenodd" clip-rule="evenodd" fill="none" d="M198.704,164.648c-2.991-5.734-4.179-11.348-1.013-17.595
		c1.636-3.228,3.173-3.202,5.772-1.658c6.022,3.575,10.989,18.742,8.175,25.162c-1.146,2.613-7.167,2.231-9.84-0.835
		C200.513,168.251,199.719,166.353,198.704,164.648z"/>
	<path fill-rule="evenodd" clip-rule="evenodd" fill="none" d="M188.069,98.449c1.742-1.313,3.087-0.867,3.662,1.241
		c0.343,1.258,0.682,2.696,0.409,3.916c-1.777,7.933-4.008,15.709-9.123,22.289c-1.124,1.446-2.143,3.218-4.394,2.353
		c-2.349-0.901-4.143-2.662-3.851-5.247C175.891,113.088,179.247,104.277,188.069,98.449z"/>
	<path fill-rule="evenodd" clip-rule="evenodd" fill="none" d="M232.283,175.353c1.956,4.224,4.139,8.482,0.938,10.52
		c-3.09,1.969-8.027,1.424-11.035-1.893c-4.272-4.713-9.604-9.039-7.695-16.796c0.792-3.221,2.329-4.05,5.331-3.279
		C226.522,165.628,228.975,171.694,232.283,175.353z"/>
	<path fill-rule="evenodd" clip-rule="evenodd" fill="none" d="M277.388,208.737c-6.819,4.249-13.383,3.183-19.894-0.394
		c-2.322-1.275-3.618-3.222-4.456-5.69c-1.06-3.118,0.05-4.736,3.126-5.345c7.833-1.55,14.759,0.74,20.871,5.437
		C278.963,204.226,281.168,206.724,277.388,208.737z"/>
	<path fill-rule="evenodd" clip-rule="evenodd" fill="none" d="M295.908,220.012c-6.418,4.076-12.595,2.15-18.576,1.485
		c-2.607-0.29-4.108-2.848-4.491-5.43c-0.382-2.573,2.028-3.163,3.729-4.026c6.268-3.181,12.871-2.726,19.437-1.354
		c2.251,0.47,4.951,1.773,4.995,4.247C301.061,218.237,297.45,218.843,295.908,220.012z"/>
	<path fill-rule="evenodd" clip-rule="evenodd" fill="none" d="M303.216,218.468c4.348-2.696,9.301-3.44,14.193-4.218
		c2.274-0.36,4.99-0.278,6.19,2.081c1.146,2.25-1.306,3.464-2.497,4.913c-5.058,6.144-12.339,7.32-19.557,8.41
		c-2.745,0.414-4.853-1.198-5.76-3.792c-0.955-2.734,1.344-3.765,3.133-4.909C300.312,220.062,301.78,219.292,303.216,218.468z"/>
	<path fill-rule="evenodd" clip-rule="evenodd" fill="none" d="M258.04,187.58c2.824,5.61,2.226,6.784-2.823,7.604
		c-7.177,1.166-17.46-5.559-18.468-11.947c-0.606-3.833,0.601-5.822,4.704-5.382C248.904,178.657,254.145,182.99,258.04,187.58z"/>
	<path fill-rule="evenodd" clip-rule="evenodd" fill="none" d="M212.391,153.892c-2.516-4.261-3.594-8.959-1.666-14.022
		c1.602-4.207,3.063-4.642,6.496-1.944c4.382,3.441,8.279,16.223,6.732,21.522c-0.611,2.094-1.802,2.471-3.704,2.232
		C215.733,161.111,214.063,157.686,212.391,153.892z"/>
	<path fill-rule="evenodd" clip-rule="evenodd" fill="none" d="M192.417,77.924c1.801-0.177,3.797-3.722,5.652-1.483
		c1.646,1.99-0.664,4.568-2.009,6.676c-4.099,6.423-9.289,11.909-14.69,17.21c-1.666,1.635-3.395,3.522-5.946,1.331
		c-2.568-2.205-0.748-4.198,0.403-6.141C180.752,87.197,186.454,81.121,192.417,77.924z"/>
	<path fill-rule="evenodd" clip-rule="evenodd" fill="none" d="M209.206,118.377c1.828,7.285,1.834,15.095-1.357,22.681
		c-1.06,2.521-5.653,1.345-7.452-1.809c-3.322-5.829-1.41-19.56,3.563-23.847C206.991,112.79,207.715,115.923,209.206,118.377z"/>
	<path fill-rule="evenodd" clip-rule="evenodd" fill="none" d="M195.333,50.557c-7.65,1.752-14.458,6.581-22.683,5.384
		c-2.808-0.409-3.671,3.101-6.265,3.66c-5.852,1.262-11.639,2.826-17.462,4.225c-2.125,0.512-4.306,0.33-4.822-2.142
		c-0.463-2.221,1.792-2.463,3.298-2.958c5.37-1.767,10.764-3.463,16.151-5.176c1.926-0.612,3.851-0.867,5.894-0.441
		c1.092,0.229,2.617,0.451,3.378-0.104C179.909,47.843,187.883,51.311,195.333,50.557z"/>
	<path fill-rule="evenodd" clip-rule="evenodd" fill="none" d="M330.632,227.961c-3.337,1.493-7.377,5.184-10.161,1.039
		c-2.706-4.027,2.65-6.104,4.978-8.302c4.172-3.941,8.887-7.385,14.349-9.527c1.838-0.72,4.047-1.748,5.482,0.075
		c1.18,1.5-0.562,3.073-1.419,4.396C340.493,220.841,336.481,225.394,330.632,227.961z"/>
	<path fill-rule="evenodd" clip-rule="evenodd" fill="none" d="M241.782,165.328c0.74,1.438,0.822,1.583,0.892,1.732
		c1.167,2.555,3.124,5.899,0.677,7.727c-2.658,1.987-6.636,1.172-9.156-1.377c-3.459-3.499-7.342-6.916-7.931-12.289
		c-0.247-2.269-0.83-5.076,1.37-6.439c2.186-1.354,4.486,0.238,6.363,1.617C237.681,159.004,240.077,162.812,241.782,165.328z"/>
	<path fill-rule="evenodd" clip-rule="evenodd" fill="none" d="M203.537,93.755c1.868-1.212,3.072-0.926,3.486,1.106
		c0.229,1.125,0.495,2.379,0.226,3.443c-1.754,6.93-3.769,13.782-7.922,19.751c-0.808,1.161-1.342,3.014-3.295,2.411
		c-2.046-0.631-3.328-2.163-3.636-4.343C191.579,110.325,198.507,96.63,203.537,93.755z"/>
	<path fill-rule="evenodd" clip-rule="evenodd" fill="none" d="M194.343,62.881c-5.168,3.477-9.384,8.191-15.599,10.356
		c-3.32,1.157-4.567,5.507-8.341,6.656c-2.032,0.618-3.826,1.999-5.763,2.964c-1.936,0.962-4.345,2.417-5.808,0.059
		c-1.544-2.492,1.184-3.696,2.775-5.038c8.16-6.883,17.283-12.017,27.535-15.07c1.542-0.458,3.136-0.745,4.706-1.109
		C194.013,62.093,194.179,62.487,194.343,62.881z"/>
	<path fill-rule="evenodd" clip-rule="evenodd" fill="none" d="M302.187,205.545c-6.009,3.505-11.961,2.588-17.839,1.434
		c-2.507-0.494-3.956-2.65-4.055-5.111c-0.106-2.62,2.424-2.881,4.234-3.407c5.166-1.497,10.458-1.802,15.753-0.869
		c2.439,0.429,5.293,0.994,5.727,3.949C306.408,204.287,303.374,204.524,302.187,205.545z"/>
	<path fill-rule="evenodd" clip-rule="evenodd" fill="none" d="M282.791,196.781c-6.158,2.62-15.794,0.661-19.669-4.009
		c-1.201-1.446-2.227-3.078-1.736-4.991c0.599-2.333,2.885-1.955,4.571-2.177c6.464-0.85,12.134,1.613,17.268,5.066
		C286.62,192.957,286.212,195.325,282.791,196.781z"/>
	<path fill-rule="evenodd" clip-rule="evenodd" fill="none" d="M266.717,179.076c0.727,1.516,1.559,3.155-1.22,4.503
		c-6.56,3.185-19.831-6.462-19.356-12.275c0.223-2.747,1.168-3.444,3.652-3.26C255.373,168.459,263.863,173.801,266.717,179.076z"/>
	<path fill-rule="evenodd" clip-rule="evenodd" fill="none" d="M231.807,137.142c1.908,2.841,2.528,6.821,2.826,10.766
		c0.359,4.75-1.959,6.09-6.045,3.853c-5.163-2.826-8.484-16.344-5.288-21.179c1.365-2.064,2.738-1.42,4.133-0.274
		C229.418,131.937,230.368,134.291,231.807,137.142z"/>
	<path fill-rule="evenodd" clip-rule="evenodd" fill="none" d="M221.097,112.354c1.409,6.206,1.834,13.224-0.804,20.176
		c-0.44,1.162-1.171,2.091-2.605,1.776c-1.863-0.41-3.81-1.295-4.184-3.15c-1.39-6.899-2.247-13.808,2.229-20.138
		C217.828,108.058,219.309,108.652,221.097,112.354z"/>
	<path fill-rule="evenodd" clip-rule="evenodd" fill="none" d="M250.876,156.784c0.839,3.402,4.076,6.625,0.733,8.648
		c-2.821,1.707-6.433,0.118-8.846-2.615c-3.397-3.85-6.906-7.584-6.374-13.398c0.259-2.839,1.375-3.356,3.854-2.489
		C245.517,148.775,247.616,153.792,250.876,156.784z"/>
	<path fill-rule="evenodd" clip-rule="evenodd" fill="none" d="M213.734,72.668c0.65,2.107-0.02,3.449-0.851,4.684
		c-4.238,6.304-9.055,12.143-14.372,17.562c-1.111,1.131-2.403,2.792-4.186,1.218c-1.589-1.405-1.397-3.326-0.353-5.015
		C198.816,83.295,204.486,76.335,213.734,72.668z"/>
	<path fill-rule="evenodd" clip-rule="evenodd" fill="none" d="M288.355,186.037c-3.442,1.838-13.396,0.439-16.868-3.123
		c-1.387-1.425-2.824-3.207-2.158-5.28c0.696-2.155,3.008-1.669,4.746-1.805c5.742-0.452,10.786,1.579,15.302,4.879
		C291.241,182.07,292.575,184.001,288.355,186.037z"/>
	<path fill-rule="evenodd" clip-rule="evenodd" fill="none" d="M217.465,89.254c1.684-1.364,2.397-0.479,2.568,1.209
		c0.114,1.138,0.232,2.378-0.085,3.443c-1.798,6.034-3.252,12.225-6.938,17.508c-0.731,1.048-1.405,2.497-3.065,2.04
		c-1.595-0.44-2.379-1.718-2.63-3.318C206.479,104.799,212.697,92.01,217.465,89.254z"/>
	<path fill-rule="evenodd" clip-rule="evenodd" fill="none" d="M273.509,169.91c1.214,2.486,0.564,3.729-2.159,4.218
		c-5.443,0.978-15.128-5.012-16.572-10.372c-0.854-3.174-0.113-4.951,3.571-4.134C264.779,161.046,269.72,164.661,273.509,169.91z"
		/>
	<path fill-rule="evenodd" clip-rule="evenodd" fill="none" d="M240.464,129.743c1.959,3.993,3.222,8.034,3.1,12.448
		c-0.065,2.302-0.624,3.34-3.269,2.531c-5.743-1.753-10.424-15.814-6.773-20.581c1.17-1.529,2.256-1.088,3.323-0.115
		C238.586,125.616,239.773,127.597,240.464,129.743z"/>
	<path fill-rule="evenodd" clip-rule="evenodd" fill="none" d="M258.863,150.426c0.985,2.352,2.702,4.557,0.957,6.37
		c-1.929,2.001-4.667,0.665-6.336-0.657c-4.021-3.186-7.714-6.867-8.147-12.455c-0.316-4.078,1.015-4.945,4.542-3.039
		C254.123,142.939,256.579,146.896,258.863,150.426z"/>
	<path fill-rule="evenodd" clip-rule="evenodd" fill="none" d="M225.302,125.064c-2.449-4.465-1.138-16.316,1.945-19.909
		c1.639-1.91,2.891-1.544,3.567,0.609c2.105,6.688,1.954,13.409-0.158,20.08c-0.3,0.949-0.812,1.927-2.093,1.694
		C226.964,127.247,226.067,126.004,225.302,125.064z"/>
	<path fill-rule="evenodd" clip-rule="evenodd" fill="none" d="M278.547,160.479c1.982,3.258,1.49,4.7-1.631,5.111
		c-4.206,0.557-13.624-5.371-14.688-9.39c-0.784-2.966-0.039-4.637,3.391-3.893C271.235,153.525,275.36,157.018,278.547,160.479z"/>
	<path fill-rule="evenodd" clip-rule="evenodd" fill="none" d="M212.887,60.424c-4.604,2.857-8.071,7.275-13.498,8.958
		c-3.338,1.035-4.223,5.465-7.926,6.376c-1.252,0.308-2.318,1.309-3.548,1.789c-1.391,0.542-3.081,2.474-4.28,0.372
		c-0.998-1.75,0.925-3.019,2.174-4.006c3.128-2.467,6.115-5.323,9.637-7.035C200.98,64.191,206.217,60.547,212.887,60.424z"/>
	<path fill-rule="evenodd" clip-rule="evenodd" fill="none" d="M252.377,133.367c-1.418,1.231,0.123,4.641-2.905,4.471
		c-2.655-0.147-4.519-1.806-5.389-4.506c-1.303-4.05-4.142-7.752-2.785-12.376c0.358-1.215,0.372-2.884,1.989-3.163
		c1.523-0.263,2.373,1.018,3.089,2.13c1.72,2.669,3.152,5.477,3.812,8.627c0.37,1.774,0.501,3.674,2.16,4.887L252.377,133.367z"/>
	<path fill-rule="evenodd" clip-rule="evenodd" fill="none" d="M223.23,107.775c-2.022,0.915-2.551-1.04-3-2.48
		c-0.951-3.049,0.536-5.843,1.381-8.662c1.205-4.027,3.375-7.508,6.472-10.372c1.121-1.036,2.165-1.692,2.792,0.541
		C231.69,89.7,226.075,105.914,223.23,107.775z"/>
	<path fill-rule="evenodd" clip-rule="evenodd" fill="none" d="M262.34,104.548c-0.143,1.236-0.286,2.475-0.43,3.712
		c-1.188-0.208-2.206-0.691-2.941-1.7c-4.407-6.056-2.774-25.346,3.421-31.057C257.574,85.307,263.47,94.838,262.34,104.548z"/>
	<path fill-rule="evenodd" clip-rule="evenodd" fill="none" d="M267.762,150.204c-6.949,0.394-13.665-5.434-14.851-12.907
		c-0.207-1.305-0.358-2.62-0.534-3.93l-0.03,0.07c8.017,0.495,10.82,6.873,14.104,12.628c0.712,1.247,0.886,2.801,1.307,4.212
		L267.762,150.204z"/>
	<path fill-rule="evenodd" clip-rule="evenodd" fill="none" d="M240.67,102.875c1.167,5.082,0.953,10.979-0.647,16.846
		c-0.216,0.792-0.643,1.652-1.641,1.635c-1.47-0.024-2.437-0.993-3.173-2.133c-2.157-3.339-0.99-15.301,1.662-18.28
		C238.95,98.604,239.523,100.47,240.67,102.875z"/>
	<path fill-rule="evenodd" clip-rule="evenodd" fill="none" d="M227.422,69.515c-0.211,3.907-2.589,6.174-4.429,8.603
		c-2.896,3.824-6.007,7.492-9.167,11.104c-0.999,1.142-2.252,3.047-4.091,1.433c-1.313-1.154-0.654-2.832,0.185-4.13
		C214.35,79.665,219.461,73.492,227.422,69.515z"/>
	<path fill-rule="evenodd" clip-rule="evenodd" fill="none" d="M267.759,150.277c0.084-4.706,2.329-5.558,6.302-3.641
		c1.774,0.855,3.673,1.453,5.513,2.166c0.508,0.399,1.019,0.8,1.529,1.199c0.547,0.824,1.099,1.647,1.642,2.474
		c0.954,1.451,3.272,2.825,2.048,4.586c-1.357,1.952-4.023,1.325-5.972,0.573c-4.211-1.625-7.354-4.975-11.06-7.431L267.759,150.277
		z"/>
	<path fill-rule="evenodd" clip-rule="evenodd" fill="none" d="M309.052,72.411c8.922,2.074,14.748,8.771,21.69,13.728
		c1.457,1.039,3.56,2.466,2.019,4.327c-1.139,1.374-3.061-0.034-4.399-1.066c-5.662-4.368-11.317-8.747-16.98-13.115
		C310.179,75.354,308.991,74.428,309.052,72.411z"/>
	<path fill-rule="evenodd" clip-rule="evenodd" fill="none" d="M297.191,161.862c-2.63-0.558-5.292-1.005-7.668-2.374
		c-0.55-0.622-1.107-1.24-1.652-1.869c-0.879-1.014-1.956-2.094-1.398-3.514c0.708-1.798,2.473-1.265,3.916-1.317
		c1.161-0.042,2.319-0.069,3.482-0.102c2.172,0.695,4.341,1.388,6.51,2.083c1.039,1.765,4.502,2.478,3.69,4.566
		C303.058,161.938,299.587,161.149,297.191,161.862z"/>
	<path fill-rule="evenodd" clip-rule="evenodd" fill="none" d="M281.103,150.001c-0.51-0.399-1.021-0.8-1.529-1.199
		c-1.874-2.528-5.074-3.935-6.1-7.187l-0.012,0.083c0.386-1.197,0.803-2.374,1.925-3.117c4.654,1.293,9.004,3.136,12.323,6.831
		c0.551,1.744,3.09,3.564,1.257,5.19C286.57,152.731,283.736,150.499,281.103,150.001z"/>
	<path fill-rule="evenodd" clip-rule="evenodd" fill="none" d="M273.475,141.615c-0.794,3.263-3.169,2.766-5.041,1.629
		c-4.567-2.777-7.671-6.828-8.455-12.245c-0.415-2.866,0.906-3.8,3.455-2.098c4.736,3.161,7.49,7.9,10.029,12.797L273.475,141.615z"
		/>
	<path fill-rule="evenodd" clip-rule="evenodd" fill="none" d="M249.426,112.452c4.484,2.057,10.394,13.505,8.969,17.871
		c-1.145,3.508-3.468,1.312-4.444,0.118c-3.194-3.909-4.685-8.583-4.703-13.666c-0.005-1.467,0.124-2.935,0.192-4.402
		L249.426,112.452z"/>
	<path fill-rule="evenodd" clip-rule="evenodd" fill="none" d="M249.441,112.373c-1.208,1.172-0.759,4.163-3.238,3.731
		c-2.492-0.436-2.873-2.809-3.095-5.055c-0.54-5.456-0.598-10.771,3.562-15.682c3.458,5.622,1.772,11.58,2.756,17.085
		L249.441,112.373z"/>
	<path fill-rule="evenodd" clip-rule="evenodd" fill="none" d="M240.308,81.432c0.19,8.246-3.294,14.136-5.99,20.238
		c-0.339,0.767-1.194,1.345-2.046,0.707c-1.139-0.856-1.699-2.222-1.442-3.555C232.041,92.558,233.815,86.542,240.308,81.432z"/>
	<path fill-rule="evenodd" clip-rule="evenodd" fill="none" d="M237.662,68.736c-2.833,7.017-7.854,12.345-12.974,17.593
		c-0.568,0.583-1.499,1.151-2.099,0.221c-0.376-0.584-0.512-1.742-0.181-2.301C226.192,77.875,230.329,71.799,237.662,68.736z"/>
	<path fill-rule="evenodd" clip-rule="evenodd" fill="none" d="M315.372,67.605c8.168,2.279,13.314,7.54,19.11,11.83
		c1.061,0.786,2.106,1.621,3.015,2.57c0.562,0.587,0.895,1.533,0.362,2.277c-0.574,0.802-1.695,0.589-2.259,0.184
		C328.618,79.429,320.872,75.254,315.372,67.605z"/>
	<path fill-rule="evenodd" clip-rule="evenodd" fill="none" d="M228.034,59.1c-8.058,5.313-16.117,10.625-24.175,15.938
		c-0.367-0.551-0.737-1.1-1.105-1.651c6.458-7.699,15.462-11.635,24.526-15.483C227.531,58.301,227.782,58.701,228.034,59.1z"/>
	<path fill-rule="evenodd" clip-rule="evenodd" fill="none" d="M364.295,124.973c-9.779-8.972-13.013-20.881-20.697-29.737
		C353.319,102.695,359.325,112.702,364.295,124.973z"/>
</g>
<g>
	<path fill="#800000018000000180000001" d="M377.973,251.396h-11.225l-16.964-16.9v-50.829l16.964-16.9h11.225V251.396z
		 M382.438,183.667v-16.9h30.038l16.9,16.9v17.028h-28.189v-17.028H382.438z M382.438,251.396v-16.9h18.75v-12.373h28.189v12.373
		l-16.9,16.9H382.438z"/>
	<path fill="#800000018000000180000001" d="M463.241,251.396h-27.232l30.229-80.803l12.5,33.609L463.241,251.396z M498.444,242.148
		h-27.678l5.867-16.773h15.306l-22.64-58.609h27.487l33.737,84.63h-28.507L498.444,242.148z"/>
	<path fill="#800000018000000180000001" d="M538.56,251.396v-84.63h28.188v84.63H538.56z M571.212,183.667v-16.9h32.207l16.964,16.9
		v25.383l-13.01,13.01l-0.893-1.786l-26.467,3.508l1.021,2.232h-9.821v-16.391h21.173v-25.957H571.212z M623.253,251.396h-30.102
		l-12.117-25.382h22.385l3.954-3.954L623.253,251.396z"/>
	<path fill="#800000018000000180000001" d="M633.33,166.766h28.188v84.63H633.33V166.766z M686.9,183.667h-20.918v-16.9h32.717
		l16.964,16.9v17.219l-8.482,8.482l8.482,8.482v16.646l-16.964,16.9h-32.717v-16.9H686.9v-18.048h-20.918v-14.732H686.9V183.667z"/>
	<path fill="#800000018000000180000001" d="M754.948,234.177h10.588v17.219h-21.684l-17.156-16.9v-50.829l17.156-16.9h21.684v17.156
		h-10.588V234.177z M780.778,183.922h-10.779v-17.156h21.875l17.092,16.9v50.829l-17.092,16.9h-21.875v-17.219h10.779V183.922z"/>
	<path fill="#800000018000000180000001" d="M903.226,251.396h-29.973l-51.275-84.63h29.783L903.226,251.396z M821.978,251.396
		v-76.594l24.553,40.242v36.352H821.978z M903.226,166.766v76.594l-24.553-40.434v-36.161H903.226z"/>
</g>
</svg>
