<?xml version="1.0" encoding="utf-8"?>
<!-- Generator: Adobe Illustrator 22.0.0, SVG Export Plug-In . SVG Version: 6.00 Build 0)  -->
<svg version="1.1" id="Capa_1" xmlns="http://www.w3.org/2000/svg" xmlns:xlink="http://www.w3.org/1999/xlink" x="0px" y="0px"
	 viewBox="0 0 1920 1080" style="enable-background:new 0 0 1920 1080;" xml:space="preserve">
<style type="text/css">
	.st0{fill:url(#SVGID_1_);}
	.st1{fill:#FF550F;}
</style>
<linearGradient id="SVGID_1_" gradientUnits="userSpaceOnUse" x1="419.3037" y1="1118.4863" x2="1571.7588" y2="-114.5155">
	<stop  offset="0" style="stop-color:#C6CFD6"/>
	<stop  offset="0.1915" style="stop-color:#C6CFD6"/>
	<stop  offset="0.9076" style="stop-color:#F5F6F8"/>
</linearGradient>
<rect class="st0" width="1920" height="1080"/>
<g>
	<g id="Artboard_1">
		<path id="Union_79" class="st1" d="M1003.2,699.5c-0.3,0-0.6,0-0.9,0c-21.9,0-43.5,0-65.3,0h-1.8c-0.3-0.6,0.3-1.2,0.3-1.8
			c5.4-14.4,10.8-28.5,16.2-42.6c15.6-41.7,31.2-83,47.1-124.7c0.6-1.5,0.3-1.5,1.8-1.5h0.3c21.6,0,42.9,0,64.4,0c0.6,0,0.9,0,1.5,0
			c0,0.6-0.3,0.9-0.3,1.5c-20.4,55.8-40.8,111.5-61.1,167.3c-0.6,1.8-0.6,1.8-1.2,1.8H1003.2z M932.1,692.3
			c-12.6-49.5-25.5-98.9-38.1-148.1c-6.3-24.9-12.6-49.5-18.9-74.3c0-0.3,0-0.6-0.3-0.9c-0.3-0.6,0-0.9,0.9-0.9c0.3,0,0.6,0,0.9,0
			H942c1.2,0,1.2,0,1.8,1.2c1.2,4.5,2.4,9,3.6,13.8c8.4,32.1,16.8,64.1,24.9,96.2c0.6,1.8,0.9,3.6,1.5,5.4c0.3,0.9,0.3,1.8,0,2.7
			c-4.2,10.8-8.1,21.6-12.3,32.7c-9.3,24.3-18.3,48.6-27.6,72.8c-0.3,0.6-0.3,1.2-0.6,1.5C932.4,693.8,932.1,692.9,932.1,692.3
			L932.1,692.3z M644.1,663.5l13.2-39.6h227.8l-13.2,39.3H644.1V663.5z M697.7,659.6h4.8l2.1-9.6c0.3,0.6,0.6,1.2,1.2,1.8
			c0.9,0.9,2.1,1.2,3.3,1.2c2.4,0,4.5-0.9,6.3-2.7c2.1-2.1,3.3-4.5,3.9-7.5c0.9-2.4,0.6-4.8-0.9-6.9c-1.2-1.5-3-2.4-5.1-2.4
			c-1.5,0-3,0.3-4.2,1.2c-0.9,0.6-1.5,1.2-2.1,1.8l0.6-2.7h-4.5L697.7,659.6z M746,636.2c-1.8,1.8-3.3,4.2-3.9,6.9
			c-0.6,2.4-0.3,4.8,0.9,6.9c1.5,2.1,3.9,3.3,6.6,3c3,0,5.7-0.9,7.8-3c1.8-1.8,3.3-4.2,3.9-6.9c0.6-2.4,0.3-4.8-0.9-6.9
			c-1.5-2.1-3.9-3.3-6.6-3C751.1,633.2,748.1,634.4,746,636.2z M851.5,651.2c1.8,1.5,3.9,2.1,6,1.8c2.4,0,4.8-0.6,6.6-1.8
			c1.5-1.2,2.7-2.7,3-4.5c0.3-1.2,0-2.4-0.6-3.6c-1.2-1.2-2.4-1.8-3.9-2.1s-3.3-0.6-4.8-1.2c-0.3-0.3-0.6-0.6-0.6-1.2
			s0.6-0.9,0.9-1.2c0.6-0.3,1.5-0.6,2.4-0.6s1.8,0.3,2.4,0.9c0.3,0.6,0.3,0.9,0.3,1.5h4.8c0.3-1.8,0-3.6-1.5-4.8
			c-1.5-0.9-3.6-1.5-5.4-1.5c-2.1,0-4.2,0.6-6,1.8c-1.5,1.2-2.4,2.7-3,4.5c-0.3,1.2-0.3,2.4,0.6,3.3c1.2,0.9,2.4,1.8,3.9,1.8
			c1.5,0.3,3.3,0.9,4.8,1.5c0.3,0.3,0.6,0.9,0.3,1.2c0,0.6-0.6,1.2-1.2,1.2c-0.6,0.3-1.5,0.6-2.4,0.3c-1.5,0-2.7-0.3-3-0.9
			c-0.3-0.6-0.3-1.2-0.3-1.8H850C850,648.2,850.3,650,851.5,651.2L851.5,651.2z M660.6,651.2c1.8,1.5,3.9,2.1,6,1.8
			c2.4,0,4.8-0.6,6.6-1.8c1.5-1.2,2.7-2.7,3-4.5c0.3-1.2,0-2.4-0.6-3.6c-1.2-1.2-2.4-1.8-3.9-2.1c-1.5-0.3-3.3-0.6-4.8-1.2
			c-0.6,0-0.6-0.6-0.6-0.9c0-0.6,0.6-0.9,0.9-1.2c0.6-0.3,1.5-0.6,2.4-0.6s1.8,0.3,2.4,0.9c0.3,0.6,0.3,0.9,0.3,1.5h4.8
			c0.3-1.8,0-3.6-1.5-4.8c-1.5-0.9-3.6-1.5-5.4-1.5c-2.1,0-4.2,0.6-6,1.8c-1.5,1.2-2.4,2.7-3,4.5c-0.3,1.2-0.3,2.4,0.6,3.3
			c1.2,0.9,2.4,1.8,3.9,1.8c1.5,0.3,3.3,0.9,4.8,1.5c0.3,0.3,0.6,0.9,0.3,1.2c0,0.6-0.6,1.2-1.2,1.2c-0.6,0.3-1.5,0.6-2.4,0.3
			c-1.5,0-2.7-0.3-3-0.9c-0.3-0.6-0.3-1.2-0.3-1.8h-4.8C658.8,648.2,659.4,650,660.6,651.2z M819.1,637.7h2.7l-2.4,11.4
			c-0.3,0.9-0.3,1.8,0.3,2.7c0.9,0.9,2.4,1.5,3.9,1.2c0.3,0,0.3,0,0.6,0h2.4l0.9-3.6c-0.3,0-0.3,0-0.6,0s-0.3,0-0.6,0
			c-0.9,0-1.5,0-1.8-0.3s0-0.6,0-1.5l2.1-9.9h3l0.6-3.3h-3l1.2-5.1h-4.8l-1.2,5.1h-2.7L819.1,637.7z M783.5,652.4h4.8l1.8-8.7
			c0.3-1.2,0.6-2.4,1.2-3.3c0.9-1.2,2.7-2.1,4.2-1.8c0.3,0,0.3,0,0.6,0s0.6,0,0.9,0l0.9-5.1c-0.3,0-0.3,0-0.3,0h-0.3
			c-1.5,0-2.7,0.3-3.9,1.2c-0.9,0.6-1.8,1.5-2.4,2.4l0.6-3.3h-4.5L783.5,652.4z M747.5,647.6c-0.6-1.5-0.6-3-0.3-4.2
			c0.3-1.5,0.9-3,2.1-4.2c0.9-0.9,2.1-1.5,3.6-1.5c1.2,0,2.4,0.6,3,1.5c0.6,1.5,0.6,3,0.3,4.2c-0.3,1.5-0.9,3-2.1,4.2
			c-0.9,0.9-2.1,1.5-3.6,1.5C749.3,649.1,748.1,648.5,747.5,647.6z M706.4,648.2c-0.9-1.2-1.2-3-0.6-4.5c0.3-1.2,0.6-2.4,1.2-3.3
			c0.9-1.5,2.4-2.4,4.2-2.4c1.2-0.3,2.4,0.6,2.7,1.5c0.3,1.2,0.6,2.4,0.3,3.9c-0.3,1.5-0.9,3-1.8,4.2c-0.9,0.9-2.1,1.5-3.3,1.5
			S707,648.8,706.4,648.2z M584.7,639.2c-15.6,0-30.9-0.3-46.5-0.3c-7.8,0-15.3,0-23.1-0.3c-1.2,0-1.2,0-1.5-1.2
			c-12.3-48.9-24.3-97.7-36.6-146.9c-5.7-23.4-11.7-46.8-17.4-70.1c-0.3-0.6-0.3-0.9-0.3-1.5c0.6-0.3,1.2-0.3,1.5,0
			c22.8,0,45.9,0,68.6,0c0.3,0,0.3,0,0.6,0c0.9,0,1.2,0.3,1.2,0.9c0.6,2.7,1.5,5.4,2.1,8.1l21.3,85.1c6.9,27.9,13.8,55.8,21,83.6
			c3.3,13.5,6.9,27.3,10.2,40.8c0.3,0.6,0.3,1.2,0.3,1.5c-0.3,0-0.6,0.3-0.9,0.3C585.3,639.2,585,639.2,584.7,639.2z M589.5,636.5
			c-0.6-2.7-1.2-5.1-2.1-7.8c-7.2-29.4-14.4-58.7-21.9-88.1c-3-11.4-5.7-23.1-8.7-34.5c-0.3-0.9-0.3-1.8,0-2.7
			c9-31.2,18.3-62.3,27.3-93.5l8.1-27.6c0-0.3,0.3-0.6,0.3-0.9c0-0.6,0.3-0.9,0.9-0.9c0,0,0,0,0.3,0s0.6,0,0.9,0h68
			C638.4,465.7,614.1,551.1,589.5,636.5L589.5,636.5z M725.3,611.6C725,611.6,725,611.6,725.3,611.6c-24.3,0-48.3,0-71.9,0
			c-1.8,0-1.5,0.3-1.8-1.5c-7.8-30.3-15.3-60.8-23.1-91.1c-0.3-0.9-0.3-2.1,0-3c12.3-43.5,24.6-86.9,37.2-130.4
			c0-0.6,0.3-1.2,0.9-1.8c20.1,75.8,40.2,151.7,60.2,227.2C726.2,611.6,725.9,611.6,725.3,611.6L725.3,611.6L725.3,611.6z
			 M745.1,611c0-0.6,0.3-1.5,0.6-2.1c10.5-28.8,20.7-57.5,31.2-86c5.7-15.9,11.7-32.1,17.4-48c0.6-1.8,0.3-1.5,2.1-1.5
			c18.3,0,36.6,0,54.6,0h1.5c0.3,0.6-0.3,1.2-0.3,1.8c-6.6,18.3-13.5,36.6-20.1,54.9l-28.8,79.1c0,0.3,0,0.3-0.3,0.3
			c-0.6,1.2-0.3,1.2-1.2,1.2h-0.6c-11.1,0-22.2,0.3-33.3,0.3c-7.2,0-14.4,0-21.3,0c-0.3,0-0.6,0-0.6,0
			C745.7,611.3,745.4,611.3,745.1,611L745.1,611z M889.3,610.7c-20.7,0-41.7,0-62.3,0h-1.8c15.3-45.6,30.9-90.8,46.2-136.1h0.3
			c0.6,1.8,1.2,3.9,1.5,5.7c9,34.5,18.3,69.2,27.3,103.7c0.3,0.9,0.3,1.8-0.3,2.7c-3,7.5-6,15-9,22.5c-0.6,1.2-0.3,1.5-1.2,1.5
			C890.2,610.7,889.9,610.7,889.3,610.7L889.3,610.7z M727.1,600.5c-9.9-36.6-19.5-73.4-29.1-110.3c-0.3-0.9-0.3-1.8,0-2.7
			c2.1-6,4.2-11.7,6-17.7c0.3-0.9,0.6-1.2,1.5-1.2c22.8,0,45.6,0,68,0c0.3,0,0.6,0,0.9,0c0,0,0,0,0,0.3s0,0,0,0
			c-15,45-30.3,89.6-45.6,134.3c0,0.3-0.3,0.9-0.6,1.2c0,0,0,0-0.3,0C727.7,603.2,727.4,602,727.1,600.5z M1010.7,472.6
			c9.9-28.8,30.3-43.5,61.4-43.5c30.6,0,41.1,14.4,31.2,43.5c-9.9,28.8-30,43.2-60.5,43.2C1013.1,515.7,1002.3,501.3,1010.7,472.6z
			 M1028.6,472.3c-6.6,19.8-0.6,29.7,18.6,29.7c18.9,0,31.5-9.9,38.4-29.7c6.6-19.5,0.6-29.4-18.3-29.4S1035.5,452.8,1028.6,472.3
			L1028.6,472.3z M1367.9,515.1L1397,430h63.5l-4.5,13.5h-46.5l-7.2,21.6h44.4l-4.8,14.1h-44.7l-7.5,22.5h47.7l-4.8,13.8
			L1367.9,515.1z M1341,515.1l-27.6-63.2l-21.3,63.2h-16.5l29.1-85.1h17.4l28.2,62l21-62h16.5l-29.4,85.1H1341z M1248.3,515.1
			l29.1-85.1h17.4l-29.1,85.1H1248.3z M1187.8,515.1l29.1-85.1h17.4l-24.3,71.6h36.9l-4.8,13.8h-54.3V515.1z M1161.1,515.1
			l-27.6-63.2l-21.6,63.2h-16.5l29.1-85.1h17.1l28.2,62l21-62h16.5l-29.1,85.1H1161.1z M854.8,463.3c-15,0-30.3,0-45.3,0H799
			c-0.3,0-0.3,0-0.9,0c1.2-2.7,2.1-5.4,3-8.1c2.4-6.3,4.8-12.3,7.2-18.6c0.6-1.2,0.6-1.2,1.8-1.2h57.3c0,0.6,0,0.9-0.3,1.2
			c-3.6,8.4-7.5,17.1-11.1,25.5C856.3,463,855.4,463.3,854.8,463.3L854.8,463.3z"/>
	</g>
</g>
</svg>
