<?xml version="1.0" encoding="utf-8"?>
<!-- Generator: Adobe Illustrator 22.0.0, SVG Export Plug-In . SVG Version: 6.00 Build 0)  -->
<svg version="1.1" id="Capa_1" xmlns="http://www.w3.org/2000/svg" xmlns:xlink="http://www.w3.org/1999/xlink" x="0px" y="0px"
	 viewBox="0 0 960 1500" style="enable-background:new 0 0 960 1500;" xml:space="preserve">
<style type="text/css">
	.st0{fill:url(#SVGID_1_);}
	.st1{fill:#FF550F;}
</style>
<linearGradient id="SVGID_1_" gradientUnits="userSpaceOnUse" x1="29.0796" y1="1232.4359" x2="990.1839" y2="204.1586">
	<stop  offset="0" style="stop-color:#C6CFD6"/>
	<stop  offset="0.1915" style="stop-color:#C6CFD6"/>
	<stop  offset="0.9076" style="stop-color:#F5F6F8"/>
</linearGradient>
<rect class="st0" width="960" height="1500"/>
<g>
	<g id="Artboard_1">
		<path id="Union_79" class="st1" d="M507.8,852.8c-0.2,0-0.4,0-0.6,0c-14.1,0-28,0-42.1,0H464c-0.2-0.4,0.2-0.8,0.2-1.2
			c3.5-9.3,7-18.4,10.4-27.4c10-26.9,20.1-53.5,30.3-80.4c0.4-1,0.2-1,1.2-1h0.2c13.9,0,27.6,0,41.5,0c0.4,0,0.6,0,1,0
			c0,0.4-0.2,0.6-0.2,1c-13.1,35.9-26.3,71.9-39.4,107.8c-0.4,1.2-0.4,1.2-0.8,1.2H507.8z M462,848.2c-8.1-31.9-16.4-63.8-24.5-95.4
			c-4.1-16-8.1-31.9-12.2-47.9c0-0.2,0-0.4-0.2-0.6c-0.2-0.4,0-0.6,0.6-0.6c0.2,0,0.4,0,0.6,0h42.1c0.8,0,0.8,0,1.2,0.8
			c0.8,2.9,1.5,5.8,2.3,8.9c5.4,20.7,10.8,41.3,16,62c0.4,1.2,0.6,2.3,1,3.5c0.2,0.6,0.2,1.2,0,1.7c-2.7,7-5.2,13.9-7.9,21.1
			c-6,15.7-11.8,31.3-17.8,47c-0.2,0.4-0.2,0.8-0.4,1C462.2,849.1,462,848.5,462,848.2L462,848.2z M276.4,829.6l8.5-25.5h146.8
			l-8.5,25.3H276.4V829.6z M310.9,827.1h3.1l1.4-6.2c0.2,0.4,0.4,0.8,0.8,1.2c0.6,0.6,1.4,0.8,2.1,0.8c1.5,0,2.9-0.6,4.1-1.7
			c1.4-1.4,2.1-2.9,2.5-4.8c0.6-1.5,0.4-3.1-0.6-4.4c-0.8-1-1.9-1.5-3.3-1.5c-1,0-1.9,0.2-2.7,0.8c-0.6,0.4-1,0.8-1.4,1.2l0.4-1.7
			h-2.9L310.9,827.1z M342,812c-1.2,1.2-2.1,2.7-2.5,4.4c-0.4,1.5-0.2,3.1,0.6,4.4c1,1.4,2.5,2.1,4.3,1.9c1.9,0,3.7-0.6,5-1.9
			c1.2-1.2,2.1-2.7,2.5-4.4c0.4-1.5,0.2-3.1-0.6-4.4c-1-1.4-2.5-2.1-4.3-1.9C345.3,810.1,343.4,810.9,342,812z M410.1,821.7
			c1.2,1,2.5,1.4,3.9,1.2c1.5,0,3.1-0.4,4.3-1.2c1-0.8,1.7-1.7,1.9-2.9c0.2-0.8,0-1.5-0.4-2.3c-0.8-0.8-1.5-1.2-2.5-1.4
			c-1-0.2-2.1-0.4-3.1-0.8c-0.2-0.2-0.4-0.4-0.4-0.8c0-0.4,0.4-0.6,0.6-0.8c0.4-0.2,1-0.4,1.5-0.4c0.6,0,1.2,0.2,1.5,0.6
			c0.2,0.4,0.2,0.6,0.2,1h3.1c0.2-1.2,0-2.3-1-3.1c-1-0.6-2.3-1-3.5-1c-1.4,0-2.7,0.4-3.9,1.2c-1,0.8-1.5,1.7-1.9,2.9
			c-0.2,0.8-0.2,1.5,0.4,2.1c0.8,0.6,1.5,1.2,2.5,1.2c1,0.2,2.1,0.6,3.1,1c0.2,0.2,0.4,0.6,0.2,0.8c0,0.4-0.4,0.8-0.8,0.8
			c-0.4,0.2-1,0.4-1.5,0.2c-1,0-1.7-0.2-1.9-0.6c-0.2-0.4-0.2-0.8-0.2-1.2h-3.1C409.1,819.8,409.3,820.9,410.1,821.7L410.1,821.7z
			 M287,821.7c1.2,1,2.5,1.4,3.9,1.2c1.5,0,3.1-0.4,4.3-1.2c1-0.8,1.7-1.7,1.9-2.9c0.2-0.8,0-1.5-0.4-2.3c-0.8-0.8-1.5-1.2-2.5-1.4
			c-1-0.2-2.1-0.4-3.1-0.8c-0.4,0-0.4-0.4-0.4-0.6c0-0.4,0.4-0.6,0.6-0.8c0.4-0.2,1-0.4,1.5-0.4s1.2,0.2,1.5,0.6
			c0.2,0.4,0.2,0.6,0.2,1h3.1c0.2-1.2,0-2.3-1-3.1c-1-0.6-2.3-1-3.5-1c-1.4,0-2.7,0.4-3.9,1.2c-1,0.8-1.5,1.7-1.9,2.9
			c-0.2,0.8-0.2,1.5,0.4,2.1c0.8,0.6,1.5,1.2,2.5,1.2c1,0.2,2.1,0.6,3.1,1c0.2,0.2,0.4,0.6,0.2,0.8c0,0.4-0.4,0.8-0.8,0.8
			c-0.4,0.2-1,0.4-1.5,0.2c-1,0-1.7-0.2-1.9-0.6s-0.2-0.8-0.2-1.2H286C285.8,819.8,286.2,820.9,287,821.7z M389.2,813h1.7l-1.5,7.3
			c-0.2,0.6-0.2,1.2,0.2,1.7c0.6,0.6,1.5,1,2.5,0.8c0.2,0,0.2,0,0.4,0h1.5l0.6-2.3c-0.2,0-0.2,0-0.4,0s-0.2,0-0.4,0
			c-0.6,0-1,0-1.2-0.2c-0.2-0.2,0-0.4,0-1l1.4-6.4h1.9l0.4-2.1h-1.9l0.8-3.3h-3.1l-0.8,3.3h-1.7L389.2,813z M366.2,822.5h3.1
			l1.2-5.6c0.2-0.8,0.4-1.5,0.8-2.1c0.6-0.8,1.7-1.4,2.7-1.2c0.2,0,0.2,0,0.4,0s0.4,0,0.6,0l0.6-3.3c-0.2,0-0.2,0-0.2,0h-0.2
			c-1,0-1.7,0.2-2.5,0.8c-0.6,0.4-1.2,1-1.5,1.5l0.4-2.1h-2.9L366.2,822.5z M343,819.4c-0.4-1-0.4-1.9-0.2-2.7
			c0.2-1,0.6-1.9,1.4-2.7c0.6-0.6,1.4-1,2.3-1c0.8,0,1.5,0.4,1.9,1c0.4,1,0.4,1.9,0.2,2.7c-0.2,1-0.6,1.9-1.4,2.7
			c-0.6,0.6-1.4,1-2.3,1C344.2,820.3,343.4,819.9,343,819.4z M316.5,819.8c-0.6-0.8-0.8-1.9-0.4-2.9c0.2-0.8,0.4-1.5,0.8-2.1
			c0.6-1,1.5-1.5,2.7-1.5c0.8-0.2,1.5,0.4,1.7,1c0.2,0.8,0.4,1.5,0.2,2.5s-0.6,1.9-1.2,2.7c-0.6,0.6-1.4,1-2.1,1
			C317.5,820.3,316.9,820.1,316.5,819.8z M238.1,814c-10,0-19.9-0.2-29.9-0.2c-5,0-9.9,0-14.9-0.2c-0.8,0-0.8,0-1-0.8
			c-7.9-31.5-15.7-63-23.6-94.7c-3.7-15.1-7.5-30.1-11.2-45.2c-0.2-0.4-0.2-0.6-0.2-1c0.4-0.2,0.8-0.2,1,0c14.7,0,29.6,0,44.2,0
			c0.2,0,0.2,0,0.4,0c0.6,0,0.8,0.2,0.8,0.6c0.4,1.7,1,3.5,1.4,5.2l13.7,54.9c4.4,18,8.9,35.9,13.5,53.9c2.1,8.7,4.4,17.6,6.6,26.3
			c0.2,0.4,0.2,0.8,0.2,1c-0.2,0-0.4,0.2-0.6,0.2C238.5,814,238.3,814,238.1,814z M241.2,812.2c-0.4-1.7-0.8-3.3-1.4-5
			c-4.6-18.9-9.3-37.9-14.1-56.8c-1.9-7.3-3.7-14.9-5.6-22.2c-0.2-0.6-0.2-1.2,0-1.7c5.8-20.1,11.8-40.2,17.6-60.3l5.2-17.8
			c0-0.2,0.2-0.4,0.2-0.6c0-0.4,0.2-0.6,0.6-0.6c0,0,0,0,0.2,0s0.4,0,0.6,0h43.9C272.7,702.1,257,757.1,241.2,812.2L241.2,812.2z
			 M328.7,796.2C328.5,796.2,328.5,796.2,328.7,796.2c-15.7,0-31.1,0-46.4,0c-1.2,0-1,0.2-1.2-1c-5-19.5-9.9-39.2-14.9-58.7
			c-0.2-0.6-0.2-1.4,0-1.9c7.9-28,15.8-56,24-84c0-0.4,0.2-0.8,0.6-1.2c12.9,48.9,25.9,97.8,38.8,146.5
			C329.3,796.2,329.1,796.2,328.7,796.2L328.7,796.2L328.7,796.2z M341.5,795.8c0-0.4,0.2-1,0.4-1.4c6.8-18.5,13.3-37.1,20.1-55.5
			c3.7-10.2,7.5-20.7,11.2-30.9c0.4-1.2,0.2-1,1.4-1c11.8,0,23.6,0,35.2,0h1c0.2,0.4-0.2,0.8-0.2,1.2c-4.3,11.8-8.7,23.6-12.9,35.4
			l-18.5,51c0,0.2,0,0.2-0.2,0.2c-0.4,0.8-0.2,0.8-0.8,0.8h-0.4c-7.1,0-14.3,0.2-21.4,0.2c-4.6,0-9.3,0-13.7,0c-0.2,0-0.4,0-0.4,0
			C341.9,796,341.7,796,341.5,795.8L341.5,795.8z M434.4,795.6c-13.3,0-26.9,0-40.2,0h-1.2c9.9-29.4,19.9-58.5,29.8-87.7h0.2
			c0.4,1.2,0.8,2.5,1,3.7c5.8,22.2,11.8,44.6,17.6,66.9c0.2,0.6,0.2,1.2-0.2,1.7c-1.9,4.8-3.9,9.7-5.8,14.5c-0.4,0.8-0.2,1-0.8,1
			C435,795.6,434.8,795.6,434.4,795.6L434.4,795.6z M329.9,789c-6.4-23.6-12.6-47.3-18.7-71.1c-0.2-0.6-0.2-1.2,0-1.7
			c1.4-3.9,2.7-7.5,3.9-11.4c0.2-0.6,0.4-0.8,1-0.8c14.7,0,29.4,0,43.9,0c0.2,0,0.4,0,0.6,0c0,0,0,0,0,0.2s0,0,0,0
			c-9.7,29-19.5,57.8-29.4,86.6c0,0.2-0.2,0.6-0.4,0.8c0,0,0,0-0.2,0C330.3,790.8,330.1,790,329.9,789z M512.7,706.5
			c6.4-18.5,19.5-28,39.6-28c19.7,0,26.5,9.3,20.1,28c-6.4,18.5-19.3,27.8-39,27.8C514.2,734.3,507.2,725.1,512.7,706.5z
			 M524.2,706.3c-4.3,12.8-0.4,19.1,12,19.1c12.2,0,20.3-6.4,24.7-19.1c4.3-12.6,0.4-18.9-11.8-18.9
			C537,687.4,528.7,693.8,524.2,706.3L524.2,706.3z M743,734l18.7-54.9h41l-2.9,8.7h-29.9l-4.6,13.9h28.6l-3.1,9.1h-28.8l-4.8,14.5
			h30.7l-3.1,8.9L743,734z M725.6,734l-17.8-40.8L694.1,734h-10.6l18.7-54.9h11.2l18.2,40l13.5-40h10.6L736.8,734H725.6z M665.9,734
			l18.7-54.9h11.2L677.1,734H665.9z M626.8,734l18.7-54.9h11.2l-15.7,46.2h23.8l-3.1,8.9h-35V734z M609.6,734l-17.8-40.8L578,734
			h-10.6l18.7-54.9h11l18.2,40l13.5-40h10.6L620.7,734H609.6z M412.2,700.5c-9.7,0-19.5,0-29.2,0h-6.8c-0.2,0-0.2,0-0.6,0
			c0.8-1.7,1.4-3.5,1.9-5.2c1.5-4.1,3.1-7.9,4.6-12c0.4-0.8,0.4-0.8,1.2-0.8h36.9c0,0.4,0,0.6-0.2,0.8c-2.3,5.4-4.8,11-7.1,16.4
			C413.1,700.3,412.6,700.5,412.2,700.5L412.2,700.5z"/>
	</g>
</g>
</svg>
