<?xml version="1.0" encoding="utf-8"?>
<!-- Generator: Adobe Illustrator 21.1.0, SVG Export Plug-In . SVG Version: 6.00 Build 0)  -->
<svg version="1.1" id="Capa_1" xmlns="http://www.w3.org/2000/svg" xmlns:xlink="http://www.w3.org/1999/xlink" x="0px" y="0px"
	 viewBox="0 0 334 107" style="enable-background:new 0 0 334 107;" xml:space="preserve">
<style type="text/css">
	.st0{fill:#FFFFFF;}
</style>
<g>
	<g id="Artboard_1">
		<path id="Union_79" class="st0" d="M181.4,106.5c-0.1,0-0.2,0-0.3,0c-7.3,0-14.5,0-21.8,0h-0.6c-0.1-0.2,0.1-0.4,0.1-0.6
			c1.8-4.8,3.6-9.5,5.4-14.2c5.2-13.9,10.4-27.7,15.7-41.6c0.2-0.5,0.1-0.5,0.6-0.5h0.1c7.2,0,14.3,0,21.5,0c0.2,0,0.3,0,0.5,0
			c0,0.2-0.1,0.3-0.1,0.5c-6.8,18.6-13.6,37.2-20.4,55.8c-0.2,0.6-0.2,0.6-0.4,0.6L181.4,106.5z M157.7,104.1
			c-4.2-16.5-8.5-33-12.7-49.4c-2.1-8.3-4.2-16.5-6.3-24.8c0-0.1,0-0.2-0.1-0.3c-0.1-0.2,0-0.3,0.3-0.3c0.1,0,0.2,0,0.3,0H161
			c0.4,0,0.4,0,0.6,0.4c0.4,1.5,0.8,3,1.2,4.6c2.8,10.7,5.6,21.4,8.3,32.1c0.2,0.6,0.3,1.2,0.5,1.8c0.1,0.3,0.1,0.6,0,0.9
			c-1.4,3.6-2.7,7.2-4.1,10.9c-3.1,8.1-6.1,16.2-9.2,24.3c-0.1,0.2-0.1,0.4-0.2,0.5C157.8,104.6,157.7,104.3,157.7,104.1
			L157.7,104.1z M61.6,94.5L66,81.3h76l-4.4,13.1L61.6,94.5L61.6,94.5z M79.5,93.2h1.6l0.7-3.2c0.1,0.2,0.2,0.4,0.4,0.6
			c0.3,0.3,0.7,0.4,1.1,0.4c0.8,0,1.5-0.3,2.1-0.9c0.7-0.7,1.1-1.5,1.3-2.5c0.3-0.8,0.2-1.6-0.3-2.3c-0.4-0.5-1-0.8-1.7-0.8
			c-0.5,0-1,0.1-1.4,0.4c-0.3,0.2-0.5,0.4-0.7,0.6l0.2-0.9h-1.5L79.5,93.2z M95.6,85.4c-0.6,0.6-1.1,1.4-1.3,2.3
			c-0.2,0.8-0.1,1.6,0.3,2.3c0.5,0.7,1.3,1.1,2.2,1c1,0,1.9-0.3,2.6-1c0.6-0.6,1.1-1.4,1.3-2.3c0.2-0.8,0.1-1.6-0.3-2.3
			c-0.5-0.7-1.3-1.1-2.2-1C97.3,84.4,96.3,84.8,95.6,85.4z M130.8,90.4c0.6,0.5,1.3,0.7,2,0.6c0.8,0,1.6-0.2,2.2-0.6
			c0.5-0.4,0.9-0.9,1-1.5c0.1-0.4,0-0.8-0.2-1.2c-0.4-0.4-0.8-0.6-1.3-0.7s-1.1-0.2-1.6-0.4c-0.1-0.1-0.2-0.2-0.2-0.4
			c0-0.2,0.2-0.3,0.3-0.4c0.2-0.1,0.5-0.2,0.8-0.2s0.6,0.1,0.8,0.3c0.1,0.2,0.1,0.3,0.1,0.5h1.6c0.1-0.6,0-1.2-0.5-1.6
			c-0.5-0.3-1.2-0.5-1.8-0.5c-0.7,0-1.4,0.2-2,0.6c-0.5,0.4-0.8,0.9-1,1.5c-0.1,0.4-0.1,0.8,0.2,1.1c0.4,0.3,0.8,0.6,1.3,0.6
			c0.5,0.1,1.1,0.3,1.6,0.5c0.1,0.1,0.2,0.3,0.1,0.4c0,0.2-0.2,0.4-0.4,0.4c-0.2,0.1-0.5,0.2-0.8,0.1c-0.5,0-0.9-0.1-1-0.3
			c-0.1-0.2-0.1-0.4-0.1-0.6h-1.6C130.3,89.4,130.4,90,130.8,90.4L130.8,90.4z M67.1,90.4c0.6,0.5,1.3,0.7,2,0.6
			c0.8,0,1.6-0.2,2.2-0.6c0.5-0.4,0.9-0.9,1-1.5c0.1-0.4,0-0.8-0.2-1.2c-0.4-0.4-0.8-0.6-1.3-0.7s-1.1-0.2-1.6-0.4
			c-0.2,0-0.2-0.2-0.2-0.3c0-0.2,0.2-0.3,0.3-0.4c0.2-0.1,0.5-0.2,0.8-0.2s0.6,0.1,0.8,0.3c0.1,0.2,0.1,0.3,0.1,0.5h1.6
			c0.1-0.6,0-1.2-0.5-1.6c-0.5-0.3-1.2-0.5-1.8-0.5c-0.7,0-1.4,0.2-2,0.6c-0.5,0.4-0.8,0.9-1,1.5c-0.1,0.4-0.1,0.8,0.2,1.1
			c0.4,0.3,0.8,0.6,1.3,0.6c0.5,0.1,1.1,0.3,1.6,0.5c0.1,0.1,0.2,0.3,0.1,0.4c0,0.2-0.2,0.4-0.4,0.4c-0.2,0.1-0.5,0.2-0.8,0.1
			c-0.5,0-0.9-0.1-1-0.3c-0.1-0.2-0.1-0.4-0.1-0.6h-1.6C66.5,89.4,66.7,90,67.1,90.4z M120,85.9h0.9l-0.8,3.8
			c-0.1,0.3-0.1,0.6,0.1,0.9c0.3,0.3,0.8,0.5,1.3,0.4c0.1,0,0.1,0,0.2,0h0.8l0.3-1.2c-0.1,0-0.1,0-0.2,0s-0.1,0-0.2,0
			c-0.3,0-0.5,0-0.6-0.1s0-0.2,0-0.5l0.7-3.3h1l0.2-1.1h-1l0.4-1.7h-1.6l-0.4,1.7h-0.9L120,85.9z M108.1,90.8h1.6l0.6-2.9
			c0.1-0.4,0.2-0.8,0.4-1.1c0.3-0.4,0.9-0.7,1.4-0.6c0.1,0,0.1,0,0.2,0s0.2,0,0.3,0l0.3-1.7c-0.1,0-0.1,0-0.1,0h-0.1
			c-0.5,0-0.9,0.1-1.3,0.4c-0.3,0.2-0.6,0.5-0.8,0.8l0.2-1.1h-1.5L108.1,90.8z M96.1,89.2c-0.2-0.5-0.2-1-0.1-1.4
			c0.1-0.5,0.3-1,0.7-1.4c0.3-0.3,0.7-0.5,1.2-0.5c0.4,0,0.8,0.2,1,0.5c0.2,0.5,0.2,1,0.1,1.4c-0.1,0.5-0.3,1-0.7,1.4
			c-0.3,0.3-0.7,0.5-1.2,0.5C96.7,89.7,96.3,89.5,96.1,89.2z M82.4,89.4c-0.3-0.4-0.4-1-0.2-1.5c0.1-0.4,0.2-0.8,0.4-1.1
			c0.3-0.5,0.8-0.8,1.4-0.8c0.4-0.1,0.8,0.2,0.9,0.5c0.1,0.4,0.2,0.8,0.1,1.3s-0.3,1-0.6,1.4c-0.3,0.3-0.7,0.5-1.1,0.5
			C82.9,89.7,82.6,89.6,82.4,89.4z M41.8,86.4c-5.2,0-10.3-0.1-15.5-0.1c-2.6,0-5.1,0-7.7-0.1c-0.4,0-0.4,0-0.5-0.4
			C14,69.5,10,53.2,5.9,36.8C4,29,2,21.2,0.1,13.4C0,13.2,0,13.1,0,12.9c0.2-0.1,0.4-0.1,0.5,0c7.6,0,15.3,0,22.9,0
			c0.1,0,0.1,0,0.2,0c0.3,0,0.4,0.1,0.4,0.3c0.2,0.9,0.5,1.8,0.7,2.7l7.1,28.4c2.3,9.3,4.6,18.6,7,27.9c1.1,4.5,2.3,9.1,3.4,13.6
			c0.1,0.2,0.1,0.4,0.1,0.5c-0.1,0-0.2,0.1-0.3,0.1C42,86.4,41.9,86.4,41.8,86.4z M43.4,85.5c-0.2-0.9-0.4-1.7-0.7-2.6
			c-2.4-9.8-4.8-19.6-7.3-29.4c-1-3.8-1.9-7.7-2.9-11.5c-0.1-0.3-0.1-0.6,0-0.9c3-10.4,6.1-20.8,9.1-31.2l2.7-9.2
			c0-0.1,0.1-0.2,0.1-0.3c0-0.2,0.1-0.3,0.3-0.3c0,0,0,0,0.1,0s0.2,0,0.3,0h22.7C59.7,28.5,51.6,57,43.4,85.5L43.4,85.5z M88.7,77.2
			C88.6,77.2,88.6,77.2,88.7,77.2c-8.1,0-16.1,0-24,0c-0.6,0-0.5,0.1-0.6-0.5c-2.6-10.1-5.1-20.3-7.7-30.4c-0.1-0.3-0.1-0.7,0-1
			c4.1-14.5,8.2-29,12.4-43.5c0-0.2,0.1-0.4,0.3-0.6C75.8,26.5,82.5,51.8,89.2,77C89,77.2,88.9,77.2,88.7,77.2L88.7,77.2L88.7,77.2z
			 M95.3,77c0-0.2,0.1-0.5,0.2-0.7c3.5-9.6,6.9-19.2,10.4-28.7c1.9-5.3,3.9-10.7,5.8-16c0.2-0.6,0.1-0.5,0.7-0.5
			c6.1,0,12.2,0,18.2,0h0.5c0.1,0.2-0.1,0.4-0.1,0.6c-2.2,6.1-4.5,12.2-6.7,18.3l-9.6,26.4c0,0.1,0,0.1-0.1,0.1
			c-0.2,0.4-0.1,0.4-0.4,0.4H114c-3.7,0-7.4,0.1-11.1,0.1c-2.4,0-4.8,0-7.1,0c-0.1,0-0.2,0-0.2,0C95.5,77.1,95.4,77.1,95.3,77
			L95.3,77z M143.4,76.9c-6.9,0-13.9,0-20.8,0H122c5.1-15.2,10.3-30.3,15.4-45.4h0.1c0.2,0.6,0.4,1.3,0.5,1.9
			c3,11.5,6.1,23.1,9.1,34.6c0.1,0.3,0.1,0.6-0.1,0.9c-1,2.5-2,5-3,7.5c-0.2,0.4-0.1,0.5-0.4,0.5C143.7,76.9,143.6,76.9,143.4,76.9
			L143.4,76.9z M89.3,73.5C86,61.3,82.8,49,79.6,36.7c-0.1-0.3-0.1-0.6,0-0.9c0.7-2,1.4-3.9,2-5.9c0.1-0.3,0.2-0.4,0.5-0.4
			c7.6,0,15.2,0,22.7,0c0.1,0,0.2,0,0.3,0c0,0,0,0,0,0.1s0,0,0,0c-5,15-10.1,29.9-15.2,44.8c0,0.1-0.1,0.3-0.2,0.4c0,0,0,0-0.1,0
			C89.5,74.4,89.4,74,89.3,73.5z M183.9,30.8c3.3-9.6,10.1-14.5,20.5-14.5c10.2,0,13.7,4.8,10.4,14.5c-3.3,9.6-10,14.4-20.2,14.4
			C184.7,45.2,181.1,40.4,183.9,30.8z M189.9,30.7c-2.2,6.6-0.2,9.9,6.2,9.9c6.3,0,10.5-3.3,12.8-9.9c2.2-6.5,0.2-9.8-6.1-9.8
			C196.5,20.9,192.2,24.2,189.9,30.7L189.9,30.7z M303.1,45l9.7-28.4H334l-1.5,4.5H317l-2.4,7.2h14.8l-1.6,4.7h-14.9l-2.5,7.5h15.9
			l-1.6,4.6L303.1,45z M294.1,45l-9.2-21.1L277.8,45h-5.5l9.7-28.4h5.8l9.4,20.7l7-20.7h5.5L299.9,45H294.1z M263.2,45l9.7-28.4h5.8
			L269,45H263.2z M243,45l9.7-28.4h5.8l-8.1,23.9h12.3l-1.6,4.6L243,45L243,45z M234.1,45l-9.2-21.1L217.7,45h-5.5l9.7-28.4h5.7
			l9.4,20.7l7-20.7h5.5L239.8,45H234.1z M131.9,27.7c-5,0-10.1,0-15.1,0h-3.5c-0.1,0-0.1,0-0.3,0c0.4-0.9,0.7-1.8,1-2.7
			c0.8-2.1,1.6-4.1,2.4-6.2c0.2-0.4,0.2-0.4,0.6-0.4h19.1c0,0.2,0,0.3-0.1,0.4c-1.2,2.8-2.5,5.7-3.7,8.5
			C132.4,27.6,132.1,27.7,131.9,27.7L131.9,27.7z"/>
	</g>
</g>
</svg>
