<svg xmlns="http://www.w3.org/2000/svg" xmlns:xlink="http://www.w3.org/1999/xlink" viewBox="-3287 -2095 164 49">
  <defs>
    <style>
      .cls-1, .cls-5 {
        fill: none;
      }

      .cls-2 {
        clip-path: url(#clip-Artboard_1);
      }

      .cls-3 {
        clip-path: url(#clip-path);
      }

      .cls-4, .cls-6 {
        fill: #fff;
      }

      .cls-5, .cls-6 {
        stroke: #fff;
        stroke-width: 0.2px;
      }

      .cls-7 {
        clip-path: url(#clip-path-2);
      }

      .cls-8 {
        fill: url(#linear-gradient);
      }

      .cls-9 {
        clip-path: url(#clip-path-3);
      }

      .cls-10 {
        fill: url(#linear-gradient-2);
      }

      .cls-11 {
        clip-path: url(#clip-path-4);
      }

      .cls-12 {
        fill: url(#linear-gradient-3);
      }

      .cls-13 {
        clip-path: url(#clip-path-5);
      }

      .cls-14 {
        fill: url(#linear-gradient-4);
      }

      .cls-15 {
        clip-path: url(#clip-path-7);
      }

      .cls-16 {
        clip-path: url(#clip-path-8);
      }

      .cls-17 {
        clip-path: url(#clip-path-9);
      }

      .cls-18 {
        clip-path: url(#clip-path-10);
      }
    </style>
    <clipPath id="clip-path">
      <path id="Path_4211" data-name="Path 4211" class="cls-1" d="M0-40H163.2V8.355H0Z" transform="translate(0 40)"/>
    </clipPath>
    <clipPath id="clip-path-2">
      <path id="Path_4213" data-name="Path 4213" class="cls-1" d="M10.533-32.447a2.421,2.421,0,0,0-.56,1.7h0V-4.013a2.419,2.419,0,0,0,.56,1.7h0l.088.087L25.6-17.2v-.353L10.621-32.535Z" transform="translate(-9.973 32.535)"/>
    </clipPath>
    <linearGradient id="linear-gradient" x1="0.697" y1="0.174" x2="0.888" y2="0.174" gradientUnits="objectBoundingBox">
      <stop offset="0" stop-color="#00a0ff"/>
      <stop offset="0.1" stop-color="#00abff"/>
      <stop offset="0.2" stop-color="#00b7ff"/>
      <stop offset="0.3" stop-color="#00c1ff"/>
      <stop offset="0.4" stop-color="#00c9ff"/>
      <stop offset="0.5" stop-color="#00d1ff"/>
      <stop offset="0.6" stop-color="#00d6ff"/>
      <stop offset="0.7" stop-color="#00dbff"/>
      <stop offset="0.8" stop-color="#00dfff"/>
      <stop offset="0.9" stop-color="#00e1ff"/>
      <stop offset="1" stop-color="#00e2ff"/>
    </linearGradient>
    <clipPath id="clip-path-3">
      <path id="Path_4215" data-name="Path 4215" class="cls-1" d="M22.9-19.282v.353l4.991,4.994L28-14l5.915-3.361c1.69-.961,1.69-2.533,0-3.492h0L28-24.212l-.112-.064Z" transform="translate(-22.899 24.276)"/>
    </clipPath>
    <linearGradient id="linear-gradient-2" x1="0.749" y1="0.5" x2="0.929" y2="0.5" gradientUnits="objectBoundingBox">
      <stop offset="0" stop-color="#ffdf00"/>
      <stop offset="0.1" stop-color="gold"/>
      <stop offset="0.2" stop-color="#ffce00"/>
      <stop offset="0.3" stop-color="#ffc600"/>
      <stop offset="0.4" stop-color="#ffbd00"/>
      <stop offset="0.5" stop-color="#ffb700"/>
      <stop offset="0.6" stop-color="#ffb000"/>
      <stop offset="0.7" stop-color="#ffa900"/>
      <stop offset="0.8" stop-color="#ffa400"/>
      <stop offset="0.9" stop-color="#ffa000"/>
      <stop offset="1" stop-color="#ff9c00"/>
    </linearGradient>
    <clipPath id="clip-path-4">
      <path id="Path_4217" data-name="Path 4217" class="cls-1" d="M10.436-4.933a1.965,1.965,0,0,0,2.512.074h0L30.607-14.893,25.5-20Z" transform="translate(-10.436 19.999)"/>
    </clipPath>
    <linearGradient id="linear-gradient-3" x1="0.757" y1="0.269" x2="1.017" y2="0.269" gradientUnits="objectBoundingBox">
      <stop offset="0" stop-color="#ff3a44"/>
      <stop offset="0.1" stop-color="#f93547"/>
      <stop offset="0.2" stop-color="#f3314a"/>
      <stop offset="0.3" stop-color="#ed2d4d"/>
      <stop offset="0.4" stop-color="#e72950"/>
      <stop offset="0.5" stop-color="#e12553"/>
      <stop offset="0.6" stop-color="#db2156"/>
      <stop offset="0.7" stop-color="#d51d59"/>
      <stop offset="0.8" stop-color="#cf195c"/>
      <stop offset="0.9" stop-color="#c9155f"/>
      <stop offset="1" stop-color="#c31162"/>
    </linearGradient>
    <clipPath id="clip-path-5">
      <path id="Path_4219" data-name="Path 4219" class="cls-1" d="M10.436-32.379,25.5-17.313l5.105-5.106L12.948-32.453a2.777,2.777,0,0,0-1.355-.407h0a1.544,1.544,0,0,0-1.157.481" transform="translate(-10.436 32.86)"/>
    </clipPath>
    <linearGradient id="linear-gradient-4" x1="0.043" y1="0.269" x2="0.159" y2="0.269" gradientUnits="objectBoundingBox">
      <stop offset="0" stop-color="#31a070"/>
      <stop offset="0.1" stop-color="#2baa71"/>
      <stop offset="0.2" stop-color="#25b371"/>
      <stop offset="0.3" stop-color="#1fbd72"/>
      <stop offset="0.4" stop-color="#19c773"/>
      <stop offset="0.5" stop-color="#13d074"/>
      <stop offset="0.6" stop-color="#0fd874"/>
      <stop offset="0.7" stop-color="#0adf74"/>
      <stop offset="0.8" stop-color="#06e674"/>
      <stop offset="0.9" stop-color="#03eb75"/>
      <stop offset="1" stop-color="#00ef75"/>
    </linearGradient>
    <clipPath id="clip-path-7">
      <rect id="Rectangle_1011" data-name="Rectangle 1011" class="cls-1" width="20.172" height="10.553"/>
    </clipPath>
    <clipPath id="clip-path-8">
      <rect id="Rectangle_1012" data-name="Rectangle 1012" class="cls-1" width="0.649" height="1.875"/>
    </clipPath>
    <clipPath id="clip-path-9">
      <rect id="Rectangle_1013" data-name="Rectangle 1013" class="cls-1" width="7.295" height="5.106"/>
    </clipPath>
    <clipPath id="clip-path-10">
      <rect id="Rectangle_1014" data-name="Rectangle 1014" class="cls-1" width="27.914" height="15.547"/>
    </clipPath>
    <clipPath id="clip-Artboard_1">
      <rect x="-3287" y="-2095" width="164" height="49"/>
    </clipPath>
  </defs>
  <g id="Artboard_1" data-name="Artboard – 1" class="cls-2">
    <g id="Group_5199" data-name="Group 5199" transform="translate(-3287 -2095)">
      <g id="Group_4691" data-name="Group 4691" class="cls-3">
        <g id="Group_4678" data-name="Group 4678">
          <path id="Path_4196" data-name="Path 4196" d="M27.155,8.355H-123.956A6.062,6.062,0,0,1-130,2.311V-33.956A6.062,6.062,0,0,1-123.956-40H27.155A6.062,6.062,0,0,1,33.2-33.956V2.311a6.062,6.062,0,0,1-6.044,6.044" transform="translate(130 40)"/>
        </g>
        <g id="Group_4679" data-name="Group 4679" transform="translate(49.99 8.3)">
          <path id="Path_4197" data-name="Path 4197" class="cls-4" d="M1.267.705a3.274,3.274,0,0,1-.9,2.421A3.517,3.517,0,0,1-2.3,4.2,3.647,3.647,0,0,1-4.967,3.111a3.643,3.643,0,0,1-1.1-2.7,3.646,3.646,0,0,1,1.1-2.7A3.65,3.65,0,0,1-2.3-3.377a3.749,3.749,0,0,1,1.488.3,3,3,0,0,1,1.135.81l-.638.638A2.45,2.45,0,0,0-2.3-2.486a2.759,2.759,0,0,0-1.981.805A2.776,2.776,0,0,0-5.115.412,2.774,2.774,0,0,0-4.279,2.5,2.754,2.754,0,0,0-2.3,3.308,2.751,2.751,0,0,0-.272,2.5,2.274,2.274,0,0,0,.335,1.029H-2.3V.158H1.216a3.109,3.109,0,0,1,.051.548" transform="translate(6.066 3.377)"/>
        </g>
        <g id="Group_4680" data-name="Group 4680" transform="translate(49.99 8.3)">
          <path id="Path_4198" data-name="Path 4198" class="cls-5" d="M1.267.705a3.274,3.274,0,0,1-.9,2.421A3.517,3.517,0,0,1-2.3,4.2,3.647,3.647,0,0,1-4.967,3.111a3.643,3.643,0,0,1-1.1-2.7,3.646,3.646,0,0,1,1.1-2.7A3.65,3.65,0,0,1-2.3-3.377a3.749,3.749,0,0,1,1.488.3,3,3,0,0,1,1.135.81l-.638.638A2.45,2.45,0,0,0-2.3-2.486a2.759,2.759,0,0,0-1.981.805A2.776,2.776,0,0,0-5.115.412,2.774,2.774,0,0,0-4.279,2.5,2.754,2.754,0,0,0-2.3,3.308,2.751,2.751,0,0,0-.272,2.5,2.274,2.274,0,0,0,.335,1.029H-2.3V.158H1.216A3.109,3.109,0,0,1,1.267.705Z" transform="translate(6.066 3.377)"/>
        </g>
        <g id="Group_4681" data-name="Group 4681" transform="translate(58.661 8.463)">
          <path id="Path_4199" data-name="Path 4199" class="cls-4" d="M.732.154h-3.3v2.3H.407v.872H-2.571v2.3h3.3v.892H-3.5V-.737H.732Z" transform="translate(3.503 0.737)"/>
        </g>
        <g id="Group_4682" data-name="Group 4682" transform="translate(58.661 8.463)">
          <path id="Path_4200" data-name="Path 4200" class="cls-5" d="M.732.154h-3.3v2.3H.407v.872H-2.571v2.3h3.3v.892H-3.5V-.737H.732Z" transform="translate(3.503 0.737)"/>
        </g>
        <g id="Group_4683" data-name="Group 4683" transform="translate(63.868 8.462)">
          <path id="Path_4201" data-name="Path 4201" class="cls-4" d="M.511,1.253H-.421V-5.109H-2.447V-6H2.537v.891H.511Z" transform="translate(2.447 6)"/>
        </g>
        <g id="Group_4684" data-name="Group 4684" transform="translate(63.868 8.462)">
          <path id="Path_4202" data-name="Path 4202" class="cls-5" d="M.511,1.253H-.421V-5.109H-2.447V-6H2.537v.891H.511Z" transform="translate(2.447 6)"/>
        </g>
        <path id="Path_4203" data-name="Path 4203" class="cls-6" d="M59.938-33h.932v7.253h-.932Z" transform="translate(12.52 41.462)"/>
        <g id="Group_4685" data-name="Group 4685" transform="translate(74.566 8.462)">
          <path id="Path_4204" data-name="Path 4204" class="cls-4" d="M.511,1.253H-.421V-5.109H-2.447V-6H2.537v.891H.511Z" transform="translate(2.447 6)"/>
        </g>
        <g id="Group_4686" data-name="Group 4686" transform="translate(74.566 8.462)">
          <path id="Path_4205" data-name="Path 4205" class="cls-5" d="M.511,1.253H-.421V-5.109H-2.447V-6H2.537v.891H.511Z" transform="translate(2.447 6)"/>
        </g>
        <g id="Group_4687" data-name="Group 4687" transform="translate(82.599 8.3)">
          <path id="Path_4206" data-name="Path 4206" class="cls-4" d="M.3,1.014a2.66,2.66,0,0,0,1.97.815,2.662,2.662,0,0,0,1.97-.815,2.841,2.841,0,0,0,.806-2.082,2.839,2.839,0,0,0-.806-2.082,2.663,2.663,0,0,0-1.97-.816A2.661,2.661,0,0,0,.3-3.149,2.843,2.843,0,0,0-.5-1.067,2.845,2.845,0,0,0,.3,1.014m4.63.607a3.558,3.558,0,0,1-2.66,1.1,3.553,3.553,0,0,1-2.658-1.1A3.706,3.706,0,0,1-1.453-1.067,3.709,3.709,0,0,1-.384-3.757a3.556,3.556,0,0,1,2.658-1.1,3.556,3.556,0,0,1,2.655,1.1A3.708,3.708,0,0,1,6-1.067,3.711,3.711,0,0,1,4.934,1.621" transform="translate(1.453 4.856)"/>
        </g>
        <g id="Group_4688" data-name="Group 4688" transform="translate(82.599 8.3)">
          <path id="Path_4207" data-name="Path 4207" class="cls-5" d="M.3,1.014a2.66,2.66,0,0,0,1.97.815,2.662,2.662,0,0,0,1.97-.815,2.841,2.841,0,0,0,.806-2.082,2.839,2.839,0,0,0-.806-2.082,2.663,2.663,0,0,0-1.97-.816A2.661,2.661,0,0,0,.3-3.149,2.843,2.843,0,0,0-.5-1.067,2.845,2.845,0,0,0,.3,1.014Zm4.63.607a3.558,3.558,0,0,1-2.66,1.1,3.553,3.553,0,0,1-2.658-1.1A3.706,3.706,0,0,1-1.453-1.067,3.709,3.709,0,0,1-.384-3.757a3.556,3.556,0,0,1,2.658-1.1,3.556,3.556,0,0,1,2.655,1.1A3.708,3.708,0,0,1,6-1.067,3.711,3.711,0,0,1,4.934,1.621Z" transform="translate(1.453 4.856)"/>
        </g>
        <g id="Group_4689" data-name="Group 4689" transform="translate(91.362 8.462)">
          <path id="Path_4208" data-name="Path 4208" class="cls-4" d="M0,1.253V-6H1.134L4.659-.358H4.7l-.041-1.4V-6h.933V1.253H4.619L.932-4.663H.891l.041,1.4V1.253Z" transform="translate(0 6)"/>
        </g>
        <g id="Group_4690" data-name="Group 4690" transform="translate(91.362 8.462)">
          <path id="Path_4209" data-name="Path 4209" class="cls-5" d="M0,1.253V-6H1.134L4.659-.358H4.7l-.041-1.4V-6h.933V1.253H4.619L.932-4.663H.891l.041,1.4V1.253Z" transform="translate(0 6)"/>
        </g>
        <path id="Path_4210" data-name="Path 4210" class="cls-4" d="M120.7-7.294h2.255V-22.407H120.7Zm20.317-9.669-2.586,6.552h-.077l-2.684-6.552h-2.429l4.024,9.157-2.3,5.094h2.354l6.2-14.252ZM128.225-9.011c-.737,0-1.769-.37-1.769-1.283,0-1.167,1.284-1.614,2.392-1.614a4.007,4.007,0,0,1,2.06.505,2.735,2.735,0,0,1-2.684,2.391m.273-8.282a4.234,4.234,0,0,0-4.024,2.314l2,.835a2.139,2.139,0,0,1,2.061-1.109,2.172,2.172,0,0,1,2.372,1.944v.156a4.994,4.994,0,0,0-2.352-.583c-2.159,0-4.356,1.186-4.356,3.4a3.492,3.492,0,0,0,3.754,3.326,3.178,3.178,0,0,0,2.876-1.478h.079V-7.32h2.178v-5.793c0-2.684-2-4.18-4.589-4.18m-13.941,2.17h-3.208V-20.3h3.208a2.618,2.618,0,0,1,2.644,2.589,2.633,2.633,0,0,1-2.644,2.591m-.058-7.284h-5.4V-7.294h2.255V-13.02h3.15a4.789,4.789,0,0,0,4.958-4.694,4.788,4.788,0,0,0-4.958-4.693M85.025-9.007a2.951,2.951,0,0,1-2.863-3.1,2.973,2.973,0,0,1,2.863-3.136A2.9,2.9,0,0,1,87.77-12.1a2.874,2.874,0,0,1-2.745,3.1m2.589-7.109h-.077a3.566,3.566,0,0,0-2.707-1.15A5.115,5.115,0,0,0,79.9-12.1,5.091,5.091,0,0,0,84.83-6.982,3.508,3.508,0,0,0,87.537-8.15h.077v.739c0,1.968-1.052,3.019-2.745,3.019a2.845,2.845,0,0,1-2.591-1.83L80.311-5.4a4.9,4.9,0,0,0,4.558,3.038c2.649,0,4.889-1.558,4.889-5.355v-9.232H87.614Zm3.7,8.822h2.258V-22.407H91.316ZM96.9-12.28a2.82,2.82,0,0,1,2.689-3,1.993,1.993,0,0,1,1.909,1.09Zm7.012-1.714a4.781,4.781,0,0,0-4.4-3.272,4.888,4.888,0,0,0-4.85,5.143,5.032,5.032,0,0,0,5.1,5.141,5.118,5.118,0,0,0,4.286-2.279L102.3-10.43a2.939,2.939,0,0,1-2.533,1.423,2.614,2.614,0,0,1-2.492-1.559l6.874-2.843ZM49.144-15.688v2.181h5.22a4.553,4.553,0,0,1-1.188,2.745,5.344,5.344,0,0,1-4.032,1.6,5.728,5.728,0,0,1-5.726-5.8,5.728,5.728,0,0,1,5.726-5.8,5.561,5.561,0,0,1,3.934,1.558l1.539-1.539a7.61,7.61,0,0,0-5.473-2.2,8.1,8.1,0,0,0-8.1,7.986,8.1,8.1,0,0,0,8.1,7.985,7.3,7.3,0,0,0,5.569-2.24,7.207,7.207,0,0,0,1.889-5.1,7.056,7.056,0,0,0-.117-1.362Zm13.392,6.68a2.975,2.975,0,0,1-2.9-3.117,2.963,2.963,0,0,1,2.9-3.117,2.963,2.963,0,0,1,2.9,3.117,2.976,2.976,0,0,1-2.9,3.117m0-8.259a5.069,5.069,0,0,0-5.161,5.143,5.079,5.079,0,0,0,5.161,5.141A5.08,5.08,0,0,0,67.7-12.124a5.069,5.069,0,0,0-5.162-5.143M73.8-9.007a2.976,2.976,0,0,1-2.9-3.117,2.963,2.963,0,0,1,2.9-3.117,2.962,2.962,0,0,1,2.9,3.117,2.975,2.975,0,0,1-2.9,3.117m0-8.259a5.069,5.069,0,0,0-5.161,5.143A5.079,5.079,0,0,0,73.8-6.982a5.079,5.079,0,0,0,5.161-5.141A5.069,5.069,0,0,0,73.8-17.266" transform="translate(8.573 43.561)"/>
      </g>
      <g id="Group_4693" data-name="Group 4693" class="cls-7" transform="translate(12.056 9.024)">
        <g id="Group_4692" data-name="Group 4692" transform="translate(-36.234 -90.624)">
          <path id="Path_4212" data-name="Path 4212" class="cls-8" d="M115.4,149.592,0,34.192,34.192,0l115.4,115.4Z" transform="translate(211.555 105.778) rotate(135)"/>
        </g>
      </g>
      <g id="Group_4695" data-name="Group 4695" class="cls-9" transform="translate(27.682 19.009)">
        <g id="Group_4694" data-name="Group 4694" transform="translate(-27.682 -19.009)">
          <path id="Path_4214" data-name="Path 4214" class="cls-10" d="M163.2,48.355H0V0H163.2Z" transform="translate(163.2 48.355) rotate(180)"/>
        </g>
      </g>
      <g id="Group_4697" data-name="Group 4697" class="cls-11" transform="translate(12.616 24.179)">
        <g id="Group_4696" data-name="Group 4696" transform="translate(-36.794 -105.779)">
          <path id="Path_4216" data-name="Path 4216" class="cls-12" d="M115.4,149.592,0,34.192,34.192,0l115.4,115.4Z" transform="translate(211.555 105.778) rotate(135)"/>
        </g>
      </g>
      <g id="Group_4699" data-name="Group 4699" class="cls-13" transform="translate(12.616 8.631)">
        <g id="Group_4698" data-name="Group 4698" transform="translate(-36.794 -90.231)">
          <path id="Path_4218" data-name="Path 4218" class="cls-14" d="M0,115.4,115.4,0l34.192,34.192-115.4,115.4Z" transform="translate(105.778 0) rotate(45)"/>
        </g>
      </g>
      <g id="Group_4712" data-name="Group 4712" class="cls-3">
        <g id="Group_4702" data-name="Group 4702" transform="translate(12.615 29.173)">
          <g id="Group_4701" data-name="Group 4701" class="cls-15">
            <g id="Group_4700" data-name="Group 4700" transform="translate(0 0)">
              <path id="Path_4220" data-name="Path 4220" d="M3.466,0-14.081,9.971a2.016,2.016,0,0,1-2.423.012l-.089.091.088.087h0a2.014,2.014,0,0,0,2.423-.012L3.578.112Z" transform="translate(16.593)"/>
            </g>
          </g>
        </g>
        <g id="Group_4705" data-name="Group 4705" transform="translate(12.056 37.371)">
          <g id="Group_4704" data-name="Group 4704" class="cls-16">
            <g id="Group_4703" data-name="Group 4703" transform="translate(0 0)">
              <path id="Path_4221" data-name="Path 4221" d="M.1.293a2.421,2.421,0,0,1-.56-1.7v.176A2.421,2.421,0,0,0,.1.47L.186.381Z" transform="translate(0.463 1.405)"/>
            </g>
          </g>
        </g>
        <g id="Group_4708" data-name="Group 4708" transform="translate(32.675 24.18)">
          <g id="Group_4707" data-name="Group 4707" class="cls-17">
            <g id="Group_4706" data-name="Group 4706" transform="translate(0 0)">
              <path id="Path_4222" data-name="Path 4222" d="M1.042.271-4.986,3.7l.112.112L1.042.447A2.12,2.12,0,0,0,2.308-1.3,2.25,2.25,0,0,1,1.042.271" transform="translate(4.986 1.297)"/>
            </g>
          </g>
        </g>
        <g id="Group_4711" data-name="Group 4711" transform="translate(12.056 8.632)">
          <g id="Group_4710" data-name="Group 4710" class="cls-18">
            <g id="Group_4709" data-name="Group 4709" transform="translate(0 0)">
              <path id="Path_4223" data-name="Path 4223" class="cls-4" d="M.531.1,24.105,13.5a2.249,2.249,0,0,1,1.267,1.569,2.119,2.119,0,0,0-1.267-1.746L.531-.076c-1.69-.96-3.072-.162-3.072,1.772v.176C-2.541-.061-1.159-.859.531.1" transform="translate(2.541 0.482)"/>
            </g>
          </g>
        </g>
      </g>
    </g>
  </g>
</svg>
