<?xml version="1.0" encoding="utf-8"?>
<!-- Generator: Adobe Illustrator 22.0.0, SVG Export Plug-In . SVG Version: 6.00 Build 0)  -->
<svg version="1.1" id="Capa_1" xmlns="http://www.w3.org/2000/svg" xmlns:xlink="http://www.w3.org/1999/xlink" x="0px" y="0px"
	 viewBox="0 0 85 85" style="enable-background:new 0 0 85 85;" xml:space="preserve">
<style type="text/css">
	.st0{fill:#FF550F;}
</style>
<g>
	<path class="st0" d="M62.3,45.3h-17v17h-5.7v-17h-17v-5.7h17v-17h5.7v17h17V45.3z"/>
	<g>
		<path class="st0" d="M42.5,82.5c-22,0-40-17.9-40-40s17.9-40,40-40c22,0,40,17.9,40,40S64.5,82.5,42.5,82.5z M42.5,5.3
			C22,5.3,5.3,22,5.3,42.5C5.3,63,22,79.7,42.5,79.7C63,79.7,79.7,63,79.7,42.5C79.7,22,63,5.3,42.5,5.3z"/>
	</g>
</g>
</svg>
