<?xml version="1.0" encoding="utf-8"?>
<!-- Generator: Adobe Illustrator 16.0.0, SVG Export Plug-In . SVG Version: 6.00 Build 0)  -->
<!DOCTYPE svg PUBLIC "-//W3C//DTD SVG 1.1//EN" "http://www.w3.org/Graphics/SVG/1.1/DTD/svg11.dtd">
<svg version="1.1" id="Layer_1" xmlns="http://www.w3.org/2000/svg" xmlns:xlink="http://www.w3.org/1999/xlink" x="0px" y="0px"
	 width="1190.55px" height="842px" viewBox="0 0 1190.55 842" enable-background="new 0 0 1190.55 842" xml:space="preserve">
<rect x="0.128" y="0.001" fill="#D65677" width="1190.546" height="120.877"/>
<path fill="#FFFFFF" d="M1028.243,79.745v6.432h-51.555v-6.432l17.185-11.562v-4.499c-1.06,0-2.041-1.115-2.943-3.351
	c-0.903-2.233-1.354-4.116-1.354-5.646v-8.997c0-3.718,1.26-6.897,3.782-9.536c2.52-2.639,5.555-3.959,9.107-3.959
	c3.551,0,6.587,1.32,9.107,3.959s3.782,5.818,3.782,9.536v8.997c0,1.529-0.45,3.412-1.354,5.646
	c-0.902,2.235-1.883,3.351-2.943,3.351v4.499L1028.243,79.745z"/>
<text transform="matrix(1 0 0 1 1048.54 61.1865)" fill="#FFFFFF" font-family="'HelveticaNeue'" font-size="18">User@user.cl</text>
<text transform="matrix(1 0 0 1 1047.54 84.1865)" font-family="'HelveticaNeue'" font-size="18">(Cerrar sesión)</text>
<linearGradient id="SVGID_1_" gradientUnits="userSpaceOnUse" x1="35.647" y1="59.9326" x2="104.1191" y2="59.9326">
	<stop  offset="0" style="stop-color:#FFFFFF;stop-opacity:0"/>
	<stop  offset="0.5323" style="stop-color:#FFFFFF"/>
</linearGradient>
<path fill-rule="evenodd" clip-rule="evenodd" fill="url(#SVGID_1_)" d="M80.355,86.817c-0.271-0.113-0.547-0.219-0.812-0.343
	c-0.171-0.079-0.347-0.196-0.519-0.067c-0.2,0.151-0.224,0.404-0.11,0.591c0.825,1.36,1.749,2.628,3.542,3.202
	c-0.099-0.896-0.653-1.367-1.023-1.935c-0.331-0.509-1.038-0.755-1.088-1.454c0.6-0.223,0.438-0.721,0.347-1.101
	c-0.25-1.049-0.671-2.05-1.348-2.915c-0.231-0.296-0.5-0.859-1.043-0.537c-0.44,0.262-0.326,0.736-0.192,1.17
	C78.521,84.768,79.309,85.87,80.355,86.817z M60.854,38.271c2.114-0.666,2.325-2.257,1.874-4.143
	c-0.117-0.488-0.154-0.998-0.193-1.5c-0.063-0.797-0.45-1.334-1.227-1.656c-1.377-0.57-2.744-1.17-4.103-1.783
	c-0.802-0.361-1.563-0.248-2.234,0.212c-1.25,0.857-2.523,1.688-3.63,2.731c-0.6,0.564-0.817,1.168-0.574,1.947
	c0.376,1.208,0.729,2.424,1.077,3.64c0.125,0.439,0.314,0.89,0.771,1.001C55.373,39.396,58.188,41.03,60.854,38.271z M40.166,53.522
	c-0.006,0.004-0.012,0.008-0.018,0.012C40.5,54,40.85,54.467,41.205,54.931c1.157,1.512,5.747,1.255,6.739-0.377
	c0.019-0.031,0.034-0.064,0.054-0.094c1.508-2.382,2.221-4.781,0.275-7.295c-0.307-0.396-0.447-0.907-0.69-1.354
	c-0.297-0.545-0.746-0.877-1.423-0.896c-1.347-0.037-2.692-0.1-4.039-0.149c-0.759-0.028-1.28,0.308-1.58,0.972
	c-0.581,1.285-1.169,2.568-1.742,3.857c-0.417,0.939-0.319,1.814,0.372,2.622C39.527,52.634,39.836,53.086,40.166,53.522z
	 M70.656,29.098c1.221,0.819,2.627,1.919,4.183,2.765c1.862,1.012,3.985,0.747,6.033,0.717c0.165-0.002,0.355-0.113,0.488-0.225
	c0.836-0.701,1.146-3.514,0.413-4.34c-1.143-1.287-2.353-2.52-3.548-3.762c-0.329-0.343-0.725-0.574-1.196-0.763
	c-1.946-0.774-3.92-0.205-5.877-0.173c-0.572,0.01-0.863,0.531-0.902,1.09c-0.078,1.115-0.141,2.23-0.213,3.345
	C70.008,28.18,70.239,28.509,70.656,29.098z M44.757,73.737c0.388-0.188,0.748-0.491,0.717-0.895
	c-0.122-1.562,0.14-3.17-0.636-4.656c-0.884-1.693-2.505-2.737-3.818-4.049c-0.304-0.305-0.815-0.355-1.28-0.215
	c-1,0.305-1.997,0.625-3.001,0.918c-0.81,0.236-1.137,0.758-1.085,1.545c0.086,1.295,0.128,2.594,0.254,3.885
	c0.071,0.725,0.345,1.416,0.986,1.869c1.238,0.877,2.506,1.715,3.755,2.576c0.576,0.398,1.182,0.443,1.805,0.152
	C43.229,74.507,43.99,74.116,44.757,73.737z M50.488,49.224c0.31,0.412,0.667,0.684,1.222,0.684c0.937,0,1.875,0.059,2.81,0.025
	c0.681-0.021,1.382-0.23,1.836-0.693c1.818-1.854,3.694-3.727,2.158-6.607c-0.066-0.124-0.083-0.276-0.104-0.418
	c-0.111-0.748-0.609-1.118-1.332-1.27c-1.245-0.26-2.488-0.529-3.736-0.771c-0.917-0.178-1.669,0.039-2.244,0.825
	c-0.645,0.884-1.352,1.726-2.063,2.562c-0.478,0.562-0.594,1.17-0.312,1.814C49.288,46.667,49.897,47.942,50.488,49.224z
	 M74.099,37.317c1.258-0.821,1.417-3.646,0.254-4.498c-1.249-0.916-2.544-1.783-3.885-2.57c-0.692-0.406-1.529-0.545-2.363-0.254
	c-1.126,0.393-2.246,0.809-3.387,1.159c-0.694,0.214-0.953,0.648-0.928,1.292c0.015,0.395,0.066,0.788,0.109,1.182
	c0.413,3.854-0.063,2.822,3.493,4.369C69.827,39.058,71.968,38.017,74.099,37.317z M48.395,57.472
	c-0.306-0.76-1.124-0.939-2.177-0.725c-0.841,0.174-1.708,0.234-2.561,0.357c-0.675,0.096-1.242,0.375-1.394,1.07
	c-0.276,1.27-0.532,2.543-0.75,3.822c-0.109,0.637,0.161,1.223,0.6,1.682c0.963,1.008,1.973,1.975,2.958,2.963
	c0.303,0.304,0.669,0.451,1.101,0.466c1.812,0.062,3.425-1.087,3.833-2.763c0.178-0.734,0.304-1.484,0.431-2.23
	c0.126-0.738-0.073-1.445-0.422-2.082C49.58,59.239,49.047,58.493,48.395,57.472z M61.579,39.187
	c-0.649,0.453-1.162,0.816-1.682,1.171c-0.505,0.345-0.783,0.839-0.671,1.396c0.205,1.021,0.496,2.029,0.798,3.031
	c0.105,0.35,0.406,0.625,0.797,0.705c2.085,0.426,4.192,1.032,6.064-0.604c0.245-0.215,0.558-0.371,0.864-0.5
	c1.074-0.449,1.502-1.227,1.385-2.33c-0.056-0.535-0.058-1.078-0.076-1.617c-0.012-0.375-0.067-0.814-0.417-0.953
	c-1.635-0.655-3.16-1.688-5.058-1.516C62.653,38.056,62.215,38.931,61.579,39.187z M50.012,58.44
	c0.498,0.494,0.605,1.334,1.362,1.639c0.649,0.26,3.648-0.513,4.137-1.031c1.753-1.863,1.92-5.615,0.346-7.721
	c-0.21-0.279-0.504-0.414-0.842-0.49c-3.015-0.672-4.309-0.044-5.525,2.688c-0.015,0.031-0.025,0.068-0.043,0.098
	C48.389,55.354,48.432,56.973,50.012,58.44z M42.4,87.401c0.437,0.475,0.819,1.211,1.549,1.725c1.836,1.294,4.06,1.384,6.136,1.893
	c1.099,0.27,2.8-1.504,2.331-2.304c-0.659-1.122-1.426-2.206-2.401-3.111c-1.429-1.326-3.295-1.942-5.026-2.776
	c-0.793-0.381-1.491-0.244-2.203,0.242c-2.375,1.621-2.385,1.616-0.697,3.919C42.153,87.077,42.22,87.163,42.4,87.401z
	 M50.189,77.694c-0.599-1.141-1.949-1.734-3.04-2.59c-0.905-0.711-4.166,0.297-4.558,1.357c-0.037,0.099-0.074,0.225-0.042,0.316
	c0.503,1.459,0.682,3.074,1.73,4.288c1.315,1.523,3.289,2.095,5.131,2.747c1.159,0.411,2.919-1.102,2.58-2.15
	C51.564,80.343,51.305,78.923,50.189,77.694z M90.575,33.079c-1.494-1.909-3.834-2.566-6.136-3.285
	c-0.223-0.07-0.44-0.015-0.627,0.141c-0.643,0.533-0.995,3.161-0.444,3.758c2.263,2.447,4.913,4.365,8.205,5.365
	c0.879,0.268,1.528-0.113,1.618-0.953c0.059-0.549-0.058-1.072-0.368-1.549C92.088,35.427,91.36,34.294,90.575,33.079z
	 M52.176,69.427c-2.223-2.676-2.478-2.754-4.973-1.627c-0.136,0.062-0.275,0.119-0.398,0.199c-0.29,0.189-0.546,0.459-0.54,0.783
	c0.029,1.568-0.15,3.164,0.558,4.658c0.632,1.33,2.057,1.83,3.121,2.701c1.014,0.832,3.559-0.203,3.544-1.494
	C53.467,72.782,53.706,70.784,52.176,69.427z M62.704,53.811c2.006-1.429,2.8-3.458,2.233-5.759
	c-0.16-0.648-0.507-1.033-1.193-1.096c-4.057-0.369-3.425-1.098-5.96,2.084c-0.023,0.027-0.049,0.055-0.073,0.082
	c-1.013,1.205-0.603,4.339,0.693,5.255c0.117,0.083,0.267,0.17,0.402,0.171C60.117,54.559,61.438,54.606,62.704,53.811z
	 M76.215,37.495c0.079,0.064,0.213,0.191,0.364,0.295c2.403,1.664,5.052,2.554,8.051,2.412c0.726-0.035,1.101-0.377,1.312-0.971
	c0.227-0.637,0.597-1.286-0.072-1.901c-0.947-0.871-1.845-1.798-2.841-2.614c-1.875-1.539-4.16-1.041-6.333-1.046
	c-0.115,0-0.245,0.151-0.344,0.255C75.786,34.515,75.667,36.815,76.215,37.495z M51.175,66.986c0.784,0.885,1.389,1.569,1.997,2.253
	c0.288,0.324,0.66,0.521,1.094,0.389c1.35-0.41,2.622-0.859,2.767-2.563c0.048-0.57,0.176-1.139,0.297-1.701
	c0.386-1.799-0.682-3.158-1.687-4.395c-0.778-0.959-1.951,0.067-2.954,0.056c-0.036-0.001-0.073,0.017-0.11,0.021
	c-0.816,0.121-1.23,0.576-1.334,1.367c-0.116,0.891-0.277,1.779-0.46,2.66C50.617,65.878,50.87,66.56,51.175,66.986z M78.838,43.384
	c0.941-0.641,1.351-2.393,0.556-2.94c-1.962-1.353-3.869-2.765-6.642-1.698c-2.733,1.05-2.795,0.898-2.506,3.709
	c0.015,0.145,0.03,0.287,0.058,0.428c0.053,0.261,0.207,0.438,0.449,0.584C72.778,44.678,76.993,44.642,78.838,43.384z
	 M67.607,45.456c-0.212,0.146-0.424,0.295-0.636,0.443c-1.345,0.938-1.731,2.751-0.88,4.097c0.147,0.233,0.364,0.368,0.625,0.42
	c1.284,0.255,2.593,0.547,3.852,0.007c0.742-0.318,1.388-0.84,2.096-1.24c1.152-0.649,1.808-2.361,1.343-3.534
	c-0.089-0.224-0.242-0.37-0.456-0.44C71.537,44.538,69.505,43.548,67.607,45.456z M57.589,62.612
	c0.201,0.227,0.383,0.721,0.833,0.678c1.192-0.114,2.48-0.242,3.2-1.291c1.293-1.881,1.924-3.896,0.71-6.082
	c-0.125-0.223-0.202-0.459-0.454-0.59c-0.617-0.324-3.25,0.05-3.755,0.539C56.215,57.714,55.98,60.374,57.589,62.612z
	 M53.199,81.845c0.813,1.187,2.208,1.576,3.357,2.296c0.579,0.362,1.099,0.328,1.65-0.079c0.573-0.422,0.8-0.924,0.621-1.599
	c-0.641-2.419-1.929-4.409-4.098-5.849c-0.616-0.408-1.148-0.262-1.645,0.115c-0.554,0.42-1.581,0.617-1.348,1.517
	C52.058,79.493,52.479,80.735,53.199,81.845z M67.945,57.067c0.909-1.049,2.669-2.232,2.059-4.514
	c-0.107-0.402-0.219-0.746-0.657-0.93c-1.749-0.736-3.376-0.373-4.61,1.045c-0.313,0.359-0.629,0.715-0.937,1.078
	c-0.778,0.918-0.668,3.342,0.188,4.197c0.165,0.166,0.373,0.25,0.606,0.232C65.635,58.096,66.706,58.124,67.945,57.067z
	 M52.188,86.781c1.293,2.472,3.856,2.899,6.26,3.572c0.554,0.155,0.91-0.163,1.223-0.569c0.348-0.451,0.264-0.847-0.029-1.288
	c-1.443-2.173-3.27-3.921-5.767-4.966c-0.976-0.41-1.822-0.214-2.591,0.648c-0.657,0.735-0.082,1.258,0.312,1.814
	C51.784,86.261,51.99,86.519,52.188,86.781z M58.35,71.021c-0.269-0.3-0.533-0.604-0.808-0.898c-0.448-0.48-0.959-0.653-1.603-0.331
	c-0.741,0.371-1.775,0.477-1.784,1.551c-0.019,2.344,0.123,4.643,2.57,6.041c0.474,0.271,0.856,0.802,1.486,0.457
	c0.68-0.372,1.528-0.757,1.52-1.604C59.711,74.411,59.754,72.53,58.35,71.021z M53.419,90.31c-1.381,0.98-1.364,1.506-0.045,2.482
	c1.215,0.9,2.476,1.75,3.945,2.15c1.544,0.423,3.171,0.474,4.777,0.425c0.398-0.013,0.912-0.2,1.003-0.722
	c0.071-0.409-0.226-0.65-0.529-0.883c-2.337-1.793-5.002-2.928-7.877-3.644C54.246,90.007,53.804,89.995,53.419,90.31z
	 M58.661,70.271c0.515,0.491,0.689,1.519,1.667,1.367c0.858-0.133,1.747-0.63,1.949-1.46c0.435-1.79,1.125-3.639-0.184-5.406
	c-0.314-0.424-0.399-1.178-1.085-1.068c-0.925,0.146-2.264,0.057-2.568,1.007C57.859,66.524,56.719,68.485,58.661,70.271z
	 M82.55,48.152c0.879-0.606,1.233-1.905,0.545-2.292c-1.049-0.588-2.045-1.303-3.343-1.441c-1.499-0.158-2.779,0.492-4.107,0.906
	c-0.822,0.256-0.934,2.642-0.24,3.077C76.868,49.323,81.065,49.177,82.55,48.152z M88.729,45.571
	c0.785-0.533,0.781-1.285,0.122-1.963c-1.817-1.867-3.967-2.836-6.682-2.643c-0.845,0.06-1.449,0.184-1.697,1.051
	c-0.255,0.891-0.186,1.559,0.779,2.089c1.997,1.097,4.115,1.655,6.401,1.676C88.025,45.784,88.408,45.821,88.729,45.571z
	 M65.652,65.308c1.836-1.322,2.6-4.359,1.632-6.145c-0.082-0.15-0.199-0.32-0.348-0.395c-0.751-0.385-2.938,0.205-3.338,0.951
	c-0.479,0.893-0.905,1.82-1.271,2.762c-0.275,0.707,0.498,2.957,1.139,3.242C64.313,66.101,65.032,65.538,65.652,65.308z
	 M76.261,53.268c0.396-0.276,0.789-0.499,1.116-0.79c0.605-0.539,0.876-2.211,0.454-2.582c-0.599-0.529-3.202-0.873-3.99-0.461
	c-0.852,0.445-1.696,0.924-2.473,1.48c-1.034,0.74-0.717,1.818-0.537,2.791c0.165,0.893,1,0.673,1.641,0.744
	C73.94,54.614,75.186,54.13,76.261,53.268z M94.356,42.866c-1.533-2.07-2.256-2.581-5.458-3.803c-0.541-0.205-1.188-0.764-1.635,0.1
	c-0.403,0.775-0.779,1.547,0.23,2.283c1.091,0.797,2.138,1.624,3.301,2.347c1.184,0.737,2.445,1.204,3.722,1.687
	c0.304,0.115,0.71,0.096,0.929-0.198c0.237-0.317,0.181-0.7-0.038-1.017C95.076,43.786,94.708,43.331,94.356,42.866z M71.745,60.321
	c1.085-1.239,2.729-2.262,2.335-4.334c-0.062-0.328-0.072-0.616-0.473-0.77c-1.246-0.475-2.995-0.059-3.874,0.947
	c-0.362,0.414-0.75,0.807-1.111,1.221c-0.679,0.779-0.753,2.71,0.052,3.413c0.782,0.684,1.679,0.13,2.492-0.206
	C71.338,60.521,71.502,60.435,71.745,60.321z M63.36,72.544c-0.288-0.301-0.543-1.123-1.393-0.834
	c-0.712,0.242-1.634,0.515-1.65,1.422c-0.035,1.977-0.101,4.007,1.914,5.33c0.416,0.273,0.719,0.816,1.347,0.494
	c0.612-0.313,1.204-0.727,1.203-1.449C64.775,75.813,64.691,74.116,63.36,72.544z M62.503,79.54
	c-0.494-0.438-1.004-0.861-1.477-1.32c-0.469-0.455-0.935-0.541-1.481-0.134c-0.555,0.415-1.237,0.728-0.958,1.618
	c0.65,2.075,1.531,3.971,3.779,4.916c0.434,0.182,0.842,0.621,1.325,0.259c0.536-0.401,0.751-0.987,0.55-1.642
	C63.841,81.932,63.391,80.644,62.503,79.54z M63.862,72.056c1.028,1.605,2.185,1.65,2.854,0.078c0.658-1.545,1.1-3.23,0.179-4.879
	c-0.242-0.43-0.236-1.209-1.023-1.074c-0.79,0.137-1.867,0.201-2.083,1.039C63.366,68.856,62.334,70.59,63.862,72.056z
	 M59.753,87.194c0.888,1.633,2.737,2.373,4.684,2.975c0.352,0.108,0.727,0.292,1.011-0.107c0.296-0.416,0.408-0.873,0.058-1.301
	c-1.429-1.745-2.861-3.482-5.002-4.514c-0.643-0.311-1.122-0.256-1.602,0.229c-0.507,0.511-0.463,1.014-0.04,1.541
	C59.112,86.329,59.346,86.655,59.753,87.194z M85.401,52.086c1.291-0.927,1.176-1.519,0.074-2.216
	c-2.001-1.268-3.957-0.68-5.911-0.039c-0.838,0.275-0.587,1.156-0.743,1.791c-0.084,0.344-0.008,0.65,0.388,0.791
	C81.415,53.198,83.527,52.833,85.401,52.086z M97.473,45.297c0.894,0.819,1.785,1.64,2.684,2.454
	c0.167,0.152,0.38,0.252,0.613,0.157c0.23-0.094,0.188-0.285,0.116-0.458c-0.871-2.072-1.712-4.171-3.258-5.885
	c-0.73-0.811-1.618-1.494-2.453-2.215c-0.288-0.248-0.555-0.697-1.037-0.438c-0.468,0.251-0.566,0.721-0.555,1.217
	c0.01,0.463,0.292,0.795,0.508,1.174C94.962,42.839,96.467,43.871,97.473,45.297z M69.815,67.475
	c1.301-0.926,2.209-3.812,1.703-5.282c-0.186-0.541-0.489-0.725-1.075-0.678c-2.305,0.181-4.021,3.109-3.08,5.299
	C67.93,68.134,68.625,68.321,69.815,67.475z M80.222,56.063c0.316-0.154,0.504-0.424,0.687-0.697
	c0.825-1.236,0.605-1.777-0.86-2.107c-1.765-0.398-3.984,0.389-5.05,1.817c-0.478,0.64-0.431,1.394-0.213,2.073
	c0.219,0.682,0.941,0.418,1.467,0.46C77.843,57.739,78.936,56.663,80.222,56.063z M91.388,49.925c0.605-0.402,0.654-0.727,0.2-1.211
	c-1.783-1.898-4.091-2.396-6.622-2.283c-0.801,0.035-0.844,0.693-1.039,1.229c-0.214,0.586,0.139,0.838,0.598,1.102
	c1.582,0.91,3.333,1.227,5.126,1.4C90.244,50.22,90.855,50.308,91.388,49.925z M75.252,62.7c0.862-0.959,2.27-1.877,2.181-3.67
	c-0.016-0.32,0.04-0.645-0.387-0.801c-0.91-0.337-2.445-0.025-3.129,0.688c-0.508,0.529-1.002,1.072-1.472,1.633
	c-0.483,0.576-0.535,2.361,0.01,2.744c0.731,0.514,1.483,0.145,2.175-0.242C74.759,62.98,74.888,62.907,75.252,62.7z M66.141,78.693
	c0.047,0.05,0.219,0.302,0.458,0.462c0.484,0.322,0.739,1.189,1.518,0.834c0.809-0.37,0.881-1.166,0.854-1.955
	c-0.048-1.387-0.312-2.709-1.167-3.863c-0.285-0.387-0.432-1.005-1.135-0.84c-0.692,0.162-1.346,0.555-1.379,1.25
	C65.227,75.925,65.107,77.317,66.141,78.693z M68.443,74.022c0.744,1.004,1.476,0.99,2.111-0.285
	c0.679-1.367,0.85-2.836,0.343-4.299c-0.163-0.472-0.163-1.23-0.867-1.244c-0.75-0.012-1.571,0.262-1.864,0.996
	C67.541,70.757,67.112,72.366,68.443,74.022z M67.333,80.958c-0.223-0.667-0.806-1.033-1.294-1.465
	c-0.301-0.268-0.604-0.76-1.127-0.385c-0.499,0.361-1.108,0.718-0.904,1.467c0.491,1.803,1.174,3.496,3.055,4.414
	c0.409,0.199,0.785,0.701,1.298,0.322c0.542-0.4,0.582-1.016,0.345-1.573C68.299,82.786,68.139,81.717,67.333,80.958z
	 M68.804,94.472c0.332-0.572-0.051-0.875-0.423-1.176c-1.439-1.165-3.171-1.854-4.812-2.684c-0.589-0.299-1.257-0.458-1.899-0.654
	c-0.586-0.178-0.903,0.16-1.156,0.607c-0.212,0.373-0.174,0.663,0.195,0.935c2.227,1.642,4.64,2.845,7.512,2.985
	C68.403,94.495,68.587,94.478,68.804,94.472z M97.371,49.515c-1.435-2.025-3.345-3.447-5.745-4.266
	c-0.541-0.184-1.024-0.457-1.447,0.223c-0.396,0.638-0.202,1.037,0.34,1.474c1.699,1.37,3.585,2.431,5.62,3.261
	c0.238,0.096,0.497,0.168,0.752,0.189c0.25,0.021,0.55,0.047,0.698-0.225C97.736,49.9,97.552,49.69,97.371,49.515z M73.262,69.255
	c1.164-0.811,2.039-3.311,1.693-4.668c-0.167-0.655-0.556-0.754-1.155-0.664c-1.743,0.262-3.245,2.947-2.612,4.695
	C71.659,69.92,72.111,70.059,73.262,69.255z M82.484,53.628c-0.515,0.438-0.729,1.02-0.655,1.643
	c0.068,0.578,0.677,0.455,1.076,0.568c1.381,0.391,2.724,0.082,4.065-0.236c0.593-0.141,1.148-0.346,1.536-0.818
	c0.269-0.328,0.421-0.647-0.055-1.001C87.046,52.741,83.856,52.638,82.484,53.628z M79.372,57.269
	c-0.345,0.274-0.74,0.508-1.023,0.83c-0.591,0.674-0.468,1.973,0.153,2.131c1.526,0.391,4.731-1.172,5.32-2.578
	c0.255-0.607,0.208-0.938-0.566-1.18C81.754,56.001,80.545,56.44,79.372,57.269z M69.296,88.002
	c-0.896-1.13-1.913-2.259-3.313-3.017c-0.46-0.25-0.868-0.428-1.324-0.035c-0.464,0.4-0.521,0.875-0.203,1.357
	c0.93,1.412,2.004,2.713,3.686,3.33c0.643,0.236,1.42,1.084,1.988,0.445C70.832,89.294,69.756,88.712,69.296,88.002z M93.744,52.808
	c-1.601-1.693-3.678-2.119-5.924-2.031c-0.585,0.022-0.916,0.464-1.036,0.996c-0.115,0.51,0.314,0.67,0.675,0.861
	c1.641,0.877,3.449,1.098,5.276,1.215c0.281,0.018,0.589-0.102,0.858-0.217C94.043,53.438,94.096,53.138,93.744,52.808z
	 M78.144,64.804c0.701-0.828,1.967-1.553,2.12-3.043c0.068-0.668-0.169-0.969-0.914-1.032c-1.792-0.151-2.571,1.132-3.474,2.201
	c-0.635,0.753-0.586,1.825-0.042,2.421C76.398,65.968,77.271,65.361,78.144,64.804z M72.263,75.552
	c0.578,0.74,1.059,0.188,1.322-0.274c0.835-1.462,1.106-3.019,0.492-4.642c-0.241-0.639-0.639-0.822-1.297-0.492
	c-0.521,0.261-0.909,0.602-1.113,1.141C71.094,72.794,71.083,74.233,72.263,75.552z M70.39,79.884
	c0.313,0.291,0.572,1.043,1.306,0.922c0.549-0.092,0.746-0.711,0.774-1.209c0.079-1.449-0.047-2.877-0.971-4.111
	c-0.25-0.335-0.465-0.831-1.024-0.664c-0.562,0.167-1.08,0.572-1.055,1.139C69.478,77.262,69.262,78.646,70.39,79.884z
	 M70.985,81.396c-0.233-0.279-0.455-0.568-0.7-0.836c-0.316-0.346-0.625-0.803-1.201-0.508c-0.546,0.279-0.833,0.783-0.646,1.355
	c0.49,1.508,1.003,3.026,2.545,3.904c0.363,0.207,0.717,0.691,1.18,0.371c0.483-0.334,0.408-0.918,0.25-1.392
	C72.071,83.271,71.735,82.235,70.985,81.396z M76.308,70.716c0.887-0.986,1.672-2.249,1.594-3.869
	c-0.043-0.893-0.528-1.084-1.36-0.828c-1.387,0.427-2.531,2.848-2.024,4.344C74.874,71.415,75.156,71.505,76.308,70.716z
	 M82.237,59.841c-0.787,0.482-1.493,0.953-1.463,1.938c0.012,0.414,0.137,0.656,0.625,0.719c1.233,0.155,3.944-1.101,4.56-2.15
	c0.482-0.824,0.335-1.121-0.656-1.326C84.108,58.776,83.099,59.161,82.237,59.841z M98.463,53.06
	c-0.917-1.17-2.465-2.188-4.488-2.967c-0.472-0.182-0.979-0.505-1.381,0.117c-0.4,0.618,0.08,0.926,0.5,1.228
	c1.367,0.979,2.766,1.909,4.337,2.573c0.515,0.217,1.169,0.627,1.555,0.209C99.422,53.749,98.564,53.438,98.463,53.06z
	 M90.034,57.985c0.496-0.398,1.168-0.656,0.482-1.219c-1.125-0.922-4.248-0.877-5.432,0.025c-0.64,0.488-0.744,1.51-0.146,1.652
	C86.737,58.877,88.476,58.618,90.034,57.985z M69.815,87.571c0.772,1.166,1.924,1.873,3.198,2.422
	c0.324,0.141,0.734,0.461,1.027,0.158c0.356-0.367,0.051-0.806-0.172-1.174c-0.665-1.098-1.594-1.992-2.615-2.754
	c-0.57-0.426-1.216-1.502-2.02-0.791C68.407,86.165,69.368,86.907,69.815,87.571z M80.702,66.503
	c0.501-0.447,1.267-1.086,1.742-1.963c0.243-0.447,0.518-0.991,0.141-1.414c-0.379-0.426-0.984-0.209-1.48-0.08
	c-1.176,0.303-1.803,1.246-2.463,2.102c-0.481,0.623-0.525,1.501,0.008,2.004c0.491,0.463,1.168-0.066,1.697-0.4
	C80.378,66.731,80.408,66.709,80.702,66.503z M73.342,93.267c-1.821-1.36-3.873-2.438-6.096-3.217
	c-0.37-0.129-0.657-0.007-0.822,0.355c-0.136,0.3-0.121,0.566,0.166,0.771c1.93,1.382,3.923,2.639,6.425,2.812
	c0.174,0.013,0.437,0.015,0.513-0.084C73.683,93.709,73.5,93.503,73.342,93.267z M73.642,96.779
	c-0.336-0.456-0.702-0.427-1.01-0.521c-1.208-0.364-2.563-0.342-3.672-0.77c-1.259-0.485-2.532-0.553-3.792-0.814
	c-0.496-0.104-1.06,0.09-1.152,0.617c-0.094,0.541,0.523,0.533,0.882,0.625 M95.321,55.96c-0.813-0.98-4.101-2.01-5.363-1.643
	c-0.475,0.139-0.771,0.463-0.841,0.921c-0.067,0.438,0.364,0.491,0.65,0.625c1.472,0.69,3.066,0.896,4.67,1.042
	c0.246,0.021,0.516-0.076,0.758-0.162C95.633,56.587,95.655,56.319,95.321,55.96z M101.877,52.975
	c0.082-0.048,0.165-0.097,0.247-0.146c-0.136-0.323-0.253-0.654-0.409-0.969c-1.032-2.092-2.488-3.873-4.301-5.391
	c-0.354-0.295-0.716-0.84-1.218-0.427c-0.475,0.392-0.068,0.858,0.213,1.24s0.65,0.72,0.858,1.134
	c0.386,0.77,1.397,0.893,1.768,1.564C99.731,51.239,100.926,51.983,101.877,52.975z M73.827,80.749
	c0.268,0.221,0.425,0.861,1.022,0.684c0.643-0.189,0.671-0.818,0.683-1.354c0.025-1.163-0.224-2.284-0.735-3.339
	c-0.18-0.371-0.325-0.902-0.904-0.793c-0.544,0.102-0.975,0.482-0.998,1.035C72.839,78.276,72.84,79.579,73.827,80.749z
	 M75.11,76.312c0.442,0.684,0.983,0.693,1.375-0.109c0.592-1.212,0.946-2.506,0.534-3.859c-0.107-0.354-0.102-0.855-0.642-0.906
	c-0.442-0.041-0.771,0.232-1.052,0.537C74.42,72.956,74.316,75.081,75.11,76.312z M78.5,72.29c1.076-0.785,1.974-2.777,1.873-3.984
	c-0.044-0.537-0.231-0.715-0.851-0.673c-1.311,0.091-3.002,3.247-2.067,4.544C77.851,72.728,78.187,72.495,78.5,72.29z
	 M73.386,84.707c0.152,0.345,0.461,0.657,0.855,0.876c0.366,0.204,0.719,0.754,1.151,0.432c0.436-0.324,0.348-0.923,0.164-1.408
	c-0.435-1.146-0.868-2.3-1.791-3.191c-0.287-0.277-0.484-0.874-1.043-0.521c-0.451,0.283-0.73,0.766-0.515,1.313
	C72.534,83.039,72.738,83.931,73.386,84.707z M86.634,63.438c0.585-0.402,1.076-0.682,1.371-1.16
	c0.208-0.336,0.304-0.652-0.203-0.875c-1.186-0.523-4.082,0.633-4.533,1.83c-0.357,0.947,0.021,1.398,1.066,1.166
	C85.203,64.205,86.067,63.94,86.634,63.438z M91.784,60.329c0.762-0.504,0.844-0.84,0.112-1.189
	c-1.563-0.749-3.071-0.338-4.559,0.188c-0.4,0.141-0.53,0.588-0.558,0.998c-0.021,0.318,0.211,0.443,0.485,0.5
	C88.903,61.159,90.451,60.837,91.784,60.329z M82.917,68.165c0.554-0.795,1.599-1.41,1.828-2.598
	c0.108-0.559-0.045-0.781-0.687-0.742c-1.313,0.078-2.024,0.951-2.764,1.805c-0.525,0.606-0.755,1.432-0.277,1.979
	C81.583,69.256,82.189,68.458,82.917,68.165z M76.621,88.532c-0.721-1.006-1.556-1.775-2.47-2.457
	c-0.314-0.235-0.697-0.76-1.142-0.322c-0.418,0.412-0.21,0.928,0.1,1.385c0.621,0.918,1.434,1.664,2.325,2.316
	c0.537,0.393,1.387,1.047,1.822,0.637C77.742,89.632,76.883,88.991,76.621,88.532z M100.366,57.444
	c-1.134-1.855-2.878-2.839-4.787-3.616c-0.412-0.167-0.846-0.146-1.104,0.241c-0.289,0.434,0.125,0.654,0.415,0.855
	c1.389,0.957,2.855,1.795,4.404,2.492C99.597,57.554,99.919,57.653,100.366,57.444z M76.455,81.203
	c0.457,0.183,0.577,0.997,1.194,0.757c0.518-0.201,0.5-0.832,0.482-1.342c-0.036-1.012-0.202-2.002-0.635-2.932
	c-0.163-0.352-0.311-0.803-0.839-0.72c-0.459,0.073-0.69,0.462-0.738,0.86C75.78,78.981,75.894,80.112,76.455,81.203z
	 M77.694,77.146c0.599,0.836,0.982,0.486,1.222,0.043c0.58-1.074,0.858-2.221,0.56-3.434c-0.09-0.367-0.062-0.877-0.565-0.955
	c-0.485-0.074-0.833,0.293-1.102,0.637C77.135,74.296,77.167,76.472,77.694,77.146z M96.801,58.79
	c-0.777-0.928-3.838-1.836-4.998-1.48c-0.347,0.107-0.605,0.316-0.648,0.672c-0.044,0.37,0.301,0.467,0.56,0.588
	c1.303,0.613,2.73,0.721,4.136,0.906c0.248,0.031,0.52-0.034,0.77-0.098C96.991,59.286,97.164,59.104,96.801,58.79z M80.773,73.438
	c1.039-0.983,1.673-2.159,1.769-3.582c0.055-0.813-0.366-0.914-1.043-0.626c-1.144,0.485-2.144,2.755-1.739,3.886
	C79.962,73.683,80.262,73.78,80.773,73.438z M77.452,93.708c-0.133-0.523-0.417-0.787-0.759-1.031
	c-1.414-1.01-3.003-1.709-4.582-2.429c-0.287-0.13-0.656-0.358-0.888,0.044c-0.221,0.38,0.017,0.701,0.333,0.93
	C73.293,92.481,75.115,93.562,77.452,93.708z M76.509,85.146c0.189,0.35,0.525,0.635,0.9,0.879c0.235,0.154,0.454,0.456,0.783,0.255
	c0.303-0.185,0.222-0.522,0.171-0.794c-0.234-1.266-0.899-2.35-1.631-3.395c-0.227-0.322-0.553-0.694-1.014-0.455
	c-0.44,0.23-0.533,0.685-0.37,1.138C75.641,83.587,75.893,84.421,76.509,85.146z M88.579,65.046
	c0.454-0.219,0.854-0.539,1.148-0.963c0.18-0.26,0.241-0.508-0.14-0.707c-1.187-0.623-4.156,0.843-4.349,2.128
	c-0.089,0.593,0.162,0.679,0.676,0.616C86.902,66.001,87.758,65.597,88.579,65.046z M84.607,69.663
	c0.708-0.604,1.503-1.262,1.869-2.244c0.303-0.816,0.063-1.073-0.833-0.871c-1.229,0.277-1.921,1.189-2.492,2.154
	c-0.237,0.4-0.44,1.029,0.072,1.375C83.686,70.392,84.118,69.952,84.607,69.663z M89.1,61.649c-0.183,0.194-0.429,0.428-0.439,0.779
	c-0.008,0.281,0.228,0.357,0.449,0.391c1.558,0.231,3.059,0.041,4.476-0.629c0.456-0.217,0.495-0.496,0.013-0.783
	C92.692,60.866,90.009,60.978,89.1,61.649z M80.039,90.282c-0.093-1.258-2.36-4.051-3.405-4.218c-0.77-0.122-0.682,0.493-0.5,0.84
	C76.964,88.485,78.245,89.61,80.039,90.282z M83.047,74.204c0.661-0.795,1.296-1.793,1.375-3.035
	c0.047-0.757-0.351-0.861-0.983-0.596c-0.858,0.361-1.854,2.57-1.586,3.451C82.051,74.679,82.389,74.735,83.047,74.204z
	 M79.136,81.919c0.247,0.146,0.318,0.695,0.752,0.607c0.488-0.1,0.442-0.631,0.486-0.996c0.129-1.061-0.185-2.068-0.556-3.052
	c-0.112-0.298-0.314-0.618-0.736-0.534c-0.372,0.074-0.598,0.387-0.604,0.705C78.457,79.753,78.318,80.89,79.136,81.919z
	 M103.063,56.858c-0.256-1.422-1.248-2.422-2.037-3.516c-0.503-0.697-1.241-1.242-1.898-1.828c-0.263-0.236-0.611-0.604-0.966-0.333
	c-0.427,0.325,0.061,0.624,0.23,0.903c0.149,0.246,0.409,0.441,0.52,0.699c0.331,0.762,1.347,0.805,1.692,1.484
	C101.166,55.372,102.268,55.968,103.063,56.858z M92.877,60.634c0.512,0.549,4.315,1.213,4.932,0.943
	c0.476-0.209,0.294-0.41,0.025-0.615c-0.744-0.568-1.593-0.918-2.532-1.042c-0.656-0.087-1.33-0.313-1.976-0.009
	C93.021,60.056,92.604,60.233,92.877,60.634z M94.568,64.202c0.496-0.324,0.892-0.509,0.3-0.877
	c-0.755-0.468-3.458-0.322-4.127,0.25c-0.228,0.194-0.411,0.434-0.366,0.748c0.031,0.213,0.237,0.277,0.421,0.297
	C92.157,64.769,93.477,64.619,94.568,64.202z M101.539,60.267c-1.159-1.57-2.709-2.459-4.389-3.18
	c-0.318-0.137-0.714-0.223-0.926,0.096c-0.296,0.447,0.171,0.652,0.459,0.828c0.914,0.557,1.837,1.101,2.788,1.594
	C100.075,59.917,100.662,60.351,101.539,60.267z M75.178,90.959c1.355,1.192,2.979,1.88,4.735,2.316
	c0.144,0.036,0.325,0.062,0.394-0.095c0.107-0.25-0.086-0.4-0.269-0.525c-1.365-0.941-2.842-1.699-4.341-2.419
	c-0.218-0.104-0.516-0.248-0.702,0.042C74.833,90.532,75.02,90.755,75.178,90.959z M81.208,82.417c0.242,0.27,0.366,0.627,0.7,0.586
	c0.433-0.053,0.404-0.49,0.438-0.776c0.127-1.087-0.076-2.136-0.533-3.136c-0.104-0.227-0.179-0.52-0.496-0.515
	c-0.351,0.007-0.533,0.282-0.568,0.573C80.61,80.298,80.612,81.435,81.208,82.417z M77.365,95.726
	c-0.715-0.191-1.432-0.381-2.145-0.578c-0.497-0.136-1.05,0.214-1.518-0.173c-0.792-0.655-1.805-0.626-2.75-0.799
	c-0.273-0.05-0.665-0.158-0.749,0.235c-0.08,0.371,0.302,0.457,0.576,0.539C72.914,95.589,75.088,95.974,77.365,95.726z
	 M81.456,85.95c0.027,0.032,0.123,0.199,0.268,0.302c0.288,0.205,0.575,0.647,0.934,0.444c0.346-0.194,0.149-0.664,0.073-1
	c-0.212-0.929-0.829-1.677-1.278-2.498c-0.151-0.277-0.36-0.645-0.76-0.475c-0.408,0.172-0.411,0.585-0.277,0.941
	C80.695,84.403,80.893,85.179,81.456,85.95z M99.329,63.417c-1.361-1.221-2.761-1.4-4.198-1.453
	c-0.305-0.011-0.59,0.154-0.741,0.426c-0.113,0.203,0.045,0.367,0.227,0.414C96.069,63.179,97.5,63.729,99.329,63.417z
	 M102.064,62.431c-0.934-1.467-2.429-2.15-3.978-2.748c-0.136-0.053-0.389,0.014-0.506,0.113c-0.187,0.16-0.028,0.34,0.122,0.441
	C99.045,61.159,100.405,62.058,102.064,62.431z M78.153,90.044c0.072,0.343,0.054,0.513,0.133,0.598
	c1.162,1.226,2.67,1.896,4.27,2.409c0.138,0.044,0.338,0.06,0.375-0.116c0.023-0.11-0.051-0.3-0.147-0.365
	C81.38,91.61,79.941,90.708,78.153,90.044z M103.878,60.054c0.081-0.066,0.161-0.135,0.241-0.2
	c-1.168-1.812-2.355-3.607-4.291-4.733c-0.11,0.098-0.219,0.193-0.329,0.291C100.959,56.958,102.419,58.507,103.878,60.054z"/>
<text transform="matrix(1 0 0 1 58.8833 193.002)" fill="#010101" font-family="'ArialMT'" font-size="30">Búsqueda por carpetas</text>
<rect x="0.128" y="721.124" fill="#D65677" width="1190.546" height="120.877"/>
<linearGradient id="SVGID_2_" gradientUnits="userSpaceOnUse" x1="16.5161" y1="755.9746" x2="54.7778" y2="755.9746">
	<stop  offset="0" style="stop-color:#FFFFFF;stop-opacity:0"/>
	<stop  offset="0.5376" style="stop-color:#FFFFFF"/>
</linearGradient>
<path fill-rule="evenodd" clip-rule="evenodd" fill="url(#SVGID_2_)" d="M41.499,771.054c-0.152-0.064-0.306-0.123-0.454-0.191
	c-0.095-0.045-0.194-0.111-0.29-0.037c-0.112,0.084-0.125,0.227-0.062,0.33c0.461,0.764,0.977,1.475,1.979,1.797
	c-0.055-0.504-0.365-0.768-0.572-1.086c-0.185-0.285-0.58-0.424-0.608-0.814c0.335-0.125,0.245-0.404,0.194-0.619
	c-0.14-0.588-0.375-1.148-0.753-1.635c-0.129-0.166-0.279-0.482-0.583-0.301c-0.247,0.146-0.183,0.414-0.107,0.656
	C40.474,769.903,40.914,770.522,41.499,771.054z M30.601,743.825c1.181-0.375,1.299-1.266,1.047-2.324
	c-0.065-0.273-0.085-0.559-0.107-0.842c-0.036-0.445-0.251-0.746-0.686-0.928c-0.77-0.32-1.533-0.656-2.292-1
	c-0.448-0.203-0.873-0.139-1.248,0.119c-0.699,0.48-1.41,0.947-2.028,1.531c-0.335,0.316-0.457,0.654-0.321,1.092
	c0.21,0.678,0.408,1.359,0.602,2.041c0.07,0.248,0.175,0.5,0.431,0.563C27.539,744.456,29.112,745.372,30.601,743.825z
	 M19.041,752.38c-0.003,0.002-0.007,0.004-0.01,0.006c0.196,0.262,0.392,0.523,0.59,0.783c0.647,0.848,3.211,0.705,3.766-0.211
	c0.01-0.018,0.019-0.035,0.03-0.053c0.843-1.336,1.241-2.682,0.154-4.092c-0.171-0.221-0.25-0.508-0.386-0.758
	c-0.166-0.307-0.417-0.492-0.795-0.504c-0.752-0.021-1.504-0.057-2.257-0.084c-0.424-0.016-0.715,0.172-0.883,0.545
	c-0.324,0.721-0.653,1.441-0.973,2.164c-0.233,0.527-0.178,1.018,0.208,1.471C18.684,751.88,18.856,752.134,19.041,752.38z
	 M36.079,738.681c0.682,0.459,1.468,1.076,2.337,1.551c1.041,0.566,2.227,0.418,3.371,0.4c0.092,0,0.198-0.063,0.272-0.125
	c0.467-0.393,0.641-1.971,0.23-2.434c-0.639-0.723-1.314-1.414-1.982-2.111c-0.184-0.191-0.405-0.322-0.668-0.428
	c-1.087-0.434-2.19-0.115-3.284-0.096c-0.32,0.006-0.482,0.297-0.504,0.611c-0.043,0.625-0.079,1.25-0.119,1.875
	C35.716,738.165,35.846,738.349,36.079,738.681z M21.606,763.718c0.217-0.105,0.418-0.275,0.4-0.502
	c-0.068-0.875,0.079-1.777-0.355-2.611c-0.494-0.949-1.399-1.535-2.133-2.271c-0.17-0.17-0.456-0.199-0.715-0.119
	c-0.56,0.17-1.116,0.35-1.677,0.514c-0.453,0.133-0.636,0.426-0.606,0.867c0.048,0.727,0.071,1.455,0.142,2.178
	c0.04,0.406,0.193,0.795,0.551,1.049c0.692,0.492,1.4,0.961,2.098,1.445c0.322,0.223,0.661,0.248,1.009,0.086
	C20.752,764.149,21.178,763.931,21.606,763.718z M24.809,749.968c0.173,0.232,0.373,0.385,0.683,0.385
	c0.523,0,1.047,0.031,1.57,0.014c0.38-0.012,0.772-0.129,1.026-0.389c1.016-1.039,2.064-2.09,1.206-3.707
	c-0.037-0.068-0.046-0.154-0.058-0.234c-0.063-0.418-0.34-0.627-0.745-0.711c-0.695-0.146-1.39-0.297-2.087-0.434
	c-0.513-0.1-0.933,0.021-1.254,0.463c-0.36,0.496-0.755,0.969-1.153,1.438c-0.267,0.314-0.332,0.656-0.174,1.018
	C24.138,748.534,24.479,749.249,24.809,749.968z M38.002,743.29c0.703-0.461,0.792-2.045,0.142-2.523
	c-0.698-0.514-1.422-1-2.171-1.441c-0.387-0.227-0.855-0.305-1.32-0.143c-0.63,0.221-1.255,0.455-1.893,0.65
	c-0.388,0.121-0.532,0.363-0.519,0.725c0.008,0.221,0.037,0.443,0.061,0.664c0.231,2.16-0.035,1.582,1.952,2.451
	C35.615,744.267,36.812,743.683,38.002,743.29z M23.639,754.595c-0.17-0.426-0.628-0.527-1.216-0.406
	c-0.47,0.098-0.954,0.131-1.431,0.199c-0.377,0.055-0.694,0.211-0.779,0.602c-0.154,0.711-0.297,1.426-0.419,2.143
	c-0.061,0.357,0.09,0.688,0.335,0.943c0.538,0.566,1.102,1.107,1.653,1.662c0.17,0.172,0.375,0.254,0.616,0.262
	c1.012,0.035,1.914-0.609,2.142-1.549c0.1-0.412,0.17-0.832,0.241-1.252c0.071-0.414-0.041-0.811-0.236-1.168
	C24.301,755.585,24.004,755.167,23.639,754.595z M31.006,744.339c-0.363,0.254-0.649,0.457-0.94,0.656
	c-0.282,0.193-0.438,0.471-0.375,0.783c0.114,0.572,0.277,1.139,0.446,1.699c0.059,0.197,0.227,0.352,0.445,0.396
	c1.166,0.238,2.343,0.578,3.389-0.34c0.137-0.119,0.312-0.207,0.483-0.279c0.601-0.252,0.839-0.688,0.774-1.307
	c-0.032-0.301-0.033-0.605-0.042-0.908c-0.007-0.209-0.038-0.455-0.233-0.535c-0.914-0.365-1.766-0.945-2.827-0.848
	C31.606,743.704,31.362,744.194,31.006,744.339z M24.543,755.138c0.278,0.277,0.338,0.748,0.761,0.918
	c0.363,0.146,2.039-0.287,2.312-0.578c0.979-1.043,1.073-3.148,0.193-4.328c-0.117-0.158-0.282-0.234-0.47-0.275
	c-1.685-0.379-2.407-0.025-3.087,1.506c-0.008,0.02-0.014,0.039-0.024,0.057C23.636,753.407,23.66,754.315,24.543,755.138z
	 M20.29,771.382c0.244,0.266,0.458,0.68,0.865,0.967c1.026,0.727,2.269,0.777,3.429,1.063c0.614,0.15,1.564-0.844,1.302-1.293
	c-0.368-0.629-0.797-1.236-1.342-1.744c-0.798-0.744-1.841-1.09-2.809-1.559c-0.443-0.213-0.833-0.137-1.231,0.137
	c-1.327,0.908-1.333,0.906-0.39,2.197C20.151,771.2,20.189,771.247,20.29,771.382z M24.642,765.937
	c-0.335-0.639-1.089-0.973-1.699-1.453c-0.505-0.398-2.328,0.168-2.547,0.762c-0.02,0.057-0.041,0.127-0.023,0.178
	c0.281,0.818,0.381,1.725,0.967,2.406c0.735,0.854,1.837,1.174,2.867,1.541c0.647,0.23,1.631-0.619,1.442-1.207
	C25.41,767.423,25.266,766.626,24.642,765.937z M47.209,740.913c-0.835-1.07-2.143-1.439-3.429-1.844
	c-0.125-0.037-0.246-0.008-0.351,0.08c-0.359,0.299-0.556,1.773-0.248,2.107c1.264,1.373,2.745,2.449,4.584,3.01
	c0.491,0.15,0.854-0.064,0.904-0.535c0.033-0.309-0.032-0.602-0.206-0.869C48.055,742.229,47.648,741.595,47.209,740.913z
	 M25.752,761.3c-1.243-1.502-1.385-1.545-2.779-0.912c-0.076,0.035-0.154,0.066-0.222,0.111c-0.162,0.105-0.306,0.258-0.302,0.439
	c0.017,0.879-0.083,1.775,0.312,2.613c0.353,0.744,1.149,1.025,1.744,1.516c0.566,0.465,1.989-0.115,1.981-0.838
	C26.473,763.183,26.607,762.062,25.752,761.3z M31.635,752.542c1.121-0.803,1.565-1.941,1.248-3.23
	c-0.089-0.365-0.284-0.58-0.667-0.615c-2.267-0.207-1.914-0.615-3.331,1.168c-0.013,0.018-0.027,0.031-0.041,0.047
	c-0.566,0.676-0.337,2.434,0.388,2.947c0.065,0.047,0.149,0.096,0.225,0.096C30.189,752.96,30.927,752.987,31.635,752.542z
	 M39.185,743.39c0.044,0.037,0.119,0.107,0.204,0.166c1.343,0.934,2.823,1.432,4.499,1.352c0.405-0.018,0.615-0.211,0.732-0.543
	c0.127-0.357,0.334-0.723-0.04-1.066c-0.529-0.488-1.031-1.008-1.587-1.467c-1.048-0.863-2.325-0.584-3.539-0.586
	c-0.064,0-0.137,0.084-0.192,0.143C38.945,741.718,38.878,743.009,39.185,743.39z M25.193,759.931
	c0.438,0.496,0.776,0.881,1.116,1.264c0.161,0.182,0.369,0.293,0.611,0.219c0.754-0.23,1.465-0.482,1.546-1.438
	c0.027-0.32,0.098-0.639,0.166-0.955c0.216-1.008-0.381-1.77-0.942-2.465c-0.435-0.537-1.09,0.039-1.651,0.031
	c-0.021,0-0.041,0.01-0.062,0.014c-0.456,0.066-0.688,0.322-0.745,0.766c-0.065,0.5-0.155,0.998-0.257,1.492
	C24.881,759.31,25.022,759.692,25.193,759.931z M40.65,746.692c0.526-0.359,0.755-1.342,0.311-1.648
	c-1.097-0.76-2.162-1.551-3.712-0.953c-1.527,0.59-1.562,0.504-1.4,2.082c0.008,0.08,0.017,0.16,0.033,0.238
	c0.029,0.146,0.116,0.246,0.25,0.328C37.264,747.419,39.62,747.399,40.65,746.692z M34.375,747.854
	c-0.119,0.084-0.237,0.166-0.355,0.25c-0.751,0.525-0.967,1.543-0.492,2.297c0.082,0.131,0.203,0.207,0.349,0.236
	c0.717,0.143,1.449,0.307,2.152,0.004c0.415-0.18,0.775-0.473,1.171-0.695c0.644-0.365,1.011-1.326,0.75-1.982
	c-0.05-0.127-0.135-0.209-0.255-0.248C36.571,747.341,35.436,746.784,34.375,747.854z M28.777,757.478
	c0.112,0.127,0.214,0.404,0.466,0.381c0.667-0.064,1.386-0.137,1.788-0.725c0.723-1.055,1.075-2.186,0.396-3.41
	c-0.069-0.127-0.113-0.258-0.253-0.332c-0.345-0.182-1.816,0.027-2.098,0.303C28.009,754.731,27.878,756.224,28.777,757.478z
	 M26.324,768.265c0.454,0.666,1.234,0.885,1.876,1.289c0.323,0.203,0.614,0.184,0.922-0.045c0.32-0.236,0.447-0.52,0.347-0.896
	c-0.358-1.357-1.078-2.475-2.29-3.281c-0.345-0.229-0.642-0.146-0.919,0.064c-0.31,0.236-0.883,0.346-0.754,0.852
	C25.686,766.946,25.921,767.644,26.324,768.265z M34.563,754.368c0.508-0.588,1.492-1.252,1.151-2.533
	c-0.06-0.225-0.123-0.418-0.367-0.521c-0.978-0.412-1.887-0.207-2.576,0.588c-0.175,0.201-0.352,0.4-0.523,0.604
	c-0.435,0.516-0.373,1.875,0.105,2.355c0.092,0.092,0.208,0.141,0.339,0.129C33.273,754.944,33.871,754.96,34.563,754.368z
	 M25.759,771.034c0.723,1.387,2.155,1.625,3.498,2.004c0.31,0.086,0.508-0.092,0.683-0.32c0.194-0.254,0.147-0.475-0.017-0.723
	c-0.806-1.219-1.827-2.197-3.223-2.785c-0.545-0.229-1.018-0.119-1.448,0.363c-0.367,0.414-0.046,0.707,0.174,1.018
	C25.533,770.741,25.648,770.886,25.759,771.034z M29.202,762.194c-0.15-0.168-0.298-0.338-0.452-0.504
	c-0.25-0.27-0.536-0.367-0.896-0.186c-0.414,0.207-0.992,0.268-0.997,0.869c-0.011,1.314,0.068,2.605,1.436,3.389
	c0.265,0.152,0.479,0.449,0.831,0.256c0.38-0.207,0.854-0.424,0.849-0.898C29.962,764.095,29.987,763.04,29.202,762.194z
	 M26.447,773.013c-0.772,0.551-0.762,0.846-0.025,1.393c0.679,0.504,1.383,0.982,2.204,1.207c0.863,0.236,1.772,0.264,2.67,0.236
	c0.222-0.006,0.509-0.111,0.561-0.404c0.04-0.229-0.126-0.365-0.295-0.494c-1.306-1.006-2.795-1.643-4.402-2.045
	C26.908,772.843,26.662,772.837,26.447,773.013z M29.376,761.774c0.288,0.275,0.385,0.852,0.932,0.766
	c0.479-0.074,0.976-0.352,1.089-0.818c0.243-1.004,0.629-2.041-0.103-3.033c-0.175-0.236-0.223-0.66-0.606-0.598
	c-0.517,0.082-1.265,0.031-1.436,0.564C28.928,759.671,28.291,760.772,29.376,761.774z M42.725,749.368
	c0.491-0.34,0.689-1.068,0.305-1.285c-0.586-0.332-1.143-0.732-1.869-0.809c-0.837-0.09-1.552,0.275-2.295,0.508
	c-0.459,0.143-0.521,1.48-0.134,1.725C39.55,750.024,41.895,749.942,42.725,749.368z M46.178,747.919
	c0.438-0.299,0.437-0.721,0.068-1.1c-1.015-1.047-2.217-1.592-3.734-1.482c-0.472,0.033-0.81,0.102-0.948,0.59
	c-0.143,0.5-0.104,0.873,0.435,1.172c1.116,0.613,2.299,0.928,3.577,0.939C45.785,748.04,45.998,748.06,46.178,747.919z
	 M33.282,758.989c1.026-0.74,1.453-2.445,0.912-3.445c-0.045-0.086-0.111-0.18-0.194-0.223c-0.419-0.215-1.642,0.115-1.866,0.533
	c-0.268,0.502-0.505,1.021-0.71,1.549c-0.154,0.398,0.278,1.66,0.636,1.82C32.535,759.435,32.936,759.118,33.282,758.989z
	 M39.21,752.237c0.221-0.156,0.441-0.281,0.624-0.443c0.338-0.303,0.489-1.24,0.254-1.449c-0.335-0.297-1.79-0.49-2.23-0.258
	c-0.476,0.25-0.948,0.518-1.382,0.83c-0.577,0.414-0.4,1.02-0.3,1.566c0.092,0.5,0.559,0.377,0.917,0.416
	C37.914,752.991,38.61,752.72,39.21,752.237z M49.322,746.401c-0.857-1.16-1.261-1.447-3.05-2.131
	c-0.302-0.115-0.664-0.43-0.914,0.055c-0.226,0.436-0.435,0.867,0.128,1.281c0.61,0.445,1.195,0.91,1.845,1.316
	c0.662,0.412,1.367,0.674,2.08,0.945c0.17,0.064,0.397,0.055,0.52-0.111c0.132-0.178,0.101-0.393-0.021-0.57
	C49.724,746.919,49.519,746.663,49.322,746.401z M36.687,756.192c0.606-0.695,1.525-1.268,1.305-2.43
	c-0.035-0.186-0.04-0.346-0.264-0.432c-0.696-0.268-1.673-0.033-2.165,0.531c-0.202,0.23-0.419,0.451-0.621,0.684
	c-0.38,0.438-0.421,1.52,0.029,1.914c0.437,0.385,0.938,0.074,1.393-0.115C36.459,756.306,36.552,756.257,36.687,756.192z
	 M32.001,763.048c-0.161-0.168-0.304-0.629-0.778-0.467c-0.398,0.135-0.914,0.289-0.922,0.797c-0.02,1.109-0.056,2.248,1.07,2.99
	c0.232,0.152,0.401,0.457,0.752,0.277c0.342-0.176,0.673-0.408,0.672-0.813C32.792,764.882,32.745,763.931,32.001,763.048z
	 M31.523,766.972c-0.276-0.246-0.561-0.482-0.825-0.74c-0.262-0.254-0.522-0.303-0.828-0.074c-0.31,0.232-0.691,0.408-0.536,0.906
	c0.363,1.164,0.855,2.229,2.112,2.758c0.242,0.104,0.47,0.348,0.74,0.145c0.3-0.225,0.419-0.553,0.308-0.92
	C32.27,768.313,32.019,767.591,31.523,766.972z M32.282,762.774c0.574,0.9,1.221,0.926,1.594,0.045
	c0.368-0.867,0.615-1.813,0.1-2.736c-0.135-0.242-0.131-0.68-0.572-0.604c-0.441,0.076-1.043,0.113-1.164,0.582
	C32.005,760.979,31.428,761.952,32.282,762.774z M29.986,771.265c0.497,0.916,1.529,1.332,2.617,1.67
	c0.197,0.061,0.406,0.164,0.565-0.061c0.166-0.234,0.228-0.49,0.032-0.73c-0.798-0.979-1.599-1.953-2.795-2.531
	c-0.359-0.174-0.626-0.143-0.895,0.129c-0.284,0.285-0.259,0.568-0.022,0.863C29.627,770.78,29.758,770.964,29.986,771.265z
	 M44.318,751.573c0.721-0.52,0.657-0.852,0.042-1.242c-1.118-0.711-2.211-0.381-3.303-0.021c-0.469,0.154-0.328,0.648-0.415,1.004
	c-0.047,0.193-0.005,0.365,0.217,0.443C42.09,752.196,43.271,751.993,44.318,751.573z M51.063,747.767
	c0.5,0.459,0.998,0.92,1.5,1.375c0.094,0.086,0.212,0.143,0.343,0.09c0.129-0.053,0.105-0.16,0.064-0.258
	c-0.486-1.162-0.957-2.34-1.82-3.301c-0.409-0.455-0.904-0.838-1.371-1.242c-0.161-0.139-0.31-0.391-0.579-0.246
	c-0.262,0.141-0.316,0.404-0.311,0.684c0.006,0.26,0.164,0.445,0.284,0.658C49.661,746.388,50.501,746.966,51.063,747.767z
	 M35.608,760.206c0.728-0.52,1.235-2.139,0.952-2.965c-0.104-0.303-0.273-0.404-0.601-0.379c-1.288,0.102-2.246,1.744-1.721,2.971
	C34.555,760.575,34.944,760.681,35.608,760.206z M41.424,753.806c0.177-0.088,0.282-0.238,0.384-0.393
	c0.461-0.693,0.338-0.996-0.481-1.182c-0.986-0.225-2.226,0.219-2.822,1.02c-0.267,0.359-0.241,0.781-0.119,1.162
	c0.122,0.383,0.526,0.234,0.819,0.258C40.095,754.745,40.705,754.142,41.424,753.806z M47.664,750.362
	c0.338-0.227,0.366-0.408,0.112-0.68c-0.997-1.064-2.286-1.344-3.701-1.281c-0.448,0.02-0.471,0.391-0.581,0.689
	c-0.12,0.328,0.078,0.471,0.334,0.617c0.884,0.512,1.862,0.689,2.865,0.787C47.024,750.526,47.366,750.577,47.664,750.362z
	 M38.647,757.526c0.482-0.537,1.269-1.051,1.219-2.057c-0.009-0.182,0.022-0.361-0.216-0.451c-0.509-0.188-1.367-0.014-1.749,0.387
	c-0.284,0.297-0.561,0.602-0.823,0.916c-0.27,0.324-0.299,1.324,0.006,1.539c0.408,0.289,0.829,0.082,1.215-0.135
	C38.371,757.685,38.443,757.644,38.647,757.526z M33.556,766.497c0.026,0.027,0.122,0.17,0.255,0.26
	c0.271,0.18,0.413,0.666,0.848,0.467c0.452-0.207,0.493-0.652,0.478-1.096c-0.027-0.777-0.174-1.52-0.652-2.168
	c-0.16-0.217-0.241-0.563-0.634-0.471c-0.387,0.092-0.752,0.311-0.771,0.701C33.045,764.944,32.978,765.726,33.556,766.497z
	 M34.842,763.878c0.416,0.563,0.825,0.555,1.179-0.16c0.379-0.766,0.475-1.59,0.192-2.412c-0.091-0.264-0.091-0.689-0.484-0.697
	c-0.419-0.006-0.878,0.146-1.042,0.559C34.338,762.046,34.098,762.948,34.842,763.878z M34.222,767.769
	c-0.125-0.375-0.451-0.58-0.723-0.822c-0.168-0.15-0.338-0.426-0.63-0.215c-0.279,0.201-0.619,0.402-0.505,0.822
	c0.274,1.01,0.656,1.959,1.708,2.475c0.228,0.111,0.438,0.395,0.725,0.182c0.303-0.225,0.325-0.57,0.192-0.883
	C34.762,768.794,34.672,768.192,34.222,767.769z M35.044,775.347c0.186-0.32-0.028-0.49-0.237-0.66
	c-0.804-0.652-1.771-1.039-2.689-1.504c-0.329-0.168-0.703-0.258-1.061-0.367c-0.327-0.1-0.504,0.09-0.646,0.34
	c-0.119,0.211-0.097,0.373,0.109,0.525c1.244,0.92,2.593,1.596,4.197,1.674C34.819,775.36,34.923,775.351,35.044,775.347z
	 M51.007,750.132c-0.802-1.137-1.869-1.934-3.21-2.393c-0.302-0.104-0.572-0.258-0.809,0.125c-0.221,0.357-0.113,0.582,0.19,0.826
	c0.95,0.768,2.004,1.363,3.141,1.828c0.133,0.055,0.278,0.096,0.42,0.107c0.14,0.012,0.308,0.025,0.39-0.127
	C51.21,750.349,51.108,750.229,51.007,750.132z M37.535,761.204c0.65-0.455,1.139-1.857,0.946-2.619
	c-0.094-0.367-0.311-0.422-0.646-0.371c-0.974,0.146-1.813,1.652-1.459,2.633C36.639,761.577,36.892,761.655,37.535,761.204z
	 M42.688,752.438c-0.288,0.246-0.407,0.572-0.366,0.922c0.039,0.324,0.378,0.256,0.602,0.318c0.772,0.219,1.522,0.047,2.272-0.133
	c0.331-0.078,0.642-0.193,0.858-0.459c0.151-0.184,0.235-0.363-0.031-0.561C45.237,751.94,43.455,751.884,42.688,752.438z
	 M40.949,754.481c-0.193,0.152-0.414,0.283-0.572,0.465c-0.33,0.377-0.262,1.107,0.085,1.195c0.853,0.219,2.644-0.658,2.973-1.447
	c0.142-0.34,0.116-0.525-0.317-0.66C42.28,753.769,41.605,754.017,40.949,754.481z M35.319,771.718
	c-0.5-0.633-1.069-1.266-1.851-1.691c-0.257-0.141-0.485-0.24-0.74-0.02c-0.26,0.225-0.291,0.49-0.114,0.762
	c0.52,0.791,1.12,1.521,2.06,1.867c0.359,0.133,0.794,0.607,1.111,0.25C36.177,772.442,35.576,772.116,35.319,771.718z
	 M48.98,751.979c-0.895-0.951-2.055-1.189-3.31-1.141c-0.327,0.014-0.512,0.26-0.579,0.559c-0.064,0.287,0.176,0.375,0.377,0.484
	c0.917,0.49,1.927,0.615,2.948,0.682c0.157,0.01,0.33-0.059,0.479-0.123C49.147,752.333,49.177,752.163,48.98,751.979z
	 M40.263,758.706c0.392-0.465,1.099-0.871,1.185-1.705c0.038-0.375-0.095-0.545-0.511-0.58c-1.001-0.084-1.437,0.635-1.941,1.234
	c-0.355,0.422-0.328,1.025-0.023,1.359C39.287,759.36,39.775,759.021,40.263,758.706z M36.977,764.735
	c0.323,0.416,0.591,0.105,0.739-0.154c0.467-0.82,0.618-1.693,0.275-2.604c-0.135-0.357-0.357-0.461-0.725-0.275
	c-0.291,0.146-0.508,0.338-0.622,0.639C36.323,763.188,36.317,763.995,36.977,764.735z M35.93,767.165
	c0.175,0.164,0.32,0.586,0.729,0.518c0.307-0.053,0.417-0.4,0.433-0.678c0.044-0.813-0.026-1.613-0.542-2.307
	c-0.14-0.188-0.26-0.467-0.572-0.373c-0.314,0.094-0.604,0.322-0.589,0.639C35.42,765.694,35.3,766.472,35.93,767.165z
	 M36.262,768.013c-0.13-0.156-0.254-0.318-0.391-0.469c-0.177-0.193-0.349-0.449-0.671-0.285c-0.305,0.156-0.465,0.439-0.36,0.762
	c0.274,0.846,0.56,1.697,1.422,2.189c0.203,0.115,0.401,0.387,0.659,0.207c0.27-0.186,0.228-0.514,0.14-0.779
	C36.869,769.065,36.682,768.485,36.262,768.013z M39.237,762.022c0.496-0.553,0.935-1.262,0.891-2.17
	c-0.024-0.5-0.295-0.607-0.76-0.465c-0.775,0.24-1.414,1.598-1.131,2.438C38.436,762.415,38.593,762.466,39.237,762.022z
	 M42.55,755.923c-0.44,0.271-0.834,0.535-0.818,1.088c0.007,0.232,0.077,0.367,0.349,0.402c0.689,0.088,2.204-0.617,2.548-1.207
	c0.269-0.461,0.187-0.629-0.367-0.742C43.596,755.325,43.032,755.542,42.55,755.923z M51.617,752.12
	c-0.512-0.656-1.377-1.227-2.508-1.664c-0.264-0.102-0.546-0.283-0.771,0.066c-0.223,0.346,0.044,0.518,0.28,0.688
	c0.764,0.549,1.546,1.07,2.424,1.443c0.288,0.121,0.653,0.352,0.869,0.117C52.153,752.507,51.673,752.333,51.617,752.12z
	 M46.907,754.884c0.277-0.225,0.653-0.369,0.27-0.686c-0.629-0.516-2.374-0.492-3.035,0.016c-0.358,0.273-0.416,0.846-0.082,0.926
	C45.064,755.384,46.036,755.237,46.907,754.884z M35.608,771.478c0.432,0.654,1.075,1.051,1.787,1.357
	c0.181,0.078,0.41,0.258,0.574,0.09c0.199-0.207,0.029-0.453-0.096-0.66c-0.372-0.615-0.891-1.117-1.461-1.543
	c-0.318-0.24-0.68-0.844-1.129-0.443C34.822,770.688,35.359,771.104,35.608,771.478z M41.692,759.661
	c0.28-0.252,0.708-0.609,0.974-1.102c0.135-0.252,0.29-0.557,0.079-0.793c-0.212-0.238-0.55-0.117-0.827-0.045
	c-0.657,0.17-1.008,0.699-1.376,1.178c-0.269,0.35-0.293,0.842,0.004,1.125c0.274,0.26,0.653-0.037,0.948-0.225
	C41.511,759.788,41.528,759.776,41.692,759.661z M37.58,774.671c-1.018-0.762-2.164-1.367-3.406-1.803
	c-0.207-0.074-0.367-0.004-0.459,0.199c-0.076,0.168-0.067,0.316,0.093,0.432c1.079,0.775,2.192,1.48,3.59,1.578
	c0.097,0.006,0.244,0.008,0.287-0.049C37.77,774.919,37.667,774.804,37.58,774.671z M37.747,776.642
	c-0.188-0.256-0.393-0.238-0.564-0.291c-0.675-0.205-1.432-0.193-2.052-0.432c-0.704-0.273-1.415-0.311-2.119-0.457
	c-0.277-0.059-0.593,0.051-0.644,0.346c-0.053,0.303,0.292,0.299,0.493,0.35 M49.861,753.747c-0.455-0.551-2.292-1.127-2.997-0.922
	c-0.265,0.078-0.431,0.26-0.47,0.518c-0.037,0.244,0.203,0.275,0.363,0.35c0.822,0.387,1.713,0.502,2.609,0.584
	c0.138,0.012,0.289-0.043,0.424-0.09C50.036,754.099,50.048,753.948,49.861,753.747z M53.525,752.071
	c0.046-0.025,0.092-0.053,0.138-0.08c-0.076-0.182-0.142-0.367-0.229-0.545c-0.577-1.172-1.391-2.172-2.404-3.021
	c-0.197-0.166-0.399-0.473-0.68-0.24c-0.265,0.219-0.038,0.48,0.119,0.695s0.363,0.404,0.479,0.637
	c0.216,0.432,0.781,0.5,0.988,0.877C52.326,751.099,52.993,751.517,53.525,752.071z M37.851,767.649
	c0.149,0.125,0.237,0.484,0.571,0.385c0.359-0.107,0.375-0.459,0.381-0.76c0.014-0.652-0.125-1.281-0.411-1.873
	c-0.1-0.207-0.181-0.506-0.505-0.445c-0.305,0.059-0.545,0.271-0.558,0.582C37.298,766.263,37.299,766.995,37.851,767.649z
	 M38.568,765.161c0.247,0.383,0.549,0.389,0.769-0.061c0.331-0.68,0.528-1.406,0.298-2.166c-0.06-0.197-0.057-0.479-0.359-0.508
	c-0.247-0.023-0.431,0.131-0.587,0.301C38.182,763.28,38.124,764.472,38.568,765.161z M40.461,762.905
	c0.602-0.439,1.103-1.557,1.047-2.234c-0.025-0.301-0.129-0.4-0.476-0.377c-0.732,0.051-1.677,1.82-1.155,2.549
	C40.099,763.151,40.287,763.021,40.461,762.905z M37.604,769.87c0.085,0.193,0.257,0.369,0.478,0.492
	c0.205,0.113,0.402,0.422,0.643,0.242c0.244-0.182,0.195-0.518,0.092-0.791c-0.243-0.643-0.485-1.289-1-1.789
	c-0.161-0.156-0.271-0.49-0.583-0.293c-0.251,0.158-0.408,0.43-0.288,0.736C37.128,768.935,37.242,769.435,37.604,769.87z
	 M45.007,757.942c0.327-0.227,0.602-0.383,0.766-0.652c0.116-0.188,0.17-0.365-0.113-0.49c-0.663-0.293-2.281,0.355-2.533,1.027
	c-0.199,0.531,0.011,0.783,0.596,0.652C44.207,758.372,44.69,758.224,45.007,757.942z M47.885,756.198
	c0.426-0.283,0.472-0.473,0.063-0.668c-0.873-0.42-1.716-0.189-2.548,0.105c-0.224,0.078-0.296,0.328-0.312,0.561
	c-0.012,0.178,0.118,0.248,0.271,0.279C46.275,756.663,47.14,756.481,47.885,756.198z M42.93,760.593
	c0.31-0.447,0.894-0.791,1.021-1.457c0.06-0.314-0.025-0.439-0.384-0.418c-0.733,0.045-1.131,0.535-1.544,1.014
	c-0.293,0.34-0.422,0.803-0.155,1.109C42.185,761.204,42.523,760.757,42.93,760.593z M39.412,772.015
	c-0.403-0.563-0.869-0.994-1.38-1.377c-0.176-0.131-0.39-0.426-0.638-0.18c-0.233,0.23-0.117,0.52,0.056,0.775
	c0.347,0.516,0.801,0.934,1.299,1.299c0.3,0.221,0.775,0.588,1.018,0.357C40.038,772.632,39.558,772.274,39.412,772.015z
	 M52.68,754.579c-0.633-1.041-1.608-1.592-2.675-2.027c-0.23-0.096-0.473-0.082-0.617,0.135c-0.162,0.242,0.07,0.367,0.232,0.479
	c0.776,0.537,1.595,1.008,2.461,1.398C52.251,754.642,52.431,754.696,52.68,754.579z M39.319,767.905
	c0.255,0.102,0.323,0.559,0.667,0.424c0.29-0.113,0.279-0.467,0.27-0.752c-0.02-0.568-0.113-1.123-0.355-1.645
	c-0.091-0.197-0.174-0.451-0.469-0.404c-0.256,0.041-0.386,0.26-0.412,0.482C38.942,766.659,39.005,767.294,39.319,767.905z
	 M40.011,765.63c0.334,0.469,0.549,0.271,0.683,0.023c0.324-0.604,0.479-1.246,0.313-1.926c-0.05-0.205-0.034-0.492-0.315-0.535
	c-0.271-0.041-0.465,0.164-0.616,0.355C39.699,764.03,39.717,765.251,40.011,765.63z M50.688,755.335
	c-0.434-0.521-2.145-1.031-2.792-0.832c-0.194,0.061-0.338,0.178-0.362,0.377c-0.025,0.209,0.168,0.262,0.313,0.33
	c0.728,0.344,1.526,0.404,2.311,0.508c0.139,0.02,0.291-0.018,0.43-0.053C50.794,755.612,50.891,755.511,50.688,755.335z
	 M41.732,763.55c0.58-0.551,0.935-1.211,0.988-2.008c0.031-0.457-0.205-0.514-0.583-0.352c-0.639,0.271-1.198,1.545-0.972,2.18
	C41.279,763.687,41.446,763.741,41.732,763.55z M39.876,774.919c-0.075-0.293-0.233-0.441-0.424-0.578
	c-0.79-0.566-1.678-0.959-2.56-1.363c-0.16-0.072-0.366-0.199-0.496,0.025c-0.124,0.213,0.009,0.393,0.186,0.521
	C37.552,774.231,38.57,774.837,39.876,774.919z M39.349,770.116c0.105,0.197,0.293,0.355,0.503,0.492
	c0.131,0.088,0.254,0.256,0.438,0.145c0.169-0.104,0.124-0.293,0.096-0.445c-0.13-0.711-0.502-1.318-0.911-1.904
	c-0.126-0.182-0.309-0.391-0.566-0.256c-0.246,0.129-0.298,0.385-0.207,0.639C38.864,769.241,39.005,769.71,39.349,770.116z
	 M46.094,758.843c0.254-0.123,0.478-0.303,0.642-0.541c0.101-0.145,0.135-0.283-0.078-0.396c-0.663-0.348-2.323,0.475-2.431,1.195
	c-0.05,0.332,0.09,0.379,0.378,0.344C45.157,759.378,45.635,759.151,46.094,758.843z M43.875,761.433
	c0.396-0.34,0.84-0.707,1.044-1.26c0.169-0.457,0.036-0.602-0.465-0.486c-0.687,0.154-1.074,0.666-1.393,1.207
	c-0.132,0.225-0.246,0.578,0.04,0.771C43.359,761.841,43.601,761.595,43.875,761.433z M46.385,756.938
	c-0.103,0.107-0.24,0.238-0.245,0.436c-0.004,0.158,0.127,0.201,0.251,0.221c0.87,0.129,1.709,0.023,2.501-0.354
	c0.254-0.121,0.276-0.277,0.007-0.439C48.393,756.499,46.893,756.562,46.385,756.938z M41.322,772.997
	c-0.052-0.705-1.319-2.271-1.903-2.365c-0.43-0.068-0.381,0.277-0.279,0.471C39.604,771.989,40.319,772.62,41.322,772.997z
	 M43.002,763.979c0.369-0.445,0.725-1.006,0.768-1.701c0.026-0.426-0.196-0.484-0.549-0.336c-0.48,0.203-1.036,1.441-0.886,1.936
	C42.446,764.245,42.635,764.278,43.002,763.979z M40.817,768.308c0.138,0.082,0.177,0.389,0.42,0.34
	c0.273-0.057,0.247-0.354,0.272-0.559c0.072-0.596-0.104-1.16-0.311-1.713c-0.063-0.166-0.175-0.346-0.411-0.299
	c-0.208,0.043-0.334,0.217-0.338,0.396C40.438,767.091,40.36,767.729,40.817,768.308z M54.188,754.251
	c-0.144-0.799-0.698-1.359-1.138-1.973c-0.281-0.391-0.693-0.695-1.061-1.025c-0.147-0.131-0.342-0.338-0.54-0.186
	c-0.238,0.182,0.034,0.35,0.128,0.506c0.083,0.139,0.228,0.248,0.291,0.393c0.185,0.428,0.752,0.451,0.946,0.832
	C53.127,753.417,53.743,753.751,54.188,754.251z M48.496,756.368c0.286,0.307,2.411,0.68,2.756,0.529
	c0.266-0.117,0.164-0.23,0.014-0.346c-0.416-0.318-0.89-0.514-1.415-0.584c-0.367-0.049-0.743-0.176-1.104-0.004
	C48.576,756.044,48.343,756.144,48.496,756.368z M49.44,758.37c0.277-0.184,0.498-0.285,0.167-0.492
	c-0.422-0.262-1.932-0.182-2.306,0.139c-0.127,0.109-0.229,0.244-0.205,0.42c0.017,0.121,0.132,0.156,0.235,0.168
	C48.093,758.687,48.831,758.603,49.44,758.37z M53.335,756.163c-0.647-0.883-1.514-1.381-2.452-1.785
	c-0.178-0.076-0.399-0.125-0.517,0.055c-0.166,0.25,0.095,0.365,0.256,0.465c0.51,0.313,1.026,0.617,1.558,0.893
	C52.518,755.966,52.846,756.21,53.335,756.163z M38.605,773.378c0.757,0.668,1.665,1.055,2.646,1.299
	c0.081,0.02,0.182,0.033,0.22-0.055c0.06-0.139-0.048-0.223-0.15-0.293c-0.763-0.529-1.588-0.953-2.426-1.357
	c-0.122-0.059-0.288-0.139-0.392,0.023C38.412,773.138,38.517,773.263,38.605,773.378z M41.975,768.587
	c0.135,0.15,0.205,0.35,0.391,0.328c0.242-0.031,0.226-0.275,0.245-0.436c0.071-0.609-0.042-1.197-0.298-1.76
	c-0.058-0.127-0.1-0.291-0.276-0.287c-0.196,0.004-0.298,0.158-0.318,0.32C41.641,767.397,41.642,768.034,41.975,768.587z
	 M39.828,776.05c-0.399-0.107-0.8-0.213-1.199-0.324c-0.277-0.076-0.586,0.121-0.848-0.096c-0.442-0.367-1.008-0.352-1.536-0.449
	c-0.152-0.027-0.371-0.088-0.418,0.133c-0.045,0.209,0.169,0.256,0.322,0.303C37.34,775.974,38.555,776.19,39.828,776.05z
	 M42.114,770.567c0.015,0.018,0.068,0.111,0.149,0.17c0.161,0.115,0.321,0.363,0.521,0.25c0.193-0.109,0.084-0.373,0.041-0.563
	c-0.119-0.52-0.463-0.939-0.714-1.4c-0.084-0.156-0.201-0.361-0.425-0.266c-0.228,0.096-0.229,0.328-0.154,0.527
	C41.688,769.7,41.799,770.136,42.114,770.567z M52.101,757.929c-0.761-0.684-1.543-0.785-2.346-0.814
	c-0.17-0.006-0.33,0.086-0.414,0.238c-0.063,0.115,0.025,0.207,0.127,0.232C50.279,757.796,51.079,758.104,52.101,757.929z
	 M53.629,757.376c-0.522-0.822-1.357-1.207-2.223-1.541c-0.076-0.031-0.218,0.008-0.283,0.063c-0.104,0.09-0.016,0.191,0.068,0.248
	C51.942,756.663,52.702,757.167,53.629,757.376z M40.268,772.864c0.041,0.191,0.03,0.287,0.075,0.334
	c0.649,0.688,1.492,1.064,2.386,1.352c0.077,0.025,0.189,0.033,0.21-0.064c0.013-0.063-0.029-0.168-0.082-0.205
	C42.071,773.743,41.267,773.235,40.268,772.864z M54.643,756.042c0.045-0.037,0.09-0.074,0.135-0.111
	c-0.653-1.016-1.316-2.023-2.398-2.654c-0.062,0.055-0.123,0.107-0.184,0.162C53.012,754.308,53.828,755.175,54.643,756.042z"/>
<text transform="matrix(0.953 0 0 1 52.7754 775.7451)" fill="#FFFFFF" font-family="'BlackOpsOne-Regular'" font-size="23.6949">CARBON</text>
<text transform="matrix(1 0 0 1 22.2065 813.7451)" fill="#FFFFFF" font-family="'HelveticaNeue'" font-size="12">Desarrollado bajo la licencia MIT</text>
<path fill="#FFFFFF" d="M1031.508,746.036c9.816,0,18.688,3.973,25.121,10.406c6.433,6.432,10.406,15.303,10.406,25.119
	s-3.974,18.688-10.406,25.121s-15.305,10.406-25.121,10.406c-9.816,0-18.688-3.973-25.12-10.406s-10.406-15.305-10.406-25.121
	s3.974-18.688,10.406-25.119C1012.82,750.009,1021.692,746.036,1031.508,746.036L1031.508,746.036z M1054.681,758.409
	c-5.94-5.922-14.125-9.602-23.173-9.602c-9.048,0-17.232,3.68-23.153,9.602c-5.921,5.92-9.6,14.104-9.6,23.152
	s3.678,17.232,9.6,23.174c5.921,5.922,14.105,9.58,23.153,9.58c9.049,0,17.233-3.658,23.173-9.58
	c5.921-5.941,9.581-14.125,9.581-23.174S1060.603,764.329,1054.681,758.409L1054.681,758.409z"/>
<path fill="#FFFFFF" d="M1121.859,746.036c9.815,0,18.708,3.973,25.12,10.406c6.434,6.432,10.406,15.303,10.406,25.119
	s-3.973,18.688-10.406,25.121c-6.412,6.434-15.305,10.406-25.12,10.406c-9.796,0-18.688-3.973-25.121-10.406
	c-6.433-6.434-10.406-15.305-10.406-25.121s3.974-18.688,10.406-25.119C1103.172,750.009,1112.063,746.036,1121.859,746.036
	L1121.859,746.036z M1145.032,758.409c-5.94-5.922-14.124-9.602-23.173-9.602c-9.029,0-17.232,3.68-23.153,9.602
	c-5.922,5.92-9.6,14.104-9.6,23.152s3.678,17.232,9.6,23.174c5.92,5.922,14.124,9.58,23.153,9.58c9.049,0,17.232-3.658,23.173-9.58
	c5.922-5.941,9.58-14.125,9.58-23.174S1150.954,764.329,1145.032,758.409L1145.032,758.409z"/>
<path fill-rule="evenodd" clip-rule="evenodd" fill="#FFFFFF" d="M1034.223,774.304v-2.912c0-1.396,0.924-1.73,1.594-1.73
	c0.649,0,4.072,0,4.072,0v-6.217h-5.606c-6.235,0-7.632,4.604-7.632,7.594v3.266h-3.62v4.387v2.871h3.659c0,8.242,0,18.139,0,18.139
	h7.259c0,0,0-10.033,0-18.139h5.37l0.236-2.852l0.433-4.406H1034.223z"/>
<path fill-rule="evenodd" clip-rule="evenodd" fill="#FFFFFF" d="M1112.771,781.562c0-5.016,4.072-9.107,9.089-9.107
	c5.036,0,9.108,4.092,9.108,9.107c0,5.035-4.072,9.109-9.108,9.109C1116.843,790.671,1112.771,786.597,1112.771,781.562
	L1112.771,781.562z M1131.263,763.759h-18.786c-4.623,0-8.42,3.777-8.42,8.42v18.787c0,4.621,3.797,8.418,8.42,8.418h18.786
	c4.643,0,8.419-3.797,8.419-8.418v-18.787C1139.682,767.536,1135.905,763.759,1131.263,763.759L1131.263,763.759z M1112.477,765.864
	h18.786c3.482,0,6.314,2.832,6.314,6.314v18.787c0,3.48-2.832,6.313-6.314,6.313h-18.786c-3.483,0-6.315-2.832-6.315-6.313v-18.787
	C1106.162,768.696,1108.993,765.864,1112.477,765.864L1112.477,765.864z M1133.132,768.521c-1.023,0-1.85,0.826-1.85,1.848
	c0,1.023,0.826,1.85,1.85,1.85c1.022,0,1.849-0.826,1.849-1.85C1134.98,769.347,1134.154,768.521,1133.132,768.521L1133.132,768.521
	z M1133.347,781.562c0-6.334-5.133-11.488-11.487-11.488c-6.335,0-11.488,5.154-11.488,11.488c0,6.355,5.153,11.488,11.488,11.488
	C1128.214,793.05,1133.347,787.917,1133.347,781.562L1133.347,781.562z"/>
<text transform="matrix(1 0 0 1 245.3438 813.7451)" fill="#FFFFFF" font-family="'HelveticaNeue'" font-size="12">Términos y condiciones</text>
<text transform="matrix(1 0 0 1 404.127 813.7451)" fill="#FFFFFF" font-family="'HelveticaNeue'" font-size="12">Preguntas frecuentes</text>
<text transform="matrix(1 0 0 1 556.127 813.7451)" fill="#FFFFFF" font-family="'HelveticaNeue'" font-size="12">Pólítica de privacidad</text>
<path fill="#231F20" d="M206.844,51.687l-6,12v-18h6c0-0.82,0.295-1.525,0.885-2.115s1.295-0.885,2.115-0.885h9
	c0.819,0,1.524,0.295,2.114,0.885s0.886,1.295,0.886,2.115h15v6H206.844z M245.844,54.687l-9,21h-36l9-21H245.844z"/>
<path fill="#231F20" d="M400.708,42.327c2.739-1.601,5.729-2.4,8.97-2.4s6.229,0.8,8.97,2.4c2.74,1.6,4.91,3.77,6.511,6.51
	c1.6,2.74,2.399,5.729,2.399,8.97s-0.8,6.229-2.399,8.97c-1.601,2.74-3.771,4.91-6.511,6.51c-2.74,1.601-5.729,2.4-8.97,2.4
	s-6.23-0.8-8.97-2.4c-2.74-1.6-4.91-3.77-6.511-6.51c-1.6-2.74-2.399-5.729-2.399-8.97s0.8-6.229,2.399-8.97
	C395.798,46.097,397.968,43.927,400.708,42.327z M418.453,49.032c-2.431-2.431-5.355-3.646-8.775-3.646s-6.345,1.215-8.775,3.646
	c-2.43,2.43-3.645,5.354-3.645,8.774s1.215,6.345,3.645,8.774c2.431,2.431,5.355,3.646,8.775,3.646s6.345-1.215,8.775-3.646
	c2.43-2.43,3.645-5.354,3.645-8.774S420.883,51.462,418.453,49.032z M417.178,57.807h-4.5v9h-6v-9h-4.5l7.5-9L417.178,57.807z"/>
<text transform="matrix(1 0 0 1 256.627 54.5205)"><tspan x="0" y="0" fill="#FFFFFF" font-family="'HelveticaNeue'" font-size="18">Búsqueda </tspan><tspan x="0" y="26" fill="#FFFFFF" font-family="'HelveticaNeue'" font-size="18">por carpetas</tspan></text>
<text transform="matrix(1 0 0 1 437.1772 54.5205)"><tspan x="0" y="0" fill="#FFFFFF" font-family="'HelveticaNeue'" font-size="18">Subir </tspan><tspan x="0" y="26" fill="#FFFFFF" font-family="'HelveticaNeue'" font-size="18">Material</tspan></text>
<path fill="#231F20" d="M567.774,65.457l9,9c0.139,0.16,0.209,0.341,0.209,0.54c0,0.2-0.07,0.38-0.209,0.54l-3.271,3.271
	c-0.161,0.139-0.341,0.209-0.54,0.209c-0.2,0-0.381-0.07-0.54-0.209l-9-9c-2.38,1.56-4.99,2.34-7.83,2.34
	c-4.001,0-7.421-1.42-10.26-4.26c-2.841-2.84-4.261-6.26-4.261-10.261c0-4,1.42-7.42,4.261-10.26
	c2.839-2.84,6.259-4.261,10.26-4.261c4,0,7.42,1.421,10.261,4.261c2.839,2.84,4.26,6.26,4.26,10.26
	C570.114,60.468,569.334,63.077,567.774,65.457z M548.573,50.638c-1.939,1.939-2.91,4.27-2.91,6.989s0.971,5.05,2.91,6.99
	c1.94,1.94,4.28,2.909,7.021,2.909c2.739,0,5.075-0.964,7.005-2.895c1.93-1.93,2.895-4.265,2.895-7.005
	c0-2.739-0.965-5.075-2.895-7.005s-4.266-2.895-7.005-2.895C552.854,47.728,550.514,48.697,548.573,50.638z"/>
<text transform="matrix(1 0 0 1 588.5161 55.8066)"><tspan x="0" y="0" fill="#FFFFFF" font-family="'HelveticaNeue'" font-size="18">Búsqueda </tspan><tspan x="0" y="26" fill="#FFFFFF" font-family="'HelveticaNeue'" font-size="18">Avanzada</tspan></text>
<path fill="#231F20" d="M750.127,61.847h-6v18h-9v-12h-9v12h-9v-18h-6l19.681-19.32L750.127,61.847z"/>
<text transform="matrix(1 0 0 1 762.127 56.8066)"><tspan x="0" y="0" fill="#FFFFFF" font-family="'HelveticaNeue'" font-size="18">Ranking </tspan><tspan x="0" y="26" fill="#FFFFFF" font-family="'HelveticaNeue'" font-size="18">Universidades</tspan></text>
<path fill="#231F20" d="M60.669,391.798l-6,12v-18h6c0-0.82,0.295-1.525,0.885-2.115s1.295-0.885,2.115-0.885h9
	c0.819,0,1.524,0.295,2.114,0.885s0.886,1.295,0.886,2.115h15v6H60.669z M99.669,394.798l-9,21h-36l9-21H99.669z"/>
<text transform="matrix(1 0 0 1 120.5967 404.2979)" font-family="'HelveticaNeue'" font-size="18">USACH</text>
<path fill="#231F20" d="M218.964,506.588l-6,12v-18h6c0-0.82,0.295-1.525,0.885-2.115s1.295-0.885,2.115-0.885h9
	c0.819,0,1.524,0.295,2.114,0.885s0.886,1.295,0.886,2.115h15v6H218.964z M257.964,509.588l-9,21h-36l9-21H257.964z"/>
<text transform="matrix(1 0 0 1 274.4697 522.0869)" font-family="'HelveticaNeue'" font-size="18">INGENIERÍA DE SOFTWARE I</text>
<path fill="#231F20" d="M220.536,559.082l-6,12v-18h6c0-0.82,0.295-1.525,0.885-2.115s1.295-0.885,2.115-0.885h9
	c0.819,0,1.524,0.295,2.114,0.885s0.886,1.295,0.886,2.115h15v6H220.536z M259.536,562.082l-9,21h-36l9-21H259.536z"/>
<text transform="matrix(1 0 0 1 276.042 574.5811)" font-family="'HelveticaNeue'" font-size="18">INGENIERÍA DE SOFTWARE II</text>
<path fill="#231F20" d="M221.964,609.074l-6,12v-18h6c0-0.82,0.295-1.525,0.885-2.115s1.295-0.885,2.115-0.885h9
	c0.819,0,1.524,0.295,2.114,0.885s0.886,1.295,0.886,2.115h15v6H221.964z M260.964,612.074l-9,21h-36l9-21H260.964z"/>
<text transform="matrix(1 0 0 1 277.4697 624.5732)" font-family="'HelveticaNeue'" font-size="18">INGENIERÍA DE SOFTWARE III</text>
<path fill="#231F20" d="M131.323,450.414l-6,12v-18h6c0-0.819,0.295-1.524,0.885-2.115c0.59-0.589,1.295-0.885,2.115-0.885h9
	c0.819,0,1.524,0.296,2.114,0.885c0.59,0.591,0.886,1.296,0.886,2.115h15v6H131.323z M170.323,453.414l-9,21h-36l9-21H170.323z"/>
<text transform="matrix(1 0 0 1 189.2173 466.4678)" font-family="'HelveticaNeue'" font-size="18">LCC</text>
<text transform="matrix(1 0 0 1 57.3584 350.5068)"><tspan x="0" y="0" font-family="'ArialMT'" font-size="30">Asignaturas para</tspan><tspan x="226.802" y="0" fill="#D65677" font-family="'ArialMT'" font-size="30"> Carrera</tspan></text>
<g>
	<path fill="#FFFFFF" d="M457.562,285.022c0,3.037-2.462,5.5-5.5,5.5h-390c-3.038,0-5.5-2.463-5.5-5.5v-33
		c0-3.037,2.462-5.5,5.5-5.5h390c3.038,0,5.5,2.463,5.5,5.5V285.022z"/>
	<g>
		<path fill="#CDCCCC" d="M452.358,247.522c2.75,0,5.203,2.227,5.203,4.977v33c0,2.75-2.453,5.023-5.203,5.023h-390
			c-2.75,0-4.797-2.273-4.797-5.023v-33c0-2.75,2.047-4.977,4.797-4.977h390.203 M452.358,246.522h-390
			c-3.309,0-5.797,2.668-5.797,5.977v33c0,3.309,2.488,6.023,5.797,6.023h390c3.309,0,6.203-2.715,6.203-6.023v-33
			C458.562,249.19,455.667,246.522,452.358,246.522L452.358,246.522z"/>
	</g>
</g>
<text transform="matrix(1 0 0 1 70.8584 275.999)" fill="#010101" font-family="'HelveticaNeue'" font-size="18">Seleccione Universidad</text>
<text transform="matrix(1 0 0 1 60.8584 238.5088)" fill="#989898" font-family="'HelveticaNeue'" font-size="14">Universidad</text>
<polygon fill="#333333" points="431,267.999 441,267.999 436,272.999 "/>
<g>
	<path fill="#FFFFFF" d="M702.562,284.022c0,3.037-2.462,5.5-5.5,5.5h-217c-3.038,0-5.5-2.463-5.5-5.5v-33
		c0-3.037,2.462-5.5,5.5-5.5h217c3.038,0,5.5,2.463,5.5,5.5V284.022z"/>
	<g>
		<path fill="#CDCCCC" d="M697.173,246.522c2.75,0,5.389,2.227,5.389,4.977v33c0,2.75-2.639,5.023-5.389,5.023H480.358
			c-2.75,0-4.797-2.273-4.797-5.023v-33c0-2.75,2.047-4.977,4.797-4.977h217.203 M697.173,245.522H480.358
			c-3.309,0-5.797,2.668-5.797,5.977v33c0,3.309,2.488,6.023,5.797,6.023h216.814c3.309,0,6.389-2.715,6.389-6.023v-33
			C703.562,248.19,700.481,245.522,697.173,245.522L697.173,245.522z"/>
	</g>
</g>
<text transform="matrix(1 0 0 1 488.8584 274.999)" fill="#010101" font-family="'HelveticaNeue'" font-size="18">Carrera</text>
<text transform="matrix(1 0 0 1 478.8584 237.5088)" fill="#989898" font-family="'HelveticaNeue'" font-size="14">Carrera</text>
<polygon fill="#333333" points="676,266.999 686,266.999 681,271.999 "/>
<g>
	<path fill="#D65677" d="M918.562,284.522c0,2.762-2.239,5-5,5h-153c-2.761,0-5-2.238-5-5v-33c0-2.762,2.239-5,5-5h153
		c2.761,0,5,2.238,5,5V284.522z"/>
</g>
<text transform="matrix(1 0 0 1 807 274.999)" fill="#FFFFFF" font-family="'HelveticaNeue'" font-size="18">BUSCAR</text>
</svg>
