<?xml version="1.0" encoding="utf-8"?>
<!-- Generator: Adobe Illustrator 16.0.0, SVG Export Plug-In . SVG Version: 6.00 Build 0)  -->
<!DOCTYPE svg PUBLIC "-//W3C//DTD SVG 1.1//EN" "http://www.w3.org/Graphics/SVG/1.1/DTD/svg11.dtd">
<svg version="1.1" id="Layer_1" xmlns="http://www.w3.org/2000/svg" xmlns:xlink="http://www.w3.org/1999/xlink" x="0px" y="0px"
	 width="1190.55px" height="842px" viewBox="0 0 1190.55 842" enable-background="new 0 0 1190.55 842" xml:space="preserve">
<rect x="1.001" y="0.622" fill="#D65677" width="1190.546" height="120.877"/>
<path fill="#FFFFFF" d="M1029.116,80.366v6.433h-51.555v-6.433l17.185-11.561v-4.499c-1.06,0-2.041-1.116-2.943-3.351
	c-0.903-2.234-1.354-4.116-1.354-5.646v-8.997c0-3.718,1.26-6.897,3.782-9.536c2.52-2.639,5.555-3.959,9.107-3.959
	c3.551,0,6.587,1.32,9.107,3.959s3.782,5.818,3.782,9.536v8.997c0,1.529-0.45,3.412-1.354,5.646
	c-0.902,2.235-1.883,3.351-2.943,3.351v4.499L1029.116,80.366z"/>
<text transform="matrix(1 0 0 1 1049.4131 61.8081)" fill="#FFFFFF" font-family="'HelveticaNeue'" font-size="18">User@user.cl</text>
<text transform="matrix(1 0 0 1 1048.4131 84.8081)" font-family="'HelveticaNeue'" font-size="18">(Cerrar sesión)</text>
<linearGradient id="SVGID_1_" gradientUnits="userSpaceOnUse" x1="36.52" y1="60.5537" x2="104.9922" y2="60.5537">
	<stop  offset="0" style="stop-color:#FFFFFF;stop-opacity:0"/>
	<stop  offset="0.5323" style="stop-color:#FFFFFF"/>
</linearGradient>
<path fill-rule="evenodd" clip-rule="evenodd" fill="url(#SVGID_1_)" d="M81.228,87.438c-0.271-0.113-0.547-0.218-0.812-0.342
	c-0.171-0.079-0.347-0.196-0.519-0.067c-0.2,0.151-0.224,0.404-0.11,0.59c0.825,1.361,1.749,2.627,3.542,3.202
	c-0.099-0.895-0.653-1.367-1.023-1.934c-0.331-0.508-1.038-0.755-1.088-1.454c0.6-0.222,0.438-0.721,0.347-1.101
	c-0.25-1.049-0.671-2.05-1.348-2.915c-0.231-0.296-0.5-0.86-1.043-0.537c-0.44,0.262-0.326,0.736-0.192,1.17
	C79.394,85.389,80.182,86.491,81.228,87.438z M61.727,38.893c2.114-0.667,2.325-2.257,1.874-4.143
	c-0.117-0.489-0.154-0.999-0.193-1.501c-0.063-0.796-0.45-1.333-1.227-1.655c-1.377-0.571-2.744-1.17-4.103-1.783
	c-0.802-0.361-1.563-0.248-2.234,0.211c-1.25,0.857-2.523,1.689-3.63,2.731c-0.6,0.565-0.817,1.168-0.574,1.947
	c0.376,1.208,0.729,2.424,1.077,3.64c0.125,0.439,0.314,0.889,0.771,1.001C56.246,40.017,59.061,41.651,61.727,38.893z
	 M41.039,54.144c-0.006,0.004-0.012,0.008-0.018,0.013c0.352,0.465,0.702,0.932,1.057,1.396c1.157,1.511,5.747,1.255,6.739-0.376
	c0.019-0.031,0.034-0.064,0.054-0.095c1.508-2.381,2.221-4.781,0.275-7.294c-0.307-0.396-0.447-0.908-0.69-1.354
	c-0.297-0.545-0.746-0.877-1.423-0.896c-1.347-0.038-2.692-0.101-4.039-0.15c-0.759-0.028-1.28,0.307-1.58,0.971
	c-0.581,1.286-1.169,2.569-1.742,3.858c-0.417,0.939-0.319,1.813,0.372,2.622C40.4,53.255,40.709,53.708,41.039,54.144z
	 M71.529,29.719c1.221,0.819,2.627,1.919,4.183,2.765c1.862,1.011,3.985,0.747,6.033,0.717c0.165-0.002,0.355-0.113,0.488-0.225
	c0.836-0.701,1.146-3.514,0.413-4.34c-1.143-1.287-2.353-2.52-3.548-3.762c-0.329-0.342-0.725-0.574-1.196-0.762
	c-1.946-0.775-3.92-0.205-5.877-0.172c-0.572,0.009-0.863,0.531-0.902,1.09c-0.078,1.114-0.141,2.229-0.213,3.344
	C70.881,28.801,71.112,29.13,71.529,29.719z M45.63,74.359c0.388-0.188,0.748-0.492,0.717-0.896c-0.122-1.561,0.14-3.17-0.636-4.656
	c-0.884-1.693-2.505-2.737-3.818-4.048c-0.304-0.305-0.815-0.355-1.28-0.214c-1,0.305-1.997,0.625-3.001,0.918
	c-0.81,0.236-1.137,0.757-1.085,1.545c0.086,1.295,0.128,2.594,0.254,3.884c0.071,0.724,0.345,1.417,0.986,1.87
	c1.238,0.876,2.506,1.714,3.755,2.576c0.576,0.397,1.182,0.442,1.805,0.152C44.102,75.128,44.863,74.737,45.63,74.359z
	 M51.361,49.846c0.31,0.412,0.667,0.683,1.222,0.683c0.937,0,1.875,0.058,2.81,0.026c0.681-0.022,1.382-0.231,1.836-0.694
	c1.818-1.853,3.694-3.726,2.158-6.606c-0.066-0.125-0.083-0.277-0.104-0.419c-0.111-0.747-0.609-1.118-1.332-1.269
	c-1.245-0.26-2.488-0.529-3.736-0.771c-0.917-0.179-1.669,0.038-2.244,0.825c-0.645,0.883-1.352,1.726-2.063,2.561
	c-0.478,0.562-0.594,1.17-0.312,1.814C50.161,47.288,50.77,48.563,51.361,49.846z M74.972,37.939
	c1.258-0.822,1.417-3.646,0.254-4.499c-1.249-0.916-2.544-1.784-3.885-2.571c-0.692-0.406-1.529-0.545-2.363-0.254
	c-1.126,0.394-2.246,0.809-3.387,1.16c-0.694,0.213-0.953,0.648-0.928,1.292c0.015,0.395,0.066,0.789,0.109,1.182
	c0.413,3.854-0.063,2.822,3.493,4.37C70.7,39.679,72.841,38.638,74.972,37.939z M49.268,58.093c-0.306-0.76-1.124-0.939-2.177-0.724
	c-0.841,0.173-1.708,0.233-2.561,0.356c-0.675,0.097-1.242,0.375-1.394,1.071c-0.276,1.269-0.532,2.542-0.75,3.822
	c-0.109,0.638,0.161,1.224,0.6,1.682c0.963,1.008,1.973,1.975,2.958,2.962c0.303,0.304,0.669,0.452,1.101,0.466
	c1.812,0.062,3.425-1.086,3.833-2.762c0.178-0.735,0.304-1.484,0.431-2.231c0.126-0.738-0.073-1.445-0.422-2.082
	C50.453,59.86,49.92,59.114,49.268,58.093z M62.452,39.808c-0.649,0.453-1.162,0.817-1.682,1.171
	c-0.505,0.344-0.783,0.839-0.671,1.396c0.205,1.021,0.496,2.029,0.798,3.03c0.105,0.35,0.406,0.625,0.797,0.706
	c2.085,0.426,4.192,1.032,6.064-0.604c0.245-0.214,0.558-0.371,0.864-0.5c1.074-0.449,1.502-1.226,1.385-2.33
	c-0.056-0.536-0.058-1.079-0.076-1.618c-0.012-0.375-0.067-0.814-0.417-0.953c-1.635-0.655-3.16-1.688-5.058-1.515
	C63.526,38.677,63.088,39.552,62.452,39.808z M50.885,59.062c0.498,0.494,0.605,1.335,1.362,1.639
	c0.649,0.261,3.648-0.512,4.137-1.031c1.753-1.862,1.92-5.615,0.346-7.72c-0.21-0.279-0.504-0.415-0.842-0.49
	c-3.015-0.673-4.309-0.044-5.525,2.687c-0.015,0.032-0.025,0.068-0.043,0.099C49.262,55.977,49.305,57.594,50.885,59.062z
	 M43.273,88.022c0.437,0.476,0.819,1.211,1.549,1.725c1.836,1.294,4.06,1.384,6.136,1.893c1.099,0.27,2.8-1.504,2.331-2.304
	c-0.659-1.123-1.426-2.206-2.401-3.111c-1.429-1.326-3.295-1.943-5.026-2.776c-0.793-0.382-1.491-0.244-2.203,0.242
	c-2.375,1.62-2.385,1.616-0.697,3.918C43.026,87.698,43.093,87.785,43.273,88.022z M51.062,78.316
	c-0.599-1.141-1.949-1.735-3.04-2.591c-0.905-0.71-4.166,0.297-4.558,1.357c-0.037,0.099-0.074,0.225-0.042,0.316
	c0.503,1.459,0.682,3.074,1.73,4.289c1.315,1.523,3.289,2.094,5.131,2.747c1.159,0.411,2.919-1.101,2.58-2.151
	C52.437,80.965,52.178,79.544,51.062,78.316z M91.448,33.701c-1.494-1.909-3.834-2.567-6.136-3.286
	c-0.223-0.069-0.44-0.014-0.627,0.142c-0.643,0.533-0.995,3.161-0.444,3.757c2.263,2.448,4.913,4.365,8.205,5.366
	c0.879,0.268,1.528-0.114,1.618-0.953c0.059-0.55-0.058-1.072-0.368-1.55C92.961,36.048,92.233,34.915,91.448,33.701z
	 M53.049,70.049c-2.223-2.677-2.478-2.755-4.973-1.627c-0.136,0.062-0.275,0.119-0.398,0.199c-0.29,0.189-0.546,0.459-0.54,0.784
	c0.029,1.568-0.15,3.164,0.558,4.657c0.632,1.33,2.057,1.83,3.121,2.702c1.014,0.832,3.559-0.203,3.544-1.494
	C54.34,73.403,54.579,71.405,53.049,70.049z M63.577,54.432c2.006-1.428,2.8-3.458,2.233-5.759c-0.16-0.649-0.507-1.034-1.193-1.096
	c-4.057-0.369-3.425-1.097-5.96,2.084c-0.023,0.028-0.049,0.055-0.073,0.083c-1.013,1.205-0.603,4.339,0.693,5.255
	c0.117,0.083,0.267,0.17,0.402,0.171C60.99,55.18,62.311,55.228,63.577,54.432z M77.088,38.117c0.079,0.064,0.213,0.191,0.364,0.295
	c2.403,1.664,5.052,2.553,8.051,2.411c0.726-0.034,1.101-0.376,1.312-0.97c0.227-0.638,0.597-1.287-0.072-1.902
	c-0.947-0.871-1.845-1.797-2.841-2.614c-1.875-1.54-4.16-1.041-6.333-1.046c-0.115,0-0.245,0.151-0.344,0.254
	C76.659,35.136,76.54,37.437,77.088,38.117z M52.048,67.608c0.784,0.885,1.389,1.57,1.997,2.253c0.288,0.324,0.66,0.521,1.094,0.389
	c1.35-0.411,2.622-0.859,2.767-2.563c0.048-0.571,0.176-1.139,0.297-1.702c0.386-1.798-0.682-3.157-1.687-4.395
	c-0.778-0.958-1.951,0.068-2.954,0.056c-0.036,0-0.073,0.016-0.11,0.021c-0.816,0.121-1.23,0.576-1.334,1.366
	c-0.116,0.892-0.277,1.779-0.46,2.661C51.49,66.5,51.743,67.181,52.048,67.608z M79.711,44.006c0.941-0.641,1.351-2.393,0.556-2.941
	c-1.962-1.353-3.869-2.765-6.642-1.699c-2.733,1.05-2.795,0.899-2.506,3.71c0.015,0.144,0.03,0.287,0.058,0.428
	c0.053,0.26,0.207,0.438,0.449,0.583C73.651,45.299,77.866,45.264,79.711,44.006z M68.48,46.077
	c-0.212,0.147-0.424,0.295-0.636,0.444c-1.345,0.938-1.731,2.751-0.88,4.097c0.147,0.233,0.364,0.369,0.625,0.42
	c1.284,0.254,2.593,0.547,3.852,0.006c0.742-0.318,1.388-0.84,2.096-1.239c1.152-0.65,1.808-2.362,1.343-3.535
	c-0.089-0.224-0.242-0.37-0.456-0.44C72.41,45.16,70.378,44.169,68.48,46.077z M58.462,63.233c0.201,0.227,0.383,0.721,0.833,0.678
	c1.192-0.114,2.48-0.242,3.2-1.291c1.293-1.881,1.924-3.896,0.71-6.082c-0.125-0.223-0.202-0.459-0.454-0.59
	c-0.617-0.324-3.25,0.05-3.755,0.539C57.088,58.336,56.853,60.996,58.462,63.233z M54.072,82.466
	c0.813,1.187,2.208,1.577,3.357,2.296c0.579,0.362,1.099,0.328,1.65-0.079c0.573-0.422,0.8-0.924,0.621-1.599
	c-0.641-2.418-1.929-4.41-4.098-5.848c-0.616-0.409-1.148-0.262-1.645,0.114c-0.554,0.42-1.581,0.617-1.348,1.517
	C52.931,80.114,53.353,81.356,54.072,82.466z M68.818,57.689c0.909-1.049,2.669-2.232,2.059-4.515
	c-0.107-0.401-0.219-0.746-0.657-0.93c-1.749-0.735-3.376-0.372-4.61,1.046c-0.313,0.359-0.629,0.714-0.937,1.077
	c-0.778,0.919-0.668,3.343,0.188,4.198c0.165,0.165,0.373,0.25,0.606,0.232C66.508,58.717,67.579,58.745,68.818,57.689z
	 M53.061,87.403c1.293,2.472,3.856,2.899,6.26,3.572c0.554,0.155,0.91-0.163,1.223-0.57c0.348-0.451,0.264-0.846-0.029-1.288
	c-1.443-2.172-3.27-3.92-5.767-4.966c-0.976-0.409-1.822-0.213-2.591,0.648c-0.657,0.736-0.082,1.258,0.312,1.814
	C52.657,86.882,52.863,87.14,53.061,87.403z M59.223,71.643c-0.269-0.3-0.533-0.604-0.808-0.898
	c-0.448-0.48-0.959-0.653-1.603-0.331c-0.741,0.371-1.775,0.477-1.784,1.55c-0.019,2.344,0.123,4.644,2.57,6.042
	c0.474,0.271,0.856,0.802,1.486,0.458c0.68-0.373,1.528-0.757,1.52-1.604C60.584,75.032,60.627,73.152,59.223,71.643z
	 M54.292,90.931c-1.381,0.981-1.364,1.506-0.045,2.483c1.215,0.9,2.476,1.75,3.945,2.151c1.544,0.422,3.171,0.473,4.777,0.424
	c0.398-0.012,0.912-0.201,1.003-0.722c0.071-0.409-0.226-0.65-0.529-0.883c-2.337-1.792-5.002-2.928-7.877-3.643
	C55.119,90.629,54.677,90.616,54.292,90.931z M59.534,70.893c0.515,0.492,0.689,1.519,1.667,1.367
	c0.858-0.133,1.747-0.629,1.949-1.46c0.435-1.79,1.125-3.639-0.184-5.406c-0.314-0.424-0.399-1.178-1.085-1.068
	c-0.925,0.147-2.264,0.057-2.568,1.007C58.732,67.146,57.592,69.107,59.534,70.893z M83.423,48.774
	c0.879-0.606,1.233-1.905,0.545-2.292c-1.049-0.589-2.045-1.303-3.343-1.441c-1.499-0.159-2.779,0.491-4.107,0.905
	c-0.822,0.256-0.934,2.642-0.24,3.078C77.741,49.945,81.938,49.798,83.423,48.774z M89.602,46.192
	c0.785-0.533,0.781-1.285,0.122-1.962c-1.817-1.867-3.967-2.837-6.682-2.644c-0.845,0.06-1.449,0.184-1.697,1.051
	c-0.255,0.892-0.186,1.56,0.779,2.089c1.997,1.097,4.115,1.656,6.401,1.676C88.898,46.406,89.281,46.442,89.602,46.192z
	 M66.525,65.929c1.836-1.322,2.6-4.359,1.632-6.145c-0.082-0.151-0.199-0.32-0.348-0.395c-0.751-0.384-2.938,0.206-3.338,0.951
	c-0.479,0.894-0.905,1.82-1.271,2.762c-0.275,0.708,0.498,2.958,1.139,3.243C65.187,66.722,65.905,66.159,66.525,65.929z
	 M77.134,53.889c0.396-0.276,0.789-0.5,1.116-0.79c0.605-0.539,0.876-2.211,0.454-2.583c-0.599-0.529-3.202-0.873-3.99-0.461
	c-0.852,0.446-1.696,0.924-2.473,1.48c-1.034,0.74-0.717,1.819-0.537,2.792c0.165,0.892,1,0.672,1.641,0.744
	C74.813,55.236,76.059,54.751,77.134,53.889z M95.229,43.487c-1.533-2.069-2.256-2.581-5.458-3.802
	c-0.541-0.206-1.188-0.765-1.635,0.099c-0.403,0.776-0.779,1.547,0.23,2.284c1.091,0.796,2.138,1.624,3.301,2.347
	c1.184,0.737,2.445,1.204,3.722,1.686c0.304,0.115,0.71,0.096,0.929-0.198c0.237-0.317,0.181-0.7-0.038-1.016
	C95.949,44.407,95.581,43.952,95.229,43.487z M72.618,60.943c1.085-1.239,2.729-2.262,2.335-4.333
	c-0.062-0.329-0.072-0.617-0.473-0.77c-1.246-0.476-2.995-0.06-3.874,0.946c-0.362,0.414-0.75,0.808-1.111,1.222
	c-0.679,0.779-0.753,2.709,0.052,3.413c0.782,0.684,1.679,0.129,2.492-0.207C72.211,61.143,72.375,61.057,72.618,60.943z
	 M64.233,73.165c-0.288-0.3-0.543-1.122-1.393-0.833c-0.712,0.242-1.634,0.515-1.65,1.421c-0.035,1.978-0.101,4.007,1.914,5.331
	c0.416,0.273,0.719,0.816,1.347,0.494c0.612-0.313,1.204-0.726,1.203-1.449C65.648,76.434,65.564,74.737,64.233,73.165z
	 M63.376,80.162c-0.494-0.438-1.004-0.861-1.477-1.32c-0.469-0.455-0.935-0.542-1.481-0.134c-0.555,0.415-1.237,0.728-0.958,1.618
	c0.65,2.076,1.531,3.972,3.779,4.917c0.434,0.182,0.842,0.621,1.325,0.259c0.536-0.401,0.751-0.987,0.55-1.641
	C64.714,82.553,64.264,81.265,63.376,80.162z M64.735,72.678c1.028,1.605,2.185,1.65,2.854,0.078c0.658-1.545,1.1-3.231,0.179-4.879
	c-0.242-0.431-0.236-1.209-1.023-1.074c-0.79,0.136-1.867,0.2-2.083,1.039C64.239,69.478,63.207,71.211,64.735,72.678z
	 M60.626,87.815c0.888,1.633,2.737,2.374,4.684,2.975c0.352,0.108,0.727,0.292,1.011-0.107c0.296-0.416,0.408-0.873,0.058-1.3
	c-1.429-1.746-2.861-3.482-5.002-4.515c-0.643-0.31-1.122-0.255-1.602,0.229c-0.507,0.511-0.463,1.014-0.04,1.542
	C59.985,86.951,60.219,87.276,60.626,87.815z M86.274,52.708c1.291-0.926,1.176-1.518,0.074-2.216
	c-2.001-1.267-3.957-0.68-5.911-0.038c-0.838,0.275-0.587,1.155-0.743,1.79c-0.084,0.344-0.008,0.65,0.388,0.792
	C82.288,53.819,84.4,53.454,86.274,52.708z M98.346,45.918c0.894,0.819,1.785,1.64,2.684,2.455c0.167,0.152,0.38,0.251,0.613,0.157
	c0.23-0.094,0.188-0.285,0.116-0.458c-0.871-2.072-1.712-4.171-3.258-5.886c-0.73-0.811-1.618-1.494-2.453-2.214
	c-0.288-0.249-0.555-0.698-1.037-0.438c-0.468,0.251-0.566,0.721-0.555,1.217c0.01,0.463,0.292,0.796,0.508,1.174
	C95.835,43.46,97.34,44.493,98.346,45.918z M70.688,68.096c1.301-0.926,2.209-3.812,1.703-5.283
	c-0.186-0.54-0.489-0.724-1.075-0.678c-2.305,0.181-4.021,3.11-3.08,5.299C68.803,68.755,69.498,68.943,70.688,68.096z
	 M81.095,56.685c0.316-0.154,0.504-0.424,0.687-0.698c0.825-1.236,0.605-1.776-0.86-2.107c-1.765-0.398-3.984,0.389-5.05,1.818
	c-0.478,0.64-0.431,1.394-0.213,2.074c0.219,0.681,0.941,0.417,1.467,0.459C78.716,58.361,79.809,57.284,81.095,56.685z
	 M92.261,50.547c0.605-0.402,0.654-0.727,0.2-1.211c-1.783-1.898-4.091-2.397-6.622-2.284c-0.801,0.036-0.844,0.694-1.039,1.229
	c-0.214,0.586,0.139,0.838,0.598,1.102c1.582,0.91,3.333,1.227,5.126,1.401C91.117,50.841,91.728,50.929,92.261,50.547z
	 M76.125,63.322c0.862-0.958,2.27-1.876,2.181-3.669c-0.016-0.321,0.04-0.645-0.387-0.802c-0.91-0.336-2.445-0.025-3.129,0.688
	c-0.508,0.529-1.002,1.072-1.472,1.633c-0.483,0.577-0.535,2.361,0.01,2.745c0.731,0.514,1.483,0.145,2.175-0.242
	C75.632,63.602,75.761,63.528,76.125,63.322z M67.014,79.315c0.047,0.049,0.219,0.302,0.458,0.461
	c0.484,0.323,0.739,1.189,1.518,0.834c0.809-0.37,0.881-1.165,0.854-1.955c-0.048-1.387-0.312-2.709-1.167-3.864
	c-0.285-0.386-0.432-1.004-1.135-0.84c-0.692,0.163-1.346,0.555-1.379,1.251C66.1,76.546,65.98,77.938,67.014,79.315z
	 M69.316,74.645c0.744,1.004,1.476,0.99,2.111-0.286c0.679-1.366,0.85-2.835,0.343-4.299c-0.163-0.471-0.163-1.23-0.867-1.243
	c-0.75-0.013-1.571,0.262-1.864,0.996C68.414,71.378,67.985,72.987,69.316,74.645z M68.206,81.58
	c-0.223-0.667-0.806-1.034-1.294-1.466c-0.301-0.267-0.604-0.759-1.127-0.384c-0.499,0.36-1.108,0.717-0.904,1.467
	c0.491,1.802,1.174,3.495,3.055,4.413c0.409,0.199,0.785,0.702,1.298,0.323c0.542-0.4,0.582-1.016,0.345-1.573
	C69.172,83.408,69.012,82.338,68.206,81.58z M69.677,95.093c0.332-0.572-0.051-0.875-0.423-1.176
	c-1.439-1.165-3.171-1.853-4.812-2.683c-0.589-0.299-1.257-0.458-1.899-0.654c-0.586-0.179-0.903,0.16-1.156,0.606
	c-0.212,0.373-0.174,0.664,0.195,0.935c2.227,1.642,4.64,2.845,7.512,2.986C69.276,95.116,69.46,95.099,69.677,95.093z
	 M98.244,50.137c-1.435-2.025-3.345-3.448-5.745-4.266c-0.541-0.184-1.024-0.458-1.447,0.223c-0.396,0.637-0.202,1.036,0.34,1.473
	c1.699,1.37,3.585,2.431,5.62,3.26c0.238,0.097,0.497,0.169,0.752,0.19c0.25,0.021,0.55,0.046,0.698-0.226
	C98.609,50.522,98.425,50.313,98.244,50.137z M74.135,69.877c1.164-0.812,2.039-3.311,1.693-4.668
	c-0.167-0.656-0.556-0.754-1.155-0.664c-1.743,0.262-3.245,2.947-2.612,4.695C72.532,70.542,72.984,70.68,74.135,69.877z
	 M83.357,54.249c-0.515,0.438-0.729,1.02-0.655,1.643c0.068,0.579,0.677,0.456,1.076,0.569c1.381,0.391,2.724,0.082,4.065-0.237
	c0.593-0.141,1.148-0.346,1.536-0.818c0.269-0.329,0.421-0.648-0.055-1.001C87.919,53.363,84.729,53.26,83.357,54.249z
	 M80.245,57.891c-0.345,0.274-0.74,0.507-1.023,0.83c-0.591,0.673-0.468,1.973,0.153,2.131c1.526,0.39,4.731-1.173,5.32-2.579
	c0.255-0.606,0.208-0.937-0.566-1.18C82.627,56.622,81.418,57.062,80.245,57.891z M70.169,88.624
	c-0.896-1.13-1.913-2.258-3.313-3.016c-0.46-0.25-0.868-0.428-1.324-0.036c-0.464,0.4-0.521,0.875-0.203,1.357
	c0.93,1.413,2.004,2.713,3.686,3.331c0.643,0.236,1.42,1.083,1.988,0.445C71.705,89.916,70.629,89.333,70.169,88.624z M94.617,53.43
	c-1.601-1.693-3.678-2.12-5.924-2.032c-0.585,0.023-0.916,0.464-1.036,0.997c-0.115,0.51,0.314,0.669,0.675,0.861
	c1.641,0.876,3.449,1.097,5.276,1.215c0.281,0.018,0.589-0.102,0.858-0.217C94.916,54.061,94.969,53.759,94.617,53.43z
	 M79.017,65.425c0.701-0.828,1.967-1.553,2.12-3.043c0.068-0.667-0.169-0.969-0.914-1.032c-1.792-0.151-2.571,1.131-3.474,2.201
	c-0.635,0.752-0.586,1.826-0.042,2.421C77.271,66.59,78.144,65.983,79.017,65.425z M73.136,76.173
	c0.578,0.741,1.059,0.188,1.322-0.274c0.835-1.461,1.106-3.018,0.492-4.642c-0.241-0.638-0.639-0.822-1.297-0.492
	c-0.521,0.261-0.909,0.602-1.113,1.14C71.967,73.416,71.956,74.855,73.136,76.173z M71.263,80.505
	c0.313,0.292,0.572,1.043,1.306,0.922c0.549-0.091,0.746-0.711,0.774-1.208c0.079-1.449-0.047-2.876-0.971-4.111
	c-0.25-0.335-0.465-0.831-1.024-0.665c-0.562,0.167-1.08,0.572-1.055,1.14C70.351,77.883,70.135,79.268,71.263,80.505z
	 M71.858,82.017c-0.233-0.28-0.455-0.568-0.7-0.836c-0.316-0.345-0.625-0.802-1.201-0.508c-0.546,0.279-0.833,0.783-0.646,1.356
	c0.49,1.507,1.003,3.026,2.545,3.904c0.363,0.207,0.717,0.691,1.18,0.372c0.483-0.334,0.408-0.918,0.25-1.392
	C72.944,83.892,72.608,82.857,71.858,82.017z M77.181,71.337c0.887-0.985,1.672-2.249,1.594-3.869
	c-0.043-0.892-0.528-1.084-1.36-0.828c-1.387,0.427-2.531,2.848-2.024,4.344C75.747,72.037,76.029,72.126,77.181,71.337z
	 M83.11,60.462c-0.787,0.483-1.493,0.954-1.463,1.938c0.012,0.415,0.137,0.657,0.625,0.718c1.233,0.156,3.944-1.1,4.56-2.15
	c0.482-0.823,0.335-1.121-0.656-1.325C84.981,59.397,83.972,59.783,83.11,60.462z M99.336,53.681
	c-0.917-1.169-2.465-2.188-4.488-2.966c-0.472-0.182-0.979-0.505-1.381,0.117c-0.4,0.618,0.08,0.925,0.5,1.227
	c1.367,0.98,2.766,1.909,4.337,2.573c0.515,0.218,1.169,0.627,1.555,0.209C100.295,54.37,99.437,54.061,99.336,53.681z
	 M90.907,58.607c0.496-0.399,1.168-0.657,0.482-1.22c-1.125-0.922-4.248-0.877-5.432,0.026c-0.64,0.488-0.744,1.51-0.146,1.652
	C87.61,59.499,89.349,59.239,90.907,58.607z M70.688,88.193c0.772,1.166,1.924,1.873,3.198,2.422c0.324,0.14,0.734,0.46,1.027,0.158
	c0.356-0.367,0.051-0.806-0.172-1.175c-0.665-1.097-1.594-1.992-2.615-2.754c-0.57-0.425-1.216-1.502-2.02-0.79
	C69.28,86.787,70.241,87.529,70.688,88.193z M81.575,67.125c0.501-0.448,1.267-1.086,1.742-1.963
	c0.243-0.447,0.518-0.992,0.141-1.415c-0.379-0.425-0.984-0.208-1.48-0.08c-1.176,0.303-1.803,1.247-2.463,2.102
	c-0.481,0.624-0.525,1.501,0.008,2.004c0.491,0.463,1.168-0.066,1.697-0.4C81.251,67.353,81.281,67.331,81.575,67.125z
	 M74.215,93.888c-1.821-1.36-3.873-2.438-6.096-3.216c-0.37-0.13-0.657-0.007-0.822,0.355c-0.136,0.3-0.121,0.566,0.166,0.771
	c1.93,1.382,3.923,2.639,6.425,2.812c0.174,0.013,0.437,0.014,0.513-0.084C74.556,94.331,74.373,94.125,74.215,93.888z
	 M74.515,97.401c-0.336-0.456-0.702-0.426-1.01-0.52c-1.208-0.365-2.563-0.342-3.672-0.77c-1.259-0.485-2.532-0.553-3.792-0.815
	c-0.496-0.103-1.06,0.091-1.152,0.617c-0.094,0.541,0.523,0.534,0.882,0.625 M96.194,56.582c-0.813-0.98-4.101-2.01-5.363-1.644
	c-0.475,0.139-0.771,0.463-0.841,0.921c-0.067,0.438,0.364,0.491,0.65,0.625c1.472,0.691,3.066,0.895,4.67,1.042
	c0.246,0.022,0.516-0.076,0.758-0.162C96.506,57.208,96.528,56.941,96.194,56.582z M102.75,53.596
	c0.082-0.048,0.165-0.096,0.247-0.145c-0.136-0.324-0.253-0.655-0.409-0.97c-1.032-2.091-2.488-3.872-4.301-5.39
	c-0.354-0.296-0.716-0.84-1.218-0.427c-0.475,0.391-0.068,0.858,0.213,1.24c0.281,0.382,0.65,0.72,0.858,1.134
	c0.386,0.769,1.397,0.892,1.768,1.563C100.604,51.86,101.799,52.605,102.75,53.596z M74.7,81.37
	c0.268,0.221,0.425,0.861,1.022,0.685c0.643-0.19,0.671-0.819,0.683-1.355c0.025-1.163-0.224-2.285-0.735-3.339
	c-0.18-0.37-0.325-0.902-0.904-0.793c-0.544,0.103-0.975,0.483-0.998,1.035C73.712,78.897,73.713,80.201,74.7,81.37z M75.983,76.933
	c0.442,0.684,0.983,0.693,1.375-0.109c0.592-1.211,0.946-2.505,0.534-3.859c-0.107-0.354-0.102-0.854-0.642-0.905
	c-0.442-0.042-0.771,0.231-1.052,0.536C75.293,73.578,75.189,75.703,75.983,76.933z M79.373,72.911
	c1.076-0.785,1.974-2.776,1.873-3.983c-0.044-0.537-0.231-0.716-0.851-0.673c-1.311,0.091-3.002,3.247-2.067,4.544
	C78.724,73.349,79.06,73.117,79.373,72.911z M74.259,85.329c0.152,0.345,0.461,0.657,0.855,0.876
	c0.366,0.204,0.719,0.753,1.151,0.432c0.436-0.324,0.348-0.923,0.164-1.409c-0.435-1.145-0.868-2.299-1.791-3.19
	c-0.287-0.278-0.484-0.875-1.043-0.522c-0.451,0.284-0.73,0.766-0.515,1.313C73.407,83.661,73.611,84.552,74.259,85.329z
	 M87.507,64.061c0.585-0.402,1.076-0.683,1.371-1.161c0.208-0.336,0.304-0.651-0.203-0.875c-1.186-0.523-4.082,0.633-4.533,1.831
	c-0.357,0.947,0.021,1.398,1.066,1.165C86.076,64.827,86.94,64.563,87.507,64.061z M92.657,60.951
	c0.762-0.504,0.844-0.841,0.112-1.19c-1.563-0.749-3.071-0.337-4.559,0.188c-0.4,0.141-0.53,0.587-0.558,0.998
	c-0.021,0.317,0.211,0.443,0.485,0.499C89.776,61.78,91.324,61.458,92.657,60.951z M83.791,68.787
	c0.554-0.796,1.599-1.411,1.828-2.599c0.108-0.559-0.045-0.781-0.687-0.742c-1.313,0.079-2.024,0.952-2.764,1.806
	c-0.525,0.606-0.755,1.431-0.277,1.978C82.456,69.877,83.062,69.079,83.791,68.787z M77.494,89.153
	c-0.721-1.006-1.556-1.775-2.47-2.457c-0.314-0.235-0.697-0.759-1.142-0.321c-0.418,0.411-0.21,0.927,0.1,1.384
	c0.621,0.918,1.434,1.665,2.325,2.316c0.537,0.393,1.387,1.047,1.822,0.637C78.615,90.253,77.756,89.613,77.494,89.153z
	 M101.239,58.066c-1.134-1.856-2.878-2.839-4.787-3.616c-0.412-0.167-0.846-0.145-1.104,0.241c-0.289,0.434,0.125,0.655,0.415,0.855
	c1.389,0.957,2.855,1.795,4.404,2.493C100.47,58.176,100.792,58.274,101.239,58.066z M77.328,81.825
	c0.457,0.183,0.577,0.998,1.194,0.757c0.518-0.202,0.5-0.832,0.482-1.343c-0.036-1.012-0.202-2.001-0.635-2.932
	c-0.163-0.351-0.311-0.803-0.839-0.719c-0.459,0.073-0.69,0.461-0.738,0.86C76.653,79.604,76.767,80.734,77.328,81.825z
	 M78.567,77.768c0.599,0.835,0.982,0.486,1.222,0.043c0.58-1.075,0.858-2.221,0.56-3.434c-0.09-0.367-0.062-0.878-0.565-0.955
	c-0.485-0.074-0.833,0.292-1.102,0.636C78.008,74.918,78.04,77.093,78.567,77.768z M97.674,59.412
	c-0.777-0.928-3.838-1.835-4.998-1.48c-0.347,0.106-0.605,0.316-0.648,0.671c-0.044,0.37,0.301,0.466,0.56,0.588
	c1.303,0.613,2.73,0.72,4.136,0.905c0.248,0.032,0.52-0.034,0.77-0.097C97.864,59.908,98.037,59.727,97.674,59.412z M81.646,74.061
	c1.039-0.984,1.673-2.16,1.769-3.582c0.055-0.814-0.366-0.914-1.043-0.626c-1.144,0.486-2.144,2.754-1.739,3.886
	C80.835,74.305,81.135,74.402,81.646,74.061z M78.325,94.33c-0.133-0.524-0.417-0.787-0.759-1.031
	c-1.414-1.01-3.003-1.709-4.582-2.429c-0.287-0.13-0.656-0.358-0.888,0.043c-0.221,0.38,0.017,0.701,0.333,0.93
	C74.166,93.103,75.988,94.184,78.325,94.33z M77.382,85.767c0.189,0.35,0.525,0.635,0.9,0.879c0.235,0.154,0.454,0.456,0.783,0.255
	c0.303-0.185,0.222-0.522,0.171-0.794c-0.234-1.266-0.899-2.35-1.631-3.394c-0.227-0.323-0.553-0.695-1.014-0.455
	c-0.44,0.229-0.533,0.684-0.37,1.137C76.514,84.208,76.766,85.043,77.382,85.767z M89.452,65.667
	c0.454-0.218,0.854-0.538,1.148-0.963c0.18-0.26,0.241-0.507-0.14-0.707c-1.187-0.623-4.156,0.843-4.349,2.128
	c-0.089,0.593,0.162,0.679,0.676,0.616C87.775,66.622,88.631,66.218,89.452,65.667z M85.48,70.285
	c0.708-0.605,1.503-1.262,1.869-2.245c0.303-0.816,0.063-1.073-0.833-0.87c-1.229,0.277-1.921,1.188-2.492,2.154
	c-0.237,0.4-0.44,1.03,0.072,1.375C84.559,71.014,84.991,70.573,85.48,70.285z M89.973,62.271c-0.183,0.194-0.429,0.427-0.439,0.779
	c-0.008,0.281,0.228,0.358,0.449,0.391c1.558,0.231,3.059,0.042,4.476-0.629c0.456-0.216,0.495-0.496,0.013-0.783
	C93.565,61.488,90.882,61.6,89.973,62.271z M80.912,90.904c-0.093-1.259-2.36-4.052-3.405-4.218c-0.77-0.123-0.682,0.494-0.5,0.84
	C77.837,89.107,79.118,90.231,80.912,90.904z M83.92,74.826c0.661-0.796,1.296-1.793,1.375-3.035
	c0.047-0.757-0.351-0.862-0.983-0.596c-0.858,0.36-1.854,2.57-1.586,3.451C82.924,75.3,83.262,75.357,83.92,74.826z M80.009,82.541
	c0.247,0.146,0.318,0.696,0.752,0.607c0.488-0.1,0.442-0.63,0.486-0.995c0.129-1.062-0.185-2.069-0.556-3.052
	c-0.112-0.297-0.314-0.618-0.736-0.534c-0.372,0.074-0.598,0.387-0.604,0.705C79.33,80.374,79.191,81.511,80.009,82.541z
	 M103.936,57.48c-0.256-1.422-1.248-2.422-2.037-3.516c-0.503-0.697-1.241-1.242-1.898-1.829c-0.263-0.235-0.611-0.604-0.966-0.333
	c-0.427,0.326,0.061,0.624,0.23,0.903c0.149,0.247,0.409,0.441,0.52,0.7c0.331,0.762,1.347,0.805,1.692,1.484
	C102.039,55.994,103.141,56.59,103.936,57.48z M93.75,61.256c0.512,0.548,4.315,1.212,4.932,0.942
	c0.476-0.208,0.294-0.41,0.025-0.615c-0.744-0.568-1.593-0.917-2.532-1.042c-0.656-0.087-1.33-0.313-1.976-0.008
	C93.894,60.677,93.477,60.854,93.75,61.256z M95.441,64.824c0.496-0.325,0.892-0.509,0.3-0.877
	c-0.755-0.468-3.458-0.323-4.127,0.249c-0.228,0.195-0.411,0.434-0.366,0.749c0.031,0.213,0.237,0.277,0.421,0.297
	C93.03,65.39,94.35,65.241,95.441,64.824z M102.412,60.889c-1.159-1.571-2.709-2.46-4.389-3.181
	c-0.318-0.137-0.714-0.222-0.926,0.097c-0.296,0.447,0.171,0.652,0.459,0.828c0.914,0.556,1.837,1.1,2.788,1.593
	C100.948,60.539,101.535,60.972,102.412,60.889z M76.051,91.581c1.355,1.192,2.979,1.88,4.735,2.316
	c0.144,0.037,0.325,0.062,0.394-0.095c0.107-0.249-0.086-0.4-0.269-0.525c-1.365-0.94-2.842-1.699-4.341-2.418
	c-0.218-0.104-0.516-0.248-0.702,0.042C75.706,91.153,75.893,91.376,76.051,91.581z M82.081,83.039
	c0.242,0.27,0.366,0.626,0.7,0.585c0.433-0.053,0.404-0.49,0.438-0.776c0.127-1.086-0.076-2.135-0.533-3.136
	c-0.104-0.227-0.179-0.52-0.496-0.514c-0.351,0.007-0.533,0.282-0.568,0.574C81.483,80.92,81.485,82.056,82.081,83.039z
	 M78.238,96.347c-0.715-0.192-1.432-0.381-2.145-0.578c-0.497-0.136-1.05,0.214-1.518-0.173c-0.792-0.655-1.805-0.626-2.75-0.799
	c-0.273-0.05-0.665-0.158-0.749,0.235c-0.08,0.372,0.302,0.457,0.576,0.54C73.787,96.21,75.961,96.595,78.238,96.347z
	 M82.329,86.572c0.027,0.032,0.123,0.199,0.268,0.301c0.288,0.205,0.575,0.647,0.934,0.445c0.346-0.195,0.149-0.665,0.073-1.001
	c-0.212-0.928-0.829-1.676-1.278-2.498c-0.151-0.277-0.36-0.644-0.76-0.474c-0.408,0.172-0.411,0.585-0.277,0.941
	C81.568,85.025,81.766,85.8,82.329,86.572z M100.202,64.038c-1.361-1.22-2.761-1.4-4.198-1.452c-0.305-0.011-0.59,0.154-0.741,0.426
	c-0.113,0.203,0.045,0.367,0.227,0.414C96.942,63.8,98.373,64.351,100.202,64.038z M102.938,63.052
	c-0.934-1.466-2.429-2.15-3.978-2.748c-0.136-0.053-0.389,0.014-0.506,0.114c-0.187,0.159-0.028,0.339,0.122,0.441
	C99.918,61.78,101.278,62.679,102.938,63.052z M79.026,90.666c0.072,0.342,0.054,0.512,0.133,0.597
	c1.162,1.226,2.67,1.896,4.27,2.41c0.138,0.044,0.338,0.059,0.375-0.116c0.023-0.11-0.051-0.3-0.147-0.365
	C82.253,92.232,80.814,91.329,79.026,90.666z M104.751,60.675c0.081-0.067,0.161-0.134,0.241-0.2
	c-1.168-1.812-2.355-3.607-4.291-4.734c-0.11,0.098-0.219,0.194-0.329,0.291C101.832,57.58,103.292,59.128,104.751,60.675z"/>
<text transform="matrix(1 0 0 1 59.7563 193.6235)"><tspan x="0" y="0" fill="#010101" font-family="'ArialMT'" font-size="30">Resultados de búsqueda para: </tspan><tspan x="416.968" y="0" fill="#D65677" font-family="'ArialMT'" font-size="30">Ingeniería de Software</tspan></text>
<rect x="1.001" y="721.745" fill="#D65677" width="1190.546" height="120.877"/>
<linearGradient id="SVGID_2_" gradientUnits="userSpaceOnUse" x1="17.3892" y1="756.5957" x2="55.6509" y2="756.5957">
	<stop  offset="0" style="stop-color:#FFFFFF;stop-opacity:0"/>
	<stop  offset="0.5376" style="stop-color:#FFFFFF"/>
</linearGradient>
<path fill-rule="evenodd" clip-rule="evenodd" fill="url(#SVGID_2_)" d="M42.372,771.675c-0.152-0.063-0.306-0.122-0.454-0.191
	c-0.095-0.045-0.194-0.11-0.29-0.037c-0.112,0.084-0.125,0.227-0.062,0.33c0.461,0.764,0.977,1.475,1.979,1.797
	c-0.055-0.503-0.365-0.768-0.572-1.086c-0.185-0.285-0.58-0.423-0.608-0.814c0.335-0.125,0.245-0.404,0.194-0.618
	c-0.14-0.589-0.375-1.149-0.753-1.635c-0.129-0.166-0.279-0.482-0.583-0.302c-0.247,0.147-0.183,0.414-0.107,0.656
	C41.347,770.525,41.787,771.144,42.372,771.675z M31.474,744.446c1.181-0.374,1.299-1.266,1.047-2.323
	c-0.065-0.274-0.085-0.56-0.107-0.842c-0.036-0.446-0.251-0.747-0.686-0.929c-0.77-0.32-1.533-0.656-2.292-1
	c-0.448-0.203-0.873-0.139-1.248,0.119c-0.699,0.48-1.41,0.947-2.028,1.531c-0.335,0.316-0.457,0.654-0.321,1.092
	c0.21,0.678,0.408,1.359,0.602,2.042c0.07,0.247,0.175,0.499,0.431,0.562C28.412,745.077,29.985,745.993,31.474,744.446z
	 M19.914,753.001c-0.003,0.002-0.007,0.004-0.01,0.006c0.196,0.262,0.392,0.523,0.59,0.783c0.647,0.848,3.211,0.705,3.766-0.211
	c0.01-0.018,0.019-0.035,0.03-0.053c0.843-1.336,1.241-2.682,0.154-4.092c-0.171-0.221-0.25-0.508-0.386-0.758
	c-0.166-0.307-0.417-0.492-0.795-0.504c-0.752-0.021-1.504-0.056-2.257-0.084c-0.424-0.016-0.715,0.172-0.883,0.545
	c-0.324,0.722-0.653,1.441-0.973,2.164c-0.233,0.527-0.178,1.018,0.208,1.471C19.557,752.502,19.729,752.756,19.914,753.001z
	 M36.952,739.302c0.682,0.459,1.468,1.076,2.337,1.551c1.041,0.566,2.227,0.418,3.371,0.401c0.092-0.001,0.198-0.063,0.272-0.126
	c0.467-0.393,0.641-1.971,0.23-2.434c-0.639-0.723-1.314-1.414-1.982-2.111c-0.184-0.191-0.405-0.321-0.668-0.427
	c-1.087-0.435-2.19-0.115-3.284-0.097c-0.32,0.006-0.482,0.298-0.504,0.611c-0.043,0.625-0.079,1.25-0.119,1.875
	C36.589,738.786,36.719,738.971,36.952,739.302z M22.479,764.339c0.217-0.105,0.418-0.275,0.4-0.502
	c-0.068-0.875,0.079-1.777-0.355-2.611c-0.494-0.949-1.399-1.535-2.133-2.271c-0.17-0.17-0.456-0.199-0.715-0.119
	c-0.56,0.17-1.116,0.35-1.677,0.514c-0.453,0.133-0.636,0.426-0.606,0.867c0.048,0.727,0.071,1.455,0.142,2.179
	c0.04,0.406,0.193,0.794,0.551,1.049c0.692,0.491,1.4,0.961,2.098,1.444c0.322,0.224,0.661,0.248,1.009,0.086
	C21.625,764.771,22.051,764.552,22.479,764.339z M25.682,750.59c0.173,0.231,0.373,0.384,0.683,0.384
	c0.523,0,1.047,0.031,1.57,0.014c0.38-0.012,0.772-0.129,1.026-0.389c1.016-1.039,2.064-2.09,1.206-3.706
	c-0.037-0.069-0.046-0.155-0.058-0.235c-0.063-0.418-0.34-0.627-0.745-0.711c-0.695-0.146-1.39-0.297-2.087-0.434
	c-0.513-0.1-0.933,0.021-1.254,0.463c-0.36,0.496-0.755,0.969-1.153,1.438c-0.267,0.314-0.332,0.656-0.174,1.018
	C25.011,749.155,25.352,749.87,25.682,750.59z M38.875,743.912c0.703-0.462,0.792-2.046,0.142-2.523
	c-0.698-0.514-1.422-1.001-2.171-1.442c-0.387-0.227-0.855-0.305-1.32-0.142c-0.63,0.22-1.255,0.454-1.893,0.649
	c-0.388,0.121-0.532,0.364-0.519,0.725c0.008,0.222,0.037,0.443,0.061,0.664c0.231,2.16-0.035,1.582,1.952,2.451
	C36.488,744.888,37.685,744.304,38.875,743.912z M24.512,755.216c-0.17-0.426-0.628-0.527-1.216-0.406
	c-0.47,0.098-0.954,0.131-1.431,0.2c-0.377,0.054-0.694,0.21-0.779,0.601c-0.154,0.711-0.297,1.426-0.419,2.144
	c-0.061,0.357,0.09,0.687,0.335,0.943c0.538,0.565,1.102,1.107,1.653,1.661c0.17,0.172,0.375,0.254,0.616,0.262
	c1.012,0.035,1.914-0.609,2.142-1.549c0.1-0.412,0.17-0.832,0.241-1.252c0.071-0.414-0.041-0.811-0.236-1.167
	C25.174,756.207,24.877,755.788,24.512,755.216z M31.879,744.96c-0.363,0.254-0.649,0.458-0.94,0.656
	c-0.282,0.193-0.438,0.471-0.375,0.783c0.114,0.573,0.277,1.139,0.446,1.699c0.059,0.197,0.227,0.352,0.445,0.396
	c1.166,0.238,2.343,0.579,3.389-0.339c0.137-0.12,0.312-0.208,0.483-0.28c0.601-0.252,0.839-0.688,0.774-1.307
	c-0.032-0.301-0.033-0.605-0.042-0.908c-0.007-0.209-0.038-0.455-0.233-0.534c-0.914-0.366-1.766-0.946-2.827-0.849
	C32.479,744.325,32.235,744.815,31.879,744.96z M25.416,755.759c0.278,0.277,0.338,0.749,0.761,0.919
	c0.363,0.146,2.039-0.287,2.312-0.578c0.979-1.044,1.073-3.149,0.193-4.329c-0.117-0.158-0.282-0.233-0.47-0.275
	c-1.685-0.378-2.407-0.025-3.087,1.506c-0.008,0.02-0.014,0.039-0.024,0.057C24.509,754.028,24.533,754.937,25.416,755.759z
	 M21.163,772.003c0.244,0.267,0.458,0.68,0.865,0.967c1.026,0.727,2.269,0.777,3.429,1.063c0.614,0.15,1.564-0.844,1.302-1.293
	c-0.368-0.629-0.797-1.236-1.342-1.744c-0.798-0.744-1.841-1.09-2.809-1.558c-0.443-0.214-0.833-0.137-1.231,0.136
	c-1.327,0.908-1.333,0.906-0.39,2.197C21.024,771.821,21.062,771.869,21.163,772.003z M25.515,766.559
	c-0.335-0.64-1.089-0.974-1.699-1.453c-0.505-0.398-2.328,0.167-2.547,0.761c-0.02,0.057-0.041,0.127-0.023,0.178
	c0.281,0.818,0.381,1.725,0.967,2.406c0.735,0.854,1.837,1.174,2.867,1.541c0.647,0.23,1.631-0.618,1.442-1.207
	C26.283,768.044,26.139,767.247,25.515,766.559z M48.083,741.534c-0.835-1.07-2.143-1.439-3.429-1.843
	c-0.125-0.038-0.246-0.008-0.351,0.079c-0.359,0.299-0.556,1.773-0.248,2.107c1.264,1.373,2.745,2.449,4.584,3.01
	c0.491,0.15,0.854-0.064,0.904-0.534c0.033-0.309-0.032-0.602-0.206-0.87C48.928,742.851,48.521,742.216,48.083,741.534z
	 M26.625,761.921c-1.243-1.501-1.385-1.545-2.779-0.912c-0.076,0.035-0.154,0.066-0.222,0.111c-0.162,0.106-0.306,0.258-0.302,0.439
	c0.017,0.88-0.083,1.775,0.312,2.613c0.353,0.745,1.149,1.025,1.744,1.516c0.566,0.466,1.989-0.115,1.981-0.838
	C27.346,763.804,27.48,762.683,26.625,761.921z M32.508,753.163c1.121-0.802,1.565-1.94,1.248-3.23
	c-0.089-0.364-0.284-0.58-0.667-0.615c-2.267-0.207-1.914-0.615-3.331,1.169c-0.013,0.017-0.027,0.03-0.041,0.046
	c-0.566,0.676-0.337,2.434,0.388,2.947c0.065,0.047,0.149,0.096,0.225,0.096C31.063,753.582,31.8,753.608,32.508,753.163z
	 M40.058,744.011c0.044,0.037,0.119,0.107,0.204,0.166c1.343,0.934,2.823,1.432,4.499,1.353c0.405-0.019,0.615-0.211,0.732-0.544
	c0.127-0.357,0.334-0.722-0.04-1.066c-0.529-0.488-1.031-1.008-1.587-1.467c-1.048-0.863-2.325-0.584-3.539-0.586
	c-0.064,0-0.137,0.084-0.192,0.143C39.818,742.339,39.751,743.63,40.058,744.011z M26.066,760.552
	c0.438,0.497,0.776,0.881,1.116,1.264c0.161,0.182,0.369,0.293,0.611,0.219c0.754-0.23,1.465-0.482,1.546-1.438
	c0.027-0.32,0.098-0.639,0.166-0.955c0.216-1.008-0.381-1.77-0.942-2.464c-0.435-0.538-1.09,0.038-1.651,0.031
	c-0.021-0.001-0.041,0.009-0.062,0.013c-0.456,0.066-0.688,0.322-0.745,0.766c-0.065,0.5-0.155,0.998-0.257,1.492
	C25.754,759.931,25.895,760.313,26.066,760.552z M41.523,747.314c0.526-0.359,0.755-1.343,0.311-1.649
	c-1.097-0.759-2.162-1.551-3.712-0.953c-1.527,0.59-1.562,0.505-1.4,2.082c0.008,0.08,0.017,0.16,0.033,0.238
	c0.029,0.146,0.116,0.246,0.25,0.328C38.137,748.04,40.493,748.021,41.523,747.314z M35.248,748.476
	c-0.119,0.084-0.237,0.166-0.355,0.25c-0.751,0.525-0.967,1.543-0.492,2.297c0.082,0.131,0.203,0.207,0.349,0.236
	c0.717,0.143,1.449,0.307,2.152,0.004c0.415-0.18,0.775-0.472,1.171-0.695c0.644-0.365,1.011-1.325,0.75-1.982
	c-0.05-0.126-0.135-0.208-0.255-0.248C37.444,747.962,36.309,747.405,35.248,748.476z M29.65,758.099
	c0.112,0.127,0.214,0.404,0.466,0.381c0.667-0.064,1.386-0.137,1.788-0.725c0.723-1.055,1.075-2.186,0.396-3.41
	c-0.069-0.126-0.113-0.258-0.253-0.332c-0.345-0.182-1.816,0.028-2.098,0.303C28.882,755.353,28.751,756.845,29.65,758.099z
	 M27.197,768.886c0.454,0.666,1.234,0.885,1.876,1.289c0.323,0.203,0.614,0.184,0.922-0.045c0.32-0.236,0.447-0.52,0.347-0.896
	c-0.358-1.357-1.078-2.474-2.29-3.28c-0.345-0.229-0.642-0.147-0.919,0.063c-0.31,0.236-0.883,0.346-0.754,0.852
	C26.559,767.567,26.794,768.265,27.197,768.886z M35.437,754.989c0.508-0.588,1.492-1.252,1.151-2.532
	c-0.06-0.226-0.123-0.418-0.367-0.521c-0.978-0.412-1.887-0.208-2.576,0.587c-0.175,0.201-0.352,0.4-0.523,0.604
	c-0.435,0.516-0.373,1.875,0.105,2.355c0.092,0.092,0.208,0.141,0.339,0.13C34.146,755.565,34.744,755.581,35.437,754.989z
	 M26.632,771.655c0.723,1.387,2.155,1.625,3.498,2.004c0.31,0.086,0.508-0.092,0.683-0.32c0.194-0.253,0.147-0.475-0.017-0.723
	c-0.806-1.218-1.827-2.197-3.223-2.785c-0.545-0.229-1.018-0.119-1.448,0.364c-0.367,0.413-0.046,0.706,0.174,1.018
	C26.406,771.363,26.521,771.507,26.632,771.655z M30.075,762.815c-0.15-0.168-0.298-0.338-0.452-0.504
	c-0.25-0.27-0.536-0.366-0.896-0.186c-0.414,0.208-0.992,0.268-0.997,0.869c-0.011,1.315,0.068,2.605,1.436,3.389
	c0.265,0.152,0.479,0.45,0.831,0.257c0.38-0.208,0.854-0.425,0.849-0.899C30.835,764.717,30.86,763.661,30.075,762.815z
	 M27.32,773.634c-0.772,0.551-0.762,0.846-0.025,1.393c0.679,0.505,1.383,0.982,2.204,1.207c0.863,0.236,1.772,0.265,2.67,0.237
	c0.222-0.007,0.509-0.112,0.561-0.405c0.04-0.229-0.126-0.365-0.295-0.494c-1.306-1.006-2.795-1.643-4.402-2.044
	C27.781,773.464,27.535,773.458,27.32,773.634z M30.249,762.396c0.288,0.275,0.385,0.852,0.932,0.766
	c0.479-0.074,0.976-0.352,1.089-0.818c0.243-1.004,0.629-2.041-0.103-3.033c-0.175-0.236-0.223-0.66-0.606-0.598
	c-0.517,0.082-1.265,0.031-1.436,0.564C29.801,760.293,29.164,761.394,30.249,762.396z M43.598,749.989
	c0.491-0.34,0.689-1.068,0.305-1.285c-0.586-0.331-1.143-0.731-1.869-0.809c-0.837-0.09-1.552,0.275-2.295,0.508
	c-0.459,0.143-0.521,1.481-0.134,1.726C40.423,750.646,42.768,750.563,43.598,749.989z M47.051,748.541
	c0.438-0.3,0.437-0.721,0.068-1.101c-1.015-1.047-2.217-1.592-3.734-1.482c-0.472,0.033-0.81,0.103-0.948,0.59
	c-0.143,0.5-0.104,0.874,0.435,1.172c1.116,0.614,2.299,0.928,3.577,0.939C46.658,748.661,46.871,748.681,47.051,748.541z
	 M34.155,759.61c1.026-0.74,1.453-2.444,0.912-3.445c-0.045-0.086-0.111-0.18-0.194-0.223c-0.419-0.215-1.642,0.116-1.866,0.534
	c-0.268,0.501-0.505,1.021-0.71,1.549c-0.154,0.397,0.278,1.659,0.636,1.819C33.408,760.056,33.809,759.739,34.155,759.61z
	 M40.083,752.858c0.221-0.156,0.441-0.281,0.624-0.443c0.338-0.303,0.489-1.24,0.254-1.449c-0.335-0.297-1.79-0.489-2.23-0.258
	c-0.476,0.25-0.948,0.518-1.382,0.83c-0.577,0.415-0.4,1.02-0.3,1.566c0.092,0.5,0.559,0.377,0.917,0.417
	C38.787,753.613,39.483,753.341,40.083,752.858z M50.195,747.023c-0.857-1.161-1.261-1.447-3.05-2.132
	c-0.302-0.115-0.664-0.43-0.914,0.055c-0.226,0.436-0.435,0.867,0.128,1.281c0.61,0.446,1.195,0.91,1.845,1.316
	c0.662,0.413,1.367,0.675,2.08,0.945c0.17,0.064,0.397,0.055,0.52-0.111c0.132-0.178,0.101-0.393-0.021-0.57
	C50.597,747.54,50.392,747.284,50.195,747.023z M37.56,756.813c0.606-0.694,1.525-1.268,1.305-2.43
	c-0.035-0.185-0.04-0.346-0.264-0.432c-0.696-0.268-1.673-0.033-2.165,0.531c-0.202,0.231-0.419,0.452-0.621,0.685
	c-0.38,0.437-0.421,1.52,0.029,1.914c0.437,0.384,0.938,0.073,1.393-0.116C37.333,756.927,37.425,756.878,37.56,756.813z
	 M32.875,763.669c-0.161-0.168-0.304-0.629-0.778-0.467c-0.398,0.135-0.914,0.289-0.922,0.797c-0.02,1.109-0.056,2.248,1.07,2.99
	c0.232,0.152,0.401,0.457,0.752,0.277c0.342-0.176,0.673-0.408,0.672-0.813C33.666,765.503,33.618,764.552,32.875,763.669z
	 M32.396,767.593c-0.276-0.245-0.561-0.482-0.825-0.739c-0.262-0.255-0.522-0.304-0.828-0.075c-0.31,0.232-0.691,0.408-0.536,0.907
	c0.363,1.164,0.855,2.228,2.112,2.757c0.242,0.104,0.47,0.349,0.74,0.146c0.3-0.226,0.419-0.554,0.308-0.92
	C33.143,768.935,32.892,768.212,32.396,767.593z M33.155,763.396c0.574,0.9,1.221,0.926,1.594,0.045
	c0.368-0.867,0.615-1.813,0.1-2.736c-0.135-0.242-0.131-0.679-0.572-0.604c-0.441,0.076-1.043,0.113-1.164,0.582
	C32.878,761.601,32.301,762.573,33.155,763.396z M30.859,771.886c0.497,0.916,1.529,1.332,2.617,1.67
	c0.197,0.061,0.406,0.164,0.565-0.061c0.166-0.233,0.228-0.49,0.032-0.729c-0.798-0.979-1.599-1.953-2.795-2.532
	c-0.359-0.174-0.626-0.143-0.895,0.129c-0.284,0.286-0.259,0.568-0.022,0.864C30.5,771.401,30.631,771.585,30.859,771.886z
	 M45.191,752.194c0.721-0.519,0.657-0.851,0.042-1.242c-1.118-0.711-2.211-0.381-3.303-0.021c-0.469,0.154-0.328,0.648-0.415,1.004
	c-0.047,0.193-0.005,0.365,0.217,0.443C42.963,752.818,44.144,752.614,45.191,752.194z M51.937,748.388
	c0.5,0.459,0.998,0.92,1.5,1.376c0.094,0.085,0.212,0.142,0.343,0.089c0.129-0.053,0.105-0.16,0.064-0.258
	c-0.486-1.162-0.957-2.34-1.82-3.301c-0.409-0.455-0.904-0.838-1.371-1.242c-0.161-0.139-0.31-0.391-0.579-0.246
	c-0.262,0.142-0.316,0.404-0.311,0.684c0.006,0.26,0.164,0.445,0.284,0.658C50.534,747.009,51.375,747.587,51.937,748.388z
	 M36.481,760.827c0.728-0.52,1.235-2.139,0.952-2.964c-0.104-0.303-0.273-0.405-0.601-0.38c-1.288,0.102-2.246,1.744-1.721,2.972
	C35.428,761.196,35.817,761.302,36.481,760.827z M42.297,754.427c0.177-0.088,0.282-0.238,0.384-0.393
	c0.461-0.693,0.338-0.996-0.481-1.182c-0.986-0.224-2.226,0.219-2.822,1.02c-0.267,0.359-0.241,0.782-0.119,1.163
	c0.122,0.382,0.526,0.233,0.819,0.258C40.968,755.366,41.578,754.763,42.297,754.427z M48.537,750.983
	c0.338-0.227,0.366-0.408,0.112-0.68c-0.997-1.064-2.286-1.344-3.701-1.281c-0.448,0.021-0.471,0.391-0.581,0.689
	c-0.12,0.328,0.078,0.471,0.334,0.618c0.884,0.511,1.862,0.688,2.865,0.786C47.897,751.147,48.239,751.198,48.537,750.983z
	 M39.52,758.148c0.482-0.538,1.269-1.052,1.219-2.058c-0.009-0.182,0.022-0.361-0.216-0.45c-0.509-0.188-1.367-0.015-1.749,0.386
	c-0.284,0.297-0.561,0.602-0.823,0.916c-0.27,0.324-0.299,1.324,0.006,1.539c0.408,0.289,0.829,0.082,1.215-0.135
	C39.244,758.306,39.316,758.265,39.52,758.148z M34.429,767.118c0.026,0.028,0.122,0.17,0.255,0.26
	c0.271,0.181,0.413,0.667,0.848,0.467c0.452-0.207,0.493-0.652,0.478-1.096c-0.027-0.777-0.174-1.52-0.652-2.167
	c-0.16-0.217-0.241-0.563-0.634-0.472c-0.387,0.092-0.752,0.312-0.771,0.702C33.918,765.565,33.851,766.347,34.429,767.118z
	 M35.715,764.499c0.416,0.563,0.825,0.556,1.179-0.16c0.379-0.766,0.475-1.59,0.192-2.412c-0.091-0.264-0.091-0.689-0.484-0.696
	c-0.419-0.007-0.878,0.146-1.042,0.558C35.211,762.667,34.971,763.569,35.715,764.499z M35.095,768.39
	c-0.125-0.375-0.451-0.58-0.723-0.822c-0.168-0.15-0.338-0.426-0.63-0.215c-0.279,0.201-0.619,0.402-0.505,0.822
	c0.274,1.01,0.656,1.96,1.708,2.475c0.228,0.112,0.438,0.395,0.725,0.182c0.303-0.225,0.325-0.57,0.192-0.883
	C35.635,769.415,35.545,768.814,35.095,768.39z M35.917,775.968c0.186-0.32-0.028-0.49-0.237-0.659
	c-0.804-0.653-1.771-1.039-2.689-1.505c-0.329-0.167-0.703-0.257-1.061-0.367c-0.327-0.1-0.504,0.09-0.646,0.341
	c-0.119,0.21-0.097,0.372,0.109,0.524c1.244,0.921,2.593,1.596,4.197,1.675C35.692,775.981,35.796,775.972,35.917,775.968z
	 M51.88,750.753c-0.802-1.136-1.869-1.934-3.21-2.393c-0.302-0.104-0.572-0.257-0.809,0.125c-0.221,0.357-0.113,0.582,0.19,0.826
	c0.95,0.769,2.004,1.363,3.141,1.828c0.133,0.055,0.278,0.096,0.42,0.107c0.14,0.012,0.308,0.025,0.39-0.127
	C52.083,750.97,51.981,750.852,51.88,750.753z M38.408,761.825c0.65-0.455,1.139-1.857,0.946-2.618
	c-0.094-0.368-0.311-0.423-0.646-0.372c-0.974,0.146-1.813,1.652-1.459,2.633C37.512,762.198,37.765,762.276,38.408,761.825z
	 M43.561,753.06c-0.288,0.246-0.407,0.572-0.366,0.922c0.039,0.324,0.378,0.256,0.602,0.318c0.772,0.219,1.522,0.047,2.272-0.133
	c0.331-0.078,0.642-0.193,0.858-0.459c0.151-0.184,0.235-0.363-0.031-0.561C46.11,752.563,44.328,752.505,43.561,753.06z
	 M41.822,755.103c-0.193,0.153-0.414,0.283-0.572,0.465c-0.33,0.377-0.262,1.107,0.085,1.195c0.853,0.219,2.644-0.658,2.973-1.446
	c0.142-0.341,0.116-0.525-0.317-0.661C43.153,754.391,42.478,754.638,41.822,755.103z M36.192,772.34
	c-0.5-0.634-1.069-1.267-1.851-1.692c-0.257-0.14-0.485-0.239-0.74-0.02c-0.26,0.225-0.291,0.49-0.114,0.762
	c0.52,0.792,1.12,1.521,2.06,1.867c0.359,0.133,0.794,0.607,1.111,0.25C37.05,773.064,36.449,772.737,36.192,772.34z
	 M49.853,752.601c-0.895-0.951-2.055-1.189-3.31-1.141c-0.327,0.014-0.512,0.261-0.579,0.559c-0.064,0.287,0.176,0.376,0.377,0.484
	c0.917,0.491,1.927,0.615,2.948,0.682c0.157,0.01,0.33-0.059,0.479-0.123C50.02,752.954,50.05,752.784,49.853,752.601z
	 M41.136,759.328c0.392-0.465,1.099-0.871,1.185-1.706c0.038-0.375-0.095-0.544-0.511-0.58c-1.001-0.084-1.437,0.635-1.941,1.234
	c-0.355,0.423-0.328,1.025-0.023,1.359C40.16,759.981,40.648,759.642,41.136,759.328z M37.85,765.356
	c0.323,0.416,0.591,0.105,0.739-0.154c0.467-0.819,0.618-1.692,0.275-2.604c-0.135-0.357-0.357-0.461-0.725-0.275
	c-0.291,0.146-0.508,0.338-0.622,0.64C37.196,763.81,37.19,764.617,37.85,765.356z M36.803,767.786
	c0.175,0.164,0.32,0.586,0.729,0.518c0.307-0.052,0.417-0.399,0.433-0.678c0.044-0.813-0.026-1.613-0.542-2.307
	c-0.14-0.188-0.26-0.466-0.572-0.373c-0.314,0.094-0.604,0.322-0.589,0.64C36.293,766.315,36.173,767.093,36.803,767.786z
	 M37.135,768.634c-0.13-0.156-0.254-0.318-0.391-0.469c-0.177-0.193-0.349-0.449-0.671-0.285c-0.305,0.156-0.465,0.439-0.36,0.762
	c0.274,0.846,0.56,1.697,1.422,2.189c0.203,0.115,0.401,0.387,0.659,0.208c0.27-0.187,0.228-0.515,0.14-0.78
	C37.742,769.687,37.555,769.106,37.135,768.634z M40.11,762.644c0.496-0.553,0.935-1.261,0.891-2.17
	c-0.024-0.5-0.295-0.607-0.76-0.465c-0.775,0.24-1.414,1.598-1.131,2.438C39.309,763.036,39.466,763.087,40.11,762.644z
	 M43.423,756.544c-0.44,0.271-0.834,0.535-0.818,1.088c0.007,0.232,0.077,0.367,0.349,0.402c0.689,0.088,2.204-0.617,2.548-1.206
	c0.269-0.462,0.187-0.629-0.367-0.743C44.469,755.947,43.905,756.163,43.423,756.544z M52.49,752.741
	c-0.512-0.656-1.377-1.227-2.508-1.664c-0.264-0.102-0.546-0.283-0.771,0.066c-0.223,0.346,0.044,0.519,0.28,0.688
	c0.764,0.55,1.546,1.07,2.424,1.443c0.288,0.122,0.653,0.352,0.869,0.117C53.026,753.128,52.546,752.954,52.49,752.741z
	 M47.78,755.505c0.277-0.225,0.653-0.369,0.27-0.686c-0.629-0.516-2.374-0.491-3.035,0.016c-0.358,0.273-0.416,0.847-0.082,0.927
	C45.938,756.005,46.909,755.858,47.78,755.505z M36.481,772.099c0.432,0.654,1.075,1.051,1.787,1.358
	c0.181,0.078,0.41,0.258,0.574,0.089c0.199-0.207,0.029-0.452-0.096-0.659c-0.372-0.615-0.891-1.118-1.461-1.544
	c-0.318-0.239-0.68-0.844-1.129-0.443C35.695,771.31,36.232,771.726,36.481,772.099z M42.565,760.282
	c0.28-0.252,0.708-0.609,0.974-1.102c0.135-0.251,0.29-0.557,0.079-0.793c-0.212-0.238-0.55-0.117-0.827-0.045
	c-0.657,0.17-1.008,0.699-1.376,1.178c-0.269,0.35-0.293,0.842,0.004,1.125c0.274,0.26,0.653-0.037,0.948-0.225
	C42.384,760.409,42.401,760.397,42.565,760.282z M38.453,775.292c-1.018-0.762-2.164-1.367-3.406-1.803
	c-0.207-0.073-0.367-0.004-0.459,0.199c-0.076,0.168-0.067,0.316,0.093,0.432c1.079,0.775,2.192,1.48,3.59,1.578
	c0.097,0.006,0.244,0.008,0.287-0.048C38.643,775.541,38.541,775.425,38.453,775.292z M38.62,777.263
	c-0.188-0.256-0.393-0.238-0.564-0.291c-0.675-0.205-1.432-0.192-2.052-0.432c-0.704-0.273-1.415-0.311-2.119-0.457
	c-0.277-0.059-0.593,0.051-0.644,0.346c-0.053,0.303,0.292,0.299,0.493,0.351 M50.734,754.368c-0.455-0.55-2.292-1.127-2.997-0.922
	c-0.265,0.078-0.431,0.26-0.47,0.518c-0.037,0.244,0.203,0.275,0.363,0.35c0.822,0.388,1.713,0.502,2.609,0.584
	c0.138,0.013,0.289-0.043,0.424-0.09C50.909,754.72,50.921,754.569,50.734,754.368z M54.398,752.693
	c0.046-0.026,0.092-0.054,0.138-0.081c-0.076-0.182-0.142-0.367-0.229-0.544c-0.577-1.173-1.391-2.172-2.404-3.022
	c-0.197-0.166-0.399-0.472-0.68-0.24c-0.265,0.219-0.038,0.481,0.119,0.695c0.157,0.215,0.363,0.404,0.479,0.637
	c0.216,0.432,0.781,0.5,0.988,0.877C53.199,751.72,53.866,752.138,54.398,752.693z M38.724,768.271
	c0.149,0.124,0.237,0.483,0.571,0.384c0.359-0.106,0.375-0.459,0.381-0.76c0.014-0.652-0.125-1.281-0.411-1.873
	c-0.1-0.207-0.181-0.506-0.505-0.445c-0.305,0.059-0.545,0.271-0.558,0.582C38.171,766.884,38.172,767.616,38.724,768.271z
	 M39.441,765.782c0.247,0.384,0.549,0.389,0.769-0.061c0.331-0.68,0.528-1.406,0.298-2.166c-0.06-0.197-0.057-0.479-0.359-0.507
	c-0.247-0.024-0.431,0.13-0.587,0.3C39.055,763.901,38.997,765.093,39.441,765.782z M41.334,763.526
	c0.602-0.439,1.103-1.557,1.047-2.234c-0.025-0.301-0.129-0.4-0.476-0.377c-0.732,0.051-1.677,1.821-1.155,2.549
	C40.972,763.772,41.16,763.642,41.334,763.526z M38.477,770.491c0.085,0.193,0.257,0.369,0.478,0.492
	c0.205,0.114,0.402,0.422,0.643,0.242c0.244-0.182,0.195-0.518,0.092-0.791c-0.243-0.643-0.485-1.289-1-1.789
	c-0.161-0.156-0.271-0.49-0.583-0.293c-0.251,0.159-0.408,0.43-0.288,0.736C38.001,769.556,38.115,770.056,38.477,770.491z
	 M45.88,758.563c0.327-0.227,0.602-0.383,0.766-0.652c0.116-0.188,0.17-0.365-0.113-0.49c-0.663-0.293-2.281,0.355-2.533,1.027
	c-0.199,0.531,0.011,0.784,0.596,0.652C45.08,758.993,45.563,758.845,45.88,758.563z M48.758,756.819
	c0.426-0.283,0.472-0.473,0.063-0.668c-0.873-0.42-1.716-0.189-2.548,0.105c-0.224,0.078-0.296,0.329-0.312,0.561
	c-0.012,0.178,0.118,0.248,0.271,0.279C47.148,757.284,48.013,757.103,48.758,756.819z M43.803,761.214
	c0.31-0.446,0.894-0.791,1.021-1.457c0.06-0.314-0.025-0.438-0.384-0.417c-0.733,0.044-1.131,0.534-1.544,1.013
	c-0.293,0.34-0.422,0.803-0.155,1.109C43.058,761.825,43.396,761.378,43.803,761.214z M40.285,772.637
	c-0.403-0.563-0.869-0.995-1.38-1.378c-0.176-0.131-0.39-0.426-0.638-0.18c-0.233,0.23-0.117,0.52,0.056,0.775
	c0.347,0.516,0.801,0.934,1.299,1.299c0.3,0.221,0.775,0.588,1.018,0.357C40.911,773.254,40.431,772.896,40.285,772.637z
	 M53.553,755.2c-0.633-1.041-1.608-1.592-2.675-2.027c-0.23-0.095-0.473-0.082-0.617,0.135c-0.162,0.242,0.07,0.367,0.232,0.479
	c0.776,0.537,1.595,1.008,2.461,1.399C53.124,755.263,53.304,755.317,53.553,755.2z M40.192,768.526
	c0.255,0.103,0.323,0.56,0.667,0.425c0.29-0.113,0.279-0.467,0.27-0.753c-0.02-0.568-0.113-1.123-0.355-1.645
	c-0.091-0.197-0.174-0.45-0.469-0.403c-0.256,0.04-0.386,0.259-0.412,0.481C39.815,767.28,39.878,767.915,40.192,768.526z
	 M40.884,766.251c0.334,0.469,0.549,0.272,0.683,0.023c0.324-0.603,0.479-1.245,0.313-1.926c-0.05-0.205-0.034-0.492-0.315-0.535
	c-0.271-0.041-0.465,0.164-0.616,0.356C40.572,764.652,40.59,765.872,40.884,766.251z M51.562,755.956
	c-0.434-0.521-2.145-1.03-2.792-0.831c-0.194,0.06-0.338,0.177-0.362,0.376c-0.025,0.209,0.168,0.262,0.313,0.33
	c0.728,0.345,1.526,0.404,2.311,0.508c0.139,0.02,0.291-0.018,0.43-0.053C51.667,756.233,51.764,756.132,51.562,755.956z
	 M42.605,764.171c0.58-0.551,0.935-1.211,0.988-2.008c0.031-0.457-0.205-0.514-0.583-0.352c-0.639,0.271-1.198,1.545-0.972,2.18
	C42.152,764.309,42.319,764.363,42.605,764.171z M40.749,775.54c-0.075-0.293-0.233-0.441-0.424-0.578
	c-0.79-0.566-1.678-0.959-2.56-1.362c-0.16-0.073-0.366-0.2-0.496,0.024c-0.124,0.213,0.009,0.393,0.186,0.521
	C38.425,774.853,39.443,775.458,40.749,775.54z M40.222,770.737c0.105,0.197,0.293,0.356,0.503,0.493
	c0.131,0.087,0.254,0.256,0.438,0.144c0.169-0.104,0.124-0.293,0.096-0.445c-0.13-0.711-0.502-1.318-0.911-1.904
	c-0.126-0.182-0.309-0.39-0.566-0.255c-0.246,0.128-0.298,0.384-0.207,0.638C39.737,769.863,39.878,770.331,40.222,770.737z
	 M46.967,759.464c0.254-0.123,0.478-0.302,0.642-0.54c0.101-0.146,0.135-0.284-0.078-0.396c-0.663-0.349-2.323,0.474-2.431,1.194
	c-0.05,0.332,0.09,0.38,0.378,0.345C46.03,759.999,46.508,759.772,46.967,759.464z M44.748,762.054
	c0.396-0.339,0.84-0.707,1.044-1.259c0.169-0.458,0.036-0.603-0.465-0.487c-0.687,0.154-1.074,0.666-1.393,1.207
	c-0.132,0.225-0.246,0.578,0.04,0.771C44.232,762.463,44.474,762.216,44.748,762.054z M47.258,757.56
	c-0.103,0.108-0.24,0.238-0.245,0.437c-0.004,0.157,0.127,0.2,0.251,0.22c0.87,0.129,1.709,0.023,2.501-0.354
	c0.254-0.121,0.276-0.277,0.007-0.439C49.266,757.12,47.766,757.183,47.258,757.56z M42.195,773.619
	c-0.052-0.706-1.319-2.272-1.903-2.366c-0.43-0.068-0.381,0.277-0.279,0.471C40.477,772.61,41.192,773.241,42.195,773.619z
	 M43.875,764.601c0.369-0.445,0.725-1.006,0.768-1.701c0.026-0.426-0.196-0.484-0.549-0.335c-0.48,0.202-1.036,1.441-0.886,1.936
	C43.319,764.866,43.508,764.899,43.875,764.601z M41.69,768.929c0.138,0.082,0.177,0.389,0.42,0.34
	c0.273-0.057,0.247-0.354,0.272-0.559c0.072-0.596-0.104-1.16-0.311-1.712c-0.063-0.167-0.175-0.347-0.411-0.3
	c-0.208,0.043-0.334,0.217-0.338,0.396C41.311,767.713,41.233,768.351,41.69,768.929z M55.061,754.872
	c-0.144-0.798-0.698-1.358-1.138-1.973c-0.281-0.391-0.693-0.695-1.061-1.025c-0.147-0.131-0.342-0.338-0.54-0.186
	c-0.238,0.182,0.034,0.35,0.128,0.506c0.083,0.139,0.228,0.248,0.291,0.393c0.185,0.428,0.752,0.451,0.946,0.832
	C54,754.038,54.616,754.372,55.061,754.872z M49.369,756.989c0.286,0.308,2.411,0.68,2.756,0.529
	c0.266-0.117,0.164-0.23,0.014-0.346c-0.416-0.318-0.89-0.514-1.415-0.584c-0.367-0.049-0.743-0.176-1.104-0.004
	C49.449,756.665,49.216,756.765,49.369,756.989z M50.313,758.991c0.277-0.183,0.498-0.285,0.167-0.492
	c-0.422-0.262-1.932-0.181-2.306,0.14c-0.127,0.109-0.229,0.243-0.205,0.42c0.017,0.12,0.132,0.155,0.235,0.167
	C48.966,759.309,49.704,759.225,50.313,758.991z M54.208,756.784c-0.647-0.882-1.514-1.381-2.452-1.784
	c-0.178-0.077-0.399-0.125-0.517,0.054c-0.166,0.251,0.095,0.366,0.256,0.465c0.51,0.313,1.026,0.617,1.558,0.893
	C53.391,756.587,53.719,756.831,54.208,756.784z M39.479,773.999c0.757,0.668,1.665,1.055,2.646,1.299
	c0.081,0.02,0.182,0.034,0.22-0.054c0.06-0.14-0.048-0.224-0.15-0.294c-0.763-0.528-1.588-0.953-2.426-1.357
	c-0.122-0.059-0.288-0.139-0.392,0.023C39.285,773.759,39.39,773.884,39.479,773.999z M42.848,769.208
	c0.135,0.15,0.205,0.351,0.391,0.328c0.242-0.03,0.226-0.275,0.245-0.436c0.071-0.609-0.042-1.197-0.298-1.76
	c-0.058-0.127-0.1-0.291-0.276-0.287c-0.196,0.004-0.298,0.158-0.318,0.32C42.514,768.019,42.515,768.656,42.848,769.208z
	 M40.701,776.672c-0.399-0.107-0.8-0.214-1.199-0.324c-0.277-0.076-0.586,0.12-0.848-0.097c-0.442-0.367-1.008-0.352-1.536-0.448
	c-0.152-0.028-0.371-0.089-0.418,0.132c-0.045,0.209,0.169,0.256,0.322,0.303C38.213,776.595,39.428,776.812,40.701,776.672z
	 M42.987,771.188c0.015,0.019,0.068,0.112,0.149,0.17c0.161,0.115,0.321,0.363,0.521,0.25c0.193-0.109,0.084-0.373,0.041-0.563
	c-0.119-0.52-0.463-0.939-0.714-1.4c-0.084-0.156-0.201-0.361-0.425-0.266c-0.228,0.096-0.229,0.328-0.154,0.527
	C42.561,770.321,42.672,770.757,42.987,771.188z M52.974,758.55c-0.761-0.684-1.543-0.785-2.346-0.814
	c-0.17-0.006-0.33,0.086-0.414,0.239c-0.063,0.114,0.025,0.206,0.127,0.231C51.152,758.417,51.952,758.726,52.974,758.55z
	 M54.502,757.997c-0.522-0.822-1.357-1.206-2.223-1.541c-0.076-0.03-0.218,0.008-0.283,0.063c-0.104,0.089-0.016,0.19,0.068,0.248
	C52.815,757.284,53.575,757.788,54.502,757.997z M41.141,773.485c0.041,0.191,0.03,0.287,0.075,0.334
	c0.649,0.688,1.492,1.064,2.386,1.352c0.077,0.025,0.189,0.033,0.21-0.064c0.013-0.063-0.029-0.168-0.082-0.205
	C42.944,774.364,42.14,773.856,41.141,773.485z M55.516,756.664c0.045-0.038,0.09-0.075,0.135-0.112
	c-0.653-1.016-1.316-2.023-2.398-2.654c-0.062,0.055-0.123,0.107-0.184,0.162C53.885,754.929,54.701,755.796,55.516,756.664z"/>
<text transform="matrix(0.953 0 0 1 53.6484 776.3672)" fill="#FFFFFF" font-family="'BlackOpsOne-Regular'" font-size="23.6949">CARBON</text>
<text transform="matrix(1 0 0 1 23.0796 814.3672)" fill="#FFFFFF" font-family="'HelveticaNeue'" font-size="12">Desarrollado bajo la licencia MIT</text>
<path fill="#FFFFFF" d="M1032.381,746.657c9.816,0,18.688,3.973,25.121,10.406c6.433,6.433,10.406,15.304,10.406,25.12
	c0,9.815-3.974,18.688-10.406,25.12c-6.433,6.434-15.305,10.406-25.121,10.406c-9.816,0-18.688-3.973-25.12-10.406
	c-6.433-6.433-10.406-15.305-10.406-25.12c0-9.816,3.974-18.688,10.406-25.12C1013.693,750.63,1022.565,746.657,1032.381,746.657
	L1032.381,746.657z M1055.554,759.03c-5.94-5.922-14.125-9.601-23.173-9.601c-9.048,0-17.232,3.679-23.153,9.601
	c-5.921,5.921-9.6,14.104-9.6,23.153s3.678,17.231,9.6,23.173c5.921,5.922,14.105,9.58,23.153,9.58
	c9.049,0,17.233-3.658,23.173-9.58c5.921-5.941,9.581-14.124,9.581-23.173S1061.476,764.951,1055.554,759.03L1055.554,759.03z"/>
<path fill="#FFFFFF" d="M1122.732,746.657c9.815,0,18.708,3.973,25.12,10.406c6.434,6.433,10.406,15.304,10.406,25.12
	c0,9.815-3.973,18.688-10.406,25.12c-6.412,6.434-15.305,10.406-25.12,10.406c-9.796,0-18.688-3.973-25.121-10.406
	c-6.433-6.433-10.406-15.305-10.406-25.12c0-9.816,3.974-18.688,10.406-25.12C1104.045,750.63,1112.937,746.657,1122.732,746.657
	L1122.732,746.657z M1145.905,759.03c-5.94-5.922-14.124-9.601-23.173-9.601c-9.029,0-17.232,3.679-23.153,9.601
	c-5.922,5.921-9.6,14.104-9.6,23.153s3.678,17.231,9.6,23.173c5.92,5.922,14.124,9.58,23.153,9.58c9.049,0,17.232-3.658,23.173-9.58
	c5.922-5.941,9.58-14.124,9.58-23.173S1151.827,764.951,1145.905,759.03L1145.905,759.03z"/>
<path fill-rule="evenodd" clip-rule="evenodd" fill="#FFFFFF" d="M1035.096,774.925v-2.912c0-1.396,0.924-1.73,1.594-1.73
	c0.649,0,4.072,0,4.072,0v-6.217h-5.606c-6.235,0-7.632,4.604-7.632,7.594v3.266h-3.62v4.387v2.872h3.659c0,8.242,0,18.138,0,18.138
	h7.259c0,0,0-10.033,0-18.138h5.37l0.236-2.853l0.433-4.406H1035.096z"/>
<path fill-rule="evenodd" clip-rule="evenodd" fill="#FFFFFF" d="M1113.644,782.184c0-5.017,4.072-9.108,9.089-9.108
	c5.036,0,9.108,4.092,9.108,9.108c0,5.035-4.072,9.108-9.108,9.108C1117.716,791.292,1113.644,787.219,1113.644,782.184
	L1113.644,782.184z M1132.136,764.381h-18.786c-4.623,0-8.42,3.776-8.42,8.419v18.787c0,4.622,3.797,8.418,8.42,8.418h18.786
	c4.643,0,8.419-3.796,8.419-8.418V772.8C1140.555,768.157,1136.778,764.381,1132.136,764.381L1132.136,764.381z M1113.35,766.485
	h18.786c3.482,0,6.314,2.832,6.314,6.314v18.787c0,3.48-2.832,6.313-6.314,6.313h-18.786c-3.483,0-6.315-2.833-6.315-6.313V772.8
	C1107.035,769.317,1109.866,766.485,1113.35,766.485L1113.35,766.485z M1134.005,769.142c-1.023,0-1.85,0.826-1.85,1.848
	c0,1.023,0.826,1.85,1.85,1.85c1.022,0,1.849-0.826,1.849-1.85C1135.854,769.968,1135.027,769.142,1134.005,769.142
	L1134.005,769.142z M1134.22,782.184c0-6.335-5.133-11.488-11.487-11.488c-6.335,0-11.488,5.153-11.488,11.488
	c0,6.354,5.153,11.488,11.488,11.488C1129.087,793.672,1134.22,788.538,1134.22,782.184L1134.22,782.184z"/>
<text transform="matrix(1 0 0 1 246.2168 814.3672)" fill="#FFFFFF" font-family="'HelveticaNeue'" font-size="12">Términos y condiciones</text>
<text transform="matrix(1 0 0 1 405 814.3672)" fill="#FFFFFF" font-family="'HelveticaNeue'" font-size="12">Preguntas frecuentes</text>
<text transform="matrix(1 0 0 1 557 814.3672)" fill="#FFFFFF" font-family="'HelveticaNeue'" font-size="12">Pólítica de privacidad</text>
<path fill="#231F20" d="M207.717,52.308l-6,12v-18h6c0-0.82,0.295-1.525,0.885-2.115c0.59-0.589,1.295-0.885,2.115-0.885h9
	c0.819,0,1.524,0.295,2.114,0.885c0.59,0.59,0.886,1.295,0.886,2.115h15v6H207.717z M246.717,55.308l-9,21h-36l9-21H246.717z"/>
<path fill="#231F20" d="M401.581,42.948c2.739-1.6,5.729-2.4,8.97-2.4s6.229,0.8,8.97,2.4s4.91,3.77,6.511,6.51
	c1.6,2.741,2.399,5.73,2.399,8.97s-0.8,6.23-2.399,8.97c-1.601,2.74-3.771,4.91-6.511,6.51c-2.74,1.6-5.729,2.4-8.97,2.4
	s-6.23-0.8-8.97-2.4c-2.74-1.6-4.91-3.77-6.511-6.51c-1.6-2.74-2.399-5.73-2.399-8.97s0.8-6.229,2.399-8.97
	C396.671,46.718,398.841,44.548,401.581,42.948z M419.326,49.653c-2.431-2.43-5.355-3.645-8.775-3.645s-6.345,1.215-8.775,3.645
	c-2.43,2.43-3.645,5.355-3.645,8.775s1.215,6.345,3.645,8.775c2.431,2.43,5.355,3.645,8.775,3.645s6.345-1.215,8.775-3.645
	c2.43-2.43,3.645-5.355,3.645-8.775S421.756,52.083,419.326,49.653z M418.051,58.428h-4.5v9h-6v-9h-4.5l7.5-9L418.051,58.428z"/>
<text transform="matrix(1 0 0 1 257.5 55.1416)"><tspan x="0" y="0" fill="#FFFFFF" font-family="'HelveticaNeue'" font-size="18">Búsqueda </tspan><tspan x="0" y="26" fill="#FFFFFF" font-family="'HelveticaNeue'" font-size="18">por carpetas</tspan></text>
<text transform="matrix(1 0 0 1 438.0503 55.1416)"><tspan x="0" y="0" fill="#FFFFFF" font-family="'HelveticaNeue'" font-size="18">Subir </tspan><tspan x="0" y="26" fill="#FFFFFF" font-family="'HelveticaNeue'" font-size="18">Material</tspan></text>
<path fill="#231F20" d="M568.647,66.079l9,9c0.139,0.16,0.209,0.34,0.209,0.54c0,0.2-0.07,0.38-0.209,0.54l-3.271,3.27
	c-0.161,0.14-0.341,0.21-0.54,0.21c-0.2,0-0.381-0.07-0.54-0.21l-9-9c-2.38,1.56-4.99,2.34-7.83,2.34
	c-4.001,0-7.421-1.42-10.26-4.26c-2.841-2.84-4.261-6.26-4.261-10.26c0-4,1.42-7.42,4.261-10.26c2.839-2.84,6.259-4.26,10.26-4.26
	c4,0,7.42,1.42,10.261,4.26c2.839,2.84,4.26,6.26,4.26,10.26C570.987,61.089,570.207,63.699,568.647,66.079z M549.446,51.259
	c-1.939,1.94-2.91,4.27-2.91,6.99c0,2.72,0.971,5.05,2.91,6.99c1.94,1.94,4.28,2.91,7.021,2.91c2.739,0,5.075-0.964,7.005-2.895
	c1.93-1.93,2.895-4.265,2.895-7.005c0-2.74-0.965-5.075-2.895-7.005c-1.93-1.93-4.266-2.895-7.005-2.895
	C553.727,48.349,551.387,49.319,549.446,51.259z"/>
<text transform="matrix(1 0 0 1 589.3892 56.4282)"><tspan x="0" y="0" fill="#FFFFFF" font-family="'HelveticaNeue'" font-size="18">Búsqueda </tspan><tspan x="0" y="26" fill="#FFFFFF" font-family="'HelveticaNeue'" font-size="18">Avanzada</tspan></text>
<path fill="#231F20" d="M751,62.468h-6v18h-9v-12h-9v12h-9v-18h-6l19.681-19.32L751,62.468z"/>
<text transform="matrix(1 0 0 1 763 57.4282)"><tspan x="0" y="0" fill="#FFFFFF" font-family="'HelveticaNeue'" font-size="18">Ranking </tspan><tspan x="0" y="26" fill="#FFFFFF" font-family="'HelveticaNeue'" font-size="18">Universidades</tspan></text>
<path fill="#231F20" d="M70.992,279.308l-6,12v-18h6c0-0.82,0.295-1.525,0.885-2.115c0.59-0.589,1.295-0.885,2.115-0.885h9
	c0.819,0,1.524,0.295,2.114,0.885c0.59,0.59,0.886,1.295,0.886,2.115h15v6H70.992z M109.992,282.308l-9,21h-36l9-21H109.992z"/>
<text transform="matrix(1 0 0 1 130.9199 291.8081)" font-family="'HelveticaNeue'" font-size="18">USACH</text>
<path fill="#231F20" d="M134.387,365.599l-6,12v-18h6c0-0.82,0.295-1.525,0.885-2.115c0.59-0.589,1.295-0.885,2.115-0.885h9
	c0.819,0,1.524,0.295,2.114,0.885c0.59,0.59,0.886,1.295,0.886,2.115h15v6H134.387z M173.387,368.599l-9,21h-36l9-21H173.387z"/>
<text transform="matrix(1 0 0 1 189.8926 381.0981)" font-family="'HelveticaNeue'" font-size="18">INGENIERÍA DE SOFTWARE I</text>
<path fill="#231F20" d="M135.959,418.093l-6,12v-18h6c0-0.82,0.295-1.525,0.885-2.115c0.59-0.589,1.295-0.885,2.115-0.885h9
	c0.819,0,1.524,0.295,2.114,0.885c0.59,0.59,0.886,1.295,0.886,2.115h15v6H135.959z M174.959,421.093l-9,21h-36l9-21H174.959z"/>
<text transform="matrix(1 0 0 1 191.4648 433.5928)" font-family="'HelveticaNeue'" font-size="18">INGENIERÍA DE SOFTWARE II</text>
<path fill="#231F20" d="M137.387,468.085l-6,12v-18h6c0-0.82,0.295-1.525,0.885-2.115c0.59-0.589,1.295-0.885,2.115-0.885h9
	c0.819,0,1.524,0.295,2.114,0.885c0.59,0.59,0.886,1.295,0.886,2.115h15v6H137.387z M176.387,471.085l-9,21h-36l9-21H176.387z"/>
<text transform="matrix(1 0 0 1 192.8926 483.585)" font-family="'HelveticaNeue'" font-size="18">INGENIERÍA DE SOFTWARE III</text>
<path fill="#231F20" d="M102.992,320.752l-6,12v-18h6c0-0.82,0.295-1.525,0.885-2.115c0.59-0.589,1.295-0.885,2.115-0.885h9
	c0.819,0,1.524,0.295,2.114,0.885c0.59,0.59,0.886,1.295,0.886,2.115h15v6H102.992z M141.992,323.752l-9,21h-36l9-21H141.992z"/>
<text transform="matrix(1 0 0 1 160.8867 336.8057)" font-family="'HelveticaNeue'" font-size="18">LCC</text>
<path fill="#231F20" d="M436.996,276.697l-6,12v-18h6c0-0.82,0.295-1.525,0.885-2.115c0.59-0.589,1.295-0.885,2.115-0.885h9
	c0.819,0,1.524,0.295,2.114,0.885c0.59,0.59,0.886,1.295,0.886,2.115h15v6H436.996z M475.996,279.697l-9,21h-36l9-21H475.996z"/>
<text transform="matrix(1 0 0 1 496.9238 289.1968)" font-family="'HelveticaNeue'" font-size="18">UTFSM</text>
<path fill="#231F20" d="M500.391,362.987l-6,12v-18h6c0-0.82,0.295-1.525,0.885-2.115c0.59-0.589,1.295-0.885,2.115-0.885h9
	c0.819,0,1.524,0.295,2.114,0.885c0.59,0.59,0.886,1.295,0.886,2.115h15v6H500.391z M539.391,365.987l-9,21h-36l9-21H539.391z"/>
<text transform="matrix(1 0 0 1 555.8965 378.4868)" font-family="'HelveticaNeue'" font-size="18">INGENIERÍA DE SOFTWARE I</text>
<path fill="#231F20" d="M501.963,415.482l-6,12v-18h6c0-0.82,0.295-1.525,0.885-2.115c0.59-0.589,1.295-0.885,2.115-0.885h9
	c0.819,0,1.524,0.295,2.114,0.885c0.59,0.59,0.886,1.295,0.886,2.115h15v6H501.963z M540.963,418.482l-9,21h-36l9-21H540.963z"/>
<text transform="matrix(1 0 0 1 557.4688 430.9814)" font-family="'HelveticaNeue'" font-size="18">INGENIERÍA DE SOFTWARE II</text>
<path fill="#231F20" d="M468.996,318.141l-6,12v-18h6c0-0.82,0.295-1.525,0.885-2.115c0.59-0.589,1.295-0.885,2.115-0.885h9
	c0.819,0,1.524,0.295,2.114,0.885c0.59,0.59,0.886,1.295,0.886,2.115h15v6H468.996z M507.996,321.141l-9,21h-36l9-21H507.996z"/>
<text transform="matrix(1 0 0 1 526.8906 334.1943)" font-family="'HelveticaNeue'" font-size="18">INGENIERÍA CIVIL INFORMÁTICA</text>
<path fill="#231F20" d="M811.962,279.706l-6,12v-18h6c0-0.82,0.295-1.525,0.885-2.115c0.59-0.589,1.295-0.885,2.115-0.885h9
	c0.819,0,1.524,0.295,2.114,0.885c0.59,0.59,0.886,1.295,0.886,2.115h15v6H811.962z M850.962,282.706l-9,21h-36l9-21H850.962z"/>
<text transform="matrix(1 0 0 1 871.8901 292.2061)" font-family="'HelveticaNeue'" font-size="18">UCHILE</text>
<path fill="#231F20" d="M875.357,365.997l-6,12v-18h6c0-0.82,0.295-1.525,0.885-2.115c0.59-0.589,1.295-0.885,2.115-0.885h9
	c0.819,0,1.524,0.295,2.114,0.885c0.59,0.59,0.886,1.295,0.886,2.115h15v6H875.357z M914.357,368.997l-9,21h-36l9-21H914.357z"/>
<text transform="matrix(1 0 0 1 930.8628 381.4961)" font-family="'HelveticaNeue'" font-size="18">INGENIERÍA DE SOFTWARE I</text>
<path fill="#231F20" d="M876.929,418.491l-6,12v-18h6c0-0.82,0.295-1.525,0.885-2.115c0.59-0.589,1.295-0.885,2.115-0.885h9
	c0.819,0,1.524,0.295,2.114,0.885c0.59,0.59,0.886,1.295,0.886,2.115h15v6H876.929z M915.929,421.491l-9,21h-36l9-21H915.929z"/>
<text transform="matrix(1 0 0 1 932.4351 433.9907)" font-family="'HelveticaNeue'" font-size="18">INGENIERÍA DE SOFTWARE II</text>
<path fill="#231F20" d="M843.962,321.15l-6,12v-18h6c0-0.82,0.295-1.525,0.885-2.115c0.59-0.589,1.295-0.885,2.115-0.885h9
	c0.819,0,1.524,0.295,2.114,0.885c0.59,0.59,0.886,1.295,0.886,2.115h15v6H843.962z M882.962,324.15l-9,21h-36l9-21H882.962z"/>
<text transform="matrix(1 0 0 1 901.8569 337.2036)" font-family="'HelveticaNeue'" font-size="18">INGENIERÍA CIVIL INFORMÁTICA</text>
<text transform="matrix(1 0 0 1 61.9922 242.124)" fill="#D65677" font-family="'ArialMT'" font-size="30">Carreras y asignaturas</text>
<text transform="matrix(1 0 0 1 64.9922 550.106)" fill="#D65677" font-family="'ArialMT'" font-size="30">Temática</text>
<path fill="#231F20" d="M94.992,586.102h-7.77l5.49,5.49l-4.23,4.23l-5.49-5.49v7.77h-6v-7.77l-5.49,5.49l-4.23-4.23l5.49-5.49
	h-7.77v-6h7.77l-5.49-5.49l4.23-4.23l5.49,5.49v-7.77h6v7.77l5.49-5.49l4.23,4.23l-5.49,5.49h7.77V586.102z"/>
<text transform="matrix(1 0 0 1 109.9922 590.2881)" font-family="'HelveticaNeue'" font-size="18">Ingeniería</text>
<path fill="#231F20" d="M264,586.102h-7.77l5.49,5.49l-4.23,4.23l-5.49-5.49v7.77h-6v-7.77l-5.49,5.49l-4.23-4.23l5.49-5.49H234v-6
	h7.77l-5.49-5.49l4.23-4.23l5.49,5.49v-7.77h6v7.77l5.49-5.49l4.23,4.23l-5.49,5.49H264V586.102z"/>
<text transform="matrix(1 0 0 1 279 590.2881)" font-family="'HelveticaNeue'" font-size="18">Ciencias</text>
<path fill="#231F20" d="M417.171,586.102h-7.77l5.49,5.49l-4.23,4.23l-5.49-5.49v7.77h-6v-7.77l-5.49,5.49l-4.23-4.23l5.49-5.49
	h-7.77v-6h7.77l-5.49-5.49l4.23-4.23l5.49,5.49v-7.77h6v7.77l5.49-5.49l4.23,4.23l-5.49,5.49h7.77V586.102z"/>
<text transform="matrix(1 0 0 1 432.1709 590.2881)" font-family="'HelveticaNeue'" font-size="18">Informática</text>
<path fill="#231F20" d="M592.401,586.102h-7.77l5.49,5.49l-4.23,4.23l-5.49-5.49v7.771h-6v-7.771l-5.49,5.49l-4.23-4.23l5.49-5.49
	h-7.77v-6h7.77l-5.49-5.49l4.23-4.23l5.49,5.49v-7.77h6v7.77l5.49-5.49l4.23,4.23l-5.49,5.49h7.77V586.102z"/>
<text transform="matrix(1 0 0 1 607.4014 590.2886)" font-family="'HelveticaNeue'" font-size="18">Computación</text>
<text transform="matrix(1 0 0 1 67.9663 649.583)" fill="#D65677" font-family="'ArialMT'" font-size="30">Palabras claves</text>
<path fill="#231F20" d="M97.966,685.579h-7.77l5.49,5.49l-4.23,4.229l-5.49-5.49v7.771h-6v-7.771l-5.49,5.49l-4.23-4.229l5.49-5.49
	h-7.77v-6h7.77l-5.49-5.49l4.23-4.23l5.49,5.49v-7.77h6v7.77l5.49-5.49l4.23,4.23l-5.49,5.49h7.77V685.579z"/>
<text transform="matrix(1 0 0 1 112.9663 689.7646)" font-family="'HelveticaNeue'" font-size="18">Ingeniería</text>
<path fill="#231F20" d="M266.974,685.579h-7.77l5.49,5.49l-4.23,4.229l-5.49-5.49v7.771h-6v-7.771l-5.49,5.49l-4.23-4.229l5.49-5.49
	h-7.77v-6h7.77l-5.49-5.49l4.23-4.23l5.49,5.49v-7.77h6v7.77l5.49-5.49l4.23,4.23l-5.49,5.49h7.77V685.579z"/>
<text transform="matrix(1 0 0 1 281.9741 689.7646)" font-family="'HelveticaNeue'" font-size="18">Ciencias</text>
<path fill="#231F20" d="M420.145,685.579h-7.77l5.49,5.49l-4.23,4.229l-5.49-5.49v7.771h-6v-7.771l-5.49,5.49l-4.23-4.229l5.49-5.49
	h-7.77v-6h7.77l-5.49-5.49l4.23-4.23l5.49,5.49v-7.77h6v7.77l5.49-5.49l4.23,4.23l-5.49,5.49h7.77V685.579z"/>
<text transform="matrix(1 0 0 1 435.145 689.7646)" font-family="'HelveticaNeue'" font-size="18">Informática</text>
<path fill="#231F20" d="M595.375,685.579h-7.77l5.49,5.49l-4.23,4.23l-5.49-5.49v7.77h-6v-7.77l-5.49,5.49l-4.23-4.23l5.49-5.49
	h-7.77v-6h7.77l-5.49-5.49l4.23-4.23l5.49,5.49v-7.77h6v7.77l5.49-5.49l4.23,4.23l-5.49,5.49h7.77V685.579z"/>
<text transform="matrix(1 0 0 1 610.3755 689.7656)" font-family="'HelveticaNeue'" font-size="18">Computación</text>
</svg>
