<?xml version="1.0" encoding="utf-8"?>
<!-- Generator: Adobe Illustrator 16.0.0, SVG Export Plug-In . SVG Version: 6.00 Build 0)  -->
<!DOCTYPE svg PUBLIC "-//W3C//DTD SVG 1.1//EN" "http://www.w3.org/Graphics/SVG/1.1/DTD/svg11.dtd">
<svg version="1.1" id="Layer_1" xmlns="http://www.w3.org/2000/svg" xmlns:xlink="http://www.w3.org/1999/xlink" x="0px" y="0px"
	 width="1190.55px" height="842px" viewBox="0 0 1190.55 842" enable-background="new 0 0 1190.55 842" xml:space="preserve">
<rect x="0.003" fill="#D65677" width="1190.546" height="120.877"/>
<path fill="#FFFFFF" d="M1028.118,79.744v6.433h-51.555v-6.433l17.185-11.561v-4.499c-1.06,0-2.041-1.116-2.943-3.351
	c-0.903-2.234-1.354-4.116-1.354-5.646v-8.997c0-3.718,1.26-6.897,3.782-9.536c2.52-2.639,5.555-3.959,9.107-3.959
	c3.551,0,6.587,1.32,9.107,3.959s3.782,5.818,3.782,9.536v8.997c0,1.529-0.45,3.412-1.354,5.646
	c-0.902,2.235-1.883,3.351-2.943,3.351v4.499L1028.118,79.744z"/>
<text transform="matrix(1 0 0 1 1048.415 61.186)" fill="#FFFFFF" font-family="'HelveticaNeue'" font-size="18">User@user.cl</text>
<text transform="matrix(1 0 0 1 1047.415 84.186)" font-family="'HelveticaNeue'" font-size="18">(Cerrar sesión)</text>
<linearGradient id="SVGID_1_" gradientUnits="userSpaceOnUse" x1="35.522" y1="59.9316" x2="103.9941" y2="59.9316">
	<stop  offset="0" style="stop-color:#FFFFFF;stop-opacity:0"/>
	<stop  offset="0.5323" style="stop-color:#FFFFFF"/>
</linearGradient>
<path fill-rule="evenodd" clip-rule="evenodd" fill="url(#SVGID_1_)" d="M80.23,86.816c-0.271-0.113-0.547-0.218-0.812-0.342
	c-0.171-0.079-0.347-0.196-0.519-0.067c-0.2,0.151-0.224,0.404-0.11,0.59c0.825,1.361,1.749,2.627,3.542,3.202
	c-0.099-0.895-0.653-1.367-1.023-1.934c-0.331-0.508-1.038-0.755-1.088-1.454c0.6-0.222,0.438-0.721,0.347-1.101
	c-0.25-1.049-0.671-2.05-1.348-2.915c-0.231-0.296-0.5-0.86-1.043-0.537c-0.44,0.262-0.326,0.736-0.192,1.17
	C78.396,84.767,79.184,85.869,80.23,86.816z M60.729,38.271c2.114-0.667,2.325-2.257,1.874-4.143
	c-0.117-0.489-0.154-0.999-0.193-1.501c-0.063-0.796-0.45-1.333-1.227-1.655c-1.377-0.571-2.744-1.17-4.103-1.783
	c-0.802-0.361-1.563-0.248-2.234,0.211c-1.25,0.857-2.523,1.689-3.63,2.731c-0.6,0.565-0.817,1.168-0.574,1.947
	c0.376,1.208,0.729,2.424,1.077,3.64c0.125,0.439,0.314,0.889,0.771,1.001C55.248,39.395,58.063,41.029,60.729,38.271z
	 M40.041,53.521c-0.006,0.004-0.012,0.008-0.018,0.013c0.352,0.465,0.702,0.932,1.057,1.396c1.157,1.511,5.747,1.255,6.739-0.376
	c0.019-0.031,0.034-0.064,0.054-0.095c1.508-2.381,2.221-4.781,0.275-7.294c-0.307-0.396-0.447-0.908-0.69-1.354
	c-0.297-0.545-0.746-0.877-1.423-0.896c-1.347-0.038-2.692-0.101-4.039-0.15c-0.759-0.028-1.28,0.307-1.58,0.971
	c-0.581,1.286-1.169,2.569-1.742,3.858c-0.417,0.939-0.319,1.813,0.372,2.622C39.402,52.633,39.711,53.085,40.041,53.521z
	 M70.531,29.097c1.221,0.819,2.627,1.919,4.183,2.765c1.862,1.011,3.985,0.747,6.033,0.717c0.165-0.002,0.355-0.113,0.488-0.225
	c0.836-0.701,1.146-3.514,0.413-4.34c-1.143-1.287-2.353-2.52-3.548-3.762c-0.329-0.342-0.725-0.574-1.196-0.762
	c-1.946-0.775-3.92-0.205-5.877-0.172c-0.572,0.009-0.863,0.531-0.902,1.09c-0.078,1.114-0.141,2.229-0.213,3.344
	C69.883,28.179,70.114,28.508,70.531,29.097z M44.632,73.737c0.388-0.188,0.748-0.492,0.717-0.896
	c-0.122-1.561,0.14-3.17-0.636-4.656c-0.884-1.693-2.505-2.737-3.818-4.048c-0.304-0.305-0.815-0.355-1.28-0.214
	c-1,0.305-1.997,0.625-3.001,0.918c-0.81,0.236-1.137,0.757-1.085,1.545c0.086,1.295,0.128,2.594,0.254,3.884
	c0.071,0.724,0.345,1.417,0.986,1.87c1.238,0.876,2.506,1.714,3.755,2.576c0.576,0.397,1.182,0.442,1.805,0.152
	C43.104,74.506,43.865,74.115,44.632,73.737z M50.363,49.224c0.31,0.412,0.667,0.683,1.222,0.683c0.937,0,1.875,0.058,2.81,0.026
	c0.681-0.022,1.382-0.231,1.836-0.694c1.818-1.853,3.694-3.726,2.158-6.606c-0.066-0.125-0.083-0.277-0.104-0.419
	c-0.111-0.747-0.609-1.118-1.332-1.269c-1.245-0.26-2.488-0.529-3.736-0.771c-0.917-0.179-1.669,0.038-2.244,0.825
	c-0.645,0.883-1.352,1.726-2.063,2.561c-0.478,0.562-0.594,1.17-0.312,1.814C49.163,46.666,49.772,47.941,50.363,49.224z
	 M73.974,37.317c1.258-0.822,1.417-3.646,0.254-4.499c-1.249-0.916-2.544-1.784-3.885-2.571c-0.692-0.406-1.529-0.545-2.363-0.254
	c-1.126,0.394-2.246,0.809-3.387,1.16c-0.694,0.213-0.953,0.648-0.928,1.292c0.015,0.395,0.066,0.789,0.109,1.182
	c0.413,3.854-0.063,2.822,3.493,4.37C69.702,39.057,71.843,38.016,73.974,37.317z M48.27,57.471
	c-0.306-0.76-1.124-0.939-2.177-0.724c-0.841,0.173-1.708,0.233-2.561,0.356c-0.675,0.097-1.242,0.375-1.394,1.071
	c-0.276,1.269-0.532,2.542-0.75,3.822c-0.109,0.638,0.161,1.224,0.6,1.682c0.963,1.008,1.973,1.975,2.958,2.962
	c0.303,0.304,0.669,0.452,1.101,0.466c1.812,0.062,3.425-1.086,3.833-2.762c0.178-0.735,0.304-1.484,0.431-2.231
	c0.126-0.738-0.073-1.445-0.422-2.082C49.455,59.238,48.922,58.492,48.27,57.471z M61.454,39.186
	c-0.649,0.453-1.162,0.817-1.682,1.171c-0.505,0.344-0.783,0.839-0.671,1.396c0.205,1.021,0.496,2.029,0.798,3.03
	c0.105,0.35,0.406,0.625,0.797,0.706c2.085,0.426,4.192,1.032,6.064-0.604c0.245-0.214,0.558-0.371,0.864-0.5
	c1.074-0.449,1.502-1.226,1.385-2.33c-0.056-0.536-0.058-1.079-0.076-1.618c-0.012-0.375-0.067-0.814-0.417-0.953
	c-1.635-0.655-3.16-1.688-5.058-1.515C62.528,38.055,62.09,38.93,61.454,39.186z M49.887,58.439
	c0.498,0.494,0.605,1.335,1.362,1.639c0.649,0.261,3.648-0.512,4.137-1.031c1.753-1.862,1.92-5.615,0.346-7.72
	c-0.21-0.279-0.504-0.415-0.842-0.49c-3.015-0.673-4.309-0.044-5.525,2.687c-0.015,0.032-0.025,0.068-0.043,0.099
	C48.264,55.354,48.307,56.972,49.887,58.439z M42.275,87.4c0.437,0.476,0.819,1.211,1.549,1.725c1.836,1.294,4.06,1.384,6.136,1.893
	c1.099,0.27,2.8-1.504,2.331-2.304c-0.659-1.123-1.426-2.206-2.401-3.111c-1.429-1.326-3.295-1.943-5.026-2.776
	c-0.793-0.382-1.491-0.244-2.203,0.242c-2.375,1.62-2.385,1.616-0.697,3.918C42.028,87.076,42.095,87.163,42.275,87.4z
	 M50.064,77.694c-0.599-1.141-1.949-1.735-3.04-2.591c-0.905-0.71-4.166,0.297-4.558,1.357c-0.037,0.099-0.074,0.225-0.042,0.316
	c0.503,1.459,0.682,3.074,1.73,4.289c1.315,1.523,3.289,2.094,5.131,2.747c1.159,0.411,2.919-1.101,2.58-2.151
	C51.439,80.343,51.18,78.922,50.064,77.694z M90.45,33.079c-1.494-1.909-3.834-2.567-6.136-3.286
	c-0.223-0.069-0.44-0.014-0.627,0.142c-0.643,0.533-0.995,3.161-0.444,3.757c2.263,2.448,4.913,4.365,8.205,5.366
	c0.879,0.268,1.528-0.114,1.618-0.953c0.059-0.55-0.058-1.072-0.368-1.55C91.963,35.426,91.235,34.293,90.45,33.079z M52.051,69.427
	c-2.223-2.677-2.478-2.755-4.973-1.627c-0.136,0.062-0.275,0.119-0.398,0.199c-0.29,0.189-0.546,0.459-0.54,0.784
	c0.029,1.568-0.15,3.164,0.558,4.657c0.632,1.33,2.057,1.83,3.121,2.702c1.014,0.832,3.559-0.203,3.544-1.494
	C53.342,72.781,53.581,70.783,52.051,69.427z M62.579,53.81c2.006-1.428,2.8-3.458,2.233-5.759c-0.16-0.649-0.507-1.034-1.193-1.096
	c-4.057-0.369-3.425-1.097-5.96,2.084c-0.023,0.028-0.049,0.055-0.073,0.083c-1.013,1.205-0.603,4.339,0.693,5.255
	c0.117,0.083,0.267,0.17,0.402,0.171C59.992,54.558,61.313,54.605,62.579,53.81z M76.09,37.495c0.079,0.064,0.213,0.191,0.364,0.295
	c2.403,1.664,5.052,2.553,8.051,2.411c0.726-0.034,1.101-0.376,1.312-0.97c0.227-0.638,0.597-1.287-0.072-1.902
	c-0.947-0.871-1.845-1.797-2.841-2.614c-1.875-1.54-4.16-1.041-6.333-1.046c-0.115,0-0.245,0.151-0.344,0.254
	C75.661,34.514,75.542,36.815,76.09,37.495z M51.05,66.986c0.784,0.885,1.389,1.57,1.997,2.253c0.288,0.324,0.66,0.521,1.094,0.389
	c1.35-0.411,2.622-0.859,2.767-2.563c0.048-0.571,0.176-1.139,0.297-1.702c0.386-1.798-0.682-3.157-1.687-4.395
	c-0.778-0.958-1.951,0.068-2.954,0.056c-0.036,0-0.073,0.016-0.11,0.021c-0.816,0.121-1.23,0.576-1.334,1.366
	c-0.116,0.892-0.277,1.779-0.46,2.661C50.492,65.878,50.745,66.559,51.05,66.986z M78.713,43.384
	c0.941-0.641,1.351-2.393,0.556-2.941c-1.962-1.353-3.869-2.765-6.642-1.699c-2.733,1.05-2.795,0.899-2.506,3.71
	c0.015,0.144,0.03,0.287,0.058,0.428c0.053,0.26,0.207,0.438,0.449,0.583C72.653,44.677,76.868,44.642,78.713,43.384z
	 M67.482,45.455c-0.212,0.147-0.424,0.295-0.636,0.444c-1.345,0.938-1.731,2.751-0.88,4.097c0.147,0.233,0.364,0.369,0.625,0.42
	c1.284,0.254,2.593,0.547,3.852,0.006c0.742-0.318,1.388-0.84,2.096-1.239c1.152-0.65,1.808-2.362,1.343-3.535
	c-0.089-0.224-0.242-0.37-0.456-0.44C71.412,44.538,69.38,43.547,67.482,45.455z M57.464,62.611
	c0.201,0.227,0.383,0.721,0.833,0.678c1.192-0.114,2.48-0.242,3.2-1.291c1.293-1.881,1.924-3.896,0.71-6.082
	c-0.125-0.223-0.202-0.459-0.454-0.59c-0.617-0.324-3.25,0.05-3.755,0.539C56.09,57.714,55.855,60.374,57.464,62.611z
	 M53.074,81.844c0.813,1.187,2.208,1.577,3.357,2.296c0.579,0.362,1.099,0.328,1.65-0.079c0.573-0.422,0.8-0.924,0.621-1.599
	c-0.641-2.418-1.929-4.41-4.098-5.848c-0.616-0.409-1.148-0.262-1.645,0.114c-0.554,0.42-1.581,0.617-1.348,1.517
	C51.933,79.492,52.354,80.734,53.074,81.844z M67.82,57.067c0.909-1.049,2.669-2.232,2.059-4.515
	c-0.107-0.401-0.219-0.746-0.657-0.93c-1.749-0.735-3.376-0.372-4.61,1.046c-0.313,0.359-0.629,0.714-0.937,1.077
	c-0.778,0.919-0.668,3.343,0.188,4.198c0.165,0.165,0.373,0.25,0.606,0.232C65.51,58.095,66.581,58.123,67.82,57.067z
	 M52.063,86.781c1.293,2.472,3.856,2.899,6.26,3.572c0.554,0.155,0.91-0.163,1.223-0.57c0.348-0.451,0.264-0.846-0.029-1.288
	c-1.443-2.172-3.27-3.92-5.767-4.966c-0.976-0.409-1.822-0.213-2.591,0.648c-0.657,0.736-0.082,1.258,0.312,1.814
	C51.659,86.26,51.865,86.518,52.063,86.781z M58.225,71.021c-0.269-0.3-0.533-0.604-0.808-0.898
	c-0.448-0.48-0.959-0.653-1.603-0.331c-0.741,0.371-1.775,0.477-1.784,1.55c-0.019,2.344,0.123,4.644,2.57,6.042
	c0.474,0.271,0.856,0.802,1.486,0.458c0.68-0.373,1.528-0.757,1.52-1.604C59.586,74.41,59.629,72.53,58.225,71.021z M53.294,90.309
	c-1.381,0.981-1.364,1.506-0.045,2.483c1.215,0.9,2.476,1.75,3.945,2.151c1.544,0.422,3.171,0.473,4.777,0.424
	c0.398-0.012,0.912-0.201,1.003-0.722c0.071-0.409-0.226-0.65-0.529-0.883c-2.337-1.792-5.002-2.928-7.877-3.643
	C54.121,90.007,53.679,89.994,53.294,90.309z M58.536,70.271c0.515,0.492,0.689,1.519,1.667,1.367
	c0.858-0.133,1.747-0.629,1.949-1.46c0.435-1.79,1.125-3.639-0.184-5.406c-0.314-0.424-0.399-1.178-1.085-1.068
	c-0.925,0.147-2.264,0.057-2.568,1.007C57.734,66.523,56.594,68.485,58.536,70.271z M82.425,48.152
	c0.879-0.606,1.233-1.905,0.545-2.292c-1.049-0.589-2.045-1.303-3.343-1.441c-1.499-0.159-2.779,0.491-4.107,0.905
	c-0.822,0.256-0.934,2.642-0.24,3.078C76.743,49.323,80.94,49.176,82.425,48.152z M88.604,45.57
	c0.785-0.533,0.781-1.285,0.122-1.962c-1.817-1.867-3.967-2.837-6.682-2.644c-0.845,0.06-1.449,0.184-1.697,1.051
	c-0.255,0.892-0.186,1.56,0.779,2.089c1.997,1.097,4.115,1.656,6.401,1.676C87.9,45.784,88.283,45.82,88.604,45.57z M65.527,65.307
	c1.836-1.322,2.6-4.359,1.632-6.145c-0.082-0.151-0.199-0.32-0.348-0.395c-0.751-0.384-2.938,0.206-3.338,0.951
	c-0.479,0.894-0.905,1.82-1.271,2.762c-0.275,0.708,0.498,2.958,1.139,3.243C64.188,66.1,64.907,65.537,65.527,65.307z
	 M76.136,53.267c0.396-0.276,0.789-0.5,1.116-0.79c0.605-0.539,0.876-2.211,0.454-2.583c-0.599-0.529-3.202-0.873-3.99-0.461
	c-0.852,0.446-1.696,0.924-2.473,1.48c-1.034,0.74-0.717,1.819-0.537,2.792c0.165,0.892,1,0.672,1.641,0.744
	C73.815,54.614,75.061,54.129,76.136,53.267z M94.231,42.865c-1.533-2.069-2.256-2.581-5.458-3.802
	c-0.541-0.206-1.188-0.765-1.635,0.099c-0.403,0.776-0.779,1.547,0.23,2.284c1.091,0.796,2.138,1.624,3.301,2.347
	c1.184,0.737,2.445,1.204,3.722,1.686c0.304,0.115,0.71,0.096,0.929-0.198c0.237-0.317,0.181-0.7-0.038-1.016
	C94.951,43.785,94.583,43.33,94.231,42.865z M71.62,60.321c1.085-1.239,2.729-2.262,2.335-4.333
	c-0.062-0.329-0.072-0.617-0.473-0.77c-1.246-0.476-2.995-0.06-3.874,0.946c-0.362,0.414-0.75,0.808-1.111,1.222
	c-0.679,0.779-0.753,2.709,0.052,3.413c0.782,0.684,1.679,0.129,2.492-0.207C71.213,60.521,71.377,60.435,71.62,60.321z
	 M63.235,72.543c-0.288-0.3-0.543-1.122-1.393-0.833c-0.712,0.242-1.634,0.515-1.65,1.421c-0.035,1.978-0.101,4.007,1.914,5.331
	c0.416,0.273,0.719,0.816,1.347,0.494c0.612-0.313,1.204-0.726,1.203-1.449C64.65,75.812,64.566,74.115,63.235,72.543z
	 M62.378,79.54c-0.494-0.438-1.004-0.861-1.477-1.32c-0.469-0.455-0.935-0.542-1.481-0.134c-0.555,0.415-1.237,0.728-0.958,1.618
	c0.65,2.076,1.531,3.972,3.779,4.917c0.434,0.182,0.842,0.621,1.325,0.259c0.536-0.401,0.751-0.987,0.55-1.641
	C63.716,81.931,63.266,80.643,62.378,79.54z M63.737,72.056c1.028,1.605,2.185,1.65,2.854,0.078c0.658-1.545,1.1-3.231,0.179-4.879
	c-0.242-0.431-0.236-1.209-1.023-1.074c-0.79,0.136-1.867,0.2-2.083,1.039C63.241,68.856,62.209,70.589,63.737,72.056z
	 M59.628,87.193c0.888,1.633,2.737,2.374,4.684,2.975c0.352,0.108,0.727,0.292,1.011-0.107c0.296-0.416,0.408-0.873,0.058-1.3
	c-1.429-1.746-2.861-3.482-5.002-4.515c-0.643-0.31-1.122-0.255-1.602,0.229c-0.507,0.511-0.463,1.014-0.04,1.542
	C58.987,86.329,59.221,86.654,59.628,87.193z M85.276,52.085c1.291-0.926,1.176-1.518,0.074-2.216
	c-2.001-1.267-3.957-0.68-5.911-0.038c-0.838,0.275-0.587,1.155-0.743,1.79c-0.084,0.344-0.008,0.65,0.388,0.792
	C81.29,53.197,83.402,52.832,85.276,52.085z M97.348,45.296c0.894,0.819,1.785,1.64,2.684,2.455c0.167,0.152,0.38,0.251,0.613,0.157
	c0.23-0.094,0.188-0.285,0.116-0.458c-0.871-2.072-1.712-4.171-3.258-5.886c-0.73-0.811-1.618-1.494-2.453-2.214
	c-0.288-0.249-0.555-0.698-1.037-0.438c-0.468,0.251-0.566,0.721-0.555,1.217c0.01,0.463,0.292,0.796,0.508,1.174
	C94.837,42.838,96.342,43.871,97.348,45.296z M69.69,67.474c1.301-0.926,2.209-3.812,1.703-5.283
	c-0.186-0.54-0.489-0.724-1.075-0.678c-2.305,0.181-4.021,3.11-3.08,5.299C67.805,68.133,68.5,68.321,69.69,67.474z M80.097,56.063
	c0.316-0.154,0.504-0.424,0.687-0.698c0.825-1.236,0.605-1.776-0.86-2.107c-1.765-0.398-3.984,0.389-5.05,1.818
	c-0.478,0.64-0.431,1.394-0.213,2.074c0.219,0.681,0.941,0.417,1.467,0.459C77.718,57.739,78.811,56.662,80.097,56.063z
	 M91.263,49.925c0.605-0.402,0.654-0.727,0.2-1.211c-1.783-1.898-4.091-2.397-6.622-2.284c-0.801,0.036-0.844,0.694-1.039,1.229
	c-0.214,0.586,0.139,0.838,0.598,1.102c1.582,0.91,3.333,1.227,5.126,1.401C90.119,50.219,90.73,50.307,91.263,49.925z M75.127,62.7
	c0.862-0.958,2.27-1.876,2.181-3.669c-0.016-0.321,0.04-0.645-0.387-0.802c-0.91-0.336-2.445-0.025-3.129,0.688
	c-0.508,0.529-1.002,1.072-1.472,1.633c-0.483,0.577-0.535,2.361,0.01,2.745c0.731,0.514,1.483,0.145,2.175-0.242
	C74.634,62.98,74.763,62.906,75.127,62.7z M66.016,78.693c0.047,0.049,0.219,0.302,0.458,0.461c0.484,0.323,0.739,1.189,1.518,0.834
	c0.809-0.37,0.881-1.165,0.854-1.955c-0.048-1.387-0.312-2.709-1.167-3.864c-0.285-0.386-0.432-1.004-1.135-0.84
	c-0.692,0.163-1.346,0.555-1.379,1.251C65.102,75.924,64.982,77.316,66.016,78.693z M68.318,74.022
	c0.744,1.004,1.476,0.99,2.111-0.286c0.679-1.366,0.85-2.835,0.343-4.299c-0.163-0.471-0.163-1.23-0.867-1.243
	c-0.75-0.013-1.571,0.262-1.864,0.996C67.416,70.756,66.987,72.365,68.318,74.022z M67.208,80.958
	c-0.223-0.667-0.806-1.034-1.294-1.466c-0.301-0.267-0.604-0.759-1.127-0.384c-0.499,0.36-1.108,0.717-0.904,1.467
	c0.491,1.802,1.174,3.495,3.055,4.413c0.409,0.199,0.785,0.702,1.298,0.323c0.542-0.4,0.582-1.016,0.345-1.573
	C68.174,82.786,68.014,81.716,67.208,80.958z M68.679,94.471c0.332-0.572-0.051-0.875-0.423-1.176
	c-1.439-1.165-3.171-1.853-4.812-2.683c-0.589-0.299-1.257-0.458-1.899-0.654c-0.586-0.179-0.903,0.16-1.156,0.606
	c-0.212,0.373-0.174,0.664,0.195,0.935c2.227,1.642,4.64,2.845,7.512,2.986C68.278,94.494,68.462,94.477,68.679,94.471z
	 M97.246,49.515c-1.435-2.025-3.345-3.448-5.745-4.266c-0.541-0.184-1.024-0.458-1.447,0.223c-0.396,0.637-0.202,1.036,0.34,1.473
	c1.699,1.37,3.585,2.431,5.62,3.26c0.238,0.097,0.497,0.169,0.752,0.19c0.25,0.021,0.55,0.046,0.698-0.226
	C97.611,49.9,97.427,49.69,97.246,49.515z M73.137,69.255c1.164-0.812,2.039-3.311,1.693-4.668
	c-0.167-0.656-0.556-0.754-1.155-0.664c-1.743,0.262-3.245,2.947-2.612,4.695C71.534,69.919,71.986,70.058,73.137,69.255z
	 M82.359,53.627c-0.515,0.438-0.729,1.02-0.655,1.643c0.068,0.579,0.677,0.456,1.076,0.569c1.381,0.391,2.724,0.082,4.065-0.237
	c0.593-0.141,1.148-0.346,1.536-0.818c0.269-0.329,0.421-0.648-0.055-1.001C86.921,52.741,83.731,52.638,82.359,53.627z
	 M79.247,57.269c-0.345,0.274-0.74,0.507-1.023,0.83c-0.591,0.673-0.468,1.973,0.153,2.131c1.526,0.39,4.731-1.173,5.32-2.579
	c0.255-0.606,0.208-0.937-0.566-1.18C81.629,56,80.42,56.44,79.247,57.269z M69.171,88.001c-0.896-1.13-1.913-2.258-3.313-3.016
	c-0.46-0.25-0.868-0.428-1.324-0.036c-0.464,0.4-0.521,0.875-0.203,1.357c0.93,1.413,2.004,2.713,3.686,3.331
	c0.643,0.236,1.42,1.083,1.988,0.445C70.707,89.293,69.631,88.711,69.171,88.001z M93.619,52.808
	c-1.601-1.693-3.678-2.12-5.924-2.032c-0.585,0.023-0.916,0.464-1.036,0.997c-0.115,0.51,0.314,0.669,0.675,0.861
	c1.641,0.876,3.449,1.097,5.276,1.215c0.281,0.018,0.589-0.102,0.858-0.217C93.918,53.438,93.971,53.137,93.619,52.808z
	 M78.019,64.803c0.701-0.828,1.967-1.553,2.12-3.043c0.068-0.667-0.169-0.969-0.914-1.032c-1.792-0.151-2.571,1.131-3.474,2.201
	c-0.635,0.752-0.586,1.826-0.042,2.421C76.273,65.968,77.146,65.361,78.019,64.803z M72.138,75.551
	c0.578,0.741,1.059,0.188,1.322-0.274c0.835-1.461,1.106-3.018,0.492-4.642c-0.241-0.638-0.639-0.822-1.297-0.492
	c-0.521,0.261-0.909,0.602-1.113,1.14C70.969,72.794,70.958,74.233,72.138,75.551z M70.265,79.883
	c0.313,0.292,0.572,1.043,1.306,0.922c0.549-0.091,0.746-0.711,0.774-1.208c0.079-1.449-0.047-2.876-0.971-4.111
	c-0.25-0.335-0.465-0.831-1.024-0.665c-0.562,0.167-1.08,0.572-1.055,1.14C69.353,77.261,69.137,78.646,70.265,79.883z
	 M70.86,81.395c-0.233-0.28-0.455-0.568-0.7-0.836c-0.316-0.345-0.625-0.802-1.201-0.508c-0.546,0.279-0.833,0.783-0.646,1.356
	c0.49,1.507,1.003,3.026,2.545,3.904c0.363,0.207,0.717,0.691,1.18,0.372c0.483-0.334,0.408-0.918,0.25-1.392
	C71.946,83.27,71.61,82.235,70.86,81.395z M76.183,70.715c0.887-0.985,1.672-2.249,1.594-3.869c-0.043-0.892-0.528-1.084-1.36-0.828
	c-1.387,0.427-2.531,2.848-2.024,4.344C74.749,71.415,75.031,71.504,76.183,70.715z M82.112,59.84
	c-0.787,0.483-1.493,0.954-1.463,1.938c0.012,0.415,0.137,0.657,0.625,0.718c1.233,0.156,3.944-1.1,4.56-2.15
	c0.482-0.823,0.335-1.121-0.656-1.325C83.983,58.775,82.974,59.161,82.112,59.84z M98.338,53.059
	c-0.917-1.169-2.465-2.188-4.488-2.966c-0.472-0.182-0.979-0.505-1.381,0.117c-0.4,0.618,0.08,0.925,0.5,1.227
	c1.367,0.98,2.766,1.909,4.337,2.573c0.515,0.218,1.169,0.627,1.555,0.209C99.297,53.748,98.439,53.438,98.338,53.059z
	 M89.909,57.985c0.496-0.399,1.168-0.657,0.482-1.22c-1.125-0.922-4.248-0.877-5.432,0.026c-0.64,0.488-0.744,1.51-0.146,1.652
	C86.612,58.876,88.351,58.617,89.909,57.985z M69.69,87.571c0.772,1.166,1.924,1.873,3.198,2.422c0.324,0.14,0.734,0.46,1.027,0.158
	c0.356-0.367,0.051-0.806-0.172-1.175c-0.665-1.097-1.594-1.992-2.615-2.754c-0.57-0.425-1.216-1.502-2.02-0.79
	C68.282,86.165,69.243,86.907,69.69,87.571z M80.577,66.503c0.501-0.448,1.267-1.086,1.742-1.963
	c0.243-0.447,0.518-0.992,0.141-1.415c-0.379-0.425-0.984-0.208-1.48-0.08c-1.176,0.303-1.803,1.247-2.463,2.102
	c-0.481,0.624-0.525,1.501,0.008,2.004c0.491,0.463,1.168-0.066,1.697-0.4C80.253,66.731,80.283,66.708,80.577,66.503z
	 M73.217,93.266c-1.821-1.36-3.873-2.438-6.096-3.216c-0.37-0.13-0.657-0.007-0.822,0.355c-0.136,0.3-0.121,0.566,0.166,0.771
	c1.93,1.382,3.923,2.639,6.425,2.812c0.174,0.013,0.437,0.014,0.513-0.084C73.558,93.708,73.375,93.502,73.217,93.266z
	 M73.517,96.779c-0.336-0.456-0.702-0.426-1.01-0.52c-1.208-0.365-2.563-0.342-3.672-0.77c-1.259-0.485-2.532-0.553-3.792-0.815
	c-0.496-0.103-1.06,0.091-1.152,0.617c-0.094,0.541,0.523,0.534,0.882,0.625 M95.196,55.96c-0.813-0.98-4.101-2.01-5.363-1.644
	c-0.475,0.139-0.771,0.463-0.841,0.921c-0.067,0.438,0.364,0.491,0.65,0.625c1.472,0.691,3.066,0.895,4.67,1.042
	c0.246,0.022,0.516-0.076,0.758-0.162C95.508,56.586,95.53,56.319,95.196,55.96z M101.752,52.974
	c0.082-0.048,0.165-0.096,0.247-0.145c-0.136-0.324-0.253-0.655-0.409-0.97c-1.032-2.091-2.488-3.872-4.301-5.39
	c-0.354-0.296-0.716-0.84-1.218-0.427c-0.475,0.391-0.068,0.858,0.213,1.24c0.281,0.382,0.65,0.72,0.858,1.134
	c0.386,0.769,1.397,0.892,1.768,1.563C99.606,51.238,100.801,51.983,101.752,52.974z M73.702,80.748
	c0.268,0.221,0.425,0.861,1.022,0.685c0.643-0.19,0.671-0.819,0.683-1.355c0.025-1.163-0.224-2.285-0.735-3.339
	c-0.18-0.37-0.325-0.902-0.904-0.793c-0.544,0.103-0.975,0.483-0.998,1.035C72.714,78.275,72.715,79.579,73.702,80.748z
	 M74.985,76.311c0.442,0.684,0.983,0.693,1.375-0.109c0.592-1.211,0.946-2.505,0.534-3.859c-0.107-0.354-0.102-0.854-0.642-0.905
	c-0.442-0.042-0.771,0.231-1.052,0.536C74.295,72.956,74.191,75.081,74.985,76.311z M78.375,72.289
	c1.076-0.785,1.974-2.776,1.873-3.983c-0.044-0.537-0.231-0.716-0.851-0.673c-1.311,0.091-3.002,3.247-2.067,4.544
	C77.726,72.727,78.062,72.495,78.375,72.289z M73.261,84.707c0.152,0.345,0.461,0.657,0.855,0.876
	c0.366,0.204,0.719,0.753,1.151,0.432c0.436-0.324,0.348-0.923,0.164-1.409c-0.435-1.145-0.868-2.299-1.791-3.19
	c-0.287-0.278-0.484-0.875-1.043-0.522c-0.451,0.284-0.73,0.766-0.515,1.313C72.409,83.039,72.613,83.93,73.261,84.707z
	 M86.509,63.438c0.585-0.402,1.076-0.683,1.371-1.161c0.208-0.336,0.304-0.651-0.203-0.875c-1.186-0.523-4.082,0.633-4.533,1.831
	c-0.357,0.947,0.021,1.398,1.066,1.165C85.078,64.205,85.942,63.94,86.509,63.438z M91.659,60.329
	c0.762-0.504,0.844-0.841,0.112-1.19c-1.563-0.749-3.071-0.337-4.559,0.188c-0.4,0.141-0.53,0.587-0.558,0.998
	c-0.021,0.317,0.211,0.443,0.485,0.499C88.778,61.158,90.326,60.836,91.659,60.329z M82.792,68.165
	c0.554-0.796,1.599-1.411,1.828-2.599c0.108-0.559-0.045-0.781-0.687-0.742c-1.313,0.079-2.024,0.952-2.764,1.806
	c-0.525,0.606-0.755,1.431-0.277,1.978C81.458,69.255,82.064,68.457,82.792,68.165z M76.496,88.531
	c-0.721-1.006-1.556-1.775-2.47-2.457c-0.314-0.235-0.697-0.759-1.142-0.321c-0.418,0.411-0.21,0.927,0.1,1.384
	c0.621,0.918,1.434,1.665,2.325,2.316c0.537,0.393,1.387,1.047,1.822,0.637C77.617,89.631,76.758,88.991,76.496,88.531z
	 M100.241,57.444c-1.134-1.856-2.878-2.839-4.787-3.616c-0.412-0.167-0.846-0.145-1.104,0.241c-0.289,0.434,0.125,0.655,0.415,0.855
	c1.389,0.957,2.855,1.795,4.404,2.493C99.472,57.554,99.794,57.652,100.241,57.444z M76.33,81.203
	c0.457,0.183,0.577,0.998,1.194,0.757c0.518-0.202,0.5-0.832,0.482-1.343c-0.036-1.012-0.202-2.001-0.635-2.932
	c-0.163-0.351-0.311-0.803-0.839-0.719c-0.459,0.073-0.69,0.461-0.738,0.86C75.655,78.981,75.769,80.112,76.33,81.203z
	 M77.569,77.146c0.599,0.835,0.982,0.486,1.222,0.043c0.58-1.075,0.858-2.221,0.56-3.434c-0.09-0.367-0.062-0.878-0.565-0.955
	c-0.485-0.074-0.833,0.292-1.102,0.636C77.01,74.296,77.042,76.471,77.569,77.146z M96.676,58.79
	c-0.777-0.928-3.838-1.835-4.998-1.48c-0.347,0.106-0.605,0.316-0.648,0.671c-0.044,0.37,0.301,0.466,0.56,0.588
	c1.303,0.613,2.73,0.72,4.136,0.905c0.248,0.032,0.52-0.034,0.77-0.097C96.866,59.286,97.039,59.104,96.676,58.79z M80.648,73.438
	c1.039-0.984,1.673-2.16,1.769-3.582c0.055-0.814-0.366-0.914-1.043-0.626c-1.144,0.486-2.144,2.754-1.739,3.886
	C79.837,73.683,80.137,73.78,80.648,73.438z M77.327,93.708c-0.133-0.524-0.417-0.787-0.759-1.031
	c-1.414-1.01-3.003-1.709-4.582-2.429c-0.287-0.13-0.656-0.358-0.888,0.043c-0.221,0.38,0.017,0.701,0.333,0.93
	C73.168,92.48,74.99,93.562,77.327,93.708z M76.384,85.145c0.189,0.35,0.525,0.635,0.9,0.879c0.235,0.154,0.454,0.456,0.783,0.255
	c0.303-0.185,0.222-0.522,0.171-0.794c-0.234-1.266-0.899-2.35-1.631-3.394c-0.227-0.323-0.553-0.695-1.014-0.455
	c-0.44,0.229-0.533,0.684-0.37,1.137C75.516,83.586,75.768,84.421,76.384,85.145z M88.454,65.045
	c0.454-0.218,0.854-0.538,1.148-0.963c0.18-0.26,0.241-0.507-0.14-0.707c-1.187-0.623-4.156,0.843-4.349,2.128
	c-0.089,0.593,0.162,0.679,0.676,0.616C86.777,66,87.633,65.596,88.454,65.045z M84.482,69.663c0.708-0.605,1.503-1.262,1.869-2.245
	c0.303-0.816,0.063-1.073-0.833-0.87c-1.229,0.277-1.921,1.188-2.492,2.154c-0.237,0.4-0.44,1.03,0.072,1.375
	C83.561,70.392,83.993,69.951,84.482,69.663z M88.975,61.649c-0.183,0.194-0.429,0.427-0.439,0.779
	c-0.008,0.281,0.228,0.358,0.449,0.391c1.558,0.231,3.059,0.042,4.476-0.629c0.456-0.216,0.495-0.496,0.013-0.783
	C92.567,60.866,89.884,60.978,88.975,61.649z M79.914,90.282c-0.093-1.259-2.36-4.052-3.405-4.218c-0.77-0.123-0.682,0.494-0.5,0.84
	C76.839,88.485,78.12,89.609,79.914,90.282z M82.922,74.204c0.661-0.796,1.296-1.793,1.375-3.035
	c0.047-0.757-0.351-0.862-0.983-0.596c-0.858,0.36-1.854,2.57-1.586,3.451C81.926,74.678,82.264,74.735,82.922,74.204z
	 M79.011,81.918c0.247,0.146,0.318,0.696,0.752,0.607c0.488-0.1,0.442-0.63,0.486-0.995c0.129-1.062-0.185-2.069-0.556-3.052
	c-0.112-0.297-0.314-0.618-0.736-0.534c-0.372,0.074-0.598,0.387-0.604,0.705C78.332,79.752,78.193,80.889,79.011,81.918z
	 M102.938,56.858c-0.256-1.422-1.248-2.422-2.037-3.516c-0.503-0.697-1.241-1.242-1.898-1.829c-0.263-0.235-0.611-0.604-0.966-0.333
	c-0.427,0.326,0.061,0.624,0.23,0.903c0.149,0.247,0.409,0.441,0.52,0.7c0.331,0.762,1.347,0.805,1.692,1.484
	C101.041,55.372,102.143,55.968,102.938,56.858z M92.752,60.634c0.512,0.548,4.315,1.212,4.932,0.942
	c0.476-0.208,0.294-0.41,0.025-0.615c-0.744-0.568-1.593-0.917-2.532-1.042c-0.656-0.087-1.33-0.313-1.976-0.008
	C92.896,60.055,92.479,60.232,92.752,60.634z M94.443,64.202c0.496-0.325,0.892-0.509,0.3-0.877
	c-0.755-0.468-3.458-0.323-4.127,0.249c-0.228,0.195-0.411,0.434-0.366,0.749c0.031,0.213,0.237,0.277,0.421,0.297
	C92.032,64.768,93.352,64.619,94.443,64.202z M101.414,60.267c-1.159-1.571-2.709-2.46-4.389-3.181
	c-0.318-0.137-0.714-0.222-0.926,0.097c-0.296,0.447,0.171,0.652,0.459,0.828c0.914,0.556,1.837,1.1,2.788,1.593
	C99.95,59.917,100.537,60.35,101.414,60.267z M75.053,90.958c1.355,1.192,2.979,1.88,4.735,2.316
	c0.144,0.037,0.325,0.062,0.394-0.095c0.107-0.249-0.086-0.4-0.269-0.525c-1.365-0.94-2.842-1.699-4.341-2.418
	c-0.218-0.104-0.516-0.248-0.702,0.042C74.708,90.531,74.895,90.754,75.053,90.958z M81.083,82.417
	c0.242,0.27,0.366,0.626,0.7,0.585c0.433-0.053,0.404-0.49,0.438-0.776c0.127-1.086-0.076-2.135-0.533-3.136
	c-0.104-0.227-0.179-0.52-0.496-0.514c-0.351,0.007-0.533,0.282-0.568,0.574C80.485,80.298,80.487,81.434,81.083,82.417z
	 M77.24,95.725c-0.715-0.192-1.432-0.381-2.145-0.578c-0.497-0.136-1.05,0.214-1.518-0.173c-0.792-0.655-1.805-0.626-2.75-0.799
	c-0.273-0.05-0.665-0.158-0.749,0.235c-0.08,0.372,0.302,0.457,0.576,0.54C72.789,95.588,74.963,95.973,77.24,95.725z M81.331,85.95
	c0.027,0.032,0.123,0.199,0.268,0.301c0.288,0.205,0.575,0.647,0.934,0.445c0.346-0.195,0.149-0.665,0.073-1.001
	c-0.212-0.928-0.829-1.676-1.278-2.498c-0.151-0.277-0.36-0.644-0.76-0.474c-0.408,0.172-0.411,0.585-0.277,0.941
	C80.57,84.403,80.768,85.178,81.331,85.95z M99.204,63.416c-1.361-1.22-2.761-1.4-4.198-1.452c-0.305-0.011-0.59,0.154-0.741,0.426
	c-0.113,0.203,0.045,0.367,0.227,0.414C95.944,63.178,97.375,63.729,99.204,63.416z M101.939,62.43
	c-0.934-1.466-2.429-2.15-3.978-2.748c-0.136-0.053-0.389,0.014-0.506,0.114c-0.187,0.159-0.028,0.339,0.122,0.441
	C98.92,61.158,100.28,62.057,101.939,62.43z M78.028,90.044c0.072,0.342,0.054,0.512,0.133,0.597c1.162,1.226,2.67,1.896,4.27,2.41
	c0.138,0.044,0.338,0.059,0.375-0.116c0.023-0.11-0.051-0.3-0.147-0.365C81.255,91.61,79.816,90.707,78.028,90.044z M103.753,60.053
	c0.081-0.067,0.161-0.134,0.241-0.2c-1.168-1.812-2.355-3.607-4.291-4.734c-0.11,0.098-0.219,0.194-0.329,0.291
	C100.834,56.958,102.294,58.506,103.753,60.053z"/>
<text transform="matrix(1 0 0 1 58.7583 193.0015)"><tspan x="0" y="0" fill="#010101" font-family="'ArialMT'" font-size="30">Archivos en</tspan><tspan x="156.738" y="0" fill="#D65677" font-family="'ArialMT'" font-size="30"> Ingeniería de Software II</tspan></text>
<rect x="0.003" y="721.124" fill="#D65677" width="1190.546" height="120.877"/>
<linearGradient id="SVGID_2_" gradientUnits="userSpaceOnUse" x1="16.3911" y1="755.9746" x2="54.6528" y2="755.9746">
	<stop  offset="0" style="stop-color:#FFFFFF;stop-opacity:0"/>
	<stop  offset="0.5376" style="stop-color:#FFFFFF"/>
</linearGradient>
<path fill-rule="evenodd" clip-rule="evenodd" fill="url(#SVGID_2_)" d="M41.374,771.054c-0.152-0.064-0.306-0.123-0.454-0.191
	c-0.095-0.045-0.194-0.111-0.29-0.037c-0.112,0.084-0.125,0.227-0.062,0.33c0.461,0.764,0.977,1.475,1.979,1.797
	c-0.055-0.504-0.365-0.768-0.572-1.086c-0.185-0.285-0.58-0.424-0.608-0.814c0.335-0.125,0.245-0.404,0.194-0.619
	c-0.14-0.588-0.375-1.148-0.753-1.635c-0.129-0.166-0.279-0.482-0.583-0.301c-0.247,0.146-0.183,0.414-0.107,0.656
	C40.349,769.903,40.789,770.522,41.374,771.054z M30.476,743.825c1.181-0.375,1.299-1.266,1.047-2.324
	c-0.065-0.273-0.085-0.559-0.107-0.842c-0.036-0.445-0.251-0.746-0.686-0.928c-0.77-0.32-1.533-0.656-2.292-1
	c-0.448-0.203-0.873-0.139-1.248,0.119c-0.699,0.48-1.41,0.947-2.028,1.531c-0.335,0.316-0.457,0.654-0.321,1.092
	c0.21,0.678,0.408,1.359,0.602,2.041c0.07,0.248,0.175,0.5,0.431,0.563C27.414,744.456,28.987,745.372,30.476,743.825z
	 M18.916,752.38c-0.003,0.002-0.007,0.004-0.01,0.006c0.196,0.262,0.392,0.523,0.59,0.783c0.647,0.848,3.211,0.705,3.766-0.211
	c0.01-0.018,0.019-0.035,0.03-0.053c0.843-1.336,1.241-2.682,0.154-4.092c-0.171-0.221-0.25-0.508-0.386-0.758
	c-0.166-0.307-0.417-0.492-0.795-0.504c-0.752-0.021-1.504-0.057-2.257-0.084c-0.424-0.016-0.715,0.172-0.883,0.545
	c-0.324,0.721-0.653,1.441-0.973,2.164c-0.233,0.527-0.178,1.018,0.208,1.471C18.559,751.88,18.731,752.134,18.916,752.38z
	 M35.954,738.681c0.682,0.459,1.468,1.076,2.337,1.551c1.041,0.566,2.227,0.418,3.371,0.4c0.092,0,0.198-0.063,0.272-0.125
	c0.467-0.393,0.641-1.971,0.23-2.434c-0.639-0.723-1.314-1.414-1.982-2.111c-0.184-0.191-0.405-0.322-0.668-0.428
	c-1.087-0.434-2.19-0.115-3.284-0.096c-0.32,0.006-0.482,0.297-0.504,0.611c-0.043,0.625-0.079,1.25-0.119,1.875
	C35.591,738.165,35.721,738.349,35.954,738.681z M21.481,763.718c0.217-0.105,0.418-0.275,0.4-0.502
	c-0.068-0.875,0.079-1.777-0.355-2.611c-0.494-0.949-1.399-1.535-2.133-2.271c-0.17-0.17-0.456-0.199-0.715-0.119
	c-0.56,0.17-1.116,0.35-1.677,0.514c-0.453,0.133-0.636,0.426-0.606,0.867c0.048,0.727,0.071,1.455,0.142,2.178
	c0.04,0.406,0.193,0.795,0.551,1.049c0.692,0.492,1.4,0.961,2.098,1.445c0.322,0.223,0.661,0.248,1.009,0.086
	C20.627,764.149,21.053,763.931,21.481,763.718z M24.684,749.968c0.173,0.232,0.373,0.385,0.683,0.385
	c0.523,0,1.047,0.031,1.57,0.014c0.38-0.012,0.772-0.129,1.026-0.389c1.016-1.039,2.064-2.09,1.206-3.707
	c-0.037-0.068-0.046-0.154-0.058-0.234c-0.063-0.418-0.34-0.627-0.745-0.711c-0.695-0.146-1.39-0.297-2.087-0.434
	c-0.513-0.1-0.933,0.021-1.254,0.463c-0.36,0.496-0.755,0.969-1.153,1.438c-0.267,0.314-0.332,0.656-0.174,1.018
	C24.013,748.534,24.354,749.249,24.684,749.968z M37.877,743.29c0.703-0.461,0.792-2.045,0.142-2.523
	c-0.698-0.514-1.422-1-2.171-1.441c-0.387-0.227-0.855-0.305-1.32-0.143c-0.63,0.221-1.255,0.455-1.893,0.65
	c-0.388,0.121-0.532,0.363-0.519,0.725c0.008,0.221,0.037,0.443,0.061,0.664c0.231,2.16-0.035,1.582,1.952,2.451
	C35.49,744.267,36.687,743.683,37.877,743.29z M23.514,754.595c-0.17-0.426-0.628-0.527-1.216-0.406
	c-0.47,0.098-0.954,0.131-1.431,0.199c-0.377,0.055-0.694,0.211-0.779,0.602c-0.154,0.711-0.297,1.426-0.419,2.143
	c-0.061,0.357,0.09,0.688,0.335,0.943c0.538,0.566,1.102,1.107,1.653,1.662c0.17,0.172,0.375,0.254,0.616,0.262
	c1.012,0.035,1.914-0.609,2.142-1.549c0.1-0.412,0.17-0.832,0.241-1.252c0.071-0.414-0.041-0.811-0.236-1.168
	C24.176,755.585,23.879,755.167,23.514,754.595z M30.881,744.339c-0.363,0.254-0.649,0.457-0.94,0.656
	c-0.282,0.193-0.438,0.471-0.375,0.783c0.114,0.572,0.277,1.139,0.446,1.699c0.059,0.197,0.227,0.352,0.445,0.396
	c1.166,0.238,2.343,0.578,3.389-0.34c0.137-0.119,0.312-0.207,0.483-0.279c0.601-0.252,0.839-0.688,0.774-1.307
	c-0.032-0.301-0.033-0.605-0.042-0.908c-0.007-0.209-0.038-0.455-0.233-0.535c-0.914-0.365-1.766-0.945-2.827-0.848
	C31.481,743.704,31.237,744.194,30.881,744.339z M24.418,755.138c0.278,0.277,0.338,0.748,0.761,0.918
	c0.363,0.146,2.039-0.287,2.312-0.578c0.979-1.043,1.073-3.148,0.193-4.328c-0.117-0.158-0.282-0.234-0.47-0.275
	c-1.685-0.379-2.407-0.025-3.087,1.506c-0.008,0.02-0.014,0.039-0.024,0.057C23.511,753.407,23.535,754.315,24.418,755.138z
	 M20.165,771.382c0.244,0.266,0.458,0.68,0.865,0.967c1.026,0.727,2.269,0.777,3.429,1.063c0.614,0.15,1.564-0.844,1.302-1.293
	c-0.368-0.629-0.797-1.236-1.342-1.744c-0.798-0.744-1.841-1.09-2.809-1.559c-0.443-0.213-0.833-0.137-1.231,0.137
	c-1.327,0.908-1.333,0.906-0.39,2.197C20.026,771.2,20.064,771.247,20.165,771.382z M24.517,765.937
	c-0.335-0.639-1.089-0.973-1.699-1.453c-0.505-0.398-2.328,0.168-2.547,0.762c-0.02,0.057-0.041,0.127-0.023,0.178
	c0.281,0.818,0.381,1.725,0.967,2.406c0.735,0.854,1.837,1.174,2.867,1.541c0.647,0.23,1.631-0.619,1.442-1.207
	C25.285,767.423,25.141,766.626,24.517,765.937z M47.084,740.913c-0.835-1.07-2.143-1.439-3.429-1.844
	c-0.125-0.037-0.246-0.008-0.351,0.08c-0.359,0.299-0.556,1.773-0.248,2.107c1.264,1.373,2.745,2.449,4.584,3.01
	c0.491,0.15,0.854-0.064,0.904-0.535c0.033-0.309-0.032-0.602-0.206-0.869C47.93,742.229,47.523,741.595,47.084,740.913z
	 M25.627,761.3c-1.243-1.502-1.385-1.545-2.779-0.912c-0.076,0.035-0.154,0.066-0.222,0.111c-0.162,0.105-0.306,0.258-0.302,0.439
	c0.017,0.879-0.083,1.775,0.312,2.613c0.353,0.744,1.149,1.025,1.744,1.516c0.566,0.465,1.989-0.115,1.981-0.838
	C26.348,763.183,26.482,762.062,25.627,761.3z M31.51,752.542c1.121-0.803,1.565-1.941,1.248-3.23
	c-0.089-0.365-0.284-0.58-0.667-0.615c-2.267-0.207-1.914-0.615-3.331,1.168c-0.013,0.018-0.027,0.031-0.041,0.047
	c-0.566,0.676-0.337,2.434,0.388,2.947c0.065,0.047,0.149,0.096,0.225,0.096C30.064,752.96,30.802,752.987,31.51,752.542z
	 M39.06,743.39c0.044,0.037,0.119,0.107,0.204,0.166c1.343,0.934,2.823,1.432,4.499,1.352c0.405-0.018,0.615-0.211,0.732-0.543
	c0.127-0.357,0.334-0.723-0.04-1.066c-0.529-0.488-1.031-1.008-1.587-1.467c-1.048-0.863-2.325-0.584-3.539-0.586
	c-0.064,0-0.137,0.084-0.192,0.143C38.82,741.718,38.753,743.009,39.06,743.39z M25.068,759.931
	c0.438,0.496,0.776,0.881,1.116,1.264c0.161,0.182,0.369,0.293,0.611,0.219c0.754-0.23,1.465-0.482,1.546-1.438
	c0.027-0.32,0.098-0.639,0.166-0.955c0.216-1.008-0.381-1.77-0.942-2.465c-0.435-0.537-1.09,0.039-1.651,0.031
	c-0.021,0-0.041,0.01-0.062,0.014c-0.456,0.066-0.688,0.322-0.745,0.766c-0.065,0.5-0.155,0.998-0.257,1.492
	C24.756,759.31,24.897,759.692,25.068,759.931z M40.525,746.692c0.526-0.359,0.755-1.342,0.311-1.648
	c-1.097-0.76-2.162-1.551-3.712-0.953c-1.527,0.59-1.562,0.504-1.4,2.082c0.008,0.08,0.017,0.16,0.033,0.238
	c0.029,0.146,0.116,0.246,0.25,0.328C37.139,747.419,39.495,747.399,40.525,746.692z M34.25,747.854
	c-0.119,0.084-0.237,0.166-0.355,0.25c-0.751,0.525-0.967,1.543-0.492,2.297c0.082,0.131,0.203,0.207,0.349,0.236
	c0.717,0.143,1.449,0.307,2.152,0.004c0.415-0.18,0.775-0.473,1.171-0.695c0.644-0.365,1.011-1.326,0.75-1.982
	c-0.05-0.127-0.135-0.209-0.255-0.248C36.446,747.341,35.311,746.784,34.25,747.854z M28.652,757.478
	c0.112,0.127,0.214,0.404,0.466,0.381c0.667-0.064,1.386-0.137,1.788-0.725c0.723-1.055,1.075-2.186,0.396-3.41
	c-0.069-0.127-0.113-0.258-0.253-0.332c-0.345-0.182-1.816,0.027-2.098,0.303C27.884,754.731,27.753,756.224,28.652,757.478z
	 M26.199,768.265c0.454,0.666,1.234,0.885,1.876,1.289c0.323,0.203,0.614,0.184,0.922-0.045c0.32-0.236,0.447-0.52,0.347-0.896
	c-0.358-1.357-1.078-2.475-2.29-3.281c-0.345-0.229-0.642-0.146-0.919,0.064c-0.31,0.236-0.883,0.346-0.754,0.852
	C25.561,766.946,25.796,767.644,26.199,768.265z M34.438,754.368c0.508-0.588,1.492-1.252,1.151-2.533
	c-0.06-0.225-0.123-0.418-0.367-0.521c-0.978-0.412-1.887-0.207-2.576,0.588c-0.175,0.201-0.352,0.4-0.523,0.604
	c-0.435,0.516-0.373,1.875,0.105,2.355c0.092,0.092,0.208,0.141,0.339,0.129C33.148,754.944,33.746,754.96,34.438,754.368z
	 M25.634,771.034c0.723,1.387,2.155,1.625,3.498,2.004c0.31,0.086,0.508-0.092,0.683-0.32c0.194-0.254,0.147-0.475-0.017-0.723
	c-0.806-1.219-1.827-2.197-3.223-2.785c-0.545-0.229-1.018-0.119-1.448,0.363c-0.367,0.414-0.046,0.707,0.174,1.018
	C25.408,770.741,25.523,770.886,25.634,771.034z M29.077,762.194c-0.15-0.168-0.298-0.338-0.452-0.504
	c-0.25-0.27-0.536-0.367-0.896-0.186c-0.414,0.207-0.992,0.268-0.997,0.869c-0.011,1.314,0.068,2.605,1.436,3.389
	c0.265,0.152,0.479,0.449,0.831,0.256c0.38-0.207,0.854-0.424,0.849-0.898C29.837,764.095,29.862,763.04,29.077,762.194z
	 M26.322,773.013c-0.772,0.551-0.762,0.846-0.025,1.393c0.679,0.504,1.383,0.982,2.204,1.207c0.863,0.236,1.772,0.264,2.67,0.236
	c0.222-0.006,0.509-0.111,0.561-0.404c0.04-0.229-0.126-0.365-0.295-0.494c-1.306-1.006-2.795-1.643-4.402-2.045
	C26.783,772.843,26.537,772.837,26.322,773.013z M29.251,761.774c0.288,0.275,0.385,0.852,0.932,0.766
	c0.479-0.074,0.976-0.352,1.089-0.818c0.243-1.004,0.629-2.041-0.103-3.033c-0.175-0.236-0.223-0.66-0.606-0.598
	c-0.517,0.082-1.265,0.031-1.436,0.564C28.803,759.671,28.166,760.772,29.251,761.774z M42.6,749.368
	c0.491-0.34,0.689-1.068,0.305-1.285c-0.586-0.332-1.143-0.732-1.869-0.809c-0.837-0.09-1.552,0.275-2.295,0.508
	c-0.459,0.143-0.521,1.48-0.134,1.725C39.425,750.024,41.77,749.942,42.6,749.368z M46.053,747.919
	c0.438-0.299,0.437-0.721,0.068-1.1c-1.015-1.047-2.217-1.592-3.734-1.482c-0.472,0.033-0.81,0.102-0.948,0.59
	c-0.143,0.5-0.104,0.873,0.435,1.172c1.116,0.613,2.299,0.928,3.577,0.939C45.66,748.04,45.873,748.06,46.053,747.919z
	 M33.157,758.989c1.026-0.74,1.453-2.445,0.912-3.445c-0.045-0.086-0.111-0.18-0.194-0.223c-0.419-0.215-1.642,0.115-1.866,0.533
	c-0.268,0.502-0.505,1.021-0.71,1.549c-0.154,0.398,0.278,1.66,0.636,1.82C32.41,759.435,32.811,759.118,33.157,758.989z
	 M39.085,752.237c0.221-0.156,0.441-0.281,0.624-0.443c0.338-0.303,0.489-1.24,0.254-1.449c-0.335-0.297-1.79-0.49-2.23-0.258
	c-0.476,0.25-0.948,0.518-1.382,0.83c-0.577,0.414-0.4,1.02-0.3,1.566c0.092,0.5,0.559,0.377,0.917,0.416
	C37.789,752.991,38.485,752.72,39.085,752.237z M49.197,746.401c-0.857-1.16-1.261-1.447-3.05-2.131
	c-0.302-0.115-0.664-0.43-0.914,0.055c-0.226,0.436-0.435,0.867,0.128,1.281c0.61,0.445,1.195,0.91,1.845,1.316
	c0.662,0.412,1.367,0.674,2.08,0.945c0.17,0.064,0.397,0.055,0.52-0.111c0.132-0.178,0.101-0.393-0.021-0.57
	C49.599,746.919,49.394,746.663,49.197,746.401z M36.562,756.192c0.606-0.695,1.525-1.268,1.305-2.43
	c-0.035-0.186-0.04-0.346-0.264-0.432c-0.696-0.268-1.673-0.033-2.165,0.531c-0.202,0.23-0.419,0.451-0.621,0.684
	c-0.38,0.438-0.421,1.52,0.029,1.914c0.437,0.385,0.938,0.074,1.393-0.115C36.334,756.306,36.427,756.257,36.562,756.192z
	 M31.876,763.048c-0.161-0.168-0.304-0.629-0.778-0.467c-0.398,0.135-0.914,0.289-0.922,0.797c-0.02,1.109-0.056,2.248,1.07,2.99
	c0.232,0.152,0.401,0.457,0.752,0.277c0.342-0.176,0.673-0.408,0.672-0.813C32.667,764.882,32.62,763.931,31.876,763.048z
	 M31.398,766.972c-0.276-0.246-0.561-0.482-0.825-0.74c-0.262-0.254-0.522-0.303-0.828-0.074c-0.31,0.232-0.691,0.408-0.536,0.906
	c0.363,1.164,0.855,2.229,2.112,2.758c0.242,0.104,0.47,0.348,0.74,0.145c0.3-0.225,0.419-0.553,0.308-0.92
	C32.145,768.313,31.894,767.591,31.398,766.972z M32.157,762.774c0.574,0.9,1.221,0.926,1.594,0.045
	c0.368-0.867,0.615-1.813,0.1-2.736c-0.135-0.242-0.131-0.68-0.572-0.604c-0.441,0.076-1.043,0.113-1.164,0.582
	C31.88,760.979,31.303,761.952,32.157,762.774z M29.861,771.265c0.497,0.916,1.529,1.332,2.617,1.67
	c0.197,0.061,0.406,0.164,0.565-0.061c0.166-0.234,0.228-0.49,0.032-0.73c-0.798-0.979-1.599-1.953-2.795-2.531
	c-0.359-0.174-0.626-0.143-0.895,0.129c-0.284,0.285-0.259,0.568-0.022,0.863C29.502,770.78,29.633,770.964,29.861,771.265z
	 M44.193,751.573c0.721-0.52,0.657-0.852,0.042-1.242c-1.118-0.711-2.211-0.381-3.303-0.021c-0.469,0.154-0.328,0.648-0.415,1.004
	c-0.047,0.193-0.005,0.365,0.217,0.443C41.965,752.196,43.146,751.993,44.193,751.573z M50.938,747.767
	c0.5,0.459,0.998,0.92,1.5,1.375c0.094,0.086,0.212,0.143,0.343,0.09c0.129-0.053,0.105-0.16,0.064-0.258
	c-0.486-1.162-0.957-2.34-1.82-3.301c-0.409-0.455-0.904-0.838-1.371-1.242c-0.161-0.139-0.31-0.391-0.579-0.246
	c-0.262,0.141-0.316,0.404-0.311,0.684c0.006,0.26,0.164,0.445,0.284,0.658C49.536,746.388,50.376,746.966,50.938,747.767z
	 M35.483,760.206c0.728-0.52,1.235-2.139,0.952-2.965c-0.104-0.303-0.273-0.404-0.601-0.379c-1.288,0.102-2.246,1.744-1.721,2.971
	C34.43,760.575,34.819,760.681,35.483,760.206z M41.299,753.806c0.177-0.088,0.282-0.238,0.384-0.393
	c0.461-0.693,0.338-0.996-0.481-1.182c-0.986-0.225-2.226,0.219-2.822,1.02c-0.267,0.359-0.241,0.781-0.119,1.162
	c0.122,0.383,0.526,0.234,0.819,0.258C39.97,754.745,40.58,754.142,41.299,753.806z M47.539,750.362
	c0.338-0.227,0.366-0.408,0.112-0.68c-0.997-1.064-2.286-1.344-3.701-1.281c-0.448,0.02-0.471,0.391-0.581,0.689
	c-0.12,0.328,0.078,0.471,0.334,0.617c0.884,0.512,1.862,0.689,2.865,0.787C46.899,750.526,47.241,750.577,47.539,750.362z
	 M38.522,757.526c0.482-0.537,1.269-1.051,1.219-2.057c-0.009-0.182,0.022-0.361-0.216-0.451c-0.509-0.188-1.367-0.014-1.749,0.387
	c-0.284,0.297-0.561,0.602-0.823,0.916c-0.27,0.324-0.299,1.324,0.006,1.539c0.408,0.289,0.829,0.082,1.215-0.135
	C38.246,757.685,38.318,757.644,38.522,757.526z M33.431,766.497c0.026,0.027,0.122,0.17,0.255,0.26
	c0.271,0.18,0.413,0.666,0.848,0.467c0.452-0.207,0.493-0.652,0.478-1.096c-0.027-0.777-0.174-1.52-0.652-2.168
	c-0.16-0.217-0.241-0.563-0.634-0.471c-0.387,0.092-0.752,0.311-0.771,0.701C32.92,764.944,32.853,765.726,33.431,766.497z
	 M34.717,763.878c0.416,0.563,0.825,0.555,1.179-0.16c0.379-0.766,0.475-1.59,0.192-2.412c-0.091-0.264-0.091-0.689-0.484-0.697
	c-0.419-0.006-0.878,0.146-1.042,0.559C34.213,762.046,33.973,762.948,34.717,763.878z M34.097,767.769
	c-0.125-0.375-0.451-0.58-0.723-0.822c-0.168-0.15-0.338-0.426-0.63-0.215c-0.279,0.201-0.619,0.402-0.505,0.822
	c0.274,1.01,0.656,1.959,1.708,2.475c0.228,0.111,0.438,0.395,0.725,0.182c0.303-0.225,0.325-0.57,0.192-0.883
	C34.637,768.794,34.547,768.192,34.097,767.769z M34.919,775.347c0.186-0.32-0.028-0.49-0.237-0.66
	c-0.804-0.652-1.771-1.039-2.689-1.504c-0.329-0.168-0.703-0.258-1.061-0.367c-0.327-0.1-0.504,0.09-0.646,0.34
	c-0.119,0.211-0.097,0.373,0.109,0.525c1.244,0.92,2.593,1.596,4.197,1.674C34.694,775.36,34.798,775.351,34.919,775.347z
	 M50.882,750.132c-0.802-1.137-1.869-1.934-3.21-2.393c-0.302-0.104-0.572-0.258-0.809,0.125c-0.221,0.357-0.113,0.582,0.19,0.826
	c0.95,0.768,2.004,1.363,3.141,1.828c0.133,0.055,0.278,0.096,0.42,0.107c0.14,0.012,0.308,0.025,0.39-0.127
	C51.085,750.349,50.983,750.229,50.882,750.132z M37.41,761.204c0.65-0.455,1.139-1.857,0.946-2.619
	c-0.094-0.367-0.311-0.422-0.646-0.371c-0.974,0.146-1.813,1.652-1.459,2.633C36.514,761.577,36.767,761.655,37.41,761.204z
	 M42.563,752.438c-0.288,0.246-0.407,0.572-0.366,0.922c0.039,0.324,0.378,0.256,0.602,0.318c0.772,0.219,1.522,0.047,2.272-0.133
	c0.331-0.078,0.642-0.193,0.858-0.459c0.151-0.184,0.235-0.363-0.031-0.561C45.112,751.94,43.33,751.884,42.563,752.438z
	 M40.824,754.481c-0.193,0.152-0.414,0.283-0.572,0.465c-0.33,0.377-0.262,1.107,0.085,1.195c0.853,0.219,2.644-0.658,2.973-1.447
	c0.142-0.34,0.116-0.525-0.317-0.66C42.155,753.769,41.48,754.017,40.824,754.481z M35.194,771.718
	c-0.5-0.633-1.069-1.266-1.851-1.691c-0.257-0.141-0.485-0.24-0.74-0.02c-0.26,0.225-0.291,0.49-0.114,0.762
	c0.52,0.791,1.12,1.521,2.06,1.867c0.359,0.133,0.794,0.607,1.111,0.25C36.052,772.442,35.451,772.116,35.194,771.718z
	 M48.855,751.979c-0.895-0.951-2.055-1.189-3.31-1.141c-0.327,0.014-0.512,0.26-0.579,0.559c-0.064,0.287,0.176,0.375,0.377,0.484
	c0.917,0.49,1.927,0.615,2.948,0.682c0.157,0.01,0.33-0.059,0.479-0.123C49.022,752.333,49.052,752.163,48.855,751.979z
	 M40.138,758.706c0.392-0.465,1.099-0.871,1.185-1.705c0.038-0.375-0.095-0.545-0.511-0.58c-1.001-0.084-1.437,0.635-1.941,1.234
	c-0.355,0.422-0.328,1.025-0.023,1.359C39.162,759.36,39.65,759.021,40.138,758.706z M36.852,764.735
	c0.323,0.416,0.591,0.105,0.739-0.154c0.467-0.82,0.618-1.693,0.275-2.604c-0.135-0.357-0.357-0.461-0.725-0.275
	c-0.291,0.146-0.508,0.338-0.622,0.639C36.198,763.188,36.192,763.995,36.852,764.735z M35.805,767.165
	c0.175,0.164,0.32,0.586,0.729,0.518c0.307-0.053,0.417-0.4,0.433-0.678c0.044-0.813-0.026-1.613-0.542-2.307
	c-0.14-0.188-0.26-0.467-0.572-0.373c-0.314,0.094-0.604,0.322-0.589,0.639C35.295,765.694,35.175,766.472,35.805,767.165z
	 M36.137,768.013c-0.13-0.156-0.254-0.318-0.391-0.469c-0.177-0.193-0.349-0.449-0.671-0.285c-0.305,0.156-0.465,0.439-0.36,0.762
	c0.274,0.846,0.56,1.697,1.422,2.189c0.203,0.115,0.401,0.387,0.659,0.207c0.27-0.186,0.228-0.514,0.14-0.779
	C36.744,769.065,36.557,768.485,36.137,768.013z M39.112,762.022c0.496-0.553,0.935-1.262,0.891-2.17
	c-0.024-0.5-0.295-0.607-0.76-0.465c-0.775,0.24-1.414,1.598-1.131,2.438C38.311,762.415,38.468,762.466,39.112,762.022z
	 M42.425,755.923c-0.44,0.271-0.834,0.535-0.818,1.088c0.007,0.232,0.077,0.367,0.349,0.402c0.689,0.088,2.204-0.617,2.548-1.207
	c0.269-0.461,0.187-0.629-0.367-0.742C43.471,755.325,42.907,755.542,42.425,755.923z M51.492,752.12
	c-0.512-0.656-1.377-1.227-2.508-1.664c-0.264-0.102-0.546-0.283-0.771,0.066c-0.223,0.346,0.044,0.518,0.28,0.688
	c0.764,0.549,1.546,1.07,2.424,1.443c0.288,0.121,0.653,0.352,0.869,0.117C52.028,752.507,51.548,752.333,51.492,752.12z
	 M46.782,754.884c0.277-0.225,0.653-0.369,0.27-0.686c-0.629-0.516-2.374-0.492-3.035,0.016c-0.358,0.273-0.416,0.846-0.082,0.926
	C44.939,755.384,45.911,755.237,46.782,754.884z M35.483,771.478c0.432,0.654,1.075,1.051,1.787,1.357
	c0.181,0.078,0.41,0.258,0.574,0.09c0.199-0.207,0.029-0.453-0.096-0.66c-0.372-0.615-0.891-1.117-1.461-1.543
	c-0.318-0.24-0.68-0.844-1.129-0.443C34.697,770.688,35.234,771.104,35.483,771.478z M41.567,759.661
	c0.28-0.252,0.708-0.609,0.974-1.102c0.135-0.252,0.29-0.557,0.079-0.793c-0.212-0.238-0.55-0.117-0.827-0.045
	c-0.657,0.17-1.008,0.699-1.376,1.178c-0.269,0.35-0.293,0.842,0.004,1.125c0.274,0.26,0.653-0.037,0.948-0.225
	C41.386,759.788,41.403,759.776,41.567,759.661z M37.455,774.671c-1.018-0.762-2.164-1.367-3.406-1.803
	c-0.207-0.074-0.367-0.004-0.459,0.199c-0.076,0.168-0.067,0.316,0.093,0.432c1.079,0.775,2.192,1.48,3.59,1.578
	c0.097,0.006,0.244,0.008,0.287-0.049C37.645,774.919,37.542,774.804,37.455,774.671z M37.622,776.642
	c-0.188-0.256-0.393-0.238-0.564-0.291c-0.675-0.205-1.432-0.193-2.052-0.432c-0.704-0.273-1.415-0.311-2.119-0.457
	c-0.277-0.059-0.593,0.051-0.644,0.346c-0.053,0.303,0.292,0.299,0.493,0.35 M49.736,753.747c-0.455-0.551-2.292-1.127-2.997-0.922
	c-0.265,0.078-0.431,0.26-0.47,0.518c-0.037,0.244,0.203,0.275,0.363,0.35c0.822,0.387,1.713,0.502,2.609,0.584
	c0.138,0.012,0.289-0.043,0.424-0.09C49.911,754.099,49.923,753.948,49.736,753.747z M53.4,752.071
	c0.046-0.025,0.092-0.053,0.138-0.08c-0.076-0.182-0.142-0.367-0.229-0.545c-0.577-1.172-1.391-2.172-2.404-3.021
	c-0.197-0.166-0.399-0.473-0.68-0.24c-0.265,0.219-0.038,0.48,0.119,0.695s0.363,0.404,0.479,0.637
	c0.216,0.432,0.781,0.5,0.988,0.877C52.201,751.099,52.868,751.517,53.4,752.071z M37.726,767.649
	c0.149,0.125,0.237,0.484,0.571,0.385c0.359-0.107,0.375-0.459,0.381-0.76c0.014-0.652-0.125-1.281-0.411-1.873
	c-0.1-0.207-0.181-0.506-0.505-0.445c-0.305,0.059-0.545,0.271-0.558,0.582C37.173,766.263,37.174,766.995,37.726,767.649z
	 M38.443,765.161c0.247,0.383,0.549,0.389,0.769-0.061c0.331-0.68,0.528-1.406,0.298-2.166c-0.06-0.197-0.057-0.479-0.359-0.508
	c-0.247-0.023-0.431,0.131-0.587,0.301C38.057,763.28,37.999,764.472,38.443,765.161z M40.336,762.905
	c0.602-0.439,1.103-1.557,1.047-2.234c-0.025-0.301-0.129-0.4-0.476-0.377c-0.732,0.051-1.677,1.82-1.155,2.549
	C39.974,763.151,40.162,763.021,40.336,762.905z M37.479,769.87c0.085,0.193,0.257,0.369,0.478,0.492
	c0.205,0.113,0.402,0.422,0.643,0.242c0.244-0.182,0.195-0.518,0.092-0.791c-0.243-0.643-0.485-1.289-1-1.789
	c-0.161-0.156-0.271-0.49-0.583-0.293c-0.251,0.158-0.408,0.43-0.288,0.736C37.003,768.935,37.117,769.435,37.479,769.87z
	 M44.882,757.942c0.327-0.227,0.602-0.383,0.766-0.652c0.116-0.188,0.17-0.365-0.113-0.49c-0.663-0.293-2.281,0.355-2.533,1.027
	c-0.199,0.531,0.011,0.783,0.596,0.652C44.082,758.372,44.565,758.224,44.882,757.942z M47.76,756.198
	c0.426-0.283,0.472-0.473,0.063-0.668c-0.873-0.42-1.716-0.189-2.548,0.105c-0.224,0.078-0.296,0.328-0.312,0.561
	c-0.012,0.178,0.118,0.248,0.271,0.279C46.15,756.663,47.015,756.481,47.76,756.198z M42.805,760.593
	c0.31-0.447,0.894-0.791,1.021-1.457c0.06-0.314-0.025-0.439-0.384-0.418c-0.733,0.045-1.131,0.535-1.544,1.014
	c-0.293,0.34-0.422,0.803-0.155,1.109C42.06,761.204,42.398,760.757,42.805,760.593z M39.287,772.015
	c-0.403-0.563-0.869-0.994-1.38-1.377c-0.176-0.131-0.39-0.426-0.638-0.18c-0.233,0.23-0.117,0.52,0.056,0.775
	c0.347,0.516,0.801,0.934,1.299,1.299c0.3,0.221,0.775,0.588,1.018,0.357C39.913,772.632,39.433,772.274,39.287,772.015z
	 M52.555,754.579c-0.633-1.041-1.608-1.592-2.675-2.027c-0.23-0.096-0.473-0.082-0.617,0.135c-0.162,0.242,0.07,0.367,0.232,0.479
	c0.776,0.537,1.595,1.008,2.461,1.398C52.126,754.642,52.306,754.696,52.555,754.579z M39.194,767.905
	c0.255,0.102,0.323,0.559,0.667,0.424c0.29-0.113,0.279-0.467,0.27-0.752c-0.02-0.568-0.113-1.123-0.355-1.645
	c-0.091-0.197-0.174-0.451-0.469-0.404c-0.256,0.041-0.386,0.26-0.412,0.482C38.817,766.659,38.88,767.294,39.194,767.905z
	 M39.886,765.63c0.334,0.469,0.549,0.271,0.683,0.023c0.324-0.604,0.479-1.246,0.313-1.926c-0.05-0.205-0.034-0.492-0.315-0.535
	c-0.271-0.041-0.465,0.164-0.616,0.355C39.574,764.03,39.592,765.251,39.886,765.63z M50.563,755.335
	c-0.434-0.521-2.145-1.031-2.792-0.832c-0.194,0.061-0.338,0.178-0.362,0.377c-0.025,0.209,0.168,0.262,0.313,0.33
	c0.728,0.344,1.526,0.404,2.311,0.508c0.139,0.02,0.291-0.018,0.43-0.053C50.669,755.612,50.766,755.511,50.563,755.335z
	 M41.607,763.55c0.58-0.551,0.935-1.211,0.988-2.008c0.031-0.457-0.205-0.514-0.583-0.352c-0.639,0.271-1.198,1.545-0.972,2.18
	C41.154,763.687,41.321,763.741,41.607,763.55z M39.751,774.919c-0.075-0.293-0.233-0.441-0.424-0.578
	c-0.79-0.566-1.678-0.959-2.56-1.363c-0.16-0.072-0.366-0.199-0.496,0.025c-0.124,0.213,0.009,0.393,0.186,0.521
	C37.427,774.231,38.445,774.837,39.751,774.919z M39.224,770.116c0.105,0.197,0.293,0.355,0.503,0.492
	c0.131,0.088,0.254,0.256,0.438,0.145c0.169-0.104,0.124-0.293,0.096-0.445c-0.13-0.711-0.502-1.318-0.911-1.904
	c-0.126-0.182-0.309-0.391-0.566-0.256c-0.246,0.129-0.298,0.385-0.207,0.639C38.739,769.241,38.88,769.71,39.224,770.116z
	 M45.969,758.843c0.254-0.123,0.478-0.303,0.642-0.541c0.101-0.145,0.135-0.283-0.078-0.396c-0.663-0.348-2.323,0.475-2.431,1.195
	c-0.05,0.332,0.09,0.379,0.378,0.344C45.032,759.378,45.51,759.151,45.969,758.843z M43.75,761.433
	c0.396-0.34,0.84-0.707,1.044-1.26c0.169-0.457,0.036-0.602-0.465-0.486c-0.687,0.154-1.074,0.666-1.393,1.207
	c-0.132,0.225-0.246,0.578,0.04,0.771C43.234,761.841,43.476,761.595,43.75,761.433z M46.26,756.938
	c-0.103,0.107-0.24,0.238-0.245,0.436c-0.004,0.158,0.127,0.201,0.251,0.221c0.87,0.129,1.709,0.023,2.501-0.354
	c0.254-0.121,0.276-0.277,0.007-0.439C48.268,756.499,46.768,756.562,46.26,756.938z M41.197,772.997
	c-0.052-0.705-1.319-2.271-1.903-2.365c-0.43-0.068-0.381,0.277-0.279,0.471C39.479,771.989,40.194,772.62,41.197,772.997z
	 M42.877,763.979c0.369-0.445,0.725-1.006,0.768-1.701c0.026-0.426-0.196-0.484-0.549-0.336c-0.48,0.203-1.036,1.441-0.886,1.936
	C42.321,764.245,42.51,764.278,42.877,763.979z M40.692,768.308c0.138,0.082,0.177,0.389,0.42,0.34
	c0.273-0.057,0.247-0.354,0.272-0.559c0.072-0.596-0.104-1.16-0.311-1.713c-0.063-0.166-0.175-0.346-0.411-0.299
	c-0.208,0.043-0.334,0.217-0.338,0.396C40.313,767.091,40.235,767.729,40.692,768.308z M54.063,754.251
	c-0.144-0.799-0.698-1.359-1.138-1.973c-0.281-0.391-0.693-0.695-1.061-1.025c-0.147-0.131-0.342-0.338-0.54-0.186
	c-0.238,0.182,0.034,0.35,0.128,0.506c0.083,0.139,0.228,0.248,0.291,0.393c0.185,0.428,0.752,0.451,0.946,0.832
	C53.002,753.417,53.618,753.751,54.063,754.251z M48.371,756.368c0.286,0.307,2.411,0.68,2.756,0.529
	c0.266-0.117,0.164-0.23,0.014-0.346c-0.416-0.318-0.89-0.514-1.415-0.584c-0.367-0.049-0.743-0.176-1.104-0.004
	C48.451,756.044,48.218,756.144,48.371,756.368z M49.315,758.37c0.277-0.184,0.498-0.285,0.167-0.492
	c-0.422-0.262-1.932-0.182-2.306,0.139c-0.127,0.109-0.229,0.244-0.205,0.42c0.017,0.121,0.132,0.156,0.235,0.168
	C47.968,758.687,48.706,758.603,49.315,758.37z M53.21,756.163c-0.647-0.883-1.514-1.381-2.452-1.785
	c-0.178-0.076-0.399-0.125-0.517,0.055c-0.166,0.25,0.095,0.365,0.256,0.465c0.51,0.313,1.026,0.617,1.558,0.893
	C52.393,755.966,52.721,756.21,53.21,756.163z M38.48,773.378c0.757,0.668,1.665,1.055,2.646,1.299
	c0.081,0.02,0.182,0.033,0.22-0.055c0.06-0.139-0.048-0.223-0.15-0.293c-0.763-0.529-1.588-0.953-2.426-1.357
	c-0.122-0.059-0.288-0.139-0.392,0.023C38.287,773.138,38.392,773.263,38.48,773.378z M41.85,768.587
	c0.135,0.15,0.205,0.35,0.391,0.328c0.242-0.031,0.226-0.275,0.245-0.436c0.071-0.609-0.042-1.197-0.298-1.76
	c-0.058-0.127-0.1-0.291-0.276-0.287c-0.196,0.004-0.298,0.158-0.318,0.32C41.516,767.397,41.517,768.034,41.85,768.587z
	 M39.703,776.05c-0.399-0.107-0.8-0.213-1.199-0.324c-0.277-0.076-0.586,0.121-0.848-0.096c-0.442-0.367-1.008-0.352-1.536-0.449
	c-0.152-0.027-0.371-0.088-0.418,0.133c-0.045,0.209,0.169,0.256,0.322,0.303C37.215,775.974,38.43,776.19,39.703,776.05z
	 M41.989,770.567c0.015,0.018,0.068,0.111,0.149,0.17c0.161,0.115,0.321,0.363,0.521,0.25c0.193-0.109,0.084-0.373,0.041-0.563
	c-0.119-0.52-0.463-0.939-0.714-1.4c-0.084-0.156-0.201-0.361-0.425-0.266c-0.228,0.096-0.229,0.328-0.154,0.527
	C41.563,769.7,41.674,770.136,41.989,770.567z M51.976,757.929c-0.761-0.684-1.543-0.785-2.346-0.814
	c-0.17-0.006-0.33,0.086-0.414,0.238c-0.063,0.115,0.025,0.207,0.127,0.232C50.154,757.796,50.954,758.104,51.976,757.929z
	 M53.504,757.376c-0.522-0.822-1.357-1.207-2.223-1.541c-0.076-0.031-0.218,0.008-0.283,0.063c-0.104,0.09-0.016,0.191,0.068,0.248
	C51.817,756.663,52.577,757.167,53.504,757.376z M40.143,772.864c0.041,0.191,0.03,0.287,0.075,0.334
	c0.649,0.688,1.492,1.064,2.386,1.352c0.077,0.025,0.189,0.033,0.21-0.064c0.013-0.063-0.029-0.168-0.082-0.205
	C41.946,773.743,41.142,773.235,40.143,772.864z M54.518,756.042c0.045-0.037,0.09-0.074,0.135-0.111
	c-0.653-1.016-1.316-2.023-2.398-2.654c-0.062,0.055-0.123,0.107-0.184,0.162C52.887,754.308,53.703,755.175,54.518,756.042z"/>
<text transform="matrix(0.953 0 0 1 52.6504 775.7451)" fill="#FFFFFF" font-family="'BlackOpsOne-Regular'" font-size="23.6949">CARBON</text>
<text transform="matrix(1 0 0 1 22.0815 813.7451)" fill="#FFFFFF" font-family="'HelveticaNeue'" font-size="12">Desarrollado bajo la licencia MIT</text>
<path fill="#FFFFFF" d="M1031.383,746.036c9.816,0,18.688,3.973,25.121,10.406c6.433,6.432,10.406,15.303,10.406,25.119
	s-3.974,18.688-10.406,25.121s-15.305,10.406-25.121,10.406c-9.816,0-18.688-3.973-25.12-10.406s-10.406-15.305-10.406-25.121
	s3.974-18.688,10.406-25.119C1012.695,750.009,1021.567,746.036,1031.383,746.036L1031.383,746.036z M1054.556,758.409
	c-5.94-5.922-14.125-9.602-23.173-9.602c-9.048,0-17.232,3.68-23.153,9.602c-5.921,5.92-9.6,14.104-9.6,23.152
	s3.678,17.232,9.6,23.174c5.921,5.922,14.105,9.58,23.153,9.58c9.049,0,17.233-3.658,23.173-9.58
	c5.921-5.941,9.581-14.125,9.581-23.174S1060.478,764.329,1054.556,758.409L1054.556,758.409z"/>
<path fill="#FFFFFF" d="M1121.734,746.036c9.815,0,18.708,3.973,25.12,10.406c6.434,6.432,10.406,15.303,10.406,25.119
	s-3.973,18.688-10.406,25.121c-6.412,6.434-15.305,10.406-25.12,10.406c-9.796,0-18.688-3.973-25.121-10.406
	c-6.433-6.434-10.406-15.305-10.406-25.121s3.974-18.688,10.406-25.119C1103.047,750.009,1111.938,746.036,1121.734,746.036
	L1121.734,746.036z M1144.907,758.409c-5.94-5.922-14.124-9.602-23.173-9.602c-9.029,0-17.232,3.68-23.153,9.602
	c-5.922,5.92-9.6,14.104-9.6,23.152s3.678,17.232,9.6,23.174c5.92,5.922,14.124,9.58,23.153,9.58c9.049,0,17.232-3.658,23.173-9.58
	c5.922-5.941,9.58-14.125,9.58-23.174S1150.829,764.329,1144.907,758.409L1144.907,758.409z"/>
<path fill-rule="evenodd" clip-rule="evenodd" fill="#FFFFFF" d="M1034.098,774.304v-2.912c0-1.396,0.924-1.73,1.594-1.73
	c0.649,0,4.072,0,4.072,0v-6.217h-5.606c-6.235,0-7.632,4.604-7.632,7.594v3.266h-3.62v4.387v2.871h3.659c0,8.242,0,18.139,0,18.139
	h7.259c0,0,0-10.033,0-18.139h5.37l0.236-2.852l0.433-4.406H1034.098z"/>
<path fill-rule="evenodd" clip-rule="evenodd" fill="#FFFFFF" d="M1112.646,781.562c0-5.016,4.072-9.107,9.089-9.107
	c5.036,0,9.108,4.092,9.108,9.107c0,5.035-4.072,9.109-9.108,9.109C1116.718,790.671,1112.646,786.597,1112.646,781.562
	L1112.646,781.562z M1131.138,763.759h-18.786c-4.623,0-8.42,3.777-8.42,8.42v18.787c0,4.621,3.797,8.418,8.42,8.418h18.786
	c4.643,0,8.419-3.797,8.419-8.418v-18.787C1139.557,767.536,1135.78,763.759,1131.138,763.759L1131.138,763.759z M1112.352,765.864
	h18.786c3.482,0,6.314,2.832,6.314,6.314v18.787c0,3.48-2.832,6.313-6.314,6.313h-18.786c-3.483,0-6.315-2.832-6.315-6.313v-18.787
	C1106.037,768.696,1108.868,765.864,1112.352,765.864L1112.352,765.864z M1133.007,768.521c-1.023,0-1.85,0.826-1.85,1.848
	c0,1.023,0.826,1.85,1.85,1.85c1.022,0,1.849-0.826,1.849-1.85C1134.855,769.347,1134.029,768.521,1133.007,768.521
	L1133.007,768.521z M1133.222,781.562c0-6.334-5.133-11.488-11.487-11.488c-6.335,0-11.488,5.154-11.488,11.488
	c0,6.355,5.153,11.488,11.488,11.488C1128.089,793.05,1133.222,787.917,1133.222,781.562L1133.222,781.562z"/>
<text transform="matrix(1 0 0 1 245.2188 813.7451)" fill="#FFFFFF" font-family="'HelveticaNeue'" font-size="12">Términos y condiciones</text>
<text transform="matrix(1 0 0 1 404.002 813.7451)" fill="#FFFFFF" font-family="'HelveticaNeue'" font-size="12">Preguntas frecuentes</text>
<text transform="matrix(1 0 0 1 556.002 813.7451)" fill="#FFFFFF" font-family="'HelveticaNeue'" font-size="12">Pólítica de privacidad</text>
<path fill="#231F20" d="M206.719,51.686l-6,12v-18h6c0-0.82,0.295-1.525,0.885-2.115c0.59-0.589,1.295-0.885,2.115-0.885h9
	c0.819,0,1.524,0.295,2.114,0.885c0.59,0.59,0.886,1.295,0.886,2.115h15v6H206.719z M245.719,54.686l-9,21h-36l9-21H245.719z"/>
<path fill="#231F20" d="M400.583,42.326c2.739-1.6,5.729-2.4,8.97-2.4s6.229,0.8,8.97,2.4s4.91,3.77,6.511,6.51
	c1.6,2.741,2.399,5.73,2.399,8.97s-0.8,6.23-2.399,8.97c-1.601,2.74-3.771,4.91-6.511,6.51c-2.74,1.6-5.729,2.4-8.97,2.4
	s-6.23-0.8-8.97-2.4c-2.74-1.6-4.91-3.77-6.511-6.51c-1.6-2.74-2.399-5.73-2.399-8.97s0.8-6.229,2.399-8.97
	C395.673,46.096,397.843,43.926,400.583,42.326z M418.328,49.031c-2.431-2.43-5.355-3.645-8.775-3.645s-6.345,1.215-8.775,3.645
	c-2.43,2.43-3.645,5.355-3.645,8.775s1.215,6.345,3.645,8.775c2.431,2.43,5.355,3.645,8.775,3.645s6.345-1.215,8.775-3.645
	c2.43-2.43,3.645-5.355,3.645-8.775S420.758,51.461,418.328,49.031z M417.053,57.806h-4.5v9h-6v-9h-4.5l7.5-9L417.053,57.806z"/>
<text transform="matrix(1 0 0 1 256.502 54.5195)"><tspan x="0" y="0" fill="#FFFFFF" font-family="'HelveticaNeue'" font-size="18">Búsqueda </tspan><tspan x="0" y="26" fill="#FFFFFF" font-family="'HelveticaNeue'" font-size="18">por carpetas</tspan></text>
<text transform="matrix(1 0 0 1 437.0522 54.5195)"><tspan x="0" y="0" fill="#FFFFFF" font-family="'HelveticaNeue'" font-size="18">Subir </tspan><tspan x="0" y="26" fill="#FFFFFF" font-family="'HelveticaNeue'" font-size="18">Material</tspan></text>
<path fill="#231F20" d="M567.649,65.457l9,9c0.139,0.16,0.209,0.34,0.209,0.54c0,0.2-0.07,0.38-0.209,0.54l-3.271,3.27
	c-0.161,0.14-0.341,0.21-0.54,0.21c-0.2,0-0.381-0.07-0.54-0.21l-9-9c-2.38,1.56-4.99,2.34-7.83,2.34
	c-4.001,0-7.421-1.42-10.26-4.26c-2.841-2.84-4.261-6.26-4.261-10.26c0-4,1.42-7.42,4.261-10.26c2.839-2.84,6.259-4.26,10.26-4.26
	c4,0,7.42,1.42,10.261,4.26c2.839,2.84,4.26,6.26,4.26,10.26C569.989,60.467,569.209,63.077,567.649,65.457z M548.448,50.637
	c-1.939,1.94-2.91,4.27-2.91,6.99c0,2.72,0.971,5.05,2.91,6.99c1.94,1.94,4.28,2.91,7.021,2.91c2.739,0,5.075-0.964,7.005-2.895
	c1.93-1.93,2.895-4.265,2.895-7.005c0-2.74-0.965-5.075-2.895-7.005c-1.93-1.93-4.266-2.895-7.005-2.895
	C552.729,47.727,550.389,48.697,548.448,50.637z"/>
<text transform="matrix(1 0 0 1 588.3911 55.8062)"><tspan x="0" y="0" fill="#FFFFFF" font-family="'HelveticaNeue'" font-size="18">Búsqueda </tspan><tspan x="0" y="26" fill="#FFFFFF" font-family="'HelveticaNeue'" font-size="18">Avanzada</tspan></text>
<path fill="#231F20" d="M750.002,61.846h-6v18h-9v-12h-9v12h-9v-18h-6l19.681-19.32L750.002,61.846z"/>
<text transform="matrix(1 0 0 1 762.002 56.8062)"><tspan x="0" y="0" fill="#FFFFFF" font-family="'HelveticaNeue'" font-size="18">Ranking </tspan><tspan x="0" y="26" fill="#FFFFFF" font-family="'HelveticaNeue'" font-size="18">Universidades</tspan></text>
<path fill="#231F20" d="M934.858,284.697v25.5c0,0.42-0.15,0.775-0.45,1.064c-0.3,0.291-0.649,0.436-1.05,0.436h-4.5v-12h-21v12
	h-4.5c-0.42,0-0.775-0.145-1.064-0.436c-0.291-0.289-0.436-0.645-0.436-1.064v-30c0-0.4,0.145-0.75,0.436-1.051
	c0.289-0.299,0.645-0.449,1.064-0.449h7.5v9h15v-9h3L934.858,284.697z M922.858,278.697h-3v6h3V278.697z"/>
<path fill="#231F20" d="M76.758,292.197h12v20.25c0,0.22-0.07,0.4-0.21,0.54c-0.14,0.14-0.32,0.21-0.54,0.21h-25.5
	c-0.221,0-0.4-0.07-0.54-0.21c-0.14-0.14-0.21-0.32-0.21-0.54v-34.5c0-0.22,0.07-0.4,0.21-0.54c0.14-0.14,0.319-0.21,0.54-0.21
	h14.25V292.197z M88.758,289.197h-9v-9L88.758,289.197z"/>
<path fill="#231F20" d="M76.758,367.194h12v20.25c0,0.22-0.07,0.4-0.21,0.54c-0.14,0.14-0.32,0.21-0.54,0.21h-25.5
	c-0.221,0-0.4-0.07-0.54-0.21c-0.14-0.14-0.21-0.32-0.21-0.54v-34.5c0-0.22,0.07-0.4,0.21-0.54c0.14-0.14,0.319-0.21,0.54-0.21
	h14.25V367.194z M88.758,364.194h-9v-9L88.758,364.194z"/>
<path fill="#231F20" d="M76.758,441h12v20.25c0,0.22-0.07,0.4-0.21,0.54c-0.14,0.14-0.32,0.21-0.54,0.21h-25.5
	c-0.221,0-0.4-0.07-0.54-0.21c-0.14-0.14-0.21-0.32-0.21-0.54v-34.5c0-0.22,0.07-0.4,0.21-0.54c0.14-0.14,0.319-0.21,0.54-0.21
	h14.25V441z M88.758,438h-9v-9L88.758,438z"/>
<path fill="#231F20" d="M76.758,515.197h12v20.25c0,0.22-0.07,0.4-0.21,0.54c-0.14,0.14-0.32,0.21-0.54,0.21h-25.5
	c-0.221,0-0.4-0.07-0.54-0.21c-0.14-0.14-0.21-0.32-0.21-0.54v-34.5c0-0.22,0.07-0.4,0.21-0.54c0.14-0.14,0.319-0.21,0.54-0.21
	h14.25V515.197z M88.758,512.197h-9v-9L88.758,512.197z"/>
<text transform="matrix(1 0 0 1 109.7583 307.1968)" fill="#010101" font-family="'ArialMT'" font-size="30">Clase 0 Introducción</text>
<text transform="matrix(1 0 0 1 109.7583 384.1968)" fill="#010101" font-family="'ArialMT'" font-size="30">Clase 1 Metodologías Ágiles</text>
<text transform="matrix(1 0 0 1 109.7583 458)" fill="#010101" font-family="'ArialMT'" font-size="30">Clase 2 Introducción a OMT ++</text>
<text transform="matrix(1 0 0 1 110.7583 530)" fill="#010101" font-family="'ArialMT'" font-size="30">Clase 3 Análisis OMT ++</text>
<text transform="matrix(1 0 0 1 58.7578 255.8081)" fill="#D65677" font-family="'ArialMT'" font-size="30">Archivos</text>
<text transform="matrix(1 0 0 1 583.8584 257.8081)" fill="#D65677" font-family="'ArialMT'" font-size="30">Descargado por</text>
<text transform="matrix(1 0 0 1 901.8584 256.8081)" fill="#D65677" font-family="'ArialMT'" font-size="30">Acciones</text>
<path fill="#231F20" d="M934.858,360.697v25.5c0,0.42-0.15,0.775-0.45,1.064c-0.3,0.291-0.649,0.436-1.05,0.436h-4.5v-12h-21v12
	h-4.5c-0.42,0-0.775-0.145-1.064-0.436c-0.291-0.289-0.436-0.645-0.436-1.064v-30c0-0.4,0.145-0.75,0.436-1.051
	c0.289-0.299,0.645-0.449,1.064-0.449h7.5v9h15v-9h3L934.858,360.697z M922.858,354.697h-3v6h3V354.697z"/>
<path fill="#231F20" d="M934.858,433.5V459c0,0.42-0.15,0.775-0.45,1.064c-0.3,0.291-0.649,0.436-1.05,0.436h-4.5v-12h-21v12h-4.5
	c-0.42,0-0.775-0.145-1.064-0.436c-0.291-0.289-0.436-0.645-0.436-1.064v-30c0-0.4,0.145-0.75,0.436-1.051
	c0.289-0.299,0.645-0.449,1.064-0.449h7.5v9h15v-9h3L934.858,433.5z M922.858,427.5h-3v6h3V427.5z"/>
<path fill="#231F20" d="M934.858,507.697v25.5c0,0.42-0.15,0.775-0.45,1.064c-0.3,0.291-0.649,0.436-1.05,0.436h-4.5v-12h-21v12
	h-4.5c-0.42,0-0.775-0.145-1.064-0.436c-0.291-0.289-0.436-0.645-0.436-1.064v-30c0-0.4,0.145-0.75,0.436-1.051
	c0.289-0.299,0.645-0.449,1.064-0.449h7.5v9h15v-9h3L934.858,507.697z M922.858,501.697h-3v6h3V501.697z"/>
<path fill="#231F20" d="M979.063,311.246c-1.061,0.301-2.061,0.451-3,0.451h-9c-3.3,0-6.125-1.175-8.475-3.526
	c-2.351-2.35-3.525-5.175-3.525-8.475v-9c0-3.3,1.175-6.125,3.525-8.475c2.35-2.351,5.175-3.525,8.475-3.525l2.79,0.06
	c1.86,0.041,3.79,0.096,5.79,0.165c2,0.07,3.14,0.146,3.42,0.226v5.55h-15c-0.82,0-1.525,0.295-2.115,0.885
	c-0.59,0.591-0.885,1.295-0.885,2.115v15c0,0.82,0.295,1.525,0.885,2.115s1.295,0.885,2.115,0.885h15V311.246z M994.063,295.196
	l-12-10.5v6h-9v9h9v6L994.063,295.196z"/>
<path fill="#231F20" d="M979.063,387.246c-1.061,0.301-2.061,0.451-3,0.451h-9c-3.3,0-6.125-1.175-8.475-3.526
	c-2.351-2.35-3.525-5.175-3.525-8.475v-9c0-3.3,1.175-6.125,3.525-8.475c2.35-2.351,5.175-3.525,8.475-3.525l2.79,0.06
	c1.86,0.041,3.79,0.096,5.79,0.165c2,0.07,3.14,0.146,3.42,0.226v5.55h-15c-0.82,0-1.525,0.295-2.115,0.885
	c-0.59,0.591-0.885,1.295-0.885,2.115v15c0,0.82,0.295,1.525,0.885,2.115s1.295,0.885,2.115,0.885h15V387.246z M994.063,371.196
	l-12-10.5v6h-9v9h9v6L994.063,371.196z"/>
<path fill="#231F20" d="M979.063,460.049c-1.061,0.301-2.061,0.451-3,0.451h-9c-3.3,0-6.125-1.175-8.475-3.526
	c-2.351-2.35-3.525-5.175-3.525-8.475v-9c0-3.3,1.175-6.125,3.525-8.475c2.35-2.351,5.175-3.525,8.475-3.525l2.79,0.06
	c1.86,0.041,3.79,0.096,5.79,0.165c2,0.07,3.14,0.146,3.42,0.226v5.55h-15c-0.82,0-1.525,0.295-2.115,0.885
	c-0.59,0.591-0.885,1.295-0.885,2.115v15c0,0.82,0.295,1.525,0.885,2.115s1.295,0.885,2.115,0.885h15V460.049z M994.063,444
	l-12-10.5v6h-9v9h9v6L994.063,444z"/>
<path fill="#231F20" d="M979.063,534.246c-1.061,0.301-2.061,0.451-3,0.451h-9c-3.3,0-6.125-1.175-8.475-3.526
	c-2.351-2.35-3.525-5.175-3.525-8.475v-9c0-3.3,1.175-6.125,3.525-8.475c2.35-2.351,5.175-3.525,8.475-3.525l2.79,0.06
	c1.86,0.041,3.79,0.096,5.79,0.165c2,0.07,3.14,0.146,3.42,0.226v5.55h-15c-0.82,0-1.525,0.295-2.115,0.885
	c-0.59,0.591-0.885,1.295-0.885,2.115v15c0,0.82,0.295,1.525,0.885,2.115s1.295,0.885,2.115,0.885h15V534.246z M994.063,518.196
	l-12-10.5v6h-9v9h9v6L994.063,518.196z"/>
<path fill="#231F20" d="M1025.873,272.698c6.076,0,11.567,2.459,15.549,6.44c3.981,3.982,6.441,9.473,6.441,15.549
	s-2.459,11.567-6.441,15.549s-9.473,6.441-15.549,6.441s-11.567-2.459-15.549-6.441s-6.441-9.473-6.441-15.549
	s2.459-11.567,6.441-15.549C1014.305,275.157,1019.797,272.698,1025.873,272.698L1025.873,272.698z M1040.216,280.356
	c-3.677-3.666-8.743-5.942-14.343-5.942s-10.666,2.277-14.331,5.942c-3.665,3.665-5.942,8.73-5.942,14.331
	c0,5.601,2.277,10.666,5.942,14.343c3.665,3.665,8.73,5.93,14.331,5.93s10.666-2.265,14.343-5.93
	c3.665-3.677,5.93-8.742,5.93-14.343C1046.146,289.086,1043.881,284.021,1040.216,280.356L1040.216,280.356z"/>
<path fill-rule="evenodd" clip-rule="evenodd" fill="#231F20" d="M1027.553,290.194v-1.802c0-0.864,0.572-1.071,0.987-1.071
	c0.401,0,2.52,0,2.52,0v-3.848h-3.47c-3.859,0-4.724,2.849-4.724,4.7v2.021h-2.241v2.715v1.778h2.265c0,5.102,0,11.227,0,11.227
	h4.494c0,0,0-6.21,0-11.227h3.324l0.146-1.765l0.268-2.728H1027.553z"/>
<path fill="#231F20" d="M1026.118,349.208c6.076,0,11.567,2.459,15.549,6.44c3.981,3.982,6.441,9.473,6.441,15.549
	s-2.459,11.567-6.441,15.549s-9.473,6.441-15.549,6.441s-11.567-2.459-15.549-6.441s-6.441-9.473-6.441-15.549
	s2.459-11.567,6.441-15.549C1014.551,351.667,1020.042,349.208,1026.118,349.208L1026.118,349.208z M1040.461,356.866
	c-3.677-3.666-8.743-5.942-14.343-5.942s-10.666,2.277-14.331,5.942c-3.665,3.665-5.942,8.73-5.942,14.331
	c0,5.601,2.277,10.666,5.942,14.343c3.665,3.665,8.73,5.93,14.331,5.93s10.666-2.265,14.343-5.93
	c3.665-3.677,5.93-8.742,5.93-14.343C1046.392,365.596,1044.126,360.531,1040.461,356.866L1040.461,356.866z"/>
<path fill-rule="evenodd" clip-rule="evenodd" fill="#231F20" d="M1027.798,366.704v-1.802c0-0.864,0.572-1.071,0.987-1.071
	c0.401,0,2.52,0,2.52,0v-3.848h-3.47c-3.859,0-4.724,2.849-4.724,4.7v2.021h-2.241v2.715v1.778h2.265c0,5.102,0,11.227,0,11.227
	h4.494c0,0,0-6.21,0-11.227h3.324l0.146-1.765l0.268-2.728H1027.798z"/>
<path fill="#231F20" d="M1025.873,423.011c6.076,0,11.567,2.459,15.549,6.44c3.981,3.982,6.441,9.473,6.441,15.549
	s-2.459,11.567-6.441,15.549s-9.473,6.441-15.549,6.441s-11.567-2.459-15.549-6.441s-6.441-9.473-6.441-15.549
	s2.459-11.567,6.441-15.549C1014.305,425.47,1019.797,423.011,1025.873,423.011L1025.873,423.011z M1040.216,430.669
	c-3.677-3.666-8.743-5.942-14.343-5.942s-10.666,2.277-14.331,5.942c-3.665,3.665-5.942,8.73-5.942,14.331
	c0,5.601,2.277,10.666,5.942,14.343c3.665,3.665,8.73,5.93,14.331,5.93s10.666-2.265,14.343-5.93
	c3.665-3.677,5.93-8.742,5.93-14.343C1046.146,439.399,1043.881,434.334,1040.216,430.669L1040.216,430.669z"/>
<path fill-rule="evenodd" clip-rule="evenodd" fill="#231F20" d="M1027.553,440.507v-1.802c0-0.864,0.572-1.071,0.987-1.071
	c0.401,0,2.52,0,2.52,0v-3.848h-3.47c-3.859,0-4.724,2.849-4.724,4.7v2.021h-2.241v2.715V445h2.265c0,5.102,0,11.227,0,11.227h4.494
	c0,0,0-6.21,0-11.227h3.324l0.146-1.765l0.268-2.728H1027.553z"/>
<path fill="#231F20" d="M1025.873,496.207c6.076,0,11.567,2.459,15.549,6.44c3.981,3.982,6.441,9.473,6.441,15.549
	s-2.459,11.567-6.441,15.549s-9.473,6.441-15.549,6.441s-11.567-2.459-15.549-6.441s-6.441-9.473-6.441-15.549
	s2.459-11.567,6.441-15.549C1014.305,498.666,1019.797,496.207,1025.873,496.207L1025.873,496.207z M1040.216,503.866
	c-3.677-3.666-8.743-5.942-14.343-5.942s-10.666,2.277-14.331,5.942c-3.665,3.665-5.942,8.73-5.942,14.331
	c0,5.601,2.277,10.666,5.942,14.343c3.665,3.665,8.73,5.93,14.331,5.93s10.666-2.265,14.343-5.93
	c3.665-3.677,5.93-8.742,5.93-14.343C1046.146,512.596,1043.881,507.53,1040.216,503.866L1040.216,503.866z"/>
<path fill-rule="evenodd" clip-rule="evenodd" fill="#231F20" d="M1027.553,513.704v-1.802c0-0.864,0.572-1.071,0.987-1.071
	c0.401,0,2.52,0,2.52,0v-3.848h-3.47c-3.859,0-4.724,2.849-4.724,4.7v2.021h-2.241v2.715v1.778h2.265c0,5.102,0,11.227,0,11.227
	h4.494c0,0,0-6.21,0-11.227h3.324l0.146-1.765l0.268-2.728H1027.553z"/>
<path fill="#231F20" d="M603.849,298.632l4.35,13.47l-11.52-8.25l-11.461,8.25l4.381-13.41l-11.641-8.4h14.37l4.38-12h0.061
	l4.379,12h14.16L603.849,298.632z"/>
<path fill="#231F20" d="M603.849,374.638l4.35,13.47l-11.52-8.25l-11.461,8.25l4.381-13.41l-11.641-8.4h14.37l4.38-12h0.061
	l4.379,12h14.16L603.849,374.638z"/>
<path fill="#231F20" d="M603.849,452.417l4.35,13.47l-11.52-8.25l-11.461,8.25l4.381-13.41l-11.641-8.4h14.37l4.38-12h0.061
	l4.379,12h14.16L603.849,452.417z"/>
<path fill="#231F20" d="M603.849,521.631l4.35,13.47l-11.52-8.25l-11.461,8.25l4.381-13.41l-11.641-8.4h14.37l4.38-12h0.061
	l4.379,12h14.16L603.849,521.631z"/>
<text transform="matrix(1 0 0 1 624.7583 307.1968)" fill="#010101" font-family="'ArialMT'" font-size="30">143 Usuarios</text>
<text transform="matrix(1 0 0 1 624.7583 382.4233)" fill="#010101" font-family="'ArialMT'" font-size="30">143 Usuarios</text>
<text transform="matrix(1 0 0 1 624.7583 462)" fill="#010101" font-family="'ArialMT'" font-size="30">143 Usuarios</text>
<text transform="matrix(1 0 0 1 626.7583 530)" fill="#010101" font-family="'ArialMT'" font-size="30">143 Usuarios</text>
</svg>
