<?xml version="1.0" encoding="utf-8"?>
<!-- Generator: Adobe Illustrator 16.0.0, SVG Export Plug-In . SVG Version: 6.00 Build 0)  -->
<!DOCTYPE svg PUBLIC "-//W3C//DTD SVG 1.1//EN" "http://www.w3.org/Graphics/SVG/1.1/DTD/svg11.dtd">
<svg version="1.1" id="Layer_1" xmlns="http://www.w3.org/2000/svg" xmlns:xlink="http://www.w3.org/1999/xlink" x="0px" y="0px"
	 width="1190.55px" height="842px" viewBox="0 0 1190.55 842" enable-background="new 0 0 1190.55 842" xml:space="preserve">
<rect fill="#DEDEDD" width="1190.547" height="841.999"/>
<g>
	<g>
		<path fill="#FFFFFF" d="M749.026,564.877c0,2.761-2.238,5-5,5h-312c-2.762,0-5-2.239-5-5v-303c0-2.761,2.238-5,5-5h312
			c2.762,0,5,2.239,5,5V564.877z"/>
	</g>
	<g>
		<g>
			<path fill="#ECECEC" d="M712.026,378.377c0,3.038-2.462,5.5-5.5,5.5h-240c-3.038,0-5.5-2.462-5.5-5.5v-33
				c0-3.038,2.462-5.5,5.5-5.5h240c3.038,0,5.5,2.462,5.5,5.5V378.377z"/>
			<path fill="#FFFFFF" d="M711.026,378.877c0,2.761-2.238,5-5,5h-240c-2.762,0-5-2.239-5-5v-33c0-2.761,2.238-5,5-5h240
				c2.762,0,5,2.239,5,5V378.877z"/>
			<path fill="#CDCCCC" d="M706.383,339.877c2.75,0,4.644,2.381,4.644,5.131v33c0,2.75-1.894,4.869-4.644,4.869h-240
				c-2.75,0-5.357-2.119-5.357-4.869v-33c0-2.75,2.607-5.131,5.357-5.131h239.643 M706.383,338.877h-240
				c-3.309,0-6.357,2.822-6.357,6.131v33c0,3.309,3.048,5.869,6.357,5.869h240c3.309,0,5.644-2.561,5.644-5.869v-33
				C712.026,341.699,709.691,338.877,706.383,338.877L706.383,338.877z"/>
		</g>
		<g>
			<path fill="#CDCCCC" d="M509.026,383.877h-42.143c-2.762,0-4.857-2.607-4.857-5.369v-33c0-2.762,2.095-4.631,4.857-4.631h42.143
				V383.877z"/>
			<path fill="#EFEEEE" d="M508.026,383.877h-42.143c-2.762,0-4.857-2.607-4.857-5.369v-33c0-2.762,2.095-4.631,4.857-4.631h42.143
				V383.877z"/>
		</g>
		<text transform="matrix(1 0 0 1 522.8833 368.5078)" fill="#989898" font-family="'HelveticaNeue'" font-size="18">Email</text>
		<path fill="#989898" d="M485.285,363.949l-8.401-8.441h16.799L485.285,363.949z M476.883,358.307v8.4l4.2-4.199L476.883,358.307z
			 M485.285,366.707l-2.803-2.801l-5.599,5.602h16.799l-5.598-5.602L485.285,366.707z M489.482,362.508l4.2,4.199v-8.4
			L489.482,362.508z"/>
	</g>
	<g>
		<g>
			<path fill="#ECECEC" d="M712.026,430.377c0,3.038-2.462,5.5-5.5,5.5h-240c-3.038,0-5.5-2.462-5.5-5.5v-33
				c0-3.038,2.462-5.5,5.5-5.5h240c3.038,0,5.5,2.462,5.5,5.5V430.377z"/>
			<path fill="#FFFFFF" d="M711.026,430.877c0,2.761-2.238,5-5,5h-240c-2.762,0-5-2.239-5-5v-33c0-2.761,2.238-5,5-5h240
				c2.762,0,5,2.239,5,5V430.877z"/>
			<path fill="#CDCCCC" d="M706.383,391.877c2.75,0,4.644,2.381,4.644,5.131v33c0,2.75-1.894,4.869-4.644,4.869h-240
				c-2.75,0-5.357-2.119-5.357-4.869v-33c0-2.75,2.607-5.131,5.357-5.131h239.643 M706.383,390.877h-240
				c-3.309,0-6.357,2.822-6.357,6.131v33c0,3.309,3.048,5.869,6.357,5.869h240c3.309,0,5.644-2.561,5.644-5.869v-33
				C712.026,393.699,709.691,390.877,706.383,390.877L706.383,390.877z"/>
		</g>
		<g>
			<path fill="#CDCCCC" d="M509.026,435.877h-42.143c-2.762,0-4.857-2.607-4.857-5.369v-33c0-2.762,2.095-4.631,4.857-4.631h42.143
				V435.877z"/>
			<path fill="#EFEEEE" d="M508.026,435.877h-42.143c-2.762,0-4.857-2.607-4.857-5.369v-33c0-2.762,2.095-4.631,4.857-4.631h42.143
				V435.877z"/>
		</g>
		<text transform="matrix(1 0 0 1 522.8833 420.5078)" fill="#989898" font-family="'HelveticaNeue'" font-size="18">Password</text>
		<path fill="#989898" d="M492.883,416.107h-4.144l2.928,2.928l-2.256,2.256l-2.929-2.928v4.145h-3.199v-4.145l-2.929,2.928
			l-2.256-2.256l2.928-2.928h-4.144v-3.201h4.144l-2.928-2.928l2.256-2.256l2.929,2.928v-4.143h3.199v4.143l2.929-2.928l2.256,2.256
			l-2.928,2.928h4.144V416.107z"/>
	</g>
	<text transform="matrix(1 0 0 1 532.856 305.5078)" fill="#010101" font-family="'ArialMT'" font-size="18">Iniciar Sesión</text>
	<g>
		<g>
			<path fill="#D65677" d="M713.026,532.877c0,2.761-2.238,5-5,5h-240c-2.762,0-5-2.239-5-5v-33c0-2.761,2.238-5,5-5h240
				c2.762,0,5,2.239,5,5V532.877z"/>
		</g>
		<text transform="matrix(1 0 0 1 565.3989 522.5078)" fill="#FFFFFF" font-family="'HelveticaNeue-Bold'" font-size="18">Entrar</text>
	</g>
</g>
<linearGradient id="SVGID_1_" gradientUnits="userSpaceOnUse" x1="443.5244" y1="199.1465" x2="528.2427" y2="199.1465">
	<stop  offset="0" style="stop-color:#FFFFFF"/>
	<stop  offset="0.5376" style="stop-color:#000000"/>
</linearGradient>
<path fill-rule="evenodd" clip-rule="evenodd" fill="url(#SVGID_1_)" d="M498.84,230.966c-0.335-0.134-0.676-0.258-1.005-0.405
	c-0.211-0.093-0.429-0.232-0.641-0.079c-0.248,0.179-0.277,0.478-0.137,0.699c1.021,1.611,2.163,3.11,4.382,3.79
	c-0.122-1.06-0.809-1.618-1.266-2.29c-0.41-0.601-1.285-0.893-1.347-1.721c0.742-0.263,0.542-0.853,0.43-1.303
	c-0.31-1.241-0.831-2.427-1.668-3.45c-0.286-0.351-0.618-1.018-1.291-0.636c-0.545,0.31-0.404,0.871-0.238,1.385
	C496.571,228.54,497.546,229.845,498.84,230.966z M474.711,173.509c2.615-0.789,2.877-2.671,2.318-4.903
	c-0.145-0.579-0.19-1.182-0.239-1.776c-0.078-0.942-0.556-1.578-1.517-1.959c-1.705-0.676-3.396-1.385-5.076-2.11
	c-0.993-0.428-1.934-0.294-2.764,0.25c-1.547,1.015-3.123,1.999-4.491,3.232c-0.742,0.669-1.011,1.382-0.711,2.305
	c0.465,1.43,0.902,2.869,1.333,4.308c0.155,0.52,0.389,1.052,0.954,1.185C467.931,174.84,471.414,176.774,474.711,173.509z
	 M449.115,191.56c-0.007,0.005-0.015,0.01-0.022,0.015c0.436,0.551,0.869,1.104,1.308,1.652c1.432,1.789,7.111,1.485,8.339-0.446
	c0.023-0.037,0.042-0.076,0.066-0.112c1.867-2.818,2.748-5.658,0.34-8.633c-0.379-0.469-0.553-1.074-0.854-1.602
	c-0.368-0.645-0.922-1.038-1.761-1.061c-1.666-0.045-3.331-0.119-4.997-0.178c-0.939-0.033-1.583,0.363-1.955,1.149
	c-0.719,1.522-1.446,3.041-2.155,4.566c-0.516,1.112-0.395,2.147,0.459,3.103C448.324,190.507,448.707,191.043,449.115,191.56z
	 M486.839,162.652c1.511,0.969,3.25,2.272,5.176,3.272c2.304,1.197,4.93,0.884,7.464,0.849c0.204-0.003,0.439-0.134,0.604-0.266
	c1.035-0.829,1.418-4.159,0.511-5.136c-1.415-1.522-2.911-2.982-4.39-4.453c-0.407-0.405-0.896-0.679-1.48-0.902
	c-2.408-0.917-4.85-0.243-7.271-0.204c-0.708,0.011-1.068,0.628-1.116,1.29c-0.096,1.319-0.174,2.639-0.264,3.958
	C486.038,161.565,486.324,161.955,486.839,162.652z M454.796,215.486c0.48-0.223,0.925-0.582,0.887-1.06
	c-0.151-1.848,0.173-3.752-0.787-5.511c-1.093-2.003-3.099-3.239-4.724-4.792c-0.376-0.36-1.009-0.42-1.584-0.253
	c-1.238,0.361-2.471,0.739-3.714,1.086c-1.001,0.28-1.407,0.896-1.343,1.829c0.106,1.533,0.159,3.069,0.314,4.597
	c0.087,0.857,0.427,1.677,1.22,2.213c1.532,1.037,3.101,2.028,4.646,3.049c0.713,0.471,1.463,0.524,2.233,0.18
	C452.904,216.396,453.846,215.934,454.796,215.486z M461.887,186.473c0.384,0.487,0.825,0.808,1.511,0.809
	c1.159,0,2.32,0.068,3.477,0.031c0.842-0.026,1.71-0.274,2.272-0.822c2.25-2.193,4.571-4.41,2.67-7.819
	c-0.082-0.147-0.103-0.328-0.128-0.496c-0.138-0.884-0.753-1.323-1.648-1.501c-1.54-0.307-3.078-0.626-4.623-0.913
	c-1.136-0.211-2.066,0.045-2.776,0.977c-0.798,1.045-1.672,2.042-2.553,3.031c-0.592,0.665-0.735,1.385-0.386,2.147
	C460.402,183.446,461.155,184.955,461.887,186.473z M491.099,172.381c1.557-0.973,1.753-4.316,0.315-5.325
	c-1.546-1.084-3.148-2.111-4.807-3.042c-0.857-0.48-1.893-0.645-2.923-0.3c-1.394,0.465-2.779,0.957-4.19,1.372
	c-0.859,0.252-1.179,0.768-1.148,1.528c0.019,0.467,0.082,0.934,0.134,1.399c0.511,4.561-0.078,3.34,4.322,5.172
	C485.814,174.44,488.463,173.207,491.099,172.381z M459.296,196.234c-0.378-0.9-1.391-1.112-2.694-0.856
	c-1.041,0.205-2.112,0.276-3.168,0.421c-0.835,0.115-1.537,0.444-1.725,1.268c-0.342,1.501-0.658,3.009-0.928,4.523
	c-0.135,0.754,0.2,1.448,0.742,1.991c1.191,1.193,2.441,2.337,3.66,3.506c0.375,0.36,0.829,0.535,1.363,0.552
	c2.242,0.073,4.237-1.286,4.743-3.27c0.221-0.87,0.376-1.756,0.534-2.64c0.156-0.874-0.09-1.71-0.522-2.464
	C460.762,198.326,460.104,197.443,459.296,196.234z M475.608,174.592c-0.803,0.537-1.438,0.967-2.081,1.387
	c-0.625,0.408-0.969,0.993-0.831,1.652c0.253,1.209,0.613,2.402,0.987,3.586c0.13,0.414,0.502,0.74,0.986,0.835
	c2.581,0.504,5.188,1.222,7.504-0.715c0.303-0.253,0.69-0.439,1.069-0.591c1.329-0.531,1.858-1.451,1.714-2.757
	c-0.07-0.634-0.072-1.276-0.094-1.915c-0.015-0.443-0.083-0.963-0.516-1.128c-2.022-0.774-3.91-1.997-6.258-1.792
	C476.938,173.254,476.396,174.289,475.608,174.592z M461.298,197.38c0.616,0.584,0.749,1.58,1.685,1.939
	c0.804,0.309,4.514-0.606,5.119-1.22c2.169-2.205,2.376-6.646,0.428-9.137c-0.259-0.331-0.624-0.491-1.042-0.58
	c-3.73-0.797-5.331-0.053-6.836,3.179c-0.018,0.039-0.03,0.081-0.054,0.117C459.289,193.729,459.342,195.644,461.298,197.38z
	 M451.879,231.657c0.54,0.563,1.014,1.433,1.916,2.042c2.272,1.531,5.023,1.638,7.592,2.241c1.359,0.319,3.464-1.781,2.884-2.728
	c-0.815-1.329-1.765-2.61-2.971-3.682c-1.768-1.57-4.077-2.299-6.219-3.286c-0.981-0.452-1.844-0.289-2.725,0.287
	c-2.938,1.917-2.951,1.913-0.863,4.638C451.574,231.273,451.657,231.375,451.879,231.657z M461.517,220.169
	c-0.741-1.351-2.412-2.054-3.762-3.067c-1.119-0.84-5.154,0.352-5.639,1.607c-0.045,0.117-0.091,0.266-0.052,0.375
	c0.622,1.728,0.844,3.638,2.141,5.076c1.627,1.803,4.069,2.479,6.348,3.251c1.434,0.486,3.612-1.303,3.192-2.546
	C463.217,223.304,462.897,221.622,461.517,220.169z M511.485,167.364c-1.849-2.26-4.744-3.038-7.592-3.889
	c-0.276-0.082-0.544-0.017-0.776,0.168c-0.795,0.631-1.231,3.741-0.549,4.447c2.8,2.897,6.078,5.167,10.151,6.351
	c1.087,0.316,1.89-0.135,2.001-1.128c0.073-0.651-0.071-1.269-0.455-1.834C513.357,170.142,512.456,168.802,511.485,167.364z
	 M463.975,210.384c-2.75-3.168-3.065-3.26-6.153-1.926c-0.167,0.073-0.34,0.14-0.492,0.235c-0.359,0.225-0.676,0.544-0.668,0.929
	c0.037,1.855-0.186,3.745,0.69,5.512c0.782,1.574,2.545,2.166,3.861,3.198c1.254,0.984,4.404-0.241,4.386-1.768
	C465.572,214.354,465.868,211.989,463.975,210.384z M477,191.901c2.482-1.69,3.465-4.093,2.763-6.816
	c-0.198-0.768-0.628-1.224-1.476-1.297c-5.019-0.437-4.237-1.298-7.374,2.467c-0.028,0.034-0.061,0.064-0.09,0.098
	c-1.253,1.426-0.746,5.135,0.858,6.219c0.144,0.098,0.33,0.201,0.498,0.202C473.8,192.786,475.434,192.842,477,191.901z
	 M493.718,172.591c0.098,0.076,0.264,0.226,0.451,0.35c2.974,1.97,6.251,3.022,9.961,2.854c0.897-0.041,1.362-0.445,1.623-1.147
	c0.281-0.755,0.739-1.523-0.089-2.251c-1.172-1.031-2.283-2.127-3.515-3.094c-2.321-1.822-5.147-1.231-7.835-1.238
	c-0.143,0-0.303,0.179-0.425,0.301C493.187,169.063,493.039,171.786,493.718,172.591z M462.737,207.495
	c0.97,1.047,1.719,1.858,2.471,2.667c0.356,0.383,0.816,0.617,1.354,0.461c1.669-0.487,3.244-1.018,3.423-3.033
	c0.06-0.676,0.217-1.348,0.367-2.015c0.478-2.128-0.843-3.737-2.087-5.201c-0.963-1.134-2.414,0.08-3.655,0.066
	c-0.045,0-0.09,0.019-0.136,0.025c-1.01,0.143-1.522,0.682-1.65,1.616c-0.144,1.056-0.344,2.106-0.57,3.15
	C462.046,206.184,462.358,206.99,462.737,207.495z M496.963,179.561c1.164-0.758,1.671-2.833,0.688-3.481
	c-2.428-1.601-4.787-3.273-8.218-2.011c-3.381,1.243-3.458,1.065-3.101,4.392c0.019,0.169,0.038,0.339,0.072,0.506
	c0.065,0.308,0.256,0.518,0.555,0.69C489.465,181.092,494.68,181.049,496.963,179.561z M483.067,182.013
	c-0.263,0.174-0.524,0.349-0.787,0.525c-1.664,1.11-2.142,3.256-1.089,4.849c0.182,0.275,0.45,0.436,0.773,0.497
	c1.588,0.301,3.208,0.647,4.766,0.008c0.918-0.376,1.718-0.994,2.593-1.467c1.425-0.77,2.237-2.796,1.662-4.184
	c-0.11-0.265-0.299-0.438-0.564-0.521C487.93,180.927,485.416,179.754,483.067,182.013z M470.672,202.317
	c0.249,0.269,0.474,0.853,1.031,0.803c1.476-0.135,3.069-0.287,3.959-1.528c1.6-2.226,2.38-4.611,0.878-7.198
	c-0.154-0.264-0.25-0.543-0.561-0.699c-0.763-0.383-4.021,0.059-4.646,0.638C468.972,196.521,468.682,199.67,470.672,202.317z
	 M465.241,225.081c1.006,1.404,2.731,1.866,4.154,2.717c0.716,0.429,1.359,0.388,2.042-0.094c0.709-0.5,0.989-1.094,0.768-1.892
	c-0.792-2.862-2.387-5.219-5.07-6.921c-0.763-0.484-1.421-0.311-2.035,0.135c-0.686,0.498-1.956,0.73-1.668,1.796
	C463.829,222.297,464.35,223.768,465.241,225.081z M483.485,195.756c1.125-1.242,3.303-2.642,2.547-5.343
	c-0.133-0.475-0.271-0.882-0.813-1.1c-2.164-0.87-4.178-0.44-5.704,1.238c-0.387,0.425-0.778,0.846-1.159,1.275
	c-0.963,1.087-0.827,3.957,0.232,4.969c0.204,0.195,0.461,0.296,0.75,0.274C480.627,196.973,481.952,197.005,483.485,195.756z
	 M463.99,230.923c1.6,2.926,4.771,3.431,7.745,4.228c0.686,0.184,1.126-0.193,1.513-0.674c0.43-0.534,0.327-1.001-0.037-1.524
	c-1.786-2.571-4.045-4.64-7.135-5.878c-1.208-0.484-2.254-0.252-3.206,0.768c-0.813,0.871-0.102,1.489,0.385,2.147
	C463.49,230.308,463.744,230.612,463.99,230.923z M471.614,212.271c-0.333-0.355-0.659-0.714-1-1.063
	c-0.555-0.568-1.187-0.773-1.983-0.392c-0.917,0.439-2.197,0.564-2.207,1.835c-0.023,2.774,0.152,5.496,3.18,7.15
	c0.586,0.321,1.06,0.949,1.838,0.541c0.842-0.44,1.891-0.896,1.88-1.899C473.297,216.282,473.351,214.057,471.614,212.271z
	 M465.513,235.099c-1.709,1.162-1.688,1.783-0.055,2.939c1.503,1.065,3.063,2.071,4.88,2.546c1.911,0.5,3.924,0.56,5.911,0.502
	c0.492-0.015,1.128-0.238,1.241-0.855c0.088-0.483-0.28-0.77-0.654-1.044c-2.892-2.121-6.189-3.465-9.747-4.312
	C466.535,234.742,465.989,234.727,465.513,235.099z M471.999,211.383c0.637,0.582,0.853,1.797,2.063,1.618
	c1.062-0.157,2.161-0.745,2.412-1.729c0.538-2.118,1.392-4.306-0.228-6.399c-0.388-0.501-0.494-1.394-1.342-1.264
	c-1.145,0.174-2.801,0.067-3.178,1.192C471.006,206.948,469.596,209.27,471.999,211.383z M501.556,185.204
	c1.087-0.717,1.525-2.254,0.674-2.712c-1.298-0.697-2.531-1.542-4.137-1.706c-1.854-0.188-3.438,0.582-5.082,1.071
	c-1.017,0.303-1.155,3.127-0.297,3.643C494.525,186.59,499.719,186.417,501.556,185.204z M509.201,182.149
	c0.971-0.631,0.967-1.521,0.151-2.322c-2.249-2.21-4.909-3.357-8.268-3.129c-1.046,0.071-1.793,0.217-2.1,1.244
	c-0.315,1.055-0.23,1.846,0.963,2.473c2.471,1.298,5.091,1.96,7.92,1.983C508.33,182.402,508.803,182.445,509.201,182.149z
	 M480.648,205.508c2.272-1.564,3.217-5.159,2.019-7.272c-0.102-0.179-0.247-0.378-0.43-0.468c-0.929-0.454-3.636,0.245-4.131,1.126
	c-0.593,1.058-1.119,2.154-1.572,3.269c-0.341,0.838,0.615,3.5,1.409,3.838C478.992,206.447,479.881,205.78,480.648,205.508z
	 M493.774,191.258c0.49-0.327,0.976-0.591,1.38-0.935c0.749-0.637,1.083-2.617,0.562-3.057c-0.742-0.626-3.962-1.033-4.938-0.545
	c-1.054,0.528-2.099,1.094-3.059,1.752c-1.279,0.876-0.887,2.153-0.664,3.305c0.204,1.056,1.237,0.796,2.03,0.881
	C490.903,192.853,492.445,192.279,493.774,191.258z M516.163,178.947c-1.896-2.449-2.792-3.054-6.754-4.5
	c-0.668-0.244-1.469-0.905-2.023,0.117c-0.499,0.919-0.964,1.831,0.285,2.703c1.35,0.942,2.646,1.922,4.084,2.777
	c1.465,0.872,3.026,1.425,4.605,1.996c0.376,0.136,0.879,0.114,1.15-0.234c0.293-0.375,0.223-0.828-0.047-1.203
	C517.053,180.036,516.598,179.497,516.163,178.947z M488.187,199.607c1.343-1.467,3.377-2.678,2.889-5.129
	c-0.077-0.389-0.089-0.729-0.585-0.91c-1.541-0.563-3.705-0.071-4.793,1.12c-0.448,0.49-0.928,0.956-1.375,1.446
	c-0.841,0.922-0.932,3.207,0.063,4.039c0.967,0.809,2.078,0.153,3.083-0.244C487.683,199.844,487.887,199.742,488.187,199.607z
	 M477.813,214.073c-0.356-0.355-0.672-1.329-1.724-0.987c-0.881,0.286-2.022,0.609-2.042,1.682c-0.043,2.34-0.125,4.743,2.368,6.309
	c0.514,0.323,0.889,0.965,1.666,0.585c0.757-0.371,1.49-0.859,1.488-1.714C479.564,217.941,479.459,215.934,477.813,214.073z
	 M476.752,222.353c-0.61-0.519-1.242-1.019-1.827-1.562c-0.58-0.539-1.156-0.642-1.833-0.159c-0.686,0.49-1.531,0.861-1.186,1.915
	c0.804,2.457,1.894,4.701,4.676,5.819c0.537,0.216,1.041,0.735,1.64,0.306c0.663-0.475,0.929-1.167,0.681-1.942
	C478.407,225.184,477.851,223.659,476.752,222.353z M478.434,213.496c1.271,1.9,2.703,1.953,3.53,0.093
	c0.814-1.829,1.361-3.825,0.222-5.774c-0.299-0.51-0.292-1.431-1.266-1.271c-0.978,0.16-2.31,0.237-2.578,1.229
	C477.819,209.708,476.543,211.76,478.434,213.496z M473.35,231.412c1.099,1.933,3.386,2.81,5.795,3.521
	c0.435,0.128,0.899,0.346,1.25-0.127c0.367-0.492,0.504-1.034,0.071-1.539c-1.768-2.066-3.541-4.122-6.189-5.343
	c-0.795-0.367-1.388-0.302-1.982,0.271c-0.628,0.605-0.573,1.2-0.049,1.825C472.556,230.389,472.846,230.774,473.35,231.412z
	 M505.083,189.86c1.597-1.096,1.456-1.797,0.092-2.623c-2.476-1.5-4.896-0.805-7.313-0.045c-1.038,0.326-0.727,1.368-0.919,2.119
	c-0.104,0.407-0.01,0.769,0.48,0.937C500.151,191.175,502.765,190.744,505.083,189.86z M520.019,181.825
	c1.106,0.969,2.209,1.941,3.321,2.905c0.207,0.18,0.47,0.298,0.759,0.186c0.285-0.111,0.232-0.337,0.143-0.541
	c-1.078-2.453-2.119-4.938-4.031-6.966c-0.904-0.959-2.002-1.769-3.036-2.621c-0.356-0.294-0.686-0.826-1.282-0.519
	c-0.58,0.298-0.7,0.853-0.687,1.44c0.012,0.548,0.362,0.942,0.628,1.39C516.913,178.915,518.774,180.137,520.019,181.825z
	 M485.799,208.073c1.61-1.096,2.734-4.512,2.107-6.252c-0.23-0.639-0.605-0.856-1.331-0.802c-2.852,0.214-4.974,3.682-3.811,6.271
	C483.466,208.853,484.327,209.075,485.799,208.073z M498.675,194.567c0.392-0.183,0.624-0.501,0.85-0.826
	c1.021-1.463,0.749-2.103-1.064-2.494c-2.184-0.472-4.929,0.46-6.248,2.151c-0.591,0.757-0.533,1.65-0.263,2.454
	c0.271,0.806,1.165,0.494,1.815,0.544C495.732,196.551,497.083,195.277,498.675,194.567z M512.491,187.302
	c0.748-0.476,0.809-0.86,0.247-1.433c-2.206-2.247-5.062-2.837-8.193-2.704c-0.992,0.043-1.044,0.822-1.286,1.455
	c-0.266,0.693,0.172,0.992,0.74,1.304c1.957,1.077,4.124,1.452,6.343,1.658C511.076,187.65,511.831,187.755,512.491,187.302z
	 M492.527,202.422c1.067-1.135,2.808-2.221,2.698-4.343c-0.019-0.38,0.049-0.762-0.479-0.949c-1.126-0.398-3.026-0.03-3.872,0.813
	c-0.628,0.627-1.241,1.269-1.821,1.933c-0.598,0.683-0.662,2.794,0.012,3.249c0.904,0.608,1.835,0.171,2.691-0.286
	C491.916,202.754,492.075,202.667,492.527,202.422z M481.253,221.351c0.059,0.059,0.271,0.357,0.566,0.546
	c0.599,0.382,0.915,1.408,1.878,0.987c1.001-0.438,1.09-1.379,1.057-2.313c-0.059-1.642-0.386-3.206-1.443-4.573
	c-0.353-0.457-0.534-1.189-1.404-0.994c-0.857,0.192-1.665,0.656-1.706,1.48C480.122,218.074,479.975,219.722,481.253,221.351z
	 M484.102,215.823c0.921,1.188,1.826,1.172,2.611-0.338c0.84-1.617,1.052-3.356,0.425-5.088c-0.202-0.557-0.201-1.456-1.072-1.471
	c-0.928-0.016-1.944,0.31-2.307,1.178C482.985,211.957,482.455,213.862,484.102,215.823z M482.728,224.032
	c-0.276-0.79-0.998-1.224-1.602-1.734c-0.373-0.315-0.748-0.899-1.395-0.454c-0.617,0.426-1.371,0.849-1.119,1.735
	c0.608,2.133,1.453,4.137,3.78,5.224c0.505,0.236,0.971,0.83,1.606,0.382c0.671-0.474,0.72-1.202,0.426-1.862
	C483.924,226.196,483.726,224.93,482.728,224.032z M484.548,240.025c0.411-0.677-0.063-1.035-0.523-1.392
	c-1.781-1.378-3.923-2.193-5.954-3.175c-0.729-0.354-1.556-0.543-2.35-0.774c-0.725-0.211-1.117,0.189-1.431,0.718
	c-0.263,0.441-0.215,0.785,0.241,1.106c2.755,1.943,5.741,3.367,9.294,3.534C484.052,240.053,484.28,240.032,484.548,240.025z
	 M519.894,186.817c-1.775-2.397-4.139-4.082-7.108-5.049c-0.668-0.218-1.268-0.542-1.791,0.264c-0.49,0.754-0.25,1.226,0.421,1.743
	c2.102,1.621,4.437,2.877,6.953,3.859c0.294,0.114,0.615,0.2,0.931,0.226c0.31,0.025,0.681,0.055,0.864-0.268
	C520.345,187.273,520.117,187.025,519.894,186.817z M490.064,210.181c1.439-0.96,2.522-3.918,2.095-5.524
	c-0.207-0.776-0.688-0.893-1.43-0.786c-2.156,0.31-4.015,3.488-3.232,5.557C488.081,210.967,488.64,211.131,490.064,210.181z
	 M501.474,191.685c-0.637,0.519-0.902,1.206-0.811,1.944c0.084,0.685,0.837,0.54,1.332,0.673c1.709,0.462,3.37,0.097,5.03-0.28
	c0.733-0.167,1.421-0.41,1.9-0.968c0.333-0.389,0.521-0.767-0.068-1.185C507.119,190.635,503.171,190.514,501.474,191.685z
	 M497.624,195.994c-0.426,0.324-0.915,0.6-1.266,0.982c-0.731,0.797-0.58,2.335,0.189,2.523c1.888,0.461,5.854-1.389,6.583-3.053
	c0.315-0.718,0.256-1.108-0.701-1.396C500.571,194.493,499.076,195.014,497.624,195.994z M485.158,232.368
	c-1.108-1.337-2.367-2.672-4.099-3.57c-0.57-0.295-1.074-0.506-1.638-0.042c-0.575,0.473-0.644,1.036-0.251,1.606
	c1.15,1.672,2.479,3.212,4.56,3.942c0.795,0.279,1.757,1.282,2.459,0.527C487.058,233.897,485.727,233.208,485.158,232.368z
	 M515.406,190.714c-1.981-2.004-4.551-2.509-7.329-2.405c-0.724,0.027-1.133,0.55-1.282,1.18c-0.142,0.604,0.39,0.792,0.835,1.02
	c2.03,1.038,4.267,1.298,6.528,1.438c0.348,0.021,0.729-0.121,1.062-0.257C515.776,191.461,515.842,191.104,515.406,190.714z
	 M496.104,204.912c0.867-0.98,2.434-1.838,2.623-3.602c0.084-0.79-0.209-1.146-1.13-1.221c-2.217-0.179-3.182,1.339-4.298,2.605
	c-0.786,0.891-0.725,2.161-0.052,2.866C493.944,206.291,495.024,205.572,496.104,204.912z M488.828,217.632
	c0.715,0.877,1.31,0.222,1.636-0.324c1.033-1.73,1.369-3.572,0.609-5.494c-0.298-0.755-0.791-0.973-1.605-0.582
	c-0.644,0.309-1.125,0.712-1.377,1.35C487.381,214.37,487.368,216.073,488.828,217.632z M486.511,222.76
	c0.388,0.345,0.708,1.235,1.616,1.091c0.68-0.108,0.923-0.842,0.958-1.43c0.098-1.715-0.058-3.404-1.201-4.866
	c-0.31-0.396-0.576-0.983-1.268-0.786c-0.695,0.198-1.336,0.677-1.305,1.349C485.382,219.657,485.115,221.295,486.511,222.76z
	 M487.247,224.549c-0.288-0.331-0.563-0.673-0.867-0.99c-0.391-0.408-0.773-0.949-1.486-0.601c-0.675,0.331-1.03,0.927-0.799,1.606
	c0.607,1.784,1.241,3.581,3.149,4.62c0.449,0.245,0.887,0.818,1.459,0.44c0.598-0.396,0.505-1.086,0.309-1.648
	C488.59,226.769,488.175,225.544,487.247,224.549z M493.833,211.909c1.098-1.166,2.069-2.661,1.973-4.579
	c-0.054-1.056-0.653-1.284-1.683-0.98c-1.716,0.505-3.131,3.371-2.504,5.142C492.058,212.737,492.407,212.842,493.833,211.909z
	 M501.169,199.038c-0.974,0.572-1.847,1.128-1.811,2.293c0.015,0.491,0.169,0.777,0.772,0.851c1.525,0.184,4.88-1.302,5.642-2.545
	c0.596-0.975,0.415-1.327-0.812-1.568C503.484,197.778,502.235,198.234,501.169,199.038z M521.244,191.012
	c-1.135-1.384-3.05-2.589-5.553-3.511c-0.584-0.215-1.21-0.598-1.708,0.138c-0.495,0.731,0.099,1.095,0.62,1.453
	c1.691,1.16,3.422,2.259,5.366,3.045c0.637,0.258,1.446,0.742,1.924,0.247C522.431,191.828,521.37,191.461,521.244,191.012z
	 M510.815,196.843c0.613-0.473,1.445-0.778,0.597-1.444c-1.393-1.091-5.256-1.038-6.721,0.031c-0.792,0.578-0.92,1.787-0.181,1.956
	C506.736,197.897,508.887,197.59,510.815,196.843z M485.799,231.859c0.956,1.38,2.381,2.216,3.957,2.866
	c0.401,0.165,0.908,0.544,1.271,0.187c0.441-0.435,0.063-0.954-0.213-1.39c-0.823-1.298-1.972-2.358-3.235-3.259
	c-0.705-0.503-1.504-1.778-2.499-0.935C484.057,230.194,485.246,231.073,485.799,231.859z M499.27,206.923
	c0.621-0.53,1.567-1.285,2.156-2.323c0.3-0.529,0.641-1.174,0.174-1.674c-0.469-0.503-1.217-0.247-1.832-0.095
	c-1.455,0.359-2.231,1.476-3.048,2.487c-0.595,0.738-0.65,1.776,0.01,2.372c0.607,0.548,1.445-0.078,2.1-0.474
	C498.869,207.193,498.905,207.167,499.27,206.923z M490.163,238.599c-2.252-1.61-4.792-2.885-7.542-3.807
	c-0.458-0.153-0.813-0.008-1.017,0.42c-0.169,0.355-0.149,0.669,0.205,0.913c2.388,1.636,4.854,3.123,7.95,3.328
	c0.215,0.015,0.54,0.017,0.635-0.1C490.584,239.123,490.358,238.879,490.163,238.599z M490.534,242.757
	c-0.416-0.54-0.869-0.504-1.25-0.615c-1.494-0.432-3.17-0.405-4.544-0.912c-1.558-0.574-3.132-0.655-4.692-0.964
	c-0.613-0.122-1.312,0.107-1.425,0.73c-0.117,0.64,0.647,0.632,1.091,0.74 M517.357,194.445c-1.006-1.16-5.074-2.378-6.636-1.945
	c-0.587,0.164-0.955,0.547-1.042,1.09c-0.083,0.518,0.45,0.581,0.804,0.74c1.821,0.818,3.794,1.06,5.778,1.232
	c0.305,0.026,0.639-0.09,0.938-0.191C517.743,195.187,517.771,194.871,517.357,194.445z M525.469,190.912
	c0.102-0.058,0.204-0.114,0.305-0.172c-0.168-0.383-0.314-0.775-0.506-1.147c-1.277-2.475-3.079-4.583-5.322-6.379
	c-0.438-0.351-0.885-0.994-1.506-0.506c-0.587,0.463-0.084,1.016,0.264,1.468c0.348,0.453,0.805,0.853,1.062,1.343
	c0.478,0.91,1.729,1.056,2.188,1.851C522.814,188.857,524.292,189.739,525.469,190.912z M490.763,223.783
	c0.332,0.261,0.526,1.02,1.265,0.811c0.795-0.225,0.83-0.97,0.844-1.604c0.031-1.376-0.277-2.704-0.91-3.953
	c-0.222-0.438-0.402-1.068-1.119-0.938c-0.674,0.121-1.207,0.572-1.235,1.226C489.541,220.857,489.542,222.399,490.763,223.783z
	 M492.351,218.532c0.546,0.809,1.216,0.82,1.702-0.129c0.733-1.434,1.17-2.965,0.661-4.568c-0.133-0.418-0.126-1.011-0.794-1.071
	c-0.548-0.05-0.954,0.274-1.301,0.634C491.497,214.561,491.368,217.076,492.351,218.532z M496.544,213.771
	c1.331-0.929,2.441-3.286,2.317-4.714c-0.055-0.636-0.287-0.847-1.053-0.797c-1.622,0.107-3.714,3.843-2.558,5.379
	C495.742,214.29,496.157,214.015,496.544,213.771z M490.217,228.469c0.188,0.408,0.57,0.777,1.058,1.037
	c0.453,0.242,0.89,0.892,1.424,0.511c0.539-0.384,0.431-1.092,0.203-1.667c-0.538-1.355-1.074-2.722-2.215-3.776
	c-0.355-0.329-0.599-1.035-1.292-0.618c-0.557,0.336-0.903,0.906-0.637,1.554C489.163,226.495,489.416,227.55,490.217,228.469z
	 M506.609,203.297c0.724-0.476,1.332-0.808,1.696-1.375c0.256-0.397,0.375-0.771-0.251-1.035c-1.468-0.62-5.05,0.749-5.609,2.167
	c-0.441,1.121,0.025,1.655,1.319,1.379C504.838,204.204,505.907,203.891,506.609,203.297z M512.981,199.617
	c0.943-0.597,1.044-0.995,0.139-1.409c-1.934-0.886-3.8-0.399-5.641,0.223c-0.495,0.167-0.656,0.694-0.69,1.182
	c-0.026,0.375,0.261,0.524,0.6,0.59C509.417,200.598,511.332,200.216,512.981,199.617z M502.01,208.891
	c0.685-0.942,1.978-1.67,2.261-3.076c0.134-0.661-0.056-0.924-0.849-0.878c-1.624,0.093-2.504,1.127-3.419,2.138
	c-0.65,0.717-0.934,1.693-0.343,2.34C500.359,210.181,501.109,209.236,502.01,208.891z M494.219,232.995
	c-0.892-1.19-1.924-2.101-3.056-2.908c-0.389-0.278-0.863-0.898-1.413-0.38c-0.517,0.487-0.26,1.097,0.124,1.638
	c0.768,1.086,1.774,1.97,2.876,2.742c0.665,0.465,1.716,1.24,2.254,0.754C495.607,234.297,494.544,233.54,494.219,232.995z
	 M523.599,196.202c-1.403-2.197-3.562-3.36-5.922-4.28c-0.509-0.199-1.047-0.172-1.366,0.285c-0.357,0.513,0.155,0.775,0.514,1.012
	c1.719,1.133,3.533,2.125,5.449,2.951C522.648,196.332,523.046,196.448,523.599,196.202z M494.015,224.322
	c0.565,0.216,0.714,1.181,1.477,0.896c0.641-0.239,0.618-0.985,0.597-1.589c-0.044-1.197-0.25-2.369-0.786-3.47
	c-0.201-0.415-0.385-0.95-1.039-0.851c-0.568,0.086-0.854,0.546-0.913,1.018C493.18,221.692,493.32,223.031,494.015,224.322z
	 M495.547,219.52c0.741,0.988,1.216,0.575,1.511,0.05c0.717-1.272,1.062-2.628,0.693-4.063c-0.112-0.435-0.076-1.039-0.699-1.13
	c-0.6-0.088-1.03,0.346-1.363,0.752C494.856,216.147,494.895,218.721,495.547,219.52z M519.188,197.794
	c-0.961-1.099-4.749-2.172-6.183-1.752c-0.43,0.126-0.749,0.375-0.802,0.795c-0.055,0.438,0.372,0.552,0.692,0.696
	c1.611,0.726,3.378,0.852,5.118,1.071c0.307,0.039,0.643-0.04,0.952-0.114C519.423,198.382,519.637,198.167,519.188,197.794z
	 M499.358,215.132c1.285-1.165,2.07-2.556,2.188-4.239c0.068-0.964-0.453-1.083-1.291-0.742c-1.416,0.575-2.652,3.26-2.152,4.599
	C498.354,215.421,498.725,215.537,499.358,215.132z M495.248,239.122c-0.165-0.62-0.517-0.931-0.939-1.22
	c-1.749-1.196-3.716-2.023-5.668-2.875c-0.354-0.154-0.812-0.424-1.099,0.051c-0.273,0.45,0.021,0.83,0.412,1.101
	C490.103,237.669,492.357,238.949,495.248,239.122z M494.081,228.988c0.234,0.414,0.65,0.751,1.113,1.04
	c0.291,0.182,0.562,0.54,0.969,0.302c0.375-0.219,0.274-0.619,0.212-0.94c-0.289-1.498-1.112-2.781-2.018-4.017
	c-0.28-0.382-0.684-0.822-1.254-0.538c-0.544,0.271-0.66,0.809-0.458,1.346C493.007,227.143,493.319,228.13,494.081,228.988z
	 M509.015,205.198c0.562-0.258,1.058-0.636,1.421-1.139c0.223-0.308,0.298-0.6-0.173-0.836c-1.468-0.737-5.143,0.998-5.381,2.519
	c-0.11,0.702,0.2,0.803,0.837,0.729C506.94,206.328,507.999,205.851,509.015,205.198z M504.102,210.664
	c0.875-0.716,1.86-1.493,2.312-2.657c0.375-0.967,0.079-1.27-1.031-1.03c-1.521,0.328-2.377,1.406-3.083,2.549
	c-0.293,0.474-0.545,1.219,0.089,1.628C502.961,211.526,503.496,211.005,504.102,210.664z M509.659,201.179
	c-0.227,0.23-0.531,0.505-0.543,0.922c-0.01,0.333,0.282,0.424,0.556,0.463c1.927,0.274,3.785,0.049,5.538-0.745
	c0.564-0.256,0.612-0.586,0.016-0.927C514.104,200.252,510.785,200.384,509.659,201.179z M498.449,235.068
	c-0.115-1.49-2.92-4.796-4.213-4.993c-0.952-0.145-0.844,0.584-0.619,0.994C494.645,232.941,496.229,234.271,498.449,235.068z
	 M502.17,216.039c0.817-0.942,1.604-2.123,1.701-3.592c0.059-0.896-0.434-1.02-1.217-0.706c-1.062,0.427-2.293,3.042-1.962,4.084
	C500.939,216.599,501.357,216.667,502.17,216.039z M497.332,225.169c0.305,0.173,0.393,0.823,0.93,0.718
	c0.604-0.118,0.547-0.746,0.602-1.178c0.16-1.256-0.229-2.449-0.688-3.613c-0.138-0.352-0.388-0.731-0.911-0.632
	c-0.46,0.088-0.74,0.458-0.748,0.834C496.492,222.604,496.319,223.951,497.332,225.169z M526.936,195.509
	c-0.317-1.684-1.544-2.866-2.52-4.162c-0.622-0.825-1.535-1.469-2.348-2.164c-0.325-0.278-0.757-0.714-1.196-0.394
	c-0.528,0.385,0.076,0.738,0.285,1.068c0.185,0.292,0.505,0.523,0.644,0.828c0.409,0.902,1.666,0.953,2.094,1.757
	C524.588,193.75,525.953,194.455,526.936,195.509z M514.333,199.978c0.634,0.648,5.339,1.435,6.102,1.115
	c0.589-0.246,0.364-0.485,0.03-0.728c-0.92-0.672-1.971-1.085-3.132-1.233c-0.812-0.103-1.645-0.371-2.444-0.01
	C514.511,199.292,513.995,199.502,514.333,199.978z M516.425,204.2c0.613-0.385,1.103-0.603,0.371-1.038
	c-0.934-0.554-4.279-0.382-5.107,0.294c-0.282,0.231-0.508,0.513-0.453,0.886c0.038,0.253,0.293,0.328,0.521,0.352
	C513.442,204.87,515.075,204.693,516.425,204.2z M525.05,199.542c-1.434-1.859-3.352-2.911-5.43-3.764
	c-0.393-0.162-0.883-0.263-1.145,0.114c-0.367,0.529,0.211,0.772,0.568,0.98c1.13,0.658,2.272,1.302,3.45,1.885
	C523.239,199.128,523.965,199.642,525.05,199.542z M492.435,235.868c1.677,1.411,3.686,2.226,5.858,2.742
	c0.178,0.043,0.403,0.073,0.487-0.113c0.132-0.294-0.107-0.473-0.333-0.622c-1.689-1.113-3.517-2.011-5.371-2.863
	c-0.27-0.124-0.638-0.293-0.868,0.049C492.007,235.363,492.239,235.626,492.435,235.868z M499.895,225.758
	c0.299,0.32,0.453,0.742,0.866,0.693c0.536-0.063,0.5-0.58,0.542-0.918c0.158-1.286-0.093-2.527-0.66-3.712
	c-0.128-0.268-0.222-0.615-0.613-0.608c-0.434,0.008-0.66,0.334-0.704,0.679C499.156,223.25,499.158,224.596,499.895,225.758z
	 M495.141,241.51c-0.885-0.227-1.771-0.452-2.654-0.684c-0.614-0.161-1.299,0.253-1.878-0.205c-0.979-0.776-2.232-0.742-3.401-0.946
	c-0.338-0.059-0.822-0.187-0.927,0.279c-0.099,0.44,0.374,0.541,0.713,0.638C489.633,241.347,492.323,241.803,495.141,241.51z
	 M500.202,229.94c0.034,0.038,0.152,0.235,0.331,0.357c0.356,0.243,0.711,0.766,1.155,0.526c0.428-0.231,0.185-0.787,0.09-1.185
	c-0.263-1.099-1.025-1.984-1.581-2.957c-0.187-0.328-0.445-0.761-0.94-0.561c-0.505,0.204-0.508,0.692-0.342,1.114
	C499.26,228.11,499.506,229.027,500.202,229.94z M522.316,203.271c-1.684-1.444-3.417-1.658-5.193-1.719
	c-0.377-0.013-0.73,0.182-0.917,0.504c-0.14,0.24,0.056,0.435,0.281,0.49C518.282,202.989,520.053,203.64,522.316,203.271z
	 M525.701,202.103c-1.156-1.735-3.006-2.545-4.922-3.253c-0.168-0.063-0.481,0.017-0.626,0.135c-0.231,0.188-0.035,0.402,0.15,0.523
	C521.965,200.598,523.647,201.661,525.701,202.103z M496.116,234.786c0.089,0.405,0.067,0.606,0.165,0.706
	c1.438,1.451,3.303,2.245,5.283,2.852c0.171,0.053,0.419,0.07,0.464-0.137c0.029-0.131-0.063-0.355-0.182-0.432
	C500.108,236.639,498.328,235.57,496.116,234.786z M527.945,199.29c0.1-0.079,0.199-0.159,0.298-0.237
	c-1.446-2.144-2.914-4.27-5.309-5.603c-0.136,0.115-0.271,0.229-0.407,0.344C524.333,195.627,526.139,197.458,527.945,199.29z"/>
<text transform="matrix(1 0 0 1 519.7397 238.7568)" font-family="'BlackOpsOne-Regular'" font-size="50">CARBON</text>
</svg>
