<?xml version="1.0" encoding="utf-8"?>
<!-- Generator: Adobe Illustrator 16.0.0, SVG Export Plug-In . SVG Version: 6.00 Build 0)  -->
<!DOCTYPE svg PUBLIC "-//W3C//DTD SVG 1.1//EN" "http://www.w3.org/Graphics/SVG/1.1/DTD/svg11.dtd">
<svg version="1.1" id="Layer_1" xmlns="http://www.w3.org/2000/svg" xmlns:xlink="http://www.w3.org/1999/xlink" x="0px" y="0px"
	 width="1190.55px" height="842px" viewBox="0 0 1190.55 842" enable-background="new 0 0 1190.55 842" xml:space="preserve">
<rect x="0.001" y="0" fill="#D65677" width="1190.546" height="120.877"/>
<path fill="#FFFFFF" d="M1028.116,79.745v6.433h-51.555v-6.433l17.185-11.561v-4.499c-1.06,0-2.041-1.116-2.943-3.351
	c-0.903-2.234-1.354-4.116-1.354-5.646v-8.997c0-3.718,1.26-6.897,3.782-9.536c2.52-2.639,5.555-3.959,9.107-3.959
	c3.551,0,6.587,1.32,9.107,3.959s3.782,5.818,3.782,9.536v8.997c0,1.529-0.45,3.412-1.354,5.646
	c-0.902,2.235-1.883,3.351-2.943,3.351v4.499L1028.116,79.745z"/>
<text transform="matrix(1 0 0 1 1048.4131 61.1865)" fill="#FFFFFF" font-family="'HelveticaNeue'" font-size="18">User@user.cl</text>
<text transform="matrix(1 0 0 1 1047.4131 84.1865)" font-family="'HelveticaNeue'" font-size="18">(Cerrar sesión)</text>
<linearGradient id="SVGID_1_" gradientUnits="userSpaceOnUse" x1="35.52" y1="59.9321" x2="103.9922" y2="59.9321">
	<stop  offset="0" style="stop-color:#FFFFFF;stop-opacity:0"/>
	<stop  offset="0.5323" style="stop-color:#FFFFFF"/>
</linearGradient>
<path fill-rule="evenodd" clip-rule="evenodd" fill="url(#SVGID_1_)" d="M80.228,86.817c-0.271-0.113-0.547-0.218-0.812-0.342
	c-0.171-0.079-0.347-0.196-0.519-0.067c-0.2,0.151-0.224,0.404-0.11,0.59c0.825,1.361,1.749,2.627,3.542,3.202
	c-0.099-0.895-0.653-1.367-1.023-1.934c-0.331-0.508-1.038-0.755-1.088-1.454c0.6-0.222,0.438-0.721,0.347-1.101
	c-0.25-1.049-0.671-2.05-1.348-2.915c-0.231-0.296-0.5-0.86-1.043-0.537c-0.44,0.262-0.326,0.736-0.192,1.17
	C78.394,84.768,79.182,85.87,80.228,86.817z M60.727,38.271c2.114-0.667,2.325-2.257,1.874-4.143
	c-0.117-0.489-0.154-0.999-0.193-1.501c-0.063-0.796-0.45-1.333-1.227-1.655c-1.377-0.571-2.744-1.17-4.103-1.783
	c-0.802-0.361-1.563-0.248-2.234,0.211c-1.25,0.857-2.523,1.689-3.63,2.731c-0.6,0.565-0.817,1.168-0.574,1.947
	c0.376,1.208,0.729,2.424,1.077,3.64c0.125,0.439,0.314,0.889,0.771,1.001C55.246,39.396,58.061,41.03,60.727,38.271z
	 M40.039,53.522c-0.006,0.004-0.012,0.008-0.018,0.013c0.352,0.465,0.702,0.932,1.057,1.396c1.157,1.511,5.747,1.255,6.739-0.376
	c0.019-0.031,0.034-0.064,0.054-0.095c1.508-2.381,2.221-4.781,0.275-7.294c-0.307-0.396-0.447-0.908-0.69-1.354
	c-0.297-0.545-0.746-0.877-1.423-0.896c-1.347-0.038-2.692-0.101-4.039-0.15c-0.759-0.028-1.28,0.307-1.58,0.971
	c-0.581,1.286-1.169,2.569-1.742,3.858c-0.417,0.939-0.319,1.813,0.372,2.622C39.4,52.633,39.709,53.086,40.039,53.522z
	 M70.529,29.098c1.221,0.819,2.627,1.919,4.183,2.765c1.862,1.011,3.985,0.747,6.033,0.717c0.165-0.002,0.355-0.113,0.488-0.225
	c0.836-0.701,1.146-3.514,0.413-4.34c-1.143-1.287-2.353-2.52-3.548-3.762c-0.329-0.342-0.725-0.574-1.196-0.762
	c-1.946-0.775-3.92-0.205-5.877-0.172c-0.572,0.009-0.863,0.531-0.902,1.09c-0.078,1.114-0.141,2.229-0.213,3.344
	C69.881,28.18,70.112,28.508,70.529,29.098z M44.63,73.738c0.388-0.188,0.748-0.492,0.717-0.896c-0.122-1.561,0.14-3.17-0.636-4.656
	c-0.884-1.693-2.505-2.737-3.818-4.048c-0.304-0.305-0.815-0.355-1.28-0.214c-1,0.305-1.997,0.625-3.001,0.918
	c-0.81,0.236-1.137,0.757-1.085,1.545c0.086,1.295,0.128,2.594,0.254,3.884c0.071,0.724,0.345,1.417,0.986,1.87
	c1.238,0.876,2.506,1.714,3.755,2.576c0.576,0.397,1.182,0.442,1.805,0.152C43.102,74.506,43.863,74.116,44.63,73.738z
	 M50.361,49.224c0.31,0.412,0.667,0.683,1.222,0.683c0.937,0,1.875,0.058,2.81,0.026c0.681-0.022,1.382-0.231,1.836-0.694
	c1.818-1.853,3.694-3.726,2.158-6.606c-0.066-0.125-0.083-0.277-0.104-0.419c-0.111-0.747-0.609-1.118-1.332-1.269
	c-1.245-0.26-2.488-0.529-3.736-0.771c-0.917-0.179-1.669,0.038-2.244,0.825c-0.645,0.883-1.352,1.726-2.063,2.561
	c-0.478,0.562-0.594,1.17-0.312,1.814C49.161,46.667,49.77,47.942,50.361,49.224z M73.972,37.318
	c1.258-0.822,1.417-3.646,0.254-4.499c-1.249-0.916-2.544-1.784-3.885-2.571c-0.692-0.406-1.529-0.545-2.363-0.254
	c-1.126,0.394-2.246,0.809-3.387,1.16c-0.694,0.213-0.953,0.648-0.928,1.292c0.015,0.395,0.066,0.789,0.109,1.182
	c0.413,3.854-0.063,2.822,3.493,4.37C69.7,39.058,71.841,38.016,73.972,37.318z M48.268,57.471c-0.306-0.76-1.124-0.939-2.177-0.724
	c-0.841,0.173-1.708,0.233-2.561,0.356c-0.675,0.097-1.242,0.375-1.394,1.071c-0.276,1.269-0.532,2.542-0.75,3.822
	c-0.109,0.638,0.161,1.224,0.6,1.682c0.963,1.008,1.973,1.975,2.958,2.962c0.303,0.304,0.669,0.452,1.101,0.466
	c1.812,0.062,3.425-1.086,3.833-2.762c0.178-0.735,0.304-1.484,0.431-2.231c0.126-0.738-0.073-1.445-0.422-2.082
	C49.453,59.239,48.92,58.493,48.268,57.471z M61.452,39.186c-0.649,0.453-1.162,0.817-1.682,1.171
	c-0.505,0.344-0.783,0.839-0.671,1.396c0.205,1.021,0.496,2.029,0.798,3.03c0.105,0.35,0.406,0.625,0.797,0.706
	c2.085,0.426,4.192,1.032,6.064-0.604c0.245-0.214,0.558-0.371,0.864-0.5c1.074-0.449,1.502-1.226,1.385-2.33
	c-0.056-0.536-0.058-1.079-0.076-1.618c-0.012-0.375-0.067-0.814-0.417-0.953c-1.635-0.655-3.16-1.688-5.058-1.515
	C62.526,38.055,62.088,38.93,61.452,39.186z M49.885,58.44c0.498,0.494,0.605,1.335,1.362,1.639
	c0.649,0.261,3.648-0.512,4.137-1.031c1.753-1.862,1.92-5.615,0.346-7.72c-0.21-0.279-0.504-0.415-0.842-0.49
	c-3.015-0.673-4.309-0.044-5.525,2.687c-0.015,0.032-0.025,0.068-0.043,0.099C48.262,55.355,48.305,56.973,49.885,58.44z
	 M42.273,87.401c0.437,0.476,0.819,1.211,1.549,1.725c1.836,1.294,4.06,1.384,6.136,1.893c1.099,0.27,2.8-1.504,2.331-2.304
	c-0.659-1.123-1.426-2.206-2.401-3.111c-1.429-1.326-3.295-1.943-5.026-2.776c-0.793-0.382-1.491-0.244-2.203,0.242
	c-2.375,1.62-2.385,1.616-0.697,3.918C42.026,87.077,42.093,87.163,42.273,87.401z M50.062,77.695
	c-0.599-1.141-1.949-1.735-3.04-2.591c-0.905-0.71-4.166,0.297-4.558,1.357c-0.037,0.099-0.074,0.225-0.042,0.316
	c0.503,1.459,0.682,3.074,1.73,4.289c1.315,1.523,3.289,2.094,5.131,2.747c1.159,0.411,2.919-1.101,2.58-2.151
	C51.437,80.343,51.178,78.922,50.062,77.695z M90.448,33.079c-1.494-1.909-3.834-2.567-6.136-3.286
	c-0.223-0.069-0.44-0.014-0.627,0.142c-0.643,0.533-0.995,3.161-0.444,3.757c2.263,2.448,4.913,4.365,8.205,5.366
	c0.879,0.268,1.528-0.114,1.618-0.953c0.059-0.55-0.058-1.072-0.368-1.55C91.961,35.426,91.233,34.293,90.448,33.079z
	 M52.049,69.427c-2.223-2.677-2.478-2.755-4.973-1.627c-0.136,0.062-0.275,0.119-0.398,0.199c-0.29,0.189-0.546,0.459-0.54,0.784
	c0.029,1.568-0.15,3.164,0.558,4.657c0.632,1.33,2.057,1.83,3.121,2.702c1.014,0.832,3.559-0.203,3.544-1.494
	C53.34,72.782,53.579,70.784,52.049,69.427z M62.577,53.811c2.006-1.428,2.8-3.458,2.233-5.759c-0.16-0.649-0.507-1.034-1.193-1.096
	c-4.057-0.369-3.425-1.097-5.96,2.084c-0.023,0.028-0.049,0.055-0.073,0.083c-1.013,1.205-0.603,4.339,0.693,5.255
	c0.117,0.083,0.267,0.17,0.402,0.171C59.99,54.559,61.311,54.606,62.577,53.811z M76.088,37.495
	c0.079,0.064,0.213,0.191,0.364,0.295c2.403,1.664,5.052,2.553,8.051,2.411c0.726-0.034,1.101-0.376,1.312-0.97
	c0.227-0.638,0.597-1.287-0.072-1.902c-0.947-0.871-1.845-1.797-2.841-2.614c-1.875-1.54-4.16-1.041-6.333-1.046
	c-0.115,0-0.245,0.151-0.344,0.254C75.659,34.514,75.54,36.815,76.088,37.495z M51.048,66.986c0.784,0.885,1.389,1.57,1.997,2.253
	c0.288,0.324,0.66,0.521,1.094,0.389c1.35-0.411,2.622-0.859,2.767-2.563c0.048-0.571,0.176-1.139,0.297-1.702
	c0.386-1.798-0.682-3.157-1.687-4.395c-0.778-0.958-1.951,0.068-2.954,0.056c-0.036,0-0.073,0.016-0.11,0.021
	c-0.816,0.121-1.23,0.576-1.334,1.366c-0.116,0.892-0.277,1.779-0.46,2.661C50.49,65.878,50.743,66.56,51.048,66.986z
	 M78.711,43.384c0.941-0.641,1.351-2.393,0.556-2.941c-1.962-1.353-3.869-2.765-6.642-1.699c-2.733,1.05-2.795,0.899-2.506,3.71
	c0.015,0.144,0.03,0.287,0.058,0.428c0.053,0.26,0.207,0.438,0.449,0.583C72.651,44.678,76.866,44.642,78.711,43.384z M67.48,45.456
	c-0.212,0.147-0.424,0.295-0.636,0.444c-1.345,0.938-1.731,2.751-0.88,4.097c0.147,0.233,0.364,0.369,0.625,0.42
	c1.284,0.254,2.593,0.547,3.852,0.006c0.742-0.318,1.388-0.84,2.096-1.239c1.152-0.65,1.808-2.362,1.343-3.535
	c-0.089-0.224-0.242-0.37-0.456-0.44C71.41,44.539,69.378,43.547,67.48,45.456z M57.462,62.612c0.201,0.227,0.383,0.721,0.833,0.678
	c1.192-0.114,2.48-0.242,3.2-1.291c1.293-1.881,1.924-3.896,0.71-6.082c-0.125-0.223-0.202-0.459-0.454-0.59
	c-0.617-0.324-3.25,0.05-3.755,0.539C56.088,57.714,55.853,60.375,57.462,62.612z M53.072,81.845
	c0.813,1.187,2.208,1.577,3.357,2.296c0.579,0.362,1.099,0.328,1.65-0.079c0.573-0.422,0.8-0.924,0.621-1.599
	c-0.641-2.418-1.929-4.41-4.098-5.848c-0.616-0.409-1.148-0.262-1.645,0.114c-0.554,0.42-1.581,0.617-1.348,1.517
	C51.931,79.493,52.353,80.735,53.072,81.845z M67.818,57.068c0.909-1.049,2.669-2.232,2.059-4.515
	c-0.107-0.401-0.219-0.746-0.657-0.93c-1.749-0.735-3.376-0.372-4.61,1.046c-0.313,0.359-0.629,0.714-0.937,1.077
	c-0.778,0.919-0.668,3.343,0.188,4.198c0.165,0.165,0.373,0.25,0.606,0.232C65.508,58.096,66.579,58.124,67.818,57.068z
	 M52.061,86.781c1.293,2.472,3.856,2.899,6.26,3.572c0.554,0.155,0.91-0.163,1.223-0.57c0.348-0.451,0.264-0.846-0.029-1.288
	c-1.443-2.172-3.27-3.92-5.767-4.966c-0.976-0.409-1.822-0.213-2.591,0.648c-0.657,0.736-0.082,1.258,0.312,1.814
	C51.657,86.261,51.863,86.518,52.061,86.781z M58.223,71.021c-0.269-0.3-0.533-0.604-0.808-0.898
	c-0.448-0.48-0.959-0.653-1.603-0.331c-0.741,0.371-1.775,0.477-1.784,1.55c-0.019,2.344,0.123,4.644,2.57,6.042
	c0.474,0.271,0.856,0.802,1.486,0.458c0.68-0.373,1.528-0.757,1.52-1.604C59.584,74.411,59.627,72.53,58.223,71.021z M53.292,90.309
	c-1.381,0.981-1.364,1.506-0.045,2.483c1.215,0.9,2.476,1.75,3.945,2.151c1.544,0.422,3.171,0.473,4.777,0.424
	c0.398-0.012,0.912-0.201,1.003-0.722c0.071-0.409-0.226-0.65-0.529-0.883c-2.337-1.792-5.002-2.928-7.877-3.643
	C54.119,90.007,53.677,89.995,53.292,90.309z M58.534,70.271c0.515,0.492,0.689,1.519,1.667,1.367
	c0.858-0.133,1.747-0.629,1.949-1.46c0.435-1.79,1.125-3.639-0.184-5.406c-0.314-0.424-0.399-1.178-1.085-1.068
	c-0.925,0.147-2.264,0.057-2.568,1.007C57.732,66.524,56.592,68.486,58.534,70.271z M82.423,48.152
	c0.879-0.606,1.233-1.905,0.545-2.292c-1.049-0.589-2.045-1.303-3.343-1.441c-1.499-0.159-2.779,0.491-4.107,0.905
	c-0.822,0.256-0.934,2.642-0.24,3.078C76.741,49.323,80.938,49.177,82.423,48.152z M88.602,45.571
	c0.785-0.533,0.781-1.285,0.122-1.962c-1.817-1.867-3.967-2.837-6.682-2.644c-0.845,0.06-1.449,0.184-1.697,1.051
	c-0.255,0.892-0.186,1.56,0.779,2.089c1.997,1.097,4.115,1.656,6.401,1.676C87.898,45.785,88.281,45.821,88.602,45.571z
	 M65.525,65.308c1.836-1.322,2.6-4.359,1.632-6.145c-0.082-0.151-0.199-0.32-0.348-0.395c-0.751-0.384-2.938,0.206-3.338,0.951
	c-0.479,0.894-0.905,1.82-1.271,2.762c-0.275,0.708,0.498,2.958,1.139,3.243C64.187,66.101,64.905,65.538,65.525,65.308z
	 M76.134,53.268c0.396-0.276,0.789-0.5,1.116-0.79c0.605-0.539,0.876-2.211,0.454-2.583c-0.599-0.529-3.202-0.873-3.99-0.461
	c-0.852,0.446-1.696,0.924-2.473,1.48c-1.034,0.74-0.717,1.819-0.537,2.792c0.165,0.892,1,0.672,1.641,0.744
	C73.813,54.615,75.059,54.13,76.134,53.268z M94.229,42.866c-1.533-2.069-2.256-2.581-5.458-3.802
	c-0.541-0.206-1.188-0.765-1.635,0.099c-0.403,0.776-0.779,1.547,0.23,2.284c1.091,0.796,2.138,1.624,3.301,2.347
	c1.184,0.737,2.445,1.204,3.722,1.686c0.304,0.115,0.71,0.096,0.929-0.198c0.237-0.317,0.181-0.7-0.038-1.016
	C94.949,43.786,94.581,43.331,94.229,42.866z M71.618,60.321c1.085-1.239,2.729-2.262,2.335-4.333
	c-0.062-0.329-0.072-0.617-0.473-0.77c-1.246-0.476-2.995-0.06-3.874,0.946c-0.362,0.414-0.75,0.808-1.111,1.222
	c-0.679,0.779-0.753,2.709,0.052,3.413c0.782,0.684,1.679,0.129,2.492-0.207C71.211,60.521,71.375,60.435,71.618,60.321z
	 M63.233,72.543c-0.288-0.3-0.543-1.122-1.393-0.833c-0.712,0.242-1.634,0.515-1.65,1.421c-0.035,1.978-0.101,4.007,1.914,5.331
	c0.416,0.273,0.719,0.816,1.347,0.494c0.612-0.313,1.204-0.726,1.203-1.449C64.648,75.813,64.564,74.116,63.233,72.543z
	 M62.376,79.54c-0.494-0.438-1.004-0.861-1.477-1.32c-0.469-0.455-0.935-0.542-1.481-0.134c-0.555,0.415-1.237,0.728-0.958,1.618
	c0.65,2.076,1.531,3.972,3.779,4.917c0.434,0.182,0.842,0.621,1.325,0.259c0.536-0.401,0.751-0.987,0.55-1.641
	C63.714,81.932,63.264,80.643,62.376,79.54z M63.735,72.056c1.028,1.605,2.185,1.65,2.854,0.078c0.658-1.545,1.1-3.231,0.179-4.879
	c-0.242-0.431-0.236-1.209-1.023-1.074c-0.79,0.136-1.867,0.2-2.083,1.039C63.239,68.856,62.207,70.59,63.735,72.056z
	 M59.626,87.194c0.888,1.633,2.737,2.374,4.684,2.975c0.352,0.108,0.727,0.292,1.011-0.107c0.296-0.416,0.408-0.873,0.058-1.3
	c-1.429-1.746-2.861-3.482-5.002-4.515c-0.643-0.31-1.122-0.255-1.602,0.229c-0.507,0.511-0.463,1.014-0.04,1.542
	C58.985,86.33,59.219,86.655,59.626,87.194z M85.274,52.086c1.291-0.926,1.176-1.518,0.074-2.216
	c-2.001-1.267-3.957-0.68-5.911-0.038c-0.838,0.275-0.587,1.155-0.743,1.79c-0.084,0.344-0.008,0.65,0.388,0.792
	C81.288,53.198,83.4,52.833,85.274,52.086z M97.346,45.297c0.894,0.819,1.785,1.64,2.684,2.455c0.167,0.152,0.38,0.251,0.613,0.157
	c0.23-0.094,0.188-0.285,0.116-0.458c-0.871-2.072-1.712-4.171-3.258-5.886c-0.73-0.811-1.618-1.494-2.453-2.214
	c-0.288-0.249-0.555-0.698-1.037-0.438c-0.468,0.251-0.566,0.721-0.555,1.217c0.01,0.463,0.292,0.796,0.508,1.174
	C94.835,42.838,96.34,43.871,97.346,45.297z M69.688,67.475c1.301-0.926,2.209-3.812,1.703-5.283
	c-0.186-0.54-0.489-0.724-1.075-0.678c-2.305,0.181-4.021,3.11-3.08,5.299C67.803,68.133,68.498,68.321,69.688,67.475z
	 M80.095,56.063c0.316-0.154,0.504-0.424,0.687-0.698c0.825-1.236,0.605-1.776-0.86-2.107c-1.765-0.398-3.984,0.389-5.05,1.818
	c-0.478,0.64-0.431,1.394-0.213,2.074c0.219,0.681,0.941,0.417,1.467,0.459C77.716,57.739,78.809,56.663,80.095,56.063z
	 M91.261,49.925c0.605-0.402,0.654-0.727,0.2-1.211c-1.783-1.898-4.091-2.397-6.622-2.284c-0.801,0.036-0.844,0.694-1.039,1.229
	c-0.214,0.586,0.139,0.838,0.598,1.102c1.582,0.91,3.333,1.227,5.126,1.401C90.117,50.219,90.728,50.308,91.261,49.925z
	 M75.125,62.7c0.862-0.958,2.27-1.876,2.181-3.669c-0.016-0.321,0.04-0.645-0.387-0.802c-0.91-0.336-2.445-0.025-3.129,0.688
	c-0.508,0.529-1.002,1.072-1.472,1.633c-0.483,0.577-0.535,2.361,0.01,2.745c0.731,0.514,1.483,0.145,2.175-0.242
	C74.632,62.98,74.761,62.907,75.125,62.7z M66.014,78.693c0.047,0.049,0.219,0.302,0.458,0.461c0.484,0.323,0.739,1.189,1.518,0.834
	c0.809-0.37,0.881-1.165,0.854-1.955c-0.048-1.387-0.312-2.709-1.167-3.864c-0.285-0.386-0.432-1.004-1.135-0.84
	c-0.692,0.163-1.346,0.555-1.379,1.251C65.1,75.924,64.98,77.317,66.014,78.693z M68.316,74.023c0.744,1.004,1.476,0.99,2.111-0.286
	c0.679-1.366,0.85-2.835,0.343-4.299c-0.163-0.471-0.163-1.23-0.867-1.243c-0.75-0.013-1.571,0.262-1.864,0.996
	C67.414,70.756,66.985,72.366,68.316,74.023z M67.206,80.958c-0.223-0.667-0.806-1.034-1.294-1.466
	c-0.301-0.267-0.604-0.759-1.127-0.384c-0.499,0.36-1.108,0.717-0.904,1.467c0.491,1.802,1.174,3.495,3.055,4.413
	c0.409,0.199,0.785,0.702,1.298,0.323c0.542-0.4,0.582-1.016,0.345-1.573C68.172,82.787,68.012,81.717,67.206,80.958z
	 M68.677,94.471c0.332-0.572-0.051-0.875-0.423-1.176c-1.439-1.165-3.171-1.853-4.812-2.683c-0.589-0.299-1.257-0.458-1.899-0.654
	c-0.586-0.179-0.903,0.16-1.156,0.606c-0.212,0.373-0.174,0.664,0.195,0.935c2.227,1.642,4.64,2.845,7.512,2.986
	C68.276,94.495,68.46,94.477,68.677,94.471z M97.244,49.515c-1.435-2.025-3.345-3.448-5.745-4.266
	c-0.541-0.184-1.024-0.458-1.447,0.223c-0.396,0.637-0.202,1.036,0.34,1.473c1.699,1.37,3.585,2.431,5.62,3.26
	c0.238,0.097,0.497,0.169,0.752,0.19c0.25,0.021,0.55,0.046,0.698-0.226C97.609,49.9,97.425,49.691,97.244,49.515z M73.135,69.255
	c1.164-0.812,2.039-3.311,1.693-4.668c-0.167-0.656-0.556-0.754-1.155-0.664c-1.743,0.262-3.245,2.947-2.612,4.695
	C71.532,69.92,71.984,70.059,73.135,69.255z M82.357,53.627c-0.515,0.438-0.729,1.02-0.655,1.643
	c0.068,0.579,0.677,0.456,1.076,0.569c1.381,0.391,2.724,0.082,4.065-0.237c0.593-0.141,1.148-0.346,1.536-0.818
	c0.269-0.329,0.421-0.648-0.055-1.001C86.919,52.741,83.729,52.638,82.357,53.627z M79.245,57.269
	c-0.345,0.274-0.74,0.507-1.023,0.83c-0.591,0.673-0.468,1.973,0.153,2.131c1.526,0.39,4.731-1.173,5.32-2.579
	c0.255-0.606,0.208-0.937-0.566-1.18C81.627,56,80.418,56.44,79.245,57.269z M69.169,88.002c-0.896-1.13-1.913-2.258-3.313-3.016
	c-0.46-0.25-0.868-0.428-1.324-0.036c-0.464,0.4-0.521,0.875-0.203,1.357c0.93,1.413,2.004,2.713,3.686,3.331
	c0.643,0.236,1.42,1.083,1.988,0.445C70.705,89.294,69.629,88.712,69.169,88.002z M93.617,52.808
	c-1.601-1.693-3.678-2.12-5.924-2.032c-0.585,0.023-0.916,0.464-1.036,0.997c-0.115,0.51,0.314,0.669,0.675,0.861
	c1.641,0.876,3.449,1.097,5.276,1.215c0.281,0.018,0.589-0.102,0.858-0.217C93.916,53.439,93.969,53.137,93.617,52.808z
	 M78.017,64.803c0.701-0.828,1.967-1.553,2.12-3.043c0.068-0.667-0.169-0.969-0.914-1.032c-1.792-0.151-2.571,1.131-3.474,2.201
	c-0.635,0.752-0.586,1.826-0.042,2.421C76.271,65.968,77.144,65.361,78.017,64.803z M72.136,75.551
	c0.578,0.741,1.059,0.188,1.322-0.274c0.835-1.461,1.106-3.018,0.492-4.642c-0.241-0.638-0.639-0.822-1.297-0.492
	c-0.521,0.261-0.909,0.602-1.113,1.14C70.967,72.794,70.956,74.234,72.136,75.551z M70.263,79.883
	c0.313,0.292,0.572,1.043,1.306,0.922c0.549-0.091,0.746-0.711,0.774-1.208c0.079-1.449-0.047-2.876-0.971-4.111
	c-0.25-0.335-0.465-0.831-1.024-0.665c-0.562,0.167-1.08,0.572-1.055,1.14C69.351,77.262,69.135,78.646,70.263,79.883z
	 M70.858,81.396c-0.233-0.28-0.455-0.568-0.7-0.836c-0.316-0.345-0.625-0.802-1.201-0.508c-0.546,0.279-0.833,0.783-0.646,1.356
	c0.49,1.507,1.003,3.026,2.545,3.904c0.363,0.207,0.717,0.691,1.18,0.372c0.483-0.334,0.408-0.918,0.25-1.392
	C71.944,83.271,71.608,82.236,70.858,81.396z M76.181,70.715c0.887-0.985,1.672-2.249,1.594-3.869
	c-0.043-0.892-0.528-1.084-1.36-0.828c-1.387,0.427-2.531,2.848-2.024,4.344C74.747,71.415,75.029,71.504,76.181,70.715z
	 M82.11,59.84c-0.787,0.483-1.493,0.954-1.463,1.938c0.012,0.415,0.137,0.657,0.625,0.718c1.233,0.156,3.944-1.1,4.56-2.15
	c0.482-0.823,0.335-1.121-0.656-1.325C83.981,58.776,82.972,59.162,82.11,59.84z M98.336,53.06
	c-0.917-1.169-2.465-2.188-4.488-2.966c-0.472-0.182-0.979-0.505-1.381,0.117c-0.4,0.618,0.08,0.925,0.5,1.227
	c1.367,0.98,2.766,1.909,4.337,2.573c0.515,0.218,1.169,0.627,1.555,0.209C99.295,53.749,98.437,53.439,98.336,53.06z
	 M89.907,57.986c0.496-0.399,1.168-0.657,0.482-1.22c-1.125-0.922-4.248-0.877-5.432,0.026c-0.64,0.488-0.744,1.51-0.146,1.652
	C86.61,58.877,88.349,58.618,89.907,57.986z M69.688,87.572c0.772,1.166,1.924,1.873,3.198,2.422c0.324,0.14,0.734,0.46,1.027,0.158
	c0.356-0.367,0.051-0.806-0.172-1.175c-0.665-1.097-1.594-1.992-2.615-2.754c-0.57-0.425-1.216-1.502-2.02-0.79
	C68.28,86.165,69.241,86.907,69.688,87.572z M80.575,66.503c0.501-0.448,1.267-1.086,1.742-1.963
	c0.243-0.447,0.518-0.992,0.141-1.415c-0.379-0.425-0.984-0.208-1.48-0.08c-1.176,0.303-1.803,1.247-2.463,2.102
	c-0.481,0.624-0.525,1.501,0.008,2.004c0.491,0.463,1.168-0.066,1.697-0.4C80.251,66.731,80.281,66.709,80.575,66.503z
	 M73.215,93.267c-1.821-1.36-3.873-2.438-6.096-3.216c-0.37-0.13-0.657-0.007-0.822,0.355c-0.136,0.3-0.121,0.566,0.166,0.771
	c1.93,1.382,3.923,2.639,6.425,2.812c0.174,0.013,0.437,0.014,0.513-0.084C73.556,93.709,73.373,93.503,73.215,93.267z
	 M73.515,96.779c-0.336-0.456-0.702-0.426-1.01-0.52c-1.208-0.365-2.563-0.342-3.672-0.77c-1.259-0.485-2.532-0.553-3.792-0.815
	c-0.496-0.103-1.06,0.091-1.152,0.617c-0.094,0.541,0.523,0.534,0.882,0.625 M95.194,55.96c-0.813-0.98-4.101-2.01-5.363-1.644
	c-0.475,0.139-0.771,0.463-0.841,0.921c-0.067,0.438,0.364,0.491,0.65,0.625c1.472,0.691,3.066,0.895,4.67,1.042
	c0.246,0.022,0.516-0.076,0.758-0.162C95.506,56.587,95.528,56.32,95.194,55.96z M101.75,52.975
	c0.082-0.048,0.165-0.096,0.247-0.145c-0.136-0.324-0.253-0.655-0.409-0.97c-1.032-2.091-2.488-3.872-4.301-5.39
	c-0.354-0.296-0.716-0.84-1.218-0.427c-0.475,0.391-0.068,0.858,0.213,1.24c0.281,0.382,0.65,0.72,0.858,1.134
	c0.386,0.769,1.397,0.892,1.768,1.563C99.604,51.239,100.799,51.984,101.75,52.975z M73.7,80.749
	c0.268,0.221,0.425,0.861,1.022,0.685c0.643-0.19,0.671-0.819,0.683-1.355c0.025-1.163-0.224-2.285-0.735-3.339
	c-0.18-0.37-0.325-0.902-0.904-0.793c-0.544,0.103-0.975,0.483-0.998,1.035C72.712,78.276,72.713,79.579,73.7,80.749z
	 M74.983,76.311c0.442,0.684,0.983,0.693,1.375-0.109c0.592-1.211,0.946-2.505,0.534-3.859c-0.107-0.354-0.102-0.854-0.642-0.905
	c-0.442-0.042-0.771,0.231-1.052,0.536C74.293,72.956,74.189,75.081,74.983,76.311z M78.373,72.29
	c1.076-0.785,1.974-2.776,1.873-3.983c-0.044-0.537-0.231-0.716-0.851-0.673c-1.311,0.091-3.002,3.247-2.067,4.544
	C77.724,72.727,78.06,72.495,78.373,72.29z M73.259,84.707c0.152,0.345,0.461,0.657,0.855,0.876
	c0.366,0.204,0.719,0.753,1.151,0.432c0.436-0.324,0.348-0.923,0.164-1.409c-0.435-1.145-0.868-2.299-1.791-3.19
	c-0.287-0.278-0.484-0.875-1.043-0.522c-0.451,0.284-0.73,0.766-0.515,1.313C72.407,83.039,72.611,83.931,73.259,84.707z
	 M86.507,63.439c0.585-0.402,1.076-0.683,1.371-1.161c0.208-0.336,0.304-0.651-0.203-0.875c-1.186-0.523-4.082,0.633-4.533,1.831
	c-0.357,0.947,0.021,1.398,1.066,1.165C85.076,64.205,85.94,63.941,86.507,63.439z M91.657,60.33
	c0.762-0.504,0.844-0.841,0.112-1.19c-1.563-0.749-3.071-0.337-4.559,0.188c-0.4,0.141-0.53,0.587-0.558,0.998
	c-0.021,0.317,0.211,0.443,0.485,0.499C88.776,61.159,90.324,60.836,91.657,60.33z M82.791,68.166
	c0.554-0.796,1.599-1.411,1.828-2.599c0.108-0.559-0.045-0.781-0.687-0.742c-1.313,0.079-2.024,0.952-2.764,1.806
	c-0.525,0.606-0.755,1.431-0.277,1.978C81.456,69.256,82.062,68.458,82.791,68.166z M76.494,88.532
	c-0.721-1.006-1.556-1.775-2.47-2.457c-0.314-0.235-0.697-0.759-1.142-0.321c-0.418,0.411-0.21,0.927,0.1,1.384
	c0.621,0.918,1.434,1.665,2.325,2.316c0.537,0.393,1.387,1.047,1.822,0.637C77.615,89.631,76.756,88.992,76.494,88.532z
	 M100.239,57.444c-1.134-1.856-2.878-2.839-4.787-3.616c-0.412-0.167-0.846-0.145-1.104,0.241c-0.289,0.434,0.125,0.655,0.415,0.855
	c1.389,0.957,2.855,1.795,4.404,2.493C99.47,57.554,99.792,57.653,100.239,57.444z M76.328,81.203
	c0.457,0.183,0.577,0.998,1.194,0.757c0.518-0.202,0.5-0.832,0.482-1.343c-0.036-1.012-0.202-2.001-0.635-2.932
	c-0.163-0.351-0.311-0.803-0.839-0.719c-0.459,0.073-0.69,0.461-0.738,0.86C75.653,78.982,75.767,80.113,76.328,81.203z
	 M77.567,77.146c0.599,0.835,0.982,0.486,1.222,0.043c0.58-1.075,0.858-2.221,0.56-3.434c-0.09-0.367-0.062-0.878-0.565-0.955
	c-0.485-0.074-0.833,0.292-1.102,0.636C77.008,74.296,77.04,76.471,77.567,77.146z M96.674,58.79
	c-0.777-0.928-3.838-1.835-4.998-1.48c-0.347,0.106-0.605,0.316-0.648,0.671c-0.044,0.37,0.301,0.466,0.56,0.588
	c1.303,0.613,2.73,0.72,4.136,0.905c0.248,0.032,0.52-0.034,0.77-0.097C96.864,59.287,97.037,59.105,96.674,58.79z M80.646,73.439
	c1.039-0.984,1.673-2.16,1.769-3.582c0.055-0.814-0.366-0.914-1.043-0.626c-1.144,0.486-2.144,2.754-1.739,3.886
	C79.835,73.683,80.135,73.781,80.646,73.439z M77.325,93.708c-0.133-0.524-0.417-0.787-0.759-1.031
	c-1.414-1.01-3.003-1.709-4.582-2.429c-0.287-0.13-0.656-0.358-0.888,0.043c-0.221,0.38,0.017,0.701,0.333,0.93
	C73.166,92.481,74.988,93.562,77.325,93.708z M76.382,85.146c0.189,0.35,0.525,0.635,0.9,0.879c0.235,0.154,0.454,0.456,0.783,0.255
	c0.303-0.185,0.222-0.522,0.171-0.794c-0.234-1.266-0.899-2.35-1.631-3.394c-0.227-0.323-0.553-0.695-1.014-0.455
	c-0.44,0.229-0.533,0.684-0.37,1.137C75.514,83.586,75.766,84.421,76.382,85.146z M88.452,65.045
	c0.454-0.218,0.854-0.538,1.148-0.963c0.18-0.26,0.241-0.507-0.14-0.707c-1.187-0.623-4.156,0.843-4.349,2.128
	c-0.089,0.593,0.162,0.679,0.676,0.616C86.775,66,87.631,65.597,88.452,65.045z M84.48,69.664c0.708-0.605,1.503-1.262,1.869-2.245
	c0.303-0.816,0.063-1.073-0.833-0.87c-1.229,0.277-1.921,1.188-2.492,2.154c-0.237,0.4-0.44,1.03,0.072,1.375
	C83.559,70.392,83.991,69.952,84.48,69.664z M88.973,61.649c-0.183,0.194-0.429,0.427-0.439,0.779
	c-0.008,0.281,0.228,0.358,0.449,0.391c1.558,0.231,3.059,0.042,4.476-0.629c0.456-0.216,0.495-0.496,0.013-0.783
	C92.565,60.867,89.882,60.978,88.973,61.649z M79.912,90.283c-0.093-1.259-2.36-4.052-3.405-4.218c-0.77-0.123-0.682,0.494-0.5,0.84
	C76.837,88.486,78.118,89.61,79.912,90.283z M82.92,74.205c0.661-0.796,1.296-1.793,1.375-3.035
	c0.047-0.757-0.351-0.862-0.983-0.596c-0.858,0.36-1.854,2.57-1.586,3.451C81.924,74.678,82.262,74.736,82.92,74.205z
	 M79.009,81.919c0.247,0.146,0.318,0.696,0.752,0.607c0.488-0.1,0.442-0.63,0.486-0.995c0.129-1.062-0.185-2.069-0.556-3.052
	c-0.112-0.297-0.314-0.618-0.736-0.534c-0.372,0.074-0.598,0.387-0.604,0.705C78.33,79.752,78.191,80.89,79.009,81.919z
	 M102.936,56.859c-0.256-1.422-1.248-2.422-2.037-3.516c-0.503-0.697-1.241-1.242-1.898-1.829c-0.263-0.235-0.611-0.604-0.966-0.333
	c-0.427,0.326,0.061,0.624,0.23,0.903c0.149,0.247,0.409,0.441,0.52,0.7c0.331,0.762,1.347,0.805,1.692,1.484
	C101.039,55.373,102.141,55.968,102.936,56.859z M92.75,60.634c0.512,0.548,4.315,1.212,4.932,0.942
	c0.476-0.208,0.294-0.41,0.025-0.615c-0.744-0.568-1.593-0.917-2.532-1.042c-0.656-0.087-1.33-0.313-1.976-0.008
	C92.894,60.055,92.477,60.233,92.75,60.634z M94.441,64.203c0.496-0.325,0.892-0.509,0.3-0.877
	c-0.755-0.468-3.458-0.323-4.127,0.249c-0.228,0.195-0.411,0.434-0.366,0.749c0.031,0.213,0.237,0.277,0.421,0.297
	C92.03,64.768,93.35,64.619,94.441,64.203z M101.412,60.267c-1.159-1.571-2.709-2.46-4.389-3.181
	c-0.318-0.137-0.714-0.222-0.926,0.097c-0.296,0.447,0.171,0.652,0.459,0.828c0.914,0.556,1.837,1.1,2.788,1.593
	C99.948,59.917,100.535,60.351,101.412,60.267z M75.051,90.959c1.355,1.192,2.979,1.88,4.735,2.316
	c0.144,0.037,0.325,0.062,0.394-0.095c0.107-0.249-0.086-0.4-0.269-0.525c-1.365-0.94-2.842-1.699-4.341-2.418
	c-0.218-0.104-0.516-0.248-0.702,0.042C74.706,90.532,74.893,90.754,75.051,90.959z M81.081,82.417
	c0.242,0.27,0.366,0.626,0.7,0.585c0.433-0.053,0.404-0.49,0.438-0.776c0.127-1.086-0.076-2.135-0.533-3.136
	c-0.104-0.227-0.179-0.52-0.496-0.514c-0.351,0.007-0.533,0.282-0.568,0.574C80.483,80.298,80.485,81.435,81.081,82.417z
	 M77.238,95.726c-0.715-0.192-1.432-0.381-2.145-0.578c-0.497-0.136-1.05,0.214-1.518-0.173c-0.792-0.655-1.805-0.626-2.75-0.799
	c-0.273-0.05-0.665-0.158-0.749,0.235c-0.08,0.372,0.302,0.457,0.576,0.54C72.787,95.588,74.961,95.974,77.238,95.726z
	 M81.329,85.951c0.027,0.032,0.123,0.199,0.268,0.301c0.288,0.205,0.575,0.647,0.934,0.445c0.346-0.195,0.149-0.665,0.073-1.001
	c-0.212-0.928-0.829-1.676-1.278-2.498c-0.151-0.277-0.36-0.644-0.76-0.474c-0.408,0.172-0.411,0.585-0.277,0.941
	C80.568,84.404,80.766,85.179,81.329,85.951z M99.202,63.417c-1.361-1.22-2.761-1.4-4.198-1.452
	c-0.305-0.011-0.59,0.154-0.741,0.426c-0.113,0.203,0.045,0.367,0.227,0.414C95.942,63.179,97.373,63.729,99.202,63.417z
	 M101.938,62.43c-0.934-1.466-2.429-2.15-3.978-2.748c-0.136-0.053-0.389,0.014-0.506,0.114c-0.187,0.159-0.028,0.339,0.122,0.441
	C98.918,61.159,100.278,62.057,101.938,62.43z M78.026,90.044c0.072,0.342,0.054,0.512,0.133,0.597
	c1.162,1.226,2.67,1.896,4.27,2.41c0.138,0.044,0.338,0.059,0.375-0.116c0.023-0.11-0.051-0.3-0.147-0.365
	C81.253,91.61,79.814,90.708,78.026,90.044z M103.751,60.054c0.081-0.067,0.161-0.134,0.241-0.2
	c-1.168-1.812-2.355-3.607-4.291-4.734c-0.11,0.098-0.219,0.194-0.329,0.291C100.832,56.958,102.292,58.506,103.751,60.054z"/>
<text transform="matrix(1 0 0 1 245.7168 228)" fill="#010101" font-family="'ArialMT'" font-size="30">Busca material</text>
<g>
	<path fill="#ECECEC" d="M931.562,321.377c0,3.038-2.462,5.5-5.5,5.5h-676c-3.038,0-5.5-2.462-5.5-5.5v-33
		c0-3.038,2.462-5.5,5.5-5.5h676c3.038,0,5.5,2.462,5.5,5.5V321.377z"/>
	<path fill="#FFFFFF" d="M931.562,322.877c0,2.761-2.239,5-5,5h-676c-2.761,0-5-2.239-5-5v-33c0-2.761,2.239-5,5-5h676
		c2.761,0,5,2.239,5,5V322.877z"/>
	<path fill="#CDCCCC" d="M926.562,283.877c2.75,0,5,1.872,5,4.622v33c0,2.75-2.25,5.378-5,5.378H250.217
		c-2.75,0-4.655-2.628-4.655-5.378v-33c0-2.75,1.905-4.622,4.655-4.622H926.562 M926.562,282.877H250.217
		c-3.309,0-5.655,2.313-5.655,5.622v33c0,3.309,2.347,6.378,5.655,6.378h676.345c3.309,0,6-3.069,6-6.378v-33
		C932.562,285.191,929.87,282.877,926.562,282.877L926.562,282.877z"/>
</g>
<text transform="matrix(1 0 0 1 258.7168 311.9995)" fill="#010101" font-family="'HelveticaNeue'" font-size="18">Ingeniería de Software</text>
<text transform="matrix(1 0 0 1 248.7168 274.5098)" fill="#989898" font-family="'HelveticaNeue'" font-size="14">Escribe acá tu criterio de búsqueda</text>
<path fill="#231F20" d="M967.912,310.395l9,9c0.139,0.16,0.209,0.34,0.209,0.54c0,0.2-0.07,0.38-0.209,0.54l-3.271,3.27
	c-0.161,0.14-0.341,0.21-0.54,0.21c-0.2,0-0.381-0.07-0.54-0.21l-9-9c-2.38,1.56-4.99,2.34-7.83,2.34
	c-4.001,0-7.421-1.42-10.26-4.26c-2.841-2.84-4.261-6.26-4.261-10.26c0-4,1.42-7.42,4.261-10.26c2.839-2.84,6.259-4.26,10.26-4.26
	c4,0,7.42,1.42,10.261,4.26c2.839,2.84,4.26,6.26,4.26,10.26C970.252,305.405,969.472,308.015,967.912,310.395z M948.711,295.575
	c-1.939,1.94-2.91,4.27-2.91,6.99c0,2.72,0.971,5.05,2.91,6.99c1.94,1.94,4.28,2.91,7.021,2.91c2.739,0,5.075-0.964,7.005-2.895
	c1.93-1.93,2.895-4.265,2.895-7.005c0-2.74-0.965-5.075-2.895-7.005c-1.93-1.93-4.266-2.895-7.005-2.895
	C952.991,292.665,950.651,293.635,948.711,295.575z"/>
<g>
	<g>
		<path fill="#FFFFFF" d="M263.562,495.377c0,1.381-1.119,2.5-2.5,2.5h-10c-1.381,0-2.5-1.119-2.5-2.5v-10
			c0-1.381,1.119-2.5,2.5-2.5h10c1.381,0,2.5,1.119,2.5,2.5V495.377z"/>
		<path fill="#CDCCCC" d="M261.5,483.877c1.1,0,2.062,0.522,2.062,1.622v10c0,1.1-0.961,2.378-2.062,2.378h-10
			c-1.1,0-1.938-1.278-1.938-2.378v-10c0-1.1,0.838-1.622,1.938-1.622h10.062 M261.5,482.877h-10c-1.654,0-2.938,0.968-2.938,2.622
			v10c0,1.654,1.284,3.378,2.938,3.378h10c1.654,0,3.062-1.724,3.062-3.378v-10C264.562,483.845,263.154,482.877,261.5,482.877
			L261.5,482.877z"/>
	</g>
	<g>
		<path fill="#FFFFFF" d="M263.562,467.377c0,1.381-1.119,2.5-2.5,2.5h-10c-1.381,0-2.5-1.119-2.5-2.5v-10
			c0-1.381,1.119-2.5,2.5-2.5h10c1.381,0,2.5,1.119,2.5,2.5V467.377z"/>
		<path fill="#CDCCCC" d="M261.5,455.877c1.1,0,2.062,0.522,2.062,1.622v10c0,1.1-0.961,2.378-2.062,2.378h-10
			c-1.1,0-1.938-1.278-1.938-2.378v-10c0-1.1,0.838-1.622,1.938-1.622h10.062 M261.5,454.877h-10c-1.654,0-2.938,0.968-2.938,2.622
			v10c0,1.654,1.284,3.378,2.938,3.378h10c1.654,0,3.062-1.724,3.062-3.378v-10C264.562,455.845,263.154,454.877,261.5,454.877
			L261.5,454.877z"/>
	</g>
	<g>
		<path fill="#FFFFFF" d="M263.562,439.377c0,1.381-1.119,2.5-2.5,2.5h-10c-1.381,0-2.5-1.119-2.5-2.5v-10
			c0-1.381,1.119-2.5,2.5-2.5h10c1.381,0,2.5,1.119,2.5,2.5V439.377z"/>
		<path fill="#CDCCCC" d="M261.5,427.877c1.1,0,2.062,0.522,2.062,1.622v10c0,1.1-0.961,2.378-2.062,2.378h-10
			c-1.1,0-1.938-1.278-1.938-2.378v-10c0-1.1,0.838-1.622,1.938-1.622h10.062 M261.5,426.877h-10c-1.654,0-2.938,0.968-2.938,2.622
			v10c0,1.654,1.284,3.378,2.938,3.378h10c1.654,0,3.062-1.724,3.062-3.378v-10C264.562,427.845,263.154,426.877,261.5,426.877
			L261.5,426.877z"/>
	</g>
	<g>
		<path fill="#FFFFFF" d="M263.562,411.377c0,1.381-1.119,2.5-2.5,2.5h-10c-1.381,0-2.5-1.119-2.5-2.5v-10
			c0-1.381,1.119-2.5,2.5-2.5h10c1.381,0,2.5,1.119,2.5,2.5V411.377z"/>
		<path fill="#CDCCCC" d="M261.5,399.877c1.1,0,2.062,0.522,2.062,1.622v10c0,1.1-0.961,2.378-2.062,2.378h-10
			c-1.1,0-1.938-1.278-1.938-2.378v-10c0-1.1,0.838-1.622,1.938-1.622h10.062 M261.5,398.877h-10c-1.654,0-2.938,0.968-2.938,2.622
			v10c0,1.654,1.284,3.378,2.938,3.378h10c1.654,0,3.062-1.724,3.062-3.378v-10C264.562,399.845,263.154,398.877,261.5,398.877
			L261.5,398.877z"/>
	</g>
	<g>
		<path fill="#FFFFFF" d="M263.562,383.377c0,1.381-1.119,2.5-2.5,2.5h-10c-1.381,0-2.5-1.119-2.5-2.5v-10
			c0-1.381,1.119-2.5,2.5-2.5h10c1.381,0,2.5,1.119,2.5,2.5V383.377z"/>
		<path fill="#CDCCCC" d="M261.5,371.877c1.1,0,2.062,0.522,2.062,1.622v10c0,1.1-0.961,2.378-2.062,2.378h-10
			c-1.1,0-1.938-1.278-1.938-2.378v-10c0-1.1,0.838-1.622,1.938-1.622h10.062 M261.5,370.877h-10c-1.654,0-2.938,0.968-2.938,2.622
			v10c0,1.654,1.284,3.378,2.938,3.378h10c1.654,0,3.062-1.724,3.062-3.378v-10C264.562,371.845,263.154,370.877,261.5,370.877
			L261.5,370.877z"/>
	</g>
</g>
<path fill="#676767" d="M250,435.101l2.114-2.115l2.053,2.064l5.72-6.051l2.113,2.115l-7.823,8.172L250,435.101z"/>
<path fill="#676767" d="M250,379.814l2.114-2.113l2.053,2.064l5.72-6.051l2.113,2.113L254.177,384L250,379.814z"/>
<g>
	<path fill="#D65677" d="M403.562,588.877c0,2.761-2.239,5-5,5h-153c-2.761,0-5-2.239-5-5v-33c0-2.761,2.239-5,5-5h153
		c2.761,0,5,2.239,5,5V588.877z"/>
</g>
<text transform="matrix(1 0 0 1 273 578.9995)" fill="#FFFFFF" font-family="'HelveticaNeue'" font-size="18">Aplicar flitros</text>
<g>
	<path fill="#FFFFFF" d="M516.562,589.377c0,3.038-2.462,5.5-5.5,5.5h-89c-3.038,0-5.5-2.462-5.5-5.5v-33c0-3.038,2.462-5.5,5.5-5.5
		h89c3.038,0,5.5,2.462,5.5,5.5V589.377z"/>
	<g>
		<path fill="#CDCCCC" d="M511,550.877c2.75,0,4.562,2.372,4.562,5.122v33c0,2.75-1.812,4.877-4.562,4.877h-89
			c-2.75,0-5.438-2.127-5.438-4.877v-33c0-2.75,2.688-5.122,5.438-5.122h88.562 M511,549.877h-89c-3.309,0-6.438,2.813-6.438,6.122
			v33c0,3.309,3.13,5.877,6.438,5.877h89c3.309,0,5.562-2.569,5.562-5.877v-33C516.562,552.691,514.309,549.877,511,549.877
			L511,549.877z"/>
	</g>
</g>
<text transform="matrix(1 0 0 1 433.3604 578.9995)" fill="#010101" font-family="'HelveticaNeue'" font-size="18">Cancelar</text>
<text transform="matrix(1 0 0 1 685.8584 355.5083)" fill="#989898" font-family="'HelveticaNeue'" font-size="14">Tipo de material</text>
<g>
	<g>
		<circle fill="#FFFFFF" cx="694.858" cy="492" r="8"/>
		<circle fill="none" stroke="#CDCCCC" stroke-miterlimit="10" cx="694.858" cy="492" r="8"/>
	</g>
	<g>
		<circle fill="#FFFFFF" cx="694.858" cy="464" r="8"/>
		<circle fill="none" stroke="#CDCCCC" stroke-miterlimit="10" cx="694.858" cy="464" r="8"/>
	</g>
	<g>
		<circle fill="#FFFFFF" cx="694.858" cy="436" r="8"/>
		<circle fill="none" stroke="#CDCCCC" stroke-miterlimit="10" cx="694.858" cy="436" r="8"/>
	</g>
	<g>
		<circle fill="#FFFFFF" cx="694.858" cy="408" r="8"/>
		<circle fill="none" stroke="#CDCCCC" stroke-miterlimit="10" cx="694.858" cy="408" r="8"/>
	</g>
	<g>
		<circle fill="#FFFFFF" cx="694.858" cy="380" r="8"/>
		<circle fill="none" stroke="#CDCCCC" stroke-miterlimit="10" cx="694.858" cy="380" r="8"/>
	</g>
</g>
<circle fill="#676767" cx="694.858" cy="408" r="4"/>
<text transform="matrix(1 0 0 1 270.8584 383.999)"><tspan x="0" y="0" fill="#010101" font-family="'HelveticaNeue'" font-size="14">Palabras claves</tspan><tspan x="0" y="28" fill="#010101" font-family="'HelveticaNeue'" font-size="14">Asignatura</tspan><tspan x="0" y="56" fill="#010101" font-family="'HelveticaNeue'" font-size="14">Carrera</tspan><tspan x="0" y="84" fill="#010101" font-family="'HelveticaNeue'" font-size="14">Temática</tspan><tspan x="0" y="112" fill="#010101" font-family="'HelveticaNeue'" font-size="14">Universidad</tspan></text>
<g>
	<path fill="#58C0E0" d="M777.562,413.877c0,1.657-1.343,3-3,3h-61c-1.657,0-3-1.343-3-3v-12c0-1.657,1.343-3,3-3h61
		c1.657,0,3,1.343,3,3V413.877z"/>
</g>
<text transform="matrix(1 0 0 1 718.8584 411.999)" fill="#FFFFFF" font-family="'HelveticaNeue-Bold'" font-size="11">resúmenes</text>
<g>
	<path fill="#F2AE42" d="M785.562,441.877c0,1.657-1.343,3-3,3h-69c-1.657,0-3-1.343-3-3v-12c0-1.657,1.343-3,3-3h69
		c1.657,0,3,1.343,3,3V441.877z"/>
</g>
<text transform="matrix(1 0 0 1 718.8584 439.999)" fill="#FFFFFF" font-family="'HelveticaNeue-Bold'" font-size="11">Documentos</text>
<g>
	<path fill="#408AC9" d="M749.562,469.877c0,1.657-1.343,3-3,3h-33c-1.657,0-3-1.343-3-3v-12c0-1.657,1.343-3,3-3h33
		c1.657,0,3,1.343,3,3V469.877z"/>
</g>
<text transform="matrix(1 0 0 1 717.8584 467.999)" fill="#FFFFFF" font-family="'HelveticaNeue-Bold'" font-size="11">guías</text>
<g>
	<path fill="#989898" d="M749.562,497.877c0,1.657-1.343,3-3,3h-33c-1.657,0-3-1.343-3-3v-12c0-1.657,1.343-3,3-3h33
		c1.657,0,3,1.343,3,3V497.877z"/>
</g>
<text transform="matrix(1 0 0 1 718.8584 495.999)" fill="#FFFFFF" font-family="'HelveticaNeue-Bold'" font-size="11">Todo</text>
<g>
	<path fill="#59B956" d="M755.562,385.877c0,1.657-1.343,3-3,3h-39c-1.657,0-3-1.343-3-3v-12c0-1.657,1.343-3,3-3h39
		c1.657,0,3,1.343,3,3V385.877z"/>
</g>
<text transform="matrix(1 0 0 1 718.8584 383.999)" fill="#FFFFFF" font-family="'HelveticaNeue-Bold'" font-size="11">libros</text>
<text transform="matrix(1 0 0 1 246.8584 355.5083)" fill="#989898" font-family="'HelveticaNeue'" font-size="14">Selecciona criterios de búsqueda</text>
<rect x="0.001" y="721.124" fill="#D65677" width="1190.546" height="120.877"/>
<linearGradient id="SVGID_2_" gradientUnits="userSpaceOnUse" x1="16.3892" y1="755.9741" x2="54.6509" y2="755.9741">
	<stop  offset="0" style="stop-color:#FFFFFF;stop-opacity:0"/>
	<stop  offset="0.5376" style="stop-color:#FFFFFF"/>
</linearGradient>
<path fill-rule="evenodd" clip-rule="evenodd" fill="url(#SVGID_2_)" d="M41.372,771.054c-0.152-0.064-0.306-0.123-0.454-0.192
	c-0.095-0.044-0.194-0.11-0.29-0.037c-0.112,0.084-0.125,0.227-0.062,0.331c0.461,0.763,0.977,1.474,1.979,1.796
	c-0.055-0.502-0.365-0.767-0.572-1.085c-0.185-0.285-0.58-0.423-0.608-0.815c0.335-0.125,0.245-0.404,0.194-0.618
	c-0.14-0.588-0.375-1.15-0.753-1.635c-0.129-0.166-0.279-0.482-0.583-0.301c-0.247,0.147-0.183,0.413-0.107,0.656
	C40.347,769.904,40.787,770.522,41.372,771.054z M30.474,743.825c1.181-0.374,1.299-1.266,1.047-2.323
	c-0.065-0.274-0.085-0.56-0.107-0.842c-0.036-0.447-0.251-0.748-0.686-0.928c-0.77-0.321-1.533-0.656-2.292-1
	c-0.448-0.203-0.873-0.139-1.248,0.119c-0.699,0.481-1.41,0.947-2.028,1.532c-0.335,0.317-0.457,0.655-0.321,1.092
	c0.21,0.678,0.408,1.359,0.602,2.042c0.07,0.247,0.175,0.499,0.431,0.562C27.412,744.456,28.985,745.372,30.474,743.825z
	 M18.914,752.379c-0.003,0.002-0.007,0.005-0.01,0.007c0.196,0.261,0.392,0.523,0.59,0.783c0.647,0.848,3.211,0.704,3.766-0.211
	c0.01-0.018,0.019-0.036,0.03-0.053c0.843-1.335,1.241-2.682,0.154-4.091c-0.171-0.222-0.25-0.509-0.386-0.759
	c-0.166-0.306-0.417-0.492-0.795-0.503c-0.752-0.021-1.504-0.056-2.257-0.084c-0.424-0.016-0.715,0.172-0.883,0.544
	c-0.324,0.722-0.653,1.441-0.973,2.164c-0.233,0.527-0.178,1.018,0.208,1.471C18.557,751.88,18.729,752.134,18.914,752.379z
	 M35.952,738.68c0.682,0.459,1.468,1.077,2.337,1.551c1.041,0.567,2.227,0.419,3.371,0.402c0.092-0.001,0.198-0.063,0.272-0.126
	c0.467-0.393,0.641-1.971,0.23-2.434c-0.639-0.722-1.314-1.413-1.982-2.11c-0.184-0.192-0.405-0.322-0.668-0.427
	c-1.087-0.435-2.19-0.115-3.284-0.097c-0.32,0.005-0.482,0.298-0.504,0.611c-0.043,0.625-0.079,1.25-0.119,1.875
	C35.589,738.165,35.719,738.349,35.952,738.68z M21.479,763.718c0.217-0.106,0.418-0.276,0.4-0.502
	c-0.068-0.875,0.079-1.778-0.355-2.612c-0.494-0.949-1.399-1.535-2.133-2.271c-0.17-0.171-0.456-0.199-0.715-0.12
	c-0.56,0.171-1.116,0.351-1.677,0.515c-0.453,0.133-0.636,0.425-0.606,0.867c0.048,0.727,0.071,1.455,0.142,2.179
	c0.04,0.406,0.193,0.794,0.551,1.049c0.692,0.491,1.4,0.961,2.098,1.445c0.322,0.223,0.661,0.248,1.009,0.085
	C20.625,764.148,21.051,763.93,21.479,763.718z M24.682,749.968c0.173,0.231,0.373,0.383,0.683,0.383
	c0.523,0,1.047,0.032,1.57,0.015c0.38-0.013,0.772-0.13,1.026-0.39c1.016-1.039,2.064-2.09,1.206-3.706
	c-0.037-0.07-0.046-0.155-0.058-0.235c-0.063-0.419-0.34-0.627-0.745-0.712c-0.695-0.146-1.39-0.297-2.087-0.433
	c-0.513-0.1-0.933,0.021-1.254,0.463c-0.36,0.495-0.755,0.968-1.153,1.437c-0.267,0.315-0.332,0.656-0.174,1.018
	C24.011,748.534,24.352,749.249,24.682,749.968z M37.875,743.291c0.703-0.461,0.792-2.045,0.142-2.523
	c-0.698-0.514-1.422-1-2.171-1.442c-0.387-0.228-0.855-0.306-1.32-0.142c-0.63,0.22-1.255,0.454-1.893,0.65
	c-0.388,0.12-0.532,0.364-0.519,0.725c0.008,0.221,0.037,0.442,0.061,0.663c0.231,2.161-0.035,1.583,1.952,2.451
	C35.488,744.266,36.685,743.682,37.875,743.291z M23.512,754.594c-0.17-0.426-0.628-0.527-1.216-0.406
	c-0.47,0.097-0.954,0.13-1.431,0.2c-0.377,0.054-0.694,0.21-0.779,0.601c-0.154,0.711-0.297,1.426-0.419,2.144
	c-0.061,0.357,0.09,0.686,0.335,0.943c0.538,0.565,1.102,1.107,1.653,1.662c0.17,0.171,0.375,0.253,0.616,0.262
	c1.012,0.035,1.914-0.609,2.142-1.55c0.1-0.412,0.17-0.832,0.241-1.251c0.071-0.414-0.041-0.811-0.236-1.167
	C24.174,755.585,23.877,755.167,23.512,754.594z M30.879,744.338c-0.363,0.254-0.649,0.458-0.94,0.657
	c-0.282,0.193-0.438,0.471-0.375,0.783c0.114,0.573,0.277,1.139,0.446,1.7c0.059,0.196,0.227,0.351,0.445,0.396
	c1.166,0.239,2.343,0.579,3.389-0.339c0.137-0.12,0.312-0.208,0.483-0.28c0.601-0.251,0.839-0.688,0.774-1.307
	c-0.032-0.3-0.033-0.605-0.042-0.908c-0.007-0.21-0.038-0.456-0.233-0.535c-0.914-0.367-1.766-0.946-2.827-0.849
	C31.479,743.704,31.235,744.194,30.879,744.338z M24.416,755.138c0.278,0.277,0.338,0.749,0.761,0.918
	c0.363,0.146,2.039-0.287,2.312-0.578c0.979-1.044,1.073-3.149,0.193-4.33c-0.117-0.157-0.282-0.233-0.47-0.275
	c-1.685-0.377-2.407-0.025-3.087,1.507c-0.008,0.019-0.014,0.039-0.024,0.056C23.509,753.407,23.533,754.314,24.416,755.138z
	 M20.163,771.381c0.244,0.267,0.458,0.679,0.865,0.967c1.026,0.726,2.269,0.776,3.429,1.062c0.614,0.151,1.564-0.844,1.302-1.292
	c-0.368-0.63-0.797-1.237-1.342-1.745c-0.798-0.744-1.841-1.09-2.809-1.557c-0.443-0.214-0.833-0.137-1.231,0.136
	c-1.327,0.909-1.333,0.907-0.39,2.198C20.024,771.199,20.062,771.248,20.163,771.381z M24.515,765.937
	c-0.335-0.64-1.089-0.973-1.699-1.453c-0.505-0.398-2.328,0.167-2.547,0.761c-0.02,0.056-0.041,0.126-0.023,0.178
	c0.281,0.818,0.381,1.724,0.967,2.405c0.735,0.854,1.837,1.175,2.867,1.541c0.647,0.23,1.631-0.618,1.442-1.207
	C25.283,767.423,25.139,766.625,24.515,765.937z M47.083,740.913c-0.835-1.071-2.143-1.44-3.429-1.843
	c-0.125-0.039-0.246-0.008-0.351,0.08c-0.359,0.299-0.556,1.772-0.248,2.107c1.264,1.373,2.745,2.448,4.584,3.01
	c0.491,0.15,0.854-0.064,0.904-0.535c0.033-0.309-0.032-0.602-0.206-0.87C47.928,742.229,47.521,741.594,47.083,740.913z
	 M25.625,761.3c-1.243-1.501-1.385-1.545-2.779-0.913c-0.076,0.035-0.154,0.066-0.222,0.111c-0.162,0.106-0.306,0.258-0.302,0.44
	c0.017,0.879-0.083,1.774,0.312,2.612c0.353,0.746,1.149,1.026,1.744,1.516c0.566,0.466,1.989-0.114,1.981-0.838
	C26.346,763.182,26.48,762.061,25.625,761.3z M31.508,752.541c1.121-0.801,1.565-1.94,1.248-3.23
	c-0.089-0.364-0.284-0.58-0.667-0.615c-2.267-0.207-1.914-0.615-3.331,1.169c-0.013,0.016-0.027,0.031-0.041,0.046
	c-0.566,0.676-0.337,2.434,0.388,2.947c0.065,0.046,0.149,0.095,0.225,0.096C30.063,752.96,30.8,752.987,31.508,752.541z
	 M39.058,743.39c0.044,0.036,0.119,0.107,0.204,0.166c1.343,0.933,2.823,1.432,4.499,1.352c0.405-0.019,0.615-0.211,0.732-0.544
	c0.127-0.357,0.334-0.722-0.04-1.066c-0.529-0.489-1.031-1.008-1.587-1.466c-1.048-0.864-2.325-0.584-3.539-0.587
	c-0.064,0-0.137,0.085-0.192,0.143C38.818,741.718,38.751,743.008,39.058,743.39z M25.066,759.931
	c0.438,0.497,0.776,0.881,1.116,1.264c0.161,0.182,0.369,0.292,0.611,0.219c0.754-0.231,1.465-0.482,1.546-1.438
	c0.027-0.32,0.098-0.639,0.166-0.955c0.216-1.008-0.381-1.771-0.942-2.464c-0.435-0.538-1.09,0.038-1.651,0.031
	c-0.021,0-0.041,0.009-0.062,0.012c-0.456,0.067-0.688,0.323-0.745,0.766c-0.065,0.5-0.155,0.999-0.257,1.493
	C24.754,759.31,24.895,759.691,25.066,759.931z M40.523,746.693c0.526-0.359,0.755-1.342,0.311-1.649
	c-1.097-0.759-2.162-1.551-3.712-0.953c-1.527,0.589-1.562,0.505-1.4,2.082c0.008,0.08,0.017,0.16,0.033,0.239
	c0.029,0.146,0.116,0.246,0.25,0.327C37.137,747.418,39.493,747.398,40.523,746.693z M34.248,747.854
	c-0.119,0.083-0.237,0.166-0.355,0.249c-0.751,0.526-0.967,1.543-0.492,2.298c0.082,0.13,0.203,0.207,0.349,0.235
	c0.717,0.143,1.449,0.307,2.152,0.004c0.415-0.179,0.775-0.471,1.171-0.695c0.644-0.365,1.011-1.325,0.75-1.982
	c-0.05-0.125-0.135-0.208-0.255-0.247C36.444,747.34,35.309,746.784,34.248,747.854z M28.65,757.477
	c0.112,0.127,0.214,0.404,0.466,0.38c0.667-0.063,1.386-0.136,1.788-0.724c0.723-1.055,1.075-2.185,0.396-3.411
	c-0.069-0.125-0.113-0.257-0.253-0.331c-0.345-0.182-1.816,0.028-2.098,0.302C27.882,754.73,27.751,756.223,28.65,757.477z
	 M26.197,768.265c0.454,0.666,1.234,0.884,1.876,1.288c0.323,0.203,0.614,0.184,0.922-0.045c0.32-0.236,0.447-0.519,0.347-0.896
	c-0.358-1.356-1.078-2.473-2.29-3.28c-0.345-0.23-0.642-0.147-0.919,0.064c-0.31,0.235-0.883,0.346-0.754,0.851
	C25.559,766.945,25.794,767.643,26.197,768.265z M34.437,754.368c0.508-0.588,1.492-1.252,1.151-2.532
	c-0.06-0.225-0.123-0.418-0.367-0.521c-0.978-0.412-1.887-0.208-2.576,0.587c-0.175,0.201-0.352,0.401-0.523,0.604
	c-0.435,0.515-0.373,1.875,0.105,2.355c0.092,0.092,0.208,0.14,0.339,0.13C33.146,754.944,33.744,754.96,34.437,754.368z
	 M25.632,771.033c0.723,1.387,2.155,1.626,3.498,2.004c0.31,0.087,0.508-0.091,0.683-0.319c0.194-0.253,0.147-0.475-0.017-0.723
	c-0.806-1.218-1.827-2.198-3.223-2.785c-0.545-0.229-1.018-0.12-1.448,0.364c-0.367,0.413-0.046,0.706,0.174,1.018
	C25.406,770.742,25.521,770.886,25.632,771.033z M29.075,762.194c-0.15-0.168-0.298-0.339-0.452-0.504
	c-0.25-0.269-0.536-0.366-0.896-0.186c-0.414,0.208-0.992,0.268-0.997,0.87c-0.011,1.315,0.068,2.604,1.436,3.389
	c0.265,0.152,0.479,0.45,0.831,0.256c0.38-0.208,0.854-0.424,0.849-0.9C29.835,764.095,29.86,763.04,29.075,762.194z M26.32,773.012
	c-0.772,0.551-0.762,0.845-0.025,1.393c0.679,0.505,1.383,0.982,2.204,1.207c0.863,0.237,1.772,0.265,2.67,0.238
	c0.222-0.007,0.509-0.113,0.561-0.405c0.04-0.229-0.126-0.365-0.295-0.495c-1.306-1.005-2.795-1.643-4.402-2.043
	C26.781,772.843,26.535,772.836,26.32,773.012z M29.249,761.773c0.288,0.276,0.385,0.852,0.932,0.767
	c0.479-0.074,0.976-0.353,1.089-0.819c0.243-1.004,0.629-2.041-0.103-3.033c-0.175-0.237-0.223-0.66-0.606-0.599
	c-0.517,0.083-1.265,0.032-1.436,0.565C28.801,759.671,28.164,760.772,29.249,761.773z M42.598,749.367
	c0.491-0.34,0.689-1.068,0.305-1.285c-0.586-0.331-1.143-0.731-1.869-0.809c-0.837-0.089-1.552,0.275-2.295,0.508
	c-0.459,0.144-0.521,1.482-0.134,1.726C39.423,750.024,41.768,749.942,42.598,749.367z M46.051,747.919
	c0.438-0.299,0.437-0.721,0.068-1.101c-1.015-1.047-2.217-1.591-3.734-1.483c-0.472,0.034-0.81,0.103-0.948,0.59
	c-0.143,0.5-0.104,0.875,0.435,1.172c1.116,0.615,2.299,0.929,3.577,0.939C45.658,748.039,45.871,748.06,46.051,747.919z
	 M33.155,758.989c1.026-0.741,1.453-2.445,0.912-3.446c-0.045-0.085-0.111-0.18-0.194-0.222c-0.419-0.215-1.642,0.116-1.866,0.534
	c-0.268,0.501-0.505,1.021-0.71,1.549c-0.154,0.397,0.278,1.659,0.636,1.819C32.408,759.434,32.809,759.118,33.155,758.989z
	 M39.083,752.236c0.221-0.155,0.441-0.28,0.624-0.443c0.338-0.302,0.489-1.24,0.254-1.448c-0.335-0.297-1.79-0.49-2.23-0.259
	c-0.476,0.25-0.948,0.519-1.382,0.831c-0.577,0.415-0.4,1.02-0.3,1.566c0.092,0.5,0.559,0.377,0.917,0.417
	C37.787,752.992,38.483,752.72,39.083,752.236z M49.195,746.402c-0.857-1.161-1.261-1.447-3.05-2.132
	c-0.302-0.115-0.664-0.429-0.914,0.055c-0.226,0.436-0.435,0.868,0.128,1.281c0.61,0.446,1.195,0.911,1.845,1.316
	c0.662,0.414,1.367,0.675,2.08,0.946c0.17,0.064,0.397,0.054,0.52-0.111c0.132-0.178,0.101-0.393-0.021-0.57
	C49.597,746.918,49.392,746.663,49.195,746.402z M36.56,756.192c0.606-0.695,1.525-1.269,1.305-2.431
	c-0.035-0.184-0.04-0.346-0.264-0.431c-0.696-0.267-1.673-0.034-2.165,0.531c-0.202,0.232-0.419,0.453-0.621,0.685
	c-0.38,0.437-0.421,1.52,0.029,1.914c0.437,0.383,0.938,0.073,1.393-0.116C36.333,756.305,36.425,756.256,36.56,756.192z
	 M31.875,763.048c-0.161-0.168-0.304-0.629-0.778-0.468c-0.398,0.136-0.914,0.289-0.922,0.797c-0.02,1.109-0.056,2.248,1.07,2.99
	c0.232,0.153,0.401,0.458,0.752,0.277c0.342-0.176,0.673-0.407,0.672-0.813C32.666,764.881,32.618,763.93,31.875,763.048z
	 M31.396,766.972c-0.276-0.246-0.561-0.482-0.825-0.74c-0.262-0.255-0.522-0.304-0.828-0.076c-0.31,0.232-0.691,0.408-0.536,0.908
	c0.363,1.164,0.855,2.228,2.112,2.757c0.242,0.103,0.47,0.348,0.74,0.145c0.3-0.225,0.419-0.553,0.308-0.92
	C32.143,768.313,31.892,767.591,31.396,766.972z M32.155,762.774c0.574,0.9,1.221,0.925,1.594,0.044
	c0.368-0.867,0.615-1.813,0.1-2.736c-0.135-0.242-0.131-0.678-0.572-0.603c-0.441,0.076-1.043,0.112-1.164,0.582
	C31.878,760.979,31.301,761.952,32.155,762.774z M29.859,771.265c0.497,0.916,1.529,1.332,2.617,1.669
	c0.197,0.061,0.406,0.164,0.565-0.06c0.166-0.233,0.228-0.49,0.032-0.729c-0.798-0.979-1.599-1.953-2.795-2.532
	c-0.359-0.174-0.626-0.143-0.895,0.128c-0.284,0.287-0.259,0.568-0.022,0.865C29.5,770.78,29.631,770.963,29.859,771.265z
	 M44.191,751.573c0.721-0.519,0.657-0.851,0.042-1.243c-1.118-0.71-2.211-0.381-3.303-0.021c-0.469,0.154-0.328,0.648-0.415,1.004
	c-0.047,0.192-0.005,0.364,0.217,0.443C41.963,752.197,43.144,751.992,44.191,751.573z M50.937,747.766
	c0.5,0.459,0.998,0.92,1.5,1.376c0.094,0.085,0.212,0.141,0.343,0.088c0.129-0.053,0.105-0.16,0.064-0.257
	c-0.486-1.162-0.957-2.34-1.82-3.301c-0.409-0.455-0.904-0.838-1.371-1.242c-0.161-0.14-0.31-0.392-0.579-0.246
	c-0.262,0.141-0.316,0.404-0.311,0.683c0.006,0.26,0.164,0.446,0.284,0.659C49.534,746.387,50.375,746.966,50.937,747.766z
	 M35.481,760.205c0.728-0.52,1.235-2.138,0.952-2.963c-0.104-0.303-0.273-0.406-0.601-0.38c-1.288,0.102-2.246,1.745-1.721,2.972
	C34.428,760.574,34.817,760.68,35.481,760.205z M41.297,753.805c0.177-0.087,0.282-0.238,0.384-0.392
	c0.461-0.693,0.338-0.996-0.481-1.182c-0.986-0.224-2.226,0.218-2.822,1.02c-0.267,0.359-0.241,0.782-0.119,1.163
	c0.122,0.382,0.526,0.234,0.819,0.258C39.968,754.744,40.578,754.141,41.297,753.805z M47.537,750.361
	c0.338-0.226,0.366-0.408,0.112-0.679c-0.997-1.064-2.286-1.344-3.701-1.281c-0.448,0.02-0.471,0.39-0.581,0.689
	c-0.12,0.329,0.078,0.47,0.334,0.618c0.884,0.51,1.862,0.688,2.865,0.786C46.897,750.526,47.239,750.576,47.537,750.361z
	 M38.52,757.527c0.482-0.538,1.269-1.052,1.219-2.058c-0.009-0.181,0.022-0.361-0.216-0.45c-0.509-0.188-1.367-0.014-1.749,0.385
	c-0.284,0.297-0.561,0.602-0.823,0.916c-0.27,0.324-0.299,1.325,0.006,1.54c0.408,0.288,0.829,0.081,1.215-0.136
	C38.244,757.684,38.316,757.643,38.52,757.527z M33.429,766.497c0.026,0.028,0.122,0.169,0.255,0.259
	c0.271,0.181,0.413,0.667,0.848,0.468c0.452-0.207,0.493-0.653,0.478-1.096c-0.027-0.778-0.174-1.52-0.652-2.167
	c-0.16-0.217-0.241-0.563-0.634-0.471c-0.387,0.091-0.752,0.311-0.771,0.702C32.918,764.944,32.851,765.725,33.429,766.497z
	 M34.715,763.877c0.416,0.563,0.825,0.556,1.179-0.16c0.379-0.766,0.475-1.59,0.192-2.412c-0.091-0.264-0.091-0.69-0.484-0.697
	c-0.419-0.007-0.878,0.146-1.042,0.558C34.211,762.045,33.971,762.948,34.715,763.877z M34.095,767.768
	c-0.125-0.374-0.451-0.58-0.723-0.822c-0.168-0.149-0.338-0.426-0.63-0.215c-0.279,0.202-0.619,0.402-0.505,0.822
	c0.274,1.011,0.656,1.96,1.708,2.476c0.228,0.112,0.438,0.394,0.725,0.181c0.303-0.224,0.325-0.569,0.192-0.882
	C34.635,768.793,34.545,768.193,34.095,767.768z M34.917,775.347c0.186-0.321-0.028-0.491-0.237-0.66
	c-0.804-0.653-1.771-1.039-2.689-1.504c-0.329-0.167-0.703-0.257-1.061-0.367c-0.327-0.1-0.504,0.09-0.646,0.34
	c-0.119,0.209-0.097,0.372,0.109,0.524c1.244,0.921,2.593,1.596,4.197,1.675C34.692,775.36,34.796,775.35,34.917,775.347z
	 M50.88,750.132c-0.802-1.136-1.869-1.935-3.21-2.393c-0.302-0.104-0.572-0.257-0.809,0.125c-0.221,0.357-0.113,0.581,0.19,0.826
	c0.95,0.769,2.004,1.364,3.141,1.829c0.133,0.055,0.278,0.095,0.42,0.107c0.14,0.012,0.308,0.025,0.39-0.127
	C51.083,750.348,50.981,750.23,50.88,750.132z M37.408,761.204c0.65-0.455,1.139-1.857,0.946-2.618
	c-0.094-0.368-0.311-0.423-0.646-0.373c-0.974,0.146-1.813,1.653-1.459,2.633C36.512,761.576,36.765,761.654,37.408,761.204z
	 M42.561,752.438c-0.288,0.246-0.407,0.571-0.366,0.921c0.039,0.325,0.378,0.256,0.602,0.319c0.772,0.219,1.522,0.046,2.272-0.133
	c0.331-0.079,0.642-0.194,0.858-0.459c0.151-0.184,0.235-0.363-0.031-0.562C45.11,751.941,43.328,751.883,42.561,752.438z
	 M40.822,754.48c-0.193,0.154-0.414,0.284-0.572,0.465c-0.33,0.377-0.262,1.107,0.085,1.196c0.853,0.219,2.644-0.658,2.973-1.447
	c0.142-0.34,0.116-0.525-0.317-0.662C42.153,753.769,41.478,754.016,40.822,754.48z M35.192,771.718
	c-0.5-0.634-1.069-1.267-1.851-1.692c-0.257-0.14-0.485-0.24-0.74-0.02c-0.26,0.224-0.291,0.491-0.114,0.761
	c0.52,0.792,1.12,1.522,2.06,1.868c0.359,0.132,0.794,0.607,1.111,0.25C36.05,772.443,35.449,772.116,35.192,771.718z
	 M48.853,751.979c-0.895-0.95-2.055-1.189-3.31-1.14c-0.327,0.013-0.512,0.26-0.579,0.559c-0.064,0.287,0.176,0.375,0.377,0.483
	c0.917,0.492,1.927,0.615,2.948,0.682c0.157,0.01,0.33-0.058,0.479-0.122C49.02,752.333,49.05,752.163,48.853,751.979z
	 M40.136,758.707c0.392-0.465,1.099-0.871,1.185-1.707c0.038-0.375-0.095-0.543-0.511-0.579c-1.001-0.085-1.437,0.635-1.941,1.234
	c-0.355,0.422-0.328,1.024-0.023,1.358C39.16,759.36,39.648,759.02,40.136,758.707z M36.85,764.735
	c0.323,0.416,0.591,0.105,0.739-0.154c0.467-0.82,0.618-1.693,0.275-2.604c-0.135-0.358-0.357-0.461-0.725-0.276
	c-0.291,0.146-0.508,0.337-0.622,0.64C36.196,763.188,36.19,763.996,36.85,764.735z M35.803,767.165
	c0.175,0.164,0.32,0.585,0.729,0.517c0.307-0.051,0.417-0.399,0.433-0.678c0.044-0.813-0.026-1.613-0.542-2.306
	c-0.14-0.188-0.26-0.466-0.572-0.373c-0.314,0.094-0.604,0.321-0.589,0.639C35.293,765.694,35.173,766.471,35.803,767.165z
	 M36.135,768.013c-0.13-0.157-0.254-0.319-0.391-0.469c-0.177-0.193-0.349-0.45-0.671-0.285c-0.305,0.156-0.465,0.439-0.36,0.761
	c0.274,0.846,0.56,1.697,1.422,2.189c0.203,0.116,0.401,0.388,0.659,0.208c0.27-0.187,0.228-0.515,0.14-0.781
	C36.742,769.064,36.555,768.484,36.135,768.013z M39.11,762.022c0.496-0.553,0.935-1.261,0.891-2.17
	c-0.024-0.5-0.295-0.608-0.76-0.465c-0.775,0.24-1.414,1.598-1.131,2.437C38.309,762.415,38.466,762.465,39.11,762.022z
	 M42.423,755.923c-0.44,0.271-0.834,0.535-0.818,1.087c0.007,0.232,0.077,0.368,0.349,0.403c0.689,0.087,2.204-0.617,2.548-1.206
	c0.269-0.462,0.187-0.629-0.367-0.743C43.469,755.326,42.905,755.542,42.423,755.923z M51.49,752.12
	c-0.512-0.656-1.377-1.227-2.508-1.664c-0.264-0.102-0.546-0.284-0.771,0.065c-0.223,0.347,0.044,0.519,0.28,0.688
	c0.764,0.549,1.546,1.07,2.424,1.443c0.288,0.122,0.653,0.352,0.869,0.117C52.026,752.506,51.546,752.332,51.49,752.12z
	 M46.78,754.883c0.277-0.224,0.653-0.369,0.27-0.685c-0.629-0.517-2.374-0.492-3.035,0.015c-0.358,0.274-0.416,0.847-0.082,0.927
	C44.938,755.383,45.909,755.237,46.78,754.883z M35.481,771.477c0.432,0.654,1.075,1.05,1.787,1.358
	c0.181,0.078,0.41,0.258,0.574,0.088c0.199-0.206,0.029-0.452-0.096-0.659c-0.372-0.615-0.891-1.118-1.461-1.544
	c-0.318-0.239-0.68-0.843-1.129-0.443C34.695,770.688,35.232,771.104,35.481,771.477z M41.565,759.66
	c0.28-0.251,0.708-0.609,0.974-1.101c0.135-0.251,0.29-0.556,0.079-0.793c-0.212-0.238-0.55-0.117-0.827-0.045
	c-0.657,0.17-1.008,0.699-1.376,1.179c-0.269,0.35-0.293,0.842,0.004,1.124c0.274,0.26,0.653-0.037,0.948-0.225
	C41.384,759.788,41.401,759.775,41.565,759.66z M37.453,774.671c-1.018-0.763-2.164-1.367-3.406-1.804
	c-0.207-0.073-0.367-0.004-0.459,0.199c-0.076,0.168-0.067,0.317,0.093,0.432c1.079,0.775,2.192,1.48,3.59,1.578
	c0.097,0.007,0.244,0.008,0.287-0.047C37.643,774.919,37.541,774.804,37.453,774.671z M37.62,776.641
	c-0.188-0.256-0.393-0.239-0.564-0.292c-0.675-0.205-1.432-0.192-2.052-0.432c-0.704-0.272-1.415-0.311-2.119-0.457
	c-0.277-0.058-0.593,0.051-0.644,0.346c-0.053,0.304,0.292,0.3,0.493,0.351 M49.734,753.747c-0.455-0.55-2.292-1.127-2.997-0.921
	c-0.265,0.077-0.431,0.259-0.47,0.517c-0.037,0.245,0.203,0.275,0.363,0.351c0.822,0.387,1.713,0.502,2.609,0.584
	c0.138,0.012,0.289-0.043,0.424-0.091C49.909,754.098,49.921,753.948,49.734,753.747z M53.398,752.072
	c0.046-0.027,0.092-0.054,0.138-0.082c-0.076-0.181-0.142-0.367-0.229-0.543c-0.577-1.173-1.391-2.172-2.404-3.023
	c-0.197-0.166-0.399-0.471-0.68-0.24c-0.265,0.219-0.038,0.481,0.119,0.696s0.363,0.404,0.479,0.636
	c0.216,0.431,0.781,0.5,0.988,0.877C52.199,751.098,52.866,751.516,53.398,752.072z M37.724,767.65
	c0.149,0.124,0.237,0.483,0.571,0.384c0.359-0.106,0.375-0.459,0.381-0.76c0.014-0.652-0.125-1.282-0.411-1.873
	c-0.1-0.208-0.181-0.506-0.505-0.445c-0.305,0.058-0.545,0.271-0.558,0.581C37.171,766.263,37.172,766.994,37.724,767.65z
	 M38.441,765.161c0.247,0.383,0.549,0.389,0.769-0.062c0.331-0.68,0.528-1.405,0.298-2.165c-0.06-0.198-0.057-0.479-0.359-0.507
	c-0.247-0.024-0.431,0.13-0.587,0.3C38.055,763.279,37.997,764.471,38.441,765.161z M40.334,762.905
	c0.602-0.44,1.103-1.557,1.047-2.234c-0.025-0.301-0.129-0.401-0.476-0.377c-0.732,0.051-1.677,1.821-1.155,2.549
	C39.972,763.151,40.16,763.021,40.334,762.905z M37.477,769.87c0.085,0.193,0.257,0.368,0.478,0.491
	c0.205,0.115,0.402,0.423,0.643,0.242c0.244-0.182,0.195-0.518,0.092-0.79c-0.243-0.643-0.485-1.29-1-1.79
	c-0.161-0.156-0.271-0.49-0.583-0.293c-0.251,0.159-0.408,0.429-0.288,0.736C37.001,768.935,37.115,769.435,37.477,769.87z
	 M44.88,757.941c0.327-0.226,0.602-0.383,0.766-0.651c0.116-0.188,0.17-0.365-0.113-0.491c-0.663-0.293-2.281,0.355-2.533,1.027
	c-0.199,0.531,0.011,0.785,0.596,0.653C44.08,758.371,44.563,758.223,44.88,757.941z M47.758,756.197
	c0.426-0.283,0.472-0.472,0.063-0.668c-0.873-0.419-1.716-0.189-2.548,0.106c-0.224,0.079-0.296,0.329-0.312,0.56
	c-0.012,0.178,0.118,0.248,0.271,0.28C46.148,756.662,47.013,756.481,47.758,756.197z M42.803,760.592
	c0.31-0.446,0.894-0.792,1.021-1.458c0.06-0.313-0.025-0.438-0.384-0.417c-0.733,0.044-1.131,0.534-1.544,1.013
	c-0.293,0.34-0.422,0.802-0.155,1.109C42.058,761.204,42.396,760.756,42.803,760.592z M39.285,772.015
	c-0.403-0.564-0.869-0.996-1.38-1.378c-0.176-0.131-0.39-0.425-0.638-0.18c-0.233,0.23-0.117,0.52,0.056,0.776
	c0.347,0.515,0.801,0.934,1.299,1.299c0.3,0.221,0.775,0.588,1.018,0.357C39.911,772.632,39.431,772.273,39.285,772.015z
	 M52.553,754.579c-0.633-1.041-1.608-1.592-2.675-2.028c-0.23-0.094-0.473-0.082-0.617,0.135c-0.162,0.243,0.07,0.367,0.232,0.479
	c0.776,0.537,1.595,1.007,2.461,1.399C52.124,754.641,52.304,754.696,52.553,754.579z M39.192,767.905
	c0.255,0.103,0.323,0.56,0.667,0.425c0.29-0.113,0.279-0.467,0.27-0.753c-0.02-0.567-0.113-1.122-0.355-1.644
	c-0.091-0.197-0.174-0.45-0.469-0.403c-0.256,0.041-0.386,0.259-0.412,0.482C38.815,766.659,38.878,767.293,39.192,767.905z
	 M39.884,765.629c0.334,0.468,0.549,0.272,0.683,0.024c0.324-0.603,0.479-1.246,0.313-1.926c-0.05-0.206-0.034-0.492-0.315-0.536
	c-0.271-0.042-0.465,0.164-0.616,0.356C39.572,764.031,39.59,765.25,39.884,765.629z M50.562,755.334
	c-0.434-0.521-2.145-1.03-2.792-0.831c-0.194,0.06-0.338,0.177-0.362,0.376c-0.025,0.208,0.168,0.262,0.313,0.33
	c0.728,0.344,1.526,0.404,2.311,0.508c0.139,0.019,0.291-0.019,0.43-0.054C50.667,755.612,50.764,755.511,50.562,755.334z
	 M41.605,763.55c0.58-0.552,0.935-1.211,0.988-2.009c0.031-0.457-0.205-0.513-0.583-0.352c-0.639,0.272-1.198,1.545-0.972,2.18
	C41.152,763.687,41.319,763.742,41.605,763.55z M39.749,774.918c-0.075-0.293-0.233-0.441-0.424-0.578
	c-0.79-0.566-1.678-0.958-2.56-1.362c-0.16-0.073-0.366-0.201-0.496,0.024c-0.124,0.213,0.009,0.393,0.186,0.522
	C37.425,774.23,38.443,774.837,39.749,774.918z M39.222,770.116c0.105,0.196,0.293,0.356,0.503,0.493
	c0.131,0.086,0.254,0.256,0.438,0.143c0.169-0.104,0.124-0.293,0.096-0.445c-0.13-0.71-0.502-1.318-0.911-1.904
	c-0.126-0.181-0.309-0.39-0.566-0.255c-0.246,0.128-0.298,0.383-0.207,0.638C38.737,769.242,38.878,769.71,39.222,770.116z
	 M45.967,758.842c0.254-0.123,0.478-0.302,0.642-0.54c0.101-0.146,0.135-0.284-0.078-0.396c-0.663-0.349-2.323,0.473-2.431,1.194
	c-0.05,0.333,0.09,0.38,0.378,0.345C45.03,759.378,45.508,759.151,45.967,758.842z M43.748,761.433
	c0.396-0.339,0.84-0.708,1.044-1.259c0.169-0.458,0.036-0.602-0.465-0.488c-0.687,0.155-1.074,0.666-1.393,1.208
	c-0.132,0.225-0.246,0.578,0.04,0.772C43.232,761.841,43.474,761.594,43.748,761.433z M46.258,756.938
	c-0.103,0.109-0.24,0.239-0.245,0.437c-0.004,0.158,0.127,0.201,0.251,0.219c0.87,0.13,1.709,0.023,2.501-0.353
	c0.254-0.121,0.276-0.278,0.007-0.439C48.266,756.498,46.766,756.561,46.258,756.938z M41.195,772.998
	c-0.052-0.706-1.319-2.273-1.903-2.366c-0.43-0.069-0.381,0.277-0.279,0.471C39.477,771.989,40.192,772.62,41.195,772.998z
	 M42.875,763.979c0.369-0.446,0.725-1.006,0.768-1.702c0.026-0.425-0.196-0.483-0.549-0.334c-0.48,0.202-1.036,1.441-0.886,1.936
	C42.319,764.245,42.508,764.277,42.875,763.979z M40.69,768.307c0.138,0.082,0.177,0.39,0.42,0.34
	c0.273-0.056,0.247-0.354,0.272-0.558c0.072-0.596-0.104-1.161-0.311-1.712c-0.063-0.167-0.175-0.347-0.411-0.299
	c-0.208,0.042-0.334,0.217-0.338,0.396C40.311,767.091,40.233,767.729,40.69,768.307z M54.061,754.25
	c-0.144-0.798-0.698-1.358-1.138-1.972c-0.281-0.391-0.693-0.696-1.061-1.025c-0.147-0.132-0.342-0.339-0.54-0.187
	c-0.238,0.183,0.034,0.35,0.128,0.506c0.083,0.138,0.228,0.248,0.291,0.392c0.185,0.428,0.752,0.452,0.946,0.833
	C53,753.417,53.616,753.751,54.061,754.25z M48.369,756.368c0.286,0.307,2.411,0.68,2.756,0.528
	c0.266-0.117,0.164-0.229,0.014-0.345c-0.416-0.318-0.89-0.515-1.415-0.584c-0.367-0.049-0.743-0.176-1.104-0.005
	C48.449,756.043,48.216,756.143,48.369,756.368z M49.313,758.369c0.277-0.182,0.498-0.285,0.167-0.491
	c-0.422-0.263-1.932-0.181-2.306,0.139c-0.127,0.109-0.229,0.243-0.205,0.42c0.017,0.12,0.132,0.155,0.235,0.167
	C47.966,758.687,48.704,758.603,49.313,758.369z M53.208,756.162c-0.647-0.881-1.514-1.38-2.452-1.784
	c-0.178-0.077-0.399-0.125-0.517,0.054c-0.166,0.25,0.095,0.366,0.256,0.464c0.51,0.312,1.026,0.617,1.558,0.893
	C52.391,755.966,52.719,756.209,53.208,756.162z M38.479,773.377c0.757,0.668,1.665,1.055,2.646,1.299
	c0.081,0.021,0.182,0.035,0.22-0.053c0.06-0.14-0.048-0.224-0.15-0.294c-0.763-0.528-1.588-0.953-2.426-1.357
	c-0.122-0.058-0.288-0.139-0.392,0.023C38.285,773.137,38.39,773.262,38.479,773.377z M41.848,768.586
	c0.135,0.151,0.205,0.351,0.391,0.328c0.242-0.03,0.226-0.275,0.245-0.435c0.071-0.609-0.042-1.198-0.298-1.759
	c-0.058-0.127-0.1-0.292-0.276-0.288c-0.196,0.004-0.298,0.158-0.318,0.321C41.514,767.397,41.515,768.035,41.848,768.586z
	 M39.701,776.05c-0.399-0.107-0.8-0.214-1.199-0.324c-0.277-0.076-0.586,0.12-0.848-0.097c-0.442-0.367-1.008-0.351-1.536-0.448
	c-0.152-0.028-0.371-0.089-0.418,0.132c-0.045,0.208,0.169,0.256,0.322,0.302C37.213,775.973,38.428,776.189,39.701,776.05z
	 M41.987,770.567c0.015,0.018,0.068,0.112,0.149,0.169c0.161,0.115,0.321,0.363,0.521,0.25c0.193-0.109,0.084-0.373,0.041-0.562
	c-0.119-0.521-0.463-0.94-0.714-1.401c-0.084-0.155-0.201-0.361-0.425-0.266c-0.228,0.097-0.229,0.328-0.154,0.528
	C41.561,769.7,41.672,770.135,41.987,770.567z M51.974,757.929c-0.761-0.684-1.543-0.786-2.346-0.814
	c-0.17-0.006-0.33,0.086-0.414,0.239c-0.063,0.114,0.025,0.206,0.127,0.232C50.152,757.795,50.952,758.104,51.974,757.929z
	 M53.502,757.375c-0.522-0.822-1.357-1.206-2.223-1.542c-0.076-0.03-0.218,0.008-0.283,0.064c-0.104,0.089-0.016,0.19,0.068,0.248
	C51.815,756.662,52.575,757.166,53.502,757.375z M40.141,772.864c0.041,0.192,0.03,0.288,0.075,0.334
	c0.649,0.688,1.492,1.064,2.386,1.352c0.077,0.025,0.189,0.033,0.21-0.065c0.013-0.062-0.029-0.168-0.082-0.205
	C41.944,773.742,41.14,773.235,40.141,772.864z M54.516,756.042c0.045-0.038,0.09-0.075,0.135-0.112
	c-0.653-1.016-1.316-2.023-2.398-2.655c-0.062,0.055-0.123,0.108-0.184,0.163C52.885,754.307,53.701,755.174,54.516,756.042z"/>
<text transform="matrix(0.953 0 0 1 52.6484 775.7456)" fill="#FFFFFF" font-family="'BlackOpsOne-Regular'" font-size="23.6949">CARBON</text>
<text transform="matrix(1 0 0 1 22.0796 813.7456)" fill="#FFFFFF" font-family="'HelveticaNeue'" font-size="12">Desarrollado bajo la licencia MIT</text>
<path fill="#FFFFFF" d="M1031.381,746.035c9.816,0,18.688,3.973,25.121,10.406s10.406,15.304,10.406,25.121
	c0,9.816-3.974,18.688-10.406,25.12c-6.433,6.433-15.305,10.406-25.121,10.406c-9.816,0-18.688-3.973-25.12-10.406
	c-6.433-6.433-10.406-15.304-10.406-25.12c0-9.816,3.974-18.688,10.406-25.121S1021.565,746.035,1031.381,746.035L1031.381,746.035z
	 M1054.554,758.408c-5.94-5.921-14.125-9.6-23.173-9.6c-9.048,0-17.232,3.679-23.153,9.6c-5.921,5.921-9.6,14.105-9.6,23.154
	s3.678,17.232,9.6,23.173c5.921,5.921,14.105,9.58,23.153,9.58c9.049,0,17.233-3.659,23.173-9.58
	c5.921-5.941,9.581-14.124,9.581-23.173S1060.476,764.33,1054.554,758.408L1054.554,758.408z"/>
<path fill="#FFFFFF" d="M1121.732,746.035c9.815,0,18.708,3.973,25.12,10.406c6.434,6.433,10.406,15.304,10.406,25.121
	c0,9.816-3.973,18.688-10.406,25.12c-6.412,6.433-15.305,10.406-25.12,10.406c-9.796,0-18.688-3.973-25.121-10.406
	c-6.433-6.433-10.406-15.304-10.406-25.12c0-9.816,3.974-18.688,10.406-25.121C1103.045,750.008,1111.937,746.035,1121.732,746.035
	L1121.732,746.035z M1144.905,758.408c-5.94-5.921-14.124-9.6-23.173-9.6c-9.029,0-17.232,3.679-23.153,9.6
	c-5.922,5.921-9.6,14.105-9.6,23.154s3.678,17.232,9.6,23.173c5.92,5.921,14.124,9.58,23.153,9.58c9.049,0,17.232-3.659,23.173-9.58
	c5.922-5.941,9.58-14.124,9.58-23.173S1150.827,764.33,1144.905,758.408L1144.905,758.408z"/>
<path fill-rule="evenodd" clip-rule="evenodd" fill="#FFFFFF" d="M1034.096,774.303v-2.911c0-1.396,0.924-1.731,1.594-1.731
	c0.649,0,4.072,0,4.072,0v-6.216h-5.606c-6.235,0-7.632,4.603-7.632,7.593v3.265h-3.62v4.387v2.873h3.659c0,8.242,0,18.137,0,18.137
	h7.259c0,0,0-10.033,0-18.137h5.37l0.236-2.853l0.433-4.407H1034.096z"/>
<path fill-rule="evenodd" clip-rule="evenodd" fill="#FFFFFF" d="M1112.644,781.562c0-5.017,4.072-9.108,9.089-9.108
	c5.036,0,9.108,4.092,9.108,9.108c0,5.035-4.072,9.108-9.108,9.108C1116.716,790.67,1112.644,786.597,1112.644,781.562
	L1112.644,781.562z M1131.136,763.759h-18.786c-4.623,0-8.42,3.776-8.42,8.419v18.786c0,4.623,3.797,8.419,8.42,8.419h18.786
	c4.643,0,8.419-3.796,8.419-8.419v-18.786C1139.555,767.536,1135.778,763.759,1131.136,763.759L1131.136,763.759z M1112.35,765.864
	h18.786c3.482,0,6.314,2.832,6.314,6.314v18.786c0,3.481-2.832,6.314-6.314,6.314h-18.786c-3.483,0-6.315-2.833-6.315-6.314v-18.786
	C1106.035,768.696,1108.867,765.864,1112.35,765.864L1112.35,765.864z M1133.005,768.52c-1.023,0-1.85,0.826-1.85,1.849
	c0,1.023,0.826,1.85,1.85,1.85c1.022,0,1.849-0.826,1.849-1.85C1134.854,769.346,1134.027,768.52,1133.005,768.52L1133.005,768.52z
	 M1133.22,781.562c0-6.335-5.133-11.488-11.487-11.488c-6.335,0-11.488,5.153-11.488,11.488c0,6.354,5.153,11.488,11.488,11.488
	C1128.087,793.05,1133.22,787.916,1133.22,781.562L1133.22,781.562z"/>
<text transform="matrix(1 0 0 1 245.2168 813.7456)" fill="#FFFFFF" font-family="'HelveticaNeue'" font-size="12">Términos y condiciones</text>
<text transform="matrix(1 0 0 1 404 813.7456)" fill="#FFFFFF" font-family="'HelveticaNeue'" font-size="12">Preguntas frecuentes</text>
<text transform="matrix(1 0 0 1 556 813.7456)" fill="#FFFFFF" font-family="'HelveticaNeue'" font-size="12">Pólítica de privacidad</text>
<path fill="#231F20" d="M206.717,51.687l-6,12v-18h6c0-0.82,0.295-1.525,0.885-2.115c0.59-0.589,1.295-0.885,2.115-0.885h9
	c0.819,0,1.524,0.295,2.114,0.885c0.59,0.59,0.886,1.295,0.886,2.115h15v6H206.717z M245.717,54.687l-9,21h-36l9-21H245.717z"/>
<path fill="#231F20" d="M400.581,42.327c2.739-1.6,5.729-2.4,8.97-2.4s6.229,0.8,8.97,2.4s4.91,3.77,6.511,6.51
	c1.6,2.741,2.399,5.73,2.399,8.97s-0.8,6.23-2.399,8.97c-1.601,2.74-3.771,4.91-6.511,6.51c-2.74,1.6-5.729,2.4-8.97,2.4
	s-6.23-0.8-8.97-2.4c-2.74-1.6-4.91-3.77-6.511-6.51c-1.6-2.74-2.399-5.73-2.399-8.97s0.8-6.229,2.399-8.97
	C395.671,46.097,397.841,43.927,400.581,42.327z M418.326,49.032c-2.431-2.43-5.355-3.645-8.775-3.645s-6.345,1.215-8.775,3.645
	c-2.43,2.43-3.645,5.355-3.645,8.775s1.215,6.345,3.645,8.775c2.431,2.43,5.355,3.645,8.775,3.645s6.345-1.215,8.775-3.645
	c2.43-2.43,3.645-5.355,3.645-8.775S420.756,51.461,418.326,49.032z M417.051,57.807h-4.5v9h-6v-9h-4.5l7.5-9L417.051,57.807z"/>
<text transform="matrix(1 0 0 1 256.5 54.52)"><tspan x="0" y="0" fill="#FFFFFF" font-family="'HelveticaNeue'" font-size="18">Búsqueda </tspan><tspan x="0" y="26" fill="#FFFFFF" font-family="'HelveticaNeue'" font-size="18">por carpetas</tspan></text>
<text transform="matrix(1 0 0 1 437.0503 54.52)"><tspan x="0" y="0" fill="#FFFFFF" font-family="'HelveticaNeue'" font-size="18">Subir </tspan><tspan x="0" y="26" fill="#FFFFFF" font-family="'HelveticaNeue'" font-size="18">Material</tspan></text>
<path fill="#231F20" d="M567.647,65.457l9,9c0.139,0.16,0.209,0.34,0.209,0.54c0,0.2-0.07,0.38-0.209,0.54l-3.271,3.27
	c-0.161,0.14-0.341,0.21-0.54,0.21c-0.2,0-0.381-0.07-0.54-0.21l-9-9c-2.38,1.56-4.99,2.34-7.83,2.34
	c-4.001,0-7.421-1.42-10.26-4.26c-2.841-2.84-4.261-6.26-4.261-10.26c0-4,1.42-7.42,4.261-10.26c2.839-2.84,6.259-4.26,10.26-4.26
	c4,0,7.42,1.42,10.261,4.26c2.839,2.84,4.26,6.26,4.26,10.26C569.987,60.467,569.207,63.077,567.647,65.457z M548.446,50.637
	c-1.939,1.94-2.91,4.27-2.91,6.99c0,2.72,0.971,5.05,2.91,6.99c1.94,1.94,4.28,2.91,7.021,2.91c2.739,0,5.075-0.964,7.005-2.895
	c1.93-1.93,2.895-4.265,2.895-7.005c0-2.74-0.965-5.075-2.895-7.005c-1.93-1.93-4.266-2.895-7.005-2.895
	C552.727,47.727,550.387,48.697,548.446,50.637z"/>
<text transform="matrix(1 0 0 1 588.3892 55.8066)"><tspan x="0" y="0" fill="#FFFFFF" font-family="'HelveticaNeue'" font-size="18">Búsqueda </tspan><tspan x="0" y="26" fill="#FFFFFF" font-family="'HelveticaNeue'" font-size="18">Avanzada</tspan></text>
<path fill="#231F20" d="M750,61.847h-6v18h-9v-12h-9v12h-9v-18h-6l19.681-19.32L750,61.847z"/>
<text transform="matrix(1 0 0 1 762 56.8066)"><tspan x="0" y="0" fill="#FFFFFF" font-family="'HelveticaNeue'" font-size="18">Ranking </tspan><tspan x="0" y="26" fill="#FFFFFF" font-family="'HelveticaNeue'" font-size="18">Universidades</tspan></text>
</svg>
