<?xml version="1.0" encoding="utf-8"?>
<!-- Generator: Adobe Illustrator 16.0.0, SVG Export Plug-In . SVG Version: 6.00 Build 0)  -->
<!DOCTYPE svg PUBLIC "-//W3C//DTD SVG 1.1//EN" "http://www.w3.org/Graphics/SVG/1.1/DTD/svg11.dtd">
<svg version="1.1" id="Layer_1" xmlns="http://www.w3.org/2000/svg" xmlns:xlink="http://www.w3.org/1999/xlink" x="0px" y="0px"
	 width="1190.55px" height="842px" viewBox="0 0 1190.55 842" enable-background="new 0 0 1190.55 842" xml:space="preserve">
<rect x="1.002" y="-0.001" fill="#D65677" width="1190.546" height="120.877"/>
<path fill="#FFFFFF" d="M1029.117,79.743v6.434h-51.555v-6.434l17.185-11.561v-4.498c-1.06,0-2.041-1.117-2.943-3.352
	c-0.903-2.234-1.354-4.116-1.354-5.646V45.69c0-3.718,1.26-6.896,3.782-9.536c2.52-2.64,5.555-3.959,9.107-3.959
	c3.551,0,6.587,1.319,9.107,3.959s3.782,5.818,3.782,9.536v8.997c0,1.529-0.45,3.411-1.354,5.646
	c-0.902,2.234-1.883,3.352-2.943,3.352v4.498L1029.117,79.743z"/>
<text transform="matrix(1 0 0 1 1049.4136 61.1855)" fill="#FFFFFF" font-family="'HelveticaNeue'" font-size="18">User@user.cl</text>
<text transform="matrix(1 0 0 1 1048.4136 84.1855)" font-family="'HelveticaNeue'" font-size="18">(Cerrar sesión)</text>
<linearGradient id="SVGID_1_" gradientUnits="userSpaceOnUse" x1="36.5205" y1="59.9307" x2="104.9927" y2="59.9307">
	<stop  offset="0" style="stop-color:#FFFFFF;stop-opacity:0"/>
	<stop  offset="0.5323" style="stop-color:#FFFFFF"/>
</linearGradient>
<path fill-rule="evenodd" clip-rule="evenodd" fill="url(#SVGID_1_)" d="M81.229,86.815c-0.271-0.113-0.547-0.218-0.812-0.342
	c-0.171-0.078-0.347-0.196-0.519-0.066c-0.2,0.15-0.224,0.403-0.11,0.59c0.825,1.361,1.749,2.627,3.542,3.201
	c-0.099-0.895-0.653-1.366-1.023-1.934c-0.331-0.508-1.038-0.755-1.088-1.454c0.6-0.222,0.438-0.721,0.347-1.101
	c-0.25-1.049-0.671-2.051-1.348-2.914c-0.231-0.297-0.5-0.861-1.043-0.537c-0.44,0.262-0.326,0.735-0.192,1.17
	C79.395,84.767,80.183,85.868,81.229,86.815z M61.727,38.271c2.114-0.668,2.325-2.258,1.874-4.143
	c-0.117-0.49-0.154-0.999-0.193-1.502c-0.063-0.795-0.45-1.332-1.227-1.654c-1.377-0.572-2.744-1.17-4.103-1.783
	c-0.802-0.361-1.563-0.248-2.234,0.211c-1.25,0.857-2.523,1.689-3.63,2.73c-0.6,0.565-0.817,1.168-0.574,1.947
	c0.376,1.209,0.729,2.424,1.077,3.641c0.125,0.439,0.314,0.889,0.771,1.002C56.247,39.395,59.062,41.028,61.727,38.271z
	 M41.039,53.521c-0.006,0.005-0.012,0.009-0.018,0.014c0.352,0.465,0.702,0.932,1.057,1.396c1.157,1.511,5.747,1.255,6.739-0.376
	c0.019-0.031,0.034-0.064,0.054-0.096c1.508-2.381,2.221-4.78,0.275-7.293c-0.307-0.396-0.447-0.908-0.69-1.354
	c-0.297-0.545-0.746-0.877-1.423-0.896c-1.347-0.039-2.692-0.102-4.039-0.15c-0.759-0.027-1.28,0.307-1.58,0.971
	c-0.581,1.287-1.169,2.57-1.742,3.859c-0.417,0.939-0.319,1.813,0.372,2.621C40.4,52.632,40.709,53.085,41.039,53.521z
	 M71.529,29.097c1.221,0.818,2.627,1.92,4.183,2.765c1.862,1.011,3.985,0.747,6.033,0.717c0.165-0.003,0.355-0.113,0.488-0.225
	c0.836-0.7,1.146-3.515,0.413-4.34c-1.143-1.286-2.353-2.52-3.548-3.763c-0.329-0.342-0.725-0.574-1.196-0.762
	c-1.946-0.775-3.92-0.205-5.877-0.172c-0.572,0.009-0.863,0.53-0.902,1.09c-0.078,1.113-0.141,2.229-0.213,3.344
	C70.881,28.179,71.113,28.507,71.529,29.097z M45.631,73.737c0.388-0.189,0.748-0.492,0.717-0.896
	c-0.122-1.561,0.14-3.17-0.636-4.656c-0.884-1.692-2.505-2.736-3.818-4.048c-0.304-0.305-0.815-0.354-1.28-0.214
	c-1,0.305-1.997,0.625-3.001,0.918c-0.81,0.236-1.137,0.756-1.085,1.545c0.086,1.295,0.128,2.594,0.254,3.884
	c0.071,0.724,0.345,1.417,0.986,1.87c1.238,0.875,2.506,1.713,3.755,2.576c0.576,0.396,1.182,0.441,1.805,0.151
	C44.102,74.505,44.863,74.114,45.631,73.737z M51.362,49.224c0.31,0.411,0.667,0.682,1.222,0.683
	c0.937,0.001,1.875,0.058,2.81,0.026c0.681-0.022,1.382-0.232,1.836-0.695c1.818-1.852,3.694-3.725,2.158-6.605
	c-0.066-0.125-0.083-0.277-0.104-0.42c-0.111-0.746-0.609-1.117-1.332-1.268c-1.245-0.26-2.488-0.529-3.736-0.771
	c-0.917-0.18-1.669,0.037-2.244,0.824c-0.645,0.883-1.352,1.727-2.063,2.561c-0.478,0.563-0.594,1.17-0.312,1.814
	C50.162,46.665,50.771,47.94,51.362,49.224z M74.972,37.317c1.258-0.822,1.417-3.646,0.254-4.499
	c-1.249-0.916-2.544-1.784-3.885-2.571c-0.692-0.405-1.529-0.545-2.363-0.254c-1.126,0.395-2.246,0.809-3.387,1.16
	c-0.694,0.213-0.953,0.648-0.928,1.291c0.015,0.395,0.066,0.789,0.109,1.182c0.413,3.854-0.063,2.822,3.493,4.371
	C70.701,39.057,72.842,38.015,74.972,37.317z M49.268,57.47c-0.306-0.76-1.124-0.939-2.177-0.723
	c-0.841,0.173-1.708,0.232-2.561,0.355c-0.675,0.098-1.242,0.375-1.394,1.071c-0.276,1.269-0.532,2.542-0.75,3.821
	c-0.109,0.639,0.161,1.225,0.6,1.683c0.963,1.009,1.973,1.975,2.958,2.962c0.303,0.305,0.669,0.452,1.101,0.467
	c1.812,0.063,3.425-1.086,3.833-2.762c0.178-0.736,0.304-1.484,0.431-2.231c0.126-0.738-0.073-1.444-0.422-2.081
	C50.453,59.237,49.921,58.491,49.268,57.47z M62.452,39.185c-0.649,0.453-1.162,0.818-1.682,1.172
	c-0.505,0.344-0.783,0.839-0.671,1.396c0.205,1.021,0.496,2.029,0.798,3.029c0.105,0.35,0.406,0.625,0.797,0.706
	c2.085,0.426,4.192,1.032,6.064-0.604c0.245-0.213,0.558-0.371,0.864-0.499c1.074-0.448,1.502-1.226,1.385-2.329
	c-0.056-0.537-0.058-1.079-0.076-1.619c-0.012-0.374-0.067-0.813-0.417-0.953c-1.635-0.654-3.16-1.688-5.058-1.514
	C63.526,38.054,63.089,38.929,62.452,39.185z M50.886,58.438c0.498,0.494,0.605,1.336,1.362,1.639
	c0.649,0.262,3.648-0.512,4.137-1.031c1.753-1.861,1.92-5.614,0.346-7.719c-0.21-0.279-0.504-0.416-0.842-0.49
	c-3.015-0.674-4.309-0.045-5.525,2.686c-0.015,0.033-0.025,0.068-0.043,0.1C49.262,55.354,49.305,56.972,50.886,58.438z
	 M43.273,87.399c0.437,0.477,0.819,1.211,1.549,1.726c1.836,1.294,4.06,1.384,6.136,1.894c1.099,0.27,2.8-1.505,2.331-2.305
	c-0.659-1.123-1.426-2.205-2.401-3.111c-1.429-1.326-3.295-1.943-5.026-2.775c-0.793-0.383-1.491-0.244-2.203,0.242
	c-2.375,1.619-2.385,1.615-0.697,3.918C43.027,87.075,43.094,87.162,43.273,87.399z M51.063,77.694
	c-0.599-1.142-1.949-1.736-3.04-2.592c-0.905-0.71-4.166,0.297-4.558,1.357c-0.037,0.1-0.074,0.225-0.042,0.316
	c0.503,1.46,0.682,3.074,1.73,4.289c1.315,1.523,3.289,2.094,5.131,2.747c1.159,0.411,2.919-1.101,2.58-2.151
	C52.438,80.343,52.179,78.921,51.063,77.694z M91.449,33.078c-1.494-1.909-3.834-2.567-6.136-3.286
	c-0.223-0.068-0.44-0.014-0.627,0.143c-0.643,0.533-0.995,3.16-0.444,3.757c2.263,2.448,4.913,4.365,8.205,5.366
	c0.879,0.268,1.528-0.115,1.618-0.953c0.059-0.551-0.058-1.072-0.368-1.551C92.961,35.425,92.233,34.292,91.449,33.078z
	 M53.05,69.427c-2.223-2.678-2.478-2.756-4.973-1.628c-0.136,0.062-0.275,0.118-0.398,0.198c-0.29,0.189-0.546,0.459-0.54,0.785
	c0.029,1.567-0.15,3.164,0.558,4.656c0.632,1.33,2.057,1.83,3.121,2.703c1.014,0.832,3.559-0.203,3.544-1.494
	C54.34,72.78,54.58,70.782,53.05,69.427z M63.577,53.81c2.006-1.428,2.8-3.458,2.233-5.759c-0.16-0.649-0.507-1.034-1.193-1.097
	c-4.057-0.369-3.425-1.097-5.96,2.084c-0.023,0.029-0.049,0.055-0.073,0.083c-1.013,1.205-0.603,4.339,0.693,5.255
	c0.117,0.083,0.267,0.17,0.402,0.171C60.99,54.558,62.311,54.604,63.577,53.81z M77.089,37.494c0.079,0.064,0.213,0.19,0.364,0.296
	c2.403,1.664,5.052,2.553,8.051,2.41c0.726-0.033,1.101-0.376,1.312-0.969c0.227-0.639,0.597-1.287-0.072-1.902
	c-0.947-0.871-1.845-1.797-2.841-2.614c-1.875-1.54-4.16-1.04-6.333-1.046c-0.115,0-0.245,0.151-0.344,0.254
	C76.66,34.513,76.54,36.814,77.089,37.494z M52.049,66.985c0.784,0.885,1.389,1.57,1.997,2.253c0.288,0.323,0.66,0.521,1.094,0.39
	c1.35-0.412,2.622-0.859,2.767-2.563c0.048-0.572,0.176-1.139,0.297-1.703c0.386-1.797-0.682-3.156-1.687-4.395
	c-0.778-0.957-1.951,0.068-2.954,0.057c-0.036,0-0.073,0.016-0.11,0.021c-0.816,0.121-1.23,0.576-1.334,1.365
	c-0.116,0.893-0.277,1.779-0.46,2.662C51.491,65.878,51.743,66.559,52.049,66.985z M79.711,43.384
	c0.941-0.641,1.351-2.394,0.556-2.941c-1.962-1.354-3.869-2.766-6.642-1.699c-2.733,1.051-2.795,0.9-2.506,3.711
	c0.015,0.143,0.03,0.286,0.058,0.428c0.053,0.26,0.207,0.438,0.449,0.582C73.651,44.677,77.867,44.642,79.711,43.384z M68.48,45.454
	c-0.212,0.148-0.424,0.296-0.636,0.444c-1.345,0.938-1.731,2.751-0.88,4.097c0.147,0.232,0.364,0.369,0.625,0.42
	c1.284,0.254,2.593,0.547,3.852,0.006c0.742-0.317,1.388-0.84,2.096-1.238c1.152-0.65,1.808-2.363,1.343-3.535
	c-0.089-0.224-0.242-0.369-0.456-0.44C72.411,44.538,70.379,43.546,68.48,45.454z M58.463,62.61
	c0.201,0.228,0.383,0.721,0.833,0.678c1.192-0.113,2.48-0.242,3.2-1.29c1.293-1.881,1.924-3.896,0.71-6.081
	c-0.125-0.224-0.202-0.459-0.454-0.591c-0.617-0.323-3.25,0.05-3.755,0.539C57.088,57.714,56.854,60.374,58.463,62.61z
	 M54.073,81.844c0.813,1.187,2.208,1.577,3.357,2.296c0.579,0.362,1.099,0.328,1.65-0.079c0.573-0.422,0.8-0.925,0.621-1.599
	c-0.641-2.418-1.929-4.41-4.098-5.848c-0.616-0.41-1.148-0.263-1.645,0.113c-0.554,0.42-1.581,0.617-1.348,1.518
	C52.932,79.491,53.353,80.733,54.073,81.844z M68.818,57.067c0.909-1.05,2.669-2.232,2.059-4.516c-0.107-0.4-0.219-0.745-0.657-0.93
	c-1.749-0.734-3.376-0.371-4.61,1.047c-0.313,0.358-0.629,0.714-0.937,1.076c-0.778,0.92-0.668,3.344,0.188,4.199
	c0.165,0.164,0.373,0.25,0.606,0.232C66.508,58.095,67.579,58.122,68.818,57.067z M53.062,86.78c1.293,2.473,3.856,2.898,6.26,3.572
	c0.554,0.154,0.91-0.163,1.223-0.57c0.348-0.451,0.264-0.846-0.029-1.287c-1.443-2.172-3.27-3.92-5.767-4.967
	c-0.976-0.408-1.822-0.213-2.591,0.648c-0.657,0.736-0.082,1.258,0.312,1.814C52.658,86.26,52.863,86.517,53.062,86.78z
	 M59.224,71.021c-0.269-0.3-0.533-0.604-0.808-0.898c-0.448-0.48-0.959-0.653-1.603-0.331c-0.741,0.37-1.775,0.477-1.784,1.55
	c-0.019,2.345,0.123,4.645,2.57,6.042c0.474,0.271,0.856,0.802,1.486,0.458c0.68-0.373,1.528-0.758,1.52-1.605
	C60.584,74.409,60.628,72.529,59.224,71.021z M54.293,90.308c-1.381,0.982-1.364,1.507-0.045,2.483
	c1.215,0.899,2.476,1.75,3.945,2.151c1.544,0.422,3.171,0.473,4.777,0.424c0.398-0.012,0.912-0.201,1.003-0.723
	c0.071-0.408-0.226-0.65-0.529-0.883c-2.337-1.791-5.002-2.928-7.877-3.643C55.119,90.007,54.677,89.993,54.293,90.308z
	 M59.535,70.271c0.515,0.492,0.689,1.519,1.667,1.367c0.858-0.133,1.747-0.629,1.949-1.461c0.435-1.789,1.125-3.639-0.184-5.406
	c-0.314-0.424-0.399-1.178-1.085-1.068c-0.925,0.148-2.264,0.057-2.568,1.008C58.732,66.522,57.592,68.485,59.535,70.271z
	 M83.424,48.151c0.879-0.605,1.233-1.904,0.545-2.291c-1.049-0.59-2.045-1.304-3.343-1.441c-1.499-0.159-2.779,0.49-4.107,0.904
	c-0.822,0.256-0.934,2.643-0.24,3.078C77.741,49.322,81.939,49.176,83.424,48.151z M89.603,45.569
	c0.785-0.533,0.781-1.284,0.122-1.961c-1.817-1.867-3.967-2.838-6.682-2.645c-0.845,0.061-1.449,0.184-1.697,1.051
	c-0.255,0.893-0.186,1.561,0.779,2.09c1.997,1.097,4.115,1.656,6.401,1.676C88.899,45.784,89.281,45.819,89.603,45.569z
	 M66.525,65.307c1.836-1.321,2.6-4.358,1.632-6.145c-0.082-0.151-0.199-0.319-0.348-0.396c-0.751-0.383-2.938,0.207-3.338,0.951
	c-0.479,0.895-0.905,1.82-1.271,2.762c-0.275,0.709,0.498,2.959,1.139,3.244C65.187,66.1,65.906,65.536,66.525,65.307z
	 M77.134,53.267c0.396-0.276,0.789-0.5,1.116-0.79c0.605-0.538,0.876-2.211,0.454-2.583c-0.599-0.529-3.202-0.873-3.99-0.461
	c-0.852,0.447-1.696,0.924-2.473,1.48c-1.034,0.74-0.717,1.819-0.537,2.793c0.165,0.891,1,0.672,1.641,0.744
	C74.814,54.614,76.06,54.129,77.134,53.267z M95.229,42.864c-1.533-2.068-2.256-2.58-5.458-3.801
	c-0.541-0.207-1.188-0.766-1.635,0.098c-0.403,0.777-0.779,1.547,0.23,2.284c1.091,0.796,2.138,1.624,3.301,2.347
	c1.184,0.736,2.445,1.203,3.722,1.686c0.304,0.115,0.71,0.097,0.929-0.197c0.237-0.316,0.181-0.699-0.038-1.016
	C95.949,43.784,95.581,43.329,95.229,42.864z M72.618,60.32c1.085-1.239,2.729-2.263,2.335-4.333
	c-0.062-0.329-0.072-0.617-0.473-0.77c-1.246-0.477-2.995-0.061-3.874,0.945c-0.362,0.414-0.75,0.809-1.111,1.223
	c-0.679,0.779-0.753,2.709,0.052,3.412c0.782,0.684,1.679,0.129,2.492-0.207C72.211,60.521,72.376,60.435,72.618,60.32z
	 M64.233,72.542c-0.288-0.299-0.543-1.121-1.393-0.833c-0.712,0.241-1.634,0.515-1.65,1.421c-0.035,1.979-0.101,4.008,1.914,5.331
	c0.416,0.272,0.719,0.815,1.347,0.494c0.612-0.313,1.204-0.726,1.203-1.448C65.649,75.812,65.564,74.114,64.233,72.542z
	 M63.377,79.539c-0.494-0.438-1.004-0.86-1.477-1.319c-0.469-0.455-0.935-0.543-1.481-0.135c-0.555,0.414-1.237,0.729-0.958,1.617
	c0.65,2.076,1.531,3.973,3.779,4.917c0.434,0.183,0.842,0.62,1.325,0.259c0.536-0.401,0.751-0.986,0.55-1.641
	C64.714,81.931,64.264,80.642,63.377,79.539z M64.735,72.056c1.028,1.605,2.185,1.649,2.854,0.078
	c0.658-1.545,1.1-3.232,0.179-4.879c-0.242-0.432-0.236-1.209-1.023-1.074c-0.79,0.135-1.867,0.199-2.083,1.038
	C64.239,68.855,63.208,70.589,64.735,72.056z M60.626,87.192c0.888,1.633,2.737,2.375,4.684,2.976
	c0.352,0.108,0.727,0.292,1.011-0.107c0.296-0.415,0.408-0.873,0.058-1.3c-1.429-1.746-2.861-3.482-5.002-4.516
	c-0.643-0.309-1.122-0.255-1.602,0.229c-0.507,0.512-0.463,1.014-0.04,1.543C59.985,86.329,60.219,86.653,60.626,87.192z
	 M86.274,52.085c1.291-0.926,1.176-1.518,0.074-2.217c-2.001-1.266-3.957-0.68-5.911-0.037c-0.838,0.274-0.587,1.154-0.743,1.789
	c-0.084,0.344-0.008,0.65,0.388,0.792C82.288,53.196,84.4,52.831,86.274,52.085z M98.346,45.296
	c0.894,0.818,1.785,1.641,2.684,2.455c0.167,0.152,0.38,0.251,0.613,0.156c0.23-0.094,0.188-0.285,0.116-0.457
	c-0.871-2.072-1.712-4.172-3.258-5.887c-0.73-0.811-1.618-1.494-2.453-2.213c-0.288-0.249-0.555-0.698-1.037-0.439
	c-0.468,0.252-0.566,0.721-0.555,1.217c0.01,0.463,0.292,0.797,0.508,1.174C95.836,42.837,97.34,43.87,98.346,45.296z
	 M70.688,67.474c1.301-0.926,2.209-3.813,1.703-5.283c-0.186-0.539-0.489-0.723-1.075-0.678c-2.305,0.182-4.021,3.111-3.08,5.299
	C68.803,68.132,69.499,68.32,70.688,67.474z M81.096,56.063c0.316-0.154,0.504-0.424,0.687-0.698
	c0.825-1.235,0.605-1.775-0.86-2.107c-1.765-0.398-3.984,0.39-5.05,1.818c-0.478,0.64-0.431,1.395-0.213,2.074
	c0.219,0.68,0.941,0.416,1.467,0.459C78.717,57.738,79.809,56.661,81.096,56.063z M92.262,49.925c0.605-0.402,0.654-0.728,0.2-1.211
	c-1.783-1.898-4.091-2.397-6.622-2.285c-0.801,0.037-0.844,0.695-1.039,1.229c-0.214,0.586,0.139,0.838,0.598,1.103
	c1.582,0.91,3.333,1.227,5.126,1.401C91.118,50.218,91.729,50.307,92.262,49.925z M76.126,62.699
	c0.862-0.958,2.27-1.876,2.181-3.669c-0.016-0.322,0.04-0.645-0.387-0.803c-0.91-0.336-2.445-0.025-3.129,0.688
	c-0.508,0.529-1.002,1.072-1.472,1.633c-0.483,0.578-0.535,2.361,0.01,2.746c0.731,0.514,1.483,0.145,2.175-0.242
	C75.632,62.979,75.761,62.905,76.126,62.699z M67.014,78.692c0.047,0.049,0.219,0.303,0.458,0.461
	c0.484,0.323,0.739,1.189,1.518,0.834c0.809-0.369,0.881-1.164,0.854-1.954c-0.048-1.388-0.312-2.709-1.167-3.864
	c-0.285-0.385-0.432-1.004-1.135-0.84c-0.692,0.163-1.346,0.555-1.379,1.252C66.1,75.923,65.981,77.315,67.014,78.692z
	 M69.317,74.022c0.744,1.004,1.476,0.99,2.111-0.287c0.679-1.365,0.85-2.835,0.343-4.299c-0.163-0.471-0.163-1.23-0.867-1.242
	c-0.75-0.014-1.571,0.262-1.864,0.995C68.415,70.755,67.986,72.364,69.317,74.022z M68.207,80.958
	c-0.223-0.668-0.806-1.035-1.294-1.467c-0.301-0.266-0.604-0.759-1.127-0.383c-0.499,0.359-1.108,0.717-0.904,1.467
	c0.491,1.801,1.174,3.494,3.055,4.412c0.409,0.199,0.785,0.702,1.298,0.323c0.542-0.399,0.582-1.016,0.345-1.573
	C69.173,82.786,69.013,81.716,68.207,80.958z M69.678,94.47c0.332-0.571-0.051-0.875-0.423-1.176
	c-1.439-1.164-3.171-1.853-4.812-2.682c-0.589-0.299-1.257-0.459-1.899-0.654c-0.586-0.18-0.903,0.16-1.156,0.605
	c-0.212,0.373-0.174,0.664,0.195,0.936c2.227,1.643,4.64,2.845,7.512,2.986C69.276,94.493,69.461,94.476,69.678,94.47z
	 M98.245,49.515c-1.435-2.025-3.345-3.449-5.745-4.266c-0.541-0.185-1.024-0.459-1.447,0.223c-0.396,0.637-0.202,1.035,0.34,1.473
	c1.699,1.369,3.585,2.432,5.62,3.26c0.238,0.098,0.497,0.17,0.752,0.191c0.25,0.021,0.55,0.046,0.698-0.227
	C98.609,49.899,98.425,49.69,98.245,49.515z M74.136,69.255c1.164-0.813,2.039-3.311,1.693-4.668
	c-0.167-0.656-0.556-0.755-1.155-0.664c-1.743,0.262-3.245,2.947-2.612,4.695C72.533,69.919,72.984,70.058,74.136,69.255z
	 M83.357,53.626c-0.515,0.439-0.729,1.02-0.655,1.644c0.068,0.579,0.677,0.456,1.076,0.569c1.381,0.391,2.724,0.082,4.065-0.237
	c0.593-0.142,1.148-0.347,1.536-0.817c0.269-0.329,0.421-0.648-0.055-1.002C87.92,52.74,84.729,52.638,83.357,53.626z
	 M80.246,57.269c-0.345,0.273-0.74,0.506-1.023,0.829c-0.591,0.673-0.468,1.974,0.153,2.132c1.526,0.39,4.731-1.174,5.32-2.58
	c0.255-0.605,0.208-0.936-0.566-1.18C82.628,55.999,81.419,56.439,80.246,57.269z M70.17,88.001
	c-0.896-1.131-1.913-2.258-3.313-3.016c-0.46-0.25-0.868-0.429-1.324-0.036c-0.464,0.399-0.521,0.875-0.203,1.357
	c0.93,1.413,2.004,2.714,3.686,3.331c0.643,0.235,1.42,1.082,1.988,0.445C71.706,89.293,70.63,88.711,70.17,88.001z M94.618,52.808
	c-1.601-1.693-3.678-2.121-5.924-2.033c-0.585,0.023-0.916,0.465-1.036,0.997c-0.115,0.511,0.314,0.669,0.675,0.861
	c1.641,0.876,3.449,1.097,5.276,1.216c0.281,0.018,0.589-0.103,0.858-0.218C94.917,53.438,94.97,53.136,94.618,52.808z
	 M79.017,64.802c0.701-0.828,1.967-1.553,2.12-3.043c0.068-0.667-0.169-0.969-0.914-1.031c-1.792-0.151-2.571,1.131-3.474,2.201
	c-0.635,0.752-0.586,1.826-0.042,2.422C77.271,65.968,78.145,65.36,79.017,64.802z M73.137,75.55
	c0.578,0.742,1.059,0.188,1.322-0.273c0.835-1.461,1.106-3.018,0.492-4.643c-0.241-0.637-0.639-0.821-1.297-0.491
	c-0.521,0.261-0.909,0.603-1.113,1.14C71.967,72.794,71.957,74.233,73.137,75.55z M71.264,79.882
	c0.313,0.292,0.572,1.044,1.306,0.922c0.549-0.09,0.746-0.711,0.774-1.208c0.079-1.448-0.047-2.876-0.971-4.111
	c-0.25-0.335-0.465-0.831-1.024-0.665c-0.562,0.168-1.08,0.572-1.055,1.141C70.352,77.261,70.136,78.646,71.264,79.882z
	 M71.858,81.395c-0.233-0.28-0.455-0.568-0.7-0.837c-0.316-0.345-0.625-0.802-1.201-0.508c-0.546,0.279-0.833,0.783-0.646,1.357
	c0.49,1.507,1.003,3.025,2.545,3.903c0.363,0.207,0.717,0.69,1.18,0.372c0.483-0.334,0.408-0.918,0.25-1.393
	C72.944,83.27,72.609,82.235,71.858,81.395z M77.182,70.714c0.887-0.984,1.672-2.248,1.594-3.868
	c-0.043-0.892-0.528-1.085-1.36-0.828c-1.387,0.427-2.531,2.848-2.024,4.345C75.747,71.414,76.029,71.503,77.182,70.714z
	 M83.111,59.839c-0.787,0.484-1.493,0.954-1.463,1.938c0.012,0.415,0.137,0.657,0.625,0.718c1.233,0.156,3.944-1.1,4.56-2.15
	c0.482-0.822,0.335-1.121-0.656-1.324C84.982,58.774,83.973,59.161,83.111,59.839z M99.336,53.059
	c-0.917-1.169-2.465-2.188-4.488-2.966c-0.472-0.182-0.979-0.506-1.381,0.117c-0.4,0.617,0.08,0.924,0.5,1.227
	c1.367,0.98,2.766,1.908,4.337,2.572c0.515,0.219,1.169,0.627,1.555,0.209C100.295,53.747,99.438,53.438,99.336,53.059z
	 M90.907,57.985c0.496-0.4,1.168-0.658,0.482-1.221c-1.125-0.922-4.248-0.877-5.432,0.027c-0.64,0.488-0.744,1.51-0.146,1.652
	C87.611,58.876,89.349,58.616,90.907,57.985z M70.688,87.571c0.772,1.166,1.924,1.872,3.198,2.422
	c0.324,0.139,0.734,0.459,1.027,0.158c0.356-0.367,0.051-0.807-0.172-1.176c-0.665-1.096-1.594-1.992-2.615-2.754
	c-0.57-0.425-1.216-1.502-2.02-0.789C69.281,86.164,70.241,86.906,70.688,87.571z M81.576,66.503
	c0.501-0.448,1.267-1.086,1.742-1.963c0.243-0.447,0.518-0.992,0.141-1.415c-0.379-0.425-0.984-0.208-1.48-0.08
	c-1.176,0.304-1.803,1.247-2.463,2.102c-0.481,0.624-0.525,1.501,0.008,2.004c0.491,0.463,1.168-0.065,1.697-0.4
	C81.252,66.73,81.281,66.708,81.576,66.503z M74.215,93.266c-1.821-1.36-3.873-2.438-6.096-3.216
	c-0.37-0.131-0.657-0.008-0.822,0.354c-0.136,0.3-0.121,0.565,0.166,0.771c1.93,1.383,3.923,2.639,6.425,2.813
	c0.174,0.013,0.437,0.014,0.513-0.084C74.556,93.708,74.373,93.502,74.215,93.266z M74.515,96.778
	c-0.336-0.456-0.702-0.426-1.01-0.52c-1.208-0.365-2.563-0.342-3.672-0.771c-1.259-0.485-2.532-0.554-3.792-0.815
	c-0.496-0.102-1.06,0.092-1.152,0.617c-0.094,0.541,0.523,0.535,0.882,0.626 M96.194,55.96c-0.813-0.98-4.101-2.01-5.363-1.645
	c-0.475,0.139-0.771,0.463-0.841,0.922c-0.067,0.438,0.364,0.49,0.65,0.625c1.472,0.691,3.066,0.895,4.67,1.041
	c0.246,0.023,0.516-0.076,0.758-0.162C96.506,56.586,96.529,56.319,96.194,55.96z M102.751,52.974
	c0.082-0.049,0.165-0.096,0.247-0.145c-0.136-0.324-0.253-0.656-0.409-0.971c-1.032-2.091-2.488-3.871-4.301-5.389
	c-0.354-0.297-0.716-0.84-1.218-0.428c-0.475,0.391-0.068,0.858,0.213,1.24c0.281,0.383,0.65,0.721,0.858,1.135
	c0.386,0.769,1.397,0.892,1.768,1.563C100.605,51.237,101.8,51.983,102.751,52.974z M74.7,80.747
	c0.268,0.221,0.425,0.861,1.022,0.686c0.643-0.191,0.671-0.82,0.683-1.355c0.025-1.162-0.224-2.285-0.735-3.34
	c-0.18-0.369-0.325-0.902-0.904-0.793c-0.544,0.104-0.975,0.484-0.998,1.035C73.712,78.274,73.713,79.578,74.7,80.747z
	 M75.984,76.31c0.442,0.684,0.983,0.693,1.375-0.109c0.592-1.211,0.946-2.504,0.534-3.859c-0.107-0.354-0.102-0.854-0.642-0.904
	c-0.442-0.043-0.771,0.23-1.052,0.535C75.294,72.955,75.189,75.08,75.984,76.31z M79.373,72.288
	c1.076-0.785,1.974-2.775,1.873-3.982c-0.044-0.537-0.231-0.717-0.851-0.674c-1.311,0.091-3.002,3.247-2.067,4.545
	C78.725,72.726,79.061,72.494,79.373,72.288z M74.259,84.706c0.152,0.345,0.461,0.656,0.855,0.876
	c0.366,0.204,0.719,0.753,1.151,0.432c0.436-0.324,0.348-0.923,0.164-1.409c-0.435-1.145-0.868-2.299-1.791-3.189
	c-0.287-0.278-0.484-0.875-1.043-0.523c-0.451,0.284-0.73,0.766-0.515,1.313C73.407,83.038,73.611,83.93,74.259,84.706z
	 M87.508,63.438c0.585-0.402,1.076-0.684,1.371-1.162c0.208-0.336,0.304-0.65-0.203-0.875c-1.186-0.523-4.082,0.634-4.533,1.832
	c-0.357,0.947,0.021,1.398,1.066,1.164C86.076,64.204,86.94,63.94,87.508,63.438z M92.658,60.329
	c0.762-0.504,0.844-0.842,0.112-1.191c-1.563-0.748-3.071-0.336-4.559,0.189c-0.4,0.141-0.53,0.586-0.558,0.998
	c-0.021,0.316,0.211,0.442,0.485,0.498C89.777,61.157,91.325,60.835,92.658,60.329z M83.791,68.165
	c0.554-0.797,1.599-1.411,1.828-2.6c0.108-0.559-0.045-0.78-0.687-0.742c-1.313,0.079-2.024,0.953-2.764,1.807
	c-0.525,0.605-0.755,1.431-0.277,1.977C82.456,69.255,83.063,68.456,83.791,68.165z M77.494,88.53
	c-0.721-1.006-1.556-1.775-2.47-2.457c-0.314-0.234-0.697-0.758-1.142-0.32c-0.418,0.41-0.21,0.926,0.1,1.383
	c0.621,0.918,1.434,1.665,2.325,2.316c0.537,0.394,1.387,1.048,1.822,0.637C78.616,89.63,77.756,88.991,77.494,88.53z
	 M101.239,57.443c-1.134-1.856-2.878-2.839-4.787-3.616c-0.412-0.168-0.846-0.145-1.104,0.24c-0.289,0.434,0.125,0.656,0.415,0.855
	c1.389,0.957,2.855,1.795,4.404,2.494C100.471,57.554,100.792,57.651,101.239,57.443z M77.329,81.202
	c0.457,0.183,0.577,0.998,1.194,0.758c0.518-0.202,0.5-0.832,0.482-1.344c-0.036-1.012-0.202-2.001-0.635-2.932
	c-0.163-0.35-0.311-0.803-0.839-0.719c-0.459,0.072-0.69,0.461-0.738,0.859C76.654,78.981,76.768,80.112,77.329,81.202z
	 M78.567,77.146c0.599,0.834,0.982,0.486,1.222,0.043c0.58-1.076,0.858-2.221,0.56-3.434c-0.09-0.367-0.062-0.879-0.565-0.955
	c-0.485-0.074-0.833,0.291-1.102,0.635C78.009,74.296,78.04,76.47,78.567,77.146z M97.675,58.789
	c-0.777-0.929-3.838-1.835-4.998-1.479c-0.347,0.105-0.605,0.316-0.648,0.671c-0.044,0.37,0.301,0.466,0.56,0.589
	c1.303,0.613,2.73,0.719,4.136,0.904c0.248,0.033,0.52-0.033,0.77-0.096C97.865,59.286,98.037,59.104,97.675,58.789z M81.647,73.438
	c1.039-0.984,1.673-2.16,1.769-3.582c0.055-0.814-0.366-0.914-1.043-0.627c-1.144,0.486-2.144,2.754-1.739,3.887
	C80.836,73.683,81.136,73.78,81.647,73.438z M78.325,93.707c-0.133-0.524-0.417-0.787-0.759-1.03
	c-1.414-1.011-3.003-1.71-4.582-2.43c-0.287-0.13-0.656-0.357-0.888,0.043c-0.221,0.381,0.017,0.701,0.333,0.931
	C74.167,92.479,75.989,93.562,78.325,93.707z M77.382,85.145c0.189,0.351,0.525,0.635,0.9,0.879
	c0.235,0.153,0.454,0.456,0.783,0.255c0.303-0.185,0.222-0.522,0.171-0.795c-0.234-1.266-0.899-2.35-1.631-3.393
	c-0.227-0.323-0.553-0.695-1.014-0.455c-0.44,0.229-0.533,0.684-0.37,1.137C76.515,83.585,76.766,84.421,77.382,85.145z
	 M89.453,65.044c0.454-0.217,0.854-0.537,1.148-0.963c0.18-0.26,0.241-0.506-0.14-0.706c-1.187-0.623-4.156,0.843-4.349,2.128
	c-0.089,0.593,0.162,0.679,0.676,0.615C87.775,65.999,88.631,65.596,89.453,65.044z M85.481,69.663
	c0.708-0.605,1.503-1.262,1.869-2.246c0.303-0.816,0.063-1.072-0.833-0.869c-1.229,0.277-1.921,1.188-2.492,2.153
	c-0.237,0.399-0.44,1.03,0.072,1.376C84.559,70.392,84.991,69.95,85.481,69.663z M89.973,61.648
	c-0.183,0.194-0.429,0.427-0.439,0.778c-0.008,0.281,0.228,0.359,0.449,0.392c1.558,0.231,3.059,0.042,4.476-0.629
	c0.456-0.216,0.495-0.495,0.013-0.783C93.566,60.866,90.883,60.978,89.973,61.648z M80.912,90.282
	c-0.093-1.26-2.36-4.053-3.405-4.219c-0.77-0.123-0.682,0.494-0.5,0.84C77.838,88.485,79.118,89.608,80.912,90.282z M83.92,74.204
	c0.661-0.797,1.296-1.793,1.375-3.035c0.047-0.758-0.351-0.862-0.983-0.596c-0.858,0.359-1.854,2.569-1.586,3.45
	C82.925,74.677,83.263,74.735,83.92,74.204z M80.01,81.918c0.247,0.146,0.318,0.696,0.752,0.606c0.488-0.1,0.442-0.63,0.486-0.994
	c0.129-1.063-0.185-2.07-0.556-3.053c-0.112-0.297-0.314-0.618-0.736-0.533c-0.372,0.074-0.598,0.387-0.604,0.705
	C79.331,79.751,79.191,80.889,80.01,81.918z M103.936,56.858c-0.256-1.423-1.248-2.422-2.037-3.517
	c-0.503-0.696-1.241-1.241-1.898-1.829c-0.263-0.234-0.611-0.604-0.966-0.332c-0.427,0.326,0.061,0.623,0.23,0.902
	c0.149,0.248,0.409,0.441,0.52,0.7c0.331,0.763,1.347,0.805,1.692,1.484C102.039,55.372,103.142,55.968,103.936,56.858z
	 M93.75,60.634c0.512,0.547,4.315,1.212,4.932,0.941c0.476-0.207,0.294-0.41,0.025-0.615c-0.744-0.567-1.593-0.916-2.532-1.041
	c-0.656-0.087-1.33-0.313-1.976-0.008C93.895,60.054,93.478,60.231,93.75,60.634z M95.441,64.202c0.496-0.326,0.892-0.51,0.3-0.877
	c-0.755-0.469-3.458-0.323-4.127,0.248c-0.228,0.195-0.411,0.434-0.366,0.749c0.031,0.214,0.237,0.276,0.421,0.297
	C93.03,64.767,94.35,64.618,95.441,64.202z M102.412,60.267c-1.159-1.572-2.709-2.461-4.389-3.182
	c-0.318-0.137-0.714-0.222-0.926,0.098c-0.296,0.446,0.171,0.652,0.459,0.828c0.914,0.556,1.837,1.1,2.788,1.592
	C100.949,59.916,101.535,60.35,102.412,60.267z M76.052,90.958c1.355,1.192,2.979,1.881,4.735,2.316
	c0.144,0.037,0.325,0.062,0.394-0.096c0.107-0.248-0.086-0.399-0.269-0.525c-1.365-0.939-2.842-1.699-4.341-2.418
	c-0.218-0.104-0.516-0.248-0.702,0.041C75.706,90.53,75.894,90.753,76.052,90.958z M82.081,82.416
	c0.242,0.271,0.366,0.626,0.7,0.585c0.433-0.053,0.404-0.49,0.438-0.775c0.127-1.086-0.076-2.135-0.533-3.137
	c-0.104-0.227-0.179-0.52-0.496-0.514c-0.351,0.008-0.533,0.282-0.568,0.574C81.484,80.298,81.486,81.434,82.081,82.416z
	 M78.239,95.725c-0.715-0.192-1.432-0.382-2.145-0.578c-0.497-0.136-1.05,0.214-1.518-0.173c-0.792-0.655-1.805-0.627-2.75-0.799
	c-0.273-0.05-0.665-0.158-0.749,0.235c-0.08,0.372,0.302,0.457,0.576,0.54C73.787,95.587,75.961,95.973,78.239,95.725z M82.33,85.95
	c0.027,0.031,0.123,0.198,0.268,0.301c0.288,0.205,0.575,0.647,0.934,0.445c0.346-0.195,0.149-0.666,0.073-1.002
	c-0.212-0.928-0.829-1.676-1.278-2.498c-0.151-0.276-0.36-0.643-0.76-0.474c-0.408,0.173-0.411,0.585-0.277,0.94
	C81.568,84.403,81.767,85.178,82.33,85.95z M100.203,63.415c-1.361-1.219-2.761-1.4-4.198-1.451
	c-0.305-0.012-0.59,0.153-0.741,0.426c-0.113,0.203,0.045,0.367,0.227,0.414C96.942,63.178,98.374,63.728,100.203,63.415z
	 M102.938,62.429c-0.934-1.465-2.429-2.149-3.978-2.748c-0.136-0.053-0.389,0.015-0.506,0.115c-0.187,0.158-0.028,0.339,0.122,0.441
	C99.919,61.157,101.279,62.056,102.938,62.429z M79.027,90.044c0.072,0.342,0.054,0.512,0.133,0.596
	c1.162,1.227,2.67,1.896,4.27,2.41c0.138,0.045,0.338,0.059,0.375-0.116c0.023-0.11-0.051-0.3-0.147-0.364
	C82.254,91.609,80.814,90.706,79.027,90.044z M104.752,60.053c0.081-0.067,0.161-0.134,0.241-0.2
	c-1.168-1.812-2.355-3.607-4.291-4.734c-0.11,0.098-0.219,0.195-0.329,0.291C101.833,56.958,103.292,58.505,104.752,60.053z"/>
<text transform="matrix(1 0 0 1 59.7568 193.001)" fill="#010101" font-family="'ArialMT'" font-size="30">CONTRIBUCIONES TOTALES POR INSTITUCIÓN</text>
<rect x="1.002" y="721.124" fill="#D65677" width="1190.546" height="120.877"/>
<linearGradient id="SVGID_2_" gradientUnits="userSpaceOnUse" x1="17.3896" y1="755.9746" x2="55.6514" y2="755.9746">
	<stop  offset="0" style="stop-color:#FFFFFF;stop-opacity:0"/>
	<stop  offset="0.5376" style="stop-color:#FFFFFF"/>
</linearGradient>
<path fill-rule="evenodd" clip-rule="evenodd" fill="url(#SVGID_2_)" d="M42.372,771.054c-0.152-0.064-0.306-0.123-0.454-0.191
	c-0.095-0.045-0.194-0.111-0.29-0.037c-0.112,0.084-0.125,0.227-0.062,0.33c0.461,0.764,0.977,1.475,1.979,1.797
	c-0.055-0.504-0.365-0.768-0.572-1.086c-0.185-0.285-0.58-0.424-0.608-0.814c0.335-0.125,0.245-0.404,0.194-0.619
	c-0.14-0.588-0.375-1.148-0.753-1.635c-0.129-0.166-0.279-0.482-0.583-0.301c-0.247,0.146-0.183,0.414-0.107,0.656
	C41.347,769.903,41.788,770.522,42.372,771.054z M31.475,743.825c1.181-0.375,1.299-1.266,1.047-2.324
	c-0.065-0.273-0.085-0.559-0.107-0.842c-0.036-0.445-0.251-0.746-0.686-0.928c-0.77-0.32-1.533-0.656-2.292-1
	c-0.448-0.203-0.873-0.139-1.248,0.119c-0.699,0.48-1.41,0.947-2.028,1.531c-0.335,0.316-0.457,0.654-0.321,1.092
	c0.21,0.678,0.408,1.359,0.602,2.041c0.07,0.248,0.175,0.5,0.431,0.563C28.412,744.456,29.985,745.372,31.475,743.825z
	 M19.914,752.38c-0.003,0.002-0.007,0.004-0.01,0.006c0.196,0.262,0.392,0.523,0.59,0.783c0.647,0.848,3.211,0.705,3.766-0.211
	c0.01-0.018,0.019-0.035,0.03-0.053c0.843-1.336,1.241-2.682,0.154-4.092c-0.171-0.221-0.25-0.508-0.386-0.758
	c-0.166-0.307-0.417-0.492-0.795-0.504c-0.752-0.021-1.504-0.057-2.257-0.084c-0.424-0.016-0.715,0.172-0.883,0.545
	c-0.324,0.721-0.653,1.441-0.973,2.164c-0.233,0.527-0.178,1.018,0.208,1.471C19.557,751.88,19.73,752.134,19.914,752.38z
	 M36.952,738.681c0.682,0.459,1.468,1.076,2.337,1.551c1.041,0.566,2.227,0.418,3.371,0.4c0.092,0,0.198-0.063,0.272-0.125
	c0.467-0.393,0.641-1.971,0.23-2.434c-0.639-0.723-1.314-1.414-1.982-2.111c-0.184-0.191-0.405-0.322-0.668-0.428
	c-1.087-0.434-2.19-0.115-3.284-0.096c-0.32,0.006-0.482,0.297-0.504,0.611c-0.043,0.625-0.079,1.25-0.119,1.875
	C36.59,738.165,36.719,738.349,36.952,738.681z M22.48,763.718c0.217-0.105,0.418-0.275,0.4-0.502
	c-0.068-0.875,0.079-1.777-0.355-2.611c-0.494-0.949-1.399-1.535-2.133-2.271c-0.17-0.17-0.456-0.199-0.715-0.119
	c-0.56,0.17-1.116,0.35-1.677,0.514c-0.453,0.133-0.636,0.426-0.606,0.867c0.048,0.727,0.071,1.455,0.142,2.178
	c0.04,0.406,0.193,0.795,0.551,1.049c0.692,0.492,1.4,0.961,2.098,1.445c0.322,0.223,0.661,0.248,1.009,0.086
	C21.626,764.149,22.051,763.931,22.48,763.718z M25.683,749.968c0.173,0.232,0.373,0.385,0.683,0.385
	c0.523,0,1.047,0.031,1.57,0.014c0.38-0.012,0.772-0.129,1.026-0.389c1.016-1.039,2.064-2.09,1.206-3.707
	c-0.037-0.068-0.046-0.154-0.058-0.234c-0.063-0.418-0.34-0.627-0.745-0.711c-0.695-0.146-1.39-0.297-2.087-0.434
	c-0.513-0.1-0.933,0.021-1.254,0.463c-0.36,0.496-0.755,0.969-1.153,1.438c-0.267,0.314-0.332,0.656-0.174,1.018
	C25.012,748.534,25.352,749.249,25.683,749.968z M38.876,743.29c0.703-0.461,0.792-2.045,0.142-2.523
	c-0.698-0.514-1.422-1-2.171-1.441c-0.387-0.227-0.855-0.305-1.32-0.143c-0.63,0.221-1.255,0.455-1.893,0.65
	c-0.388,0.121-0.532,0.363-0.519,0.725c0.008,0.221,0.037,0.443,0.061,0.664c0.231,2.16-0.035,1.582,1.952,2.451
	C36.489,744.267,37.686,743.683,38.876,743.29z M24.512,754.595c-0.17-0.426-0.628-0.527-1.216-0.406
	c-0.47,0.098-0.954,0.131-1.431,0.199c-0.377,0.055-0.694,0.211-0.779,0.602c-0.154,0.711-0.297,1.426-0.419,2.143
	c-0.061,0.357,0.09,0.688,0.335,0.943c0.538,0.566,1.102,1.107,1.653,1.662c0.17,0.172,0.375,0.254,0.616,0.262
	c1.012,0.035,1.914-0.609,2.142-1.549c0.1-0.412,0.17-0.832,0.241-1.252c0.071-0.414-0.041-0.811-0.236-1.168
	C25.175,755.585,24.877,755.167,24.512,754.595z M31.88,744.339c-0.363,0.254-0.649,0.457-0.94,0.656
	c-0.282,0.193-0.438,0.471-0.375,0.783c0.114,0.572,0.277,1.139,0.446,1.699c0.059,0.197,0.227,0.352,0.445,0.396
	c1.166,0.238,2.343,0.578,3.389-0.34c0.137-0.119,0.312-0.207,0.483-0.279c0.601-0.252,0.839-0.688,0.774-1.307
	c-0.032-0.301-0.033-0.605-0.042-0.908c-0.007-0.209-0.038-0.455-0.233-0.535c-0.914-0.365-1.766-0.945-2.827-0.848
	C32.48,743.704,32.235,744.194,31.88,744.339z M25.417,755.138c0.278,0.277,0.338,0.748,0.761,0.918
	c0.363,0.146,2.039-0.287,2.312-0.578c0.979-1.043,1.073-3.148,0.193-4.328c-0.117-0.158-0.282-0.234-0.47-0.275
	c-1.685-0.379-2.407-0.025-3.087,1.506c-0.008,0.02-0.014,0.039-0.024,0.057C24.509,753.407,24.533,754.315,25.417,755.138z
	 M21.163,771.382c0.244,0.266,0.458,0.68,0.865,0.967c1.026,0.727,2.269,0.777,3.429,1.063c0.614,0.15,1.564-0.844,1.302-1.293
	c-0.368-0.629-0.797-1.236-1.342-1.744c-0.798-0.744-1.841-1.09-2.809-1.559c-0.443-0.213-0.833-0.137-1.231,0.137
	c-1.327,0.908-1.333,0.906-0.39,2.197C21.025,771.2,21.063,771.247,21.163,771.382z M25.516,765.937
	c-0.335-0.639-1.089-0.973-1.699-1.453c-0.505-0.398-2.328,0.168-2.547,0.762c-0.02,0.057-0.041,0.127-0.023,0.178
	c0.281,0.818,0.381,1.725,0.967,2.406c0.735,0.854,1.837,1.174,2.867,1.541c0.647,0.23,1.631-0.619,1.442-1.207
	C26.284,767.423,26.139,766.626,25.516,765.937z M48.083,740.913c-0.835-1.07-2.143-1.439-3.429-1.844
	c-0.125-0.037-0.246-0.008-0.351,0.08c-0.359,0.299-0.556,1.773-0.248,2.107c1.264,1.373,2.745,2.449,4.584,3.01
	c0.491,0.15,0.854-0.064,0.904-0.535c0.033-0.309-0.032-0.602-0.206-0.869C48.928,742.229,48.521,741.595,48.083,740.913z
	 M26.626,761.3c-1.243-1.502-1.385-1.545-2.779-0.912c-0.076,0.035-0.154,0.066-0.222,0.111c-0.162,0.105-0.306,0.258-0.302,0.439
	c0.017,0.879-0.083,1.775,0.312,2.613c0.353,0.744,1.149,1.025,1.744,1.516c0.566,0.465,1.989-0.115,1.981-0.838
	C27.347,763.183,27.48,762.062,26.626,761.3z M32.508,752.542c1.121-0.803,1.565-1.941,1.248-3.23
	c-0.089-0.365-0.284-0.58-0.667-0.615c-2.267-0.207-1.914-0.615-3.331,1.168c-0.013,0.018-0.027,0.031-0.041,0.047
	c-0.566,0.676-0.337,2.434,0.388,2.947c0.065,0.047,0.149,0.096,0.225,0.096C31.063,752.96,31.801,752.987,32.508,752.542z
	 M40.059,743.39c0.044,0.037,0.119,0.107,0.204,0.166c1.343,0.934,2.823,1.432,4.499,1.352c0.405-0.018,0.615-0.211,0.732-0.543
	c0.127-0.357,0.334-0.723-0.04-1.066c-0.529-0.488-1.031-1.008-1.587-1.467c-1.048-0.863-2.325-0.584-3.539-0.586
	c-0.064,0-0.137,0.084-0.192,0.143C39.819,741.718,39.752,743.009,40.059,743.39z M26.066,759.931
	c0.438,0.496,0.776,0.881,1.116,1.264c0.161,0.182,0.369,0.293,0.611,0.219c0.754-0.23,1.465-0.482,1.546-1.438
	c0.027-0.32,0.098-0.639,0.166-0.955c0.216-1.008-0.381-1.77-0.942-2.465c-0.435-0.537-1.09,0.039-1.651,0.031
	c-0.021,0-0.041,0.01-0.062,0.014c-0.456,0.066-0.688,0.322-0.745,0.766c-0.065,0.5-0.155,0.998-0.257,1.492
	C25.754,759.31,25.896,759.692,26.066,759.931z M41.524,746.692c0.526-0.359,0.755-1.342,0.311-1.648
	c-1.097-0.76-2.162-1.551-3.712-0.953c-1.527,0.59-1.562,0.504-1.4,2.082c0.008,0.08,0.017,0.16,0.033,0.238
	c0.029,0.146,0.116,0.246,0.25,0.328C38.138,747.419,40.493,747.399,41.524,746.692z M35.248,747.854
	c-0.119,0.084-0.237,0.166-0.355,0.25c-0.751,0.525-0.967,1.543-0.492,2.297c0.082,0.131,0.203,0.207,0.349,0.236
	c0.717,0.143,1.449,0.307,2.152,0.004c0.415-0.18,0.775-0.473,1.171-0.695c0.644-0.365,1.011-1.326,0.75-1.982
	c-0.05-0.127-0.135-0.209-0.255-0.248C37.444,747.341,36.309,746.784,35.248,747.854z M29.65,757.478
	c0.112,0.127,0.214,0.404,0.466,0.381c0.667-0.064,1.386-0.137,1.788-0.725c0.723-1.055,1.075-2.186,0.396-3.41
	c-0.069-0.127-0.113-0.258-0.253-0.332c-0.345-0.182-1.816,0.027-2.098,0.303C28.883,754.731,28.751,756.224,29.65,757.478z
	 M27.197,768.265c0.454,0.666,1.234,0.885,1.876,1.289c0.323,0.203,0.614,0.184,0.922-0.045c0.32-0.236,0.447-0.52,0.347-0.896
	c-0.358-1.357-1.078-2.475-2.29-3.281c-0.345-0.229-0.642-0.146-0.919,0.064c-0.31,0.236-0.883,0.346-0.754,0.852
	C26.56,766.946,26.795,767.644,27.197,768.265z M35.437,754.368c0.508-0.588,1.492-1.252,1.151-2.533
	c-0.06-0.225-0.123-0.418-0.367-0.521c-0.978-0.412-1.887-0.207-2.576,0.588c-0.175,0.201-0.352,0.4-0.523,0.604
	c-0.435,0.516-0.373,1.875,0.105,2.355c0.092,0.092,0.208,0.141,0.339,0.129C34.146,754.944,34.745,754.96,35.437,754.368z
	 M26.632,771.034c0.723,1.387,2.155,1.625,3.498,2.004c0.31,0.086,0.508-0.092,0.683-0.32c0.194-0.254,0.147-0.475-0.017-0.723
	c-0.806-1.219-1.827-2.197-3.223-2.785c-0.545-0.229-1.018-0.119-1.448,0.363c-0.367,0.414-0.046,0.707,0.174,1.018
	C26.407,770.741,26.521,770.886,26.632,771.034z M30.076,762.194c-0.15-0.168-0.298-0.338-0.452-0.504
	c-0.25-0.27-0.536-0.367-0.896-0.186c-0.414,0.207-0.992,0.268-0.997,0.869c-0.011,1.314,0.068,2.605,1.436,3.389
	c0.265,0.152,0.479,0.449,0.831,0.256c0.38-0.207,0.854-0.424,0.849-0.898C30.836,764.095,30.86,763.04,30.076,762.194z
	 M27.32,773.013c-0.772,0.551-0.762,0.846-0.025,1.393c0.679,0.504,1.383,0.982,2.204,1.207c0.863,0.236,1.772,0.264,2.67,0.236
	c0.222-0.006,0.509-0.111,0.561-0.404c0.04-0.229-0.126-0.365-0.295-0.494c-1.306-1.006-2.795-1.643-4.402-2.045
	C27.782,772.843,27.535,772.837,27.32,773.013z M30.25,761.774c0.288,0.275,0.385,0.852,0.932,0.766
	c0.479-0.074,0.976-0.352,1.089-0.818c0.243-1.004,0.629-2.041-0.103-3.033c-0.175-0.236-0.223-0.66-0.606-0.598
	c-0.517,0.082-1.265,0.031-1.436,0.564C29.801,759.671,29.164,760.772,30.25,761.774z M43.599,749.368
	c0.491-0.34,0.689-1.068,0.305-1.285c-0.586-0.332-1.143-0.732-1.869-0.809c-0.837-0.09-1.552,0.275-2.295,0.508
	c-0.459,0.143-0.521,1.48-0.134,1.725C40.423,750.024,42.769,749.942,43.599,749.368z M47.051,747.919
	c0.438-0.299,0.437-0.721,0.068-1.1c-1.015-1.047-2.217-1.592-3.734-1.482c-0.472,0.033-0.81,0.102-0.948,0.59
	c-0.143,0.5-0.104,0.873,0.435,1.172c1.116,0.613,2.299,0.928,3.577,0.939C46.658,748.04,46.872,748.06,47.051,747.919z
	 M34.156,758.989c1.026-0.74,1.453-2.445,0.912-3.445c-0.045-0.086-0.111-0.18-0.194-0.223c-0.419-0.215-1.642,0.115-1.866,0.533
	c-0.268,0.502-0.505,1.021-0.71,1.549c-0.154,0.398,0.278,1.66,0.636,1.82C33.408,759.435,33.81,759.118,34.156,758.989z
	 M40.084,752.237c0.221-0.156,0.441-0.281,0.624-0.443c0.338-0.303,0.489-1.24,0.254-1.449c-0.335-0.297-1.79-0.49-2.23-0.258
	c-0.476,0.25-0.948,0.518-1.382,0.83c-0.577,0.414-0.4,1.02-0.3,1.566c0.092,0.5,0.559,0.377,0.917,0.416
	C38.788,752.991,39.483,752.72,40.084,752.237z M50.196,746.401c-0.857-1.16-1.261-1.447-3.05-2.131
	c-0.302-0.115-0.664-0.43-0.914,0.055c-0.226,0.436-0.435,0.867,0.128,1.281c0.61,0.445,1.195,0.91,1.845,1.316
	c0.662,0.412,1.367,0.674,2.08,0.945c0.17,0.064,0.397,0.055,0.52-0.111c0.132-0.178,0.101-0.393-0.021-0.57
	C50.598,746.919,50.392,746.663,50.196,746.401z M37.561,756.192c0.606-0.695,1.525-1.268,1.305-2.43
	c-0.035-0.186-0.04-0.346-0.264-0.432c-0.696-0.268-1.673-0.033-2.165,0.531c-0.202,0.23-0.419,0.451-0.621,0.684
	c-0.38,0.438-0.421,1.52,0.029,1.914c0.437,0.385,0.938,0.074,1.393-0.115C37.333,756.306,37.425,756.257,37.561,756.192z
	 M32.875,763.048c-0.161-0.168-0.304-0.629-0.778-0.467c-0.398,0.135-0.914,0.289-0.922,0.797c-0.02,1.109-0.056,2.248,1.07,2.99
	c0.232,0.152,0.401,0.457,0.752,0.277c0.342-0.176,0.673-0.408,0.672-0.813C33.666,764.882,33.619,763.931,32.875,763.048z
	 M32.396,766.972c-0.276-0.246-0.561-0.482-0.825-0.74c-0.262-0.254-0.522-0.303-0.828-0.074c-0.31,0.232-0.691,0.408-0.536,0.906
	c0.363,1.164,0.855,2.229,2.112,2.758c0.242,0.104,0.47,0.348,0.74,0.145c0.3-0.225,0.419-0.553,0.308-0.92
	C33.144,768.313,32.893,767.591,32.396,766.972z M33.156,762.774c0.574,0.9,1.221,0.926,1.594,0.045
	c0.368-0.867,0.615-1.813,0.1-2.736c-0.135-0.242-0.131-0.68-0.572-0.604c-0.441,0.076-1.043,0.113-1.164,0.582
	C32.878,760.979,32.302,761.952,33.156,762.774z M30.859,771.265c0.497,0.916,1.529,1.332,2.617,1.67
	c0.197,0.061,0.406,0.164,0.565-0.061c0.166-0.234,0.228-0.49,0.032-0.73c-0.798-0.979-1.599-1.953-2.795-2.531
	c-0.359-0.174-0.626-0.143-0.895,0.129c-0.284,0.285-0.259,0.568-0.022,0.863C30.501,770.78,30.632,770.964,30.859,771.265z
	 M45.191,751.573c0.721-0.52,0.657-0.852,0.042-1.242c-1.118-0.711-2.211-0.381-3.303-0.021c-0.469,0.154-0.328,0.648-0.415,1.004
	c-0.047,0.193-0.005,0.365,0.217,0.443C42.964,752.196,44.145,751.993,45.191,751.573z M51.937,747.767
	c0.5,0.459,0.998,0.92,1.5,1.375c0.094,0.086,0.212,0.143,0.343,0.09c0.129-0.053,0.105-0.16,0.064-0.258
	c-0.486-1.162-0.957-2.34-1.82-3.301c-0.409-0.455-0.904-0.838-1.371-1.242c-0.161-0.139-0.31-0.391-0.579-0.246
	c-0.262,0.141-0.316,0.404-0.311,0.684c0.006,0.26,0.164,0.445,0.284,0.658C50.534,746.388,51.375,746.966,51.937,747.767z
	 M36.482,760.206c0.728-0.52,1.235-2.139,0.952-2.965c-0.104-0.303-0.273-0.404-0.601-0.379c-1.288,0.102-2.246,1.744-1.721,2.971
	C35.429,760.575,35.817,760.681,36.482,760.206z M42.297,753.806c0.177-0.088,0.282-0.238,0.384-0.393
	c0.461-0.693,0.338-0.996-0.481-1.182c-0.986-0.225-2.226,0.219-2.822,1.02c-0.267,0.359-0.241,0.781-0.119,1.162
	c0.122,0.383,0.526,0.234,0.819,0.258C40.968,754.745,41.579,754.142,42.297,753.806z M48.537,750.362
	c0.338-0.227,0.366-0.408,0.112-0.68c-0.997-1.064-2.286-1.344-3.701-1.281c-0.448,0.02-0.471,0.391-0.581,0.689
	c-0.12,0.328,0.078,0.471,0.334,0.617c0.884,0.512,1.862,0.689,2.865,0.787C47.898,750.526,48.239,750.577,48.537,750.362z
	 M39.521,757.526c0.482-0.537,1.269-1.051,1.219-2.057c-0.009-0.182,0.022-0.361-0.216-0.451c-0.509-0.188-1.367-0.014-1.749,0.387
	c-0.284,0.297-0.561,0.602-0.823,0.916c-0.27,0.324-0.299,1.324,0.006,1.539c0.408,0.289,0.829,0.082,1.215-0.135
	C39.245,757.685,39.317,757.644,39.521,757.526z M34.429,766.497c0.026,0.027,0.122,0.17,0.255,0.26
	c0.271,0.18,0.413,0.666,0.848,0.467c0.452-0.207,0.493-0.652,0.478-1.096c-0.027-0.777-0.174-1.52-0.652-2.168
	c-0.16-0.217-0.241-0.563-0.634-0.471c-0.387,0.092-0.752,0.311-0.771,0.701C33.918,764.944,33.852,765.726,34.429,766.497z
	 M35.716,763.878c0.416,0.563,0.825,0.555,1.179-0.16c0.379-0.766,0.475-1.59,0.192-2.412c-0.091-0.264-0.091-0.689-0.484-0.697
	c-0.419-0.006-0.878,0.146-1.042,0.559C35.211,762.046,34.972,762.948,35.716,763.878z M35.095,767.769
	c-0.125-0.375-0.451-0.58-0.723-0.822c-0.168-0.15-0.338-0.426-0.63-0.215c-0.279,0.201-0.619,0.402-0.505,0.822
	c0.274,1.01,0.656,1.959,1.708,2.475c0.228,0.111,0.438,0.395,0.725,0.182c0.303-0.225,0.325-0.57,0.192-0.883
	C35.635,768.794,35.546,768.192,35.095,767.769z M35.917,775.347c0.186-0.32-0.028-0.49-0.237-0.66
	c-0.804-0.652-1.771-1.039-2.689-1.504c-0.329-0.168-0.703-0.258-1.061-0.367c-0.327-0.1-0.504,0.09-0.646,0.34
	c-0.119,0.211-0.097,0.373,0.109,0.525c1.244,0.92,2.593,1.596,4.197,1.674C35.693,775.36,35.796,775.351,35.917,775.347z
	 M51.88,750.132c-0.802-1.137-1.869-1.934-3.21-2.393c-0.302-0.104-0.572-0.258-0.809,0.125c-0.221,0.357-0.113,0.582,0.19,0.826
	c0.95,0.768,2.004,1.363,3.141,1.828c0.133,0.055,0.278,0.096,0.42,0.107c0.14,0.012,0.308,0.025,0.39-0.127
	C52.084,750.349,51.981,750.229,51.88,750.132z M38.409,761.204c0.65-0.455,1.139-1.857,0.946-2.619
	c-0.094-0.367-0.311-0.422-0.646-0.371c-0.974,0.146-1.813,1.652-1.459,2.633C37.513,761.577,37.765,761.655,38.409,761.204z
	 M43.562,752.438c-0.288,0.246-0.407,0.572-0.366,0.922c0.039,0.324,0.378,0.256,0.602,0.318c0.772,0.219,1.522,0.047,2.272-0.133
	c0.331-0.078,0.642-0.193,0.858-0.459c0.151-0.184,0.235-0.363-0.031-0.561C46.111,751.94,44.328,751.884,43.562,752.438z
	 M41.823,754.481c-0.193,0.152-0.414,0.283-0.572,0.465c-0.33,0.377-0.262,1.107,0.085,1.195c0.853,0.219,2.644-0.658,2.973-1.447
	c0.142-0.34,0.116-0.525-0.317-0.66C43.154,753.769,42.479,754.017,41.823,754.481z M36.192,771.718
	c-0.5-0.633-1.069-1.266-1.851-1.691c-0.257-0.141-0.485-0.24-0.74-0.02c-0.26,0.225-0.291,0.49-0.114,0.762
	c0.52,0.791,1.12,1.521,2.06,1.867c0.359,0.133,0.794,0.607,1.111,0.25C37.051,772.442,36.449,772.116,36.192,771.718z
	 M49.854,751.979c-0.895-0.951-2.055-1.189-3.31-1.141c-0.327,0.014-0.512,0.26-0.579,0.559c-0.064,0.287,0.176,0.375,0.377,0.484
	c0.917,0.49,1.927,0.615,2.948,0.682c0.157,0.01,0.33-0.059,0.479-0.123C50.021,752.333,50.05,752.163,49.854,751.979z
	 M41.136,758.706c0.392-0.465,1.099-0.871,1.185-1.705c0.038-0.375-0.095-0.545-0.511-0.58c-1.001-0.084-1.437,0.635-1.941,1.234
	c-0.355,0.422-0.328,1.025-0.023,1.359C40.161,759.36,40.648,759.021,41.136,758.706z M37.85,764.735
	c0.323,0.416,0.591,0.105,0.739-0.154c0.467-0.82,0.618-1.693,0.275-2.604c-0.135-0.357-0.357-0.461-0.725-0.275
	c-0.291,0.146-0.508,0.338-0.622,0.639C37.197,763.188,37.19,763.995,37.85,764.735z M36.804,767.165
	c0.175,0.164,0.32,0.586,0.729,0.518c0.307-0.053,0.417-0.4,0.433-0.678c0.044-0.813-0.026-1.613-0.542-2.307
	c-0.14-0.188-0.26-0.467-0.572-0.373c-0.314,0.094-0.604,0.322-0.589,0.639C36.294,765.694,36.173,766.472,36.804,767.165z
	 M37.136,768.013c-0.13-0.156-0.254-0.318-0.391-0.469c-0.177-0.193-0.349-0.449-0.671-0.285c-0.305,0.156-0.465,0.439-0.36,0.762
	c0.274,0.846,0.56,1.697,1.422,2.189c0.203,0.115,0.401,0.387,0.659,0.207c0.27-0.186,0.228-0.514,0.14-0.779
	C37.743,769.065,37.555,768.485,37.136,768.013z M40.11,762.022c0.496-0.553,0.935-1.262,0.891-2.17
	c-0.024-0.5-0.295-0.607-0.76-0.465c-0.775,0.24-1.414,1.598-1.131,2.438C39.309,762.415,39.467,762.466,40.11,762.022z
	 M43.424,755.923c-0.44,0.271-0.834,0.535-0.818,1.088c0.007,0.232,0.077,0.367,0.349,0.402c0.689,0.088,2.204-0.617,2.548-1.207
	c0.269-0.461,0.187-0.629-0.367-0.742C44.469,755.325,43.905,755.542,43.424,755.923z M52.49,752.12
	c-0.512-0.656-1.377-1.227-2.508-1.664c-0.264-0.102-0.546-0.283-0.771,0.066c-0.223,0.346,0.044,0.518,0.28,0.688
	c0.764,0.549,1.546,1.07,2.424,1.443c0.288,0.121,0.653,0.352,0.869,0.117C53.026,752.507,52.547,752.333,52.49,752.12z
	 M47.78,754.884c0.277-0.225,0.653-0.369,0.27-0.686c-0.629-0.516-2.374-0.492-3.035,0.016c-0.358,0.273-0.416,0.846-0.082,0.926
	C45.938,755.384,46.91,755.237,47.78,754.884z M36.482,771.478c0.432,0.654,1.075,1.051,1.787,1.357
	c0.181,0.078,0.41,0.258,0.574,0.09c0.199-0.207,0.029-0.453-0.096-0.66c-0.372-0.615-0.891-1.117-1.461-1.543
	c-0.318-0.24-0.68-0.844-1.129-0.443C35.695,770.688,36.232,771.104,36.482,771.478z M42.566,759.661
	c0.28-0.252,0.708-0.609,0.974-1.102c0.135-0.252,0.29-0.557,0.079-0.793c-0.212-0.238-0.55-0.117-0.827-0.045
	c-0.657,0.17-1.008,0.699-1.376,1.178c-0.269,0.35-0.293,0.842,0.004,1.125c0.274,0.26,0.653-0.037,0.948-0.225
	C42.385,759.788,42.401,759.776,42.566,759.661z M38.453,774.671c-1.018-0.762-2.164-1.367-3.406-1.803
	c-0.207-0.074-0.367-0.004-0.459,0.199c-0.076,0.168-0.067,0.316,0.093,0.432c1.079,0.775,2.192,1.48,3.59,1.578
	c0.097,0.006,0.244,0.008,0.287-0.049C38.644,774.919,38.541,774.804,38.453,774.671z M38.621,776.642
	c-0.188-0.256-0.393-0.238-0.564-0.291c-0.675-0.205-1.432-0.193-2.052-0.432c-0.704-0.273-1.415-0.311-2.119-0.457
	c-0.277-0.059-0.593,0.051-0.644,0.346c-0.053,0.303,0.292,0.299,0.493,0.35 M50.735,753.747c-0.455-0.551-2.292-1.127-2.997-0.922
	c-0.265,0.078-0.431,0.26-0.47,0.518c-0.037,0.244,0.203,0.275,0.363,0.35c0.822,0.387,1.713,0.502,2.609,0.584
	c0.138,0.012,0.289-0.043,0.424-0.09C50.909,754.099,50.921,753.948,50.735,753.747z M54.398,752.071
	c0.046-0.025,0.092-0.053,0.138-0.08c-0.076-0.182-0.142-0.367-0.229-0.545c-0.577-1.172-1.391-2.172-2.404-3.021
	c-0.197-0.166-0.399-0.473-0.68-0.24c-0.265,0.219-0.038,0.48,0.119,0.695s0.363,0.404,0.479,0.637
	c0.216,0.432,0.781,0.5,0.988,0.877C53.199,751.099,53.867,751.517,54.398,752.071z M38.724,767.649
	c0.149,0.125,0.237,0.484,0.571,0.385c0.359-0.107,0.375-0.459,0.381-0.76c0.014-0.652-0.125-1.281-0.411-1.873
	c-0.1-0.207-0.181-0.506-0.505-0.445c-0.305,0.059-0.545,0.271-0.558,0.582C38.172,766.263,38.172,766.995,38.724,767.649z
	 M39.441,765.161c0.247,0.383,0.549,0.389,0.769-0.061c0.331-0.68,0.528-1.406,0.298-2.166c-0.06-0.197-0.057-0.479-0.359-0.508
	c-0.247-0.023-0.431,0.131-0.587,0.301C39.056,763.28,38.997,764.472,39.441,765.161z M41.335,762.905
	c0.602-0.439,1.103-1.557,1.047-2.234c-0.025-0.301-0.129-0.4-0.476-0.377c-0.732,0.051-1.677,1.82-1.155,2.549
	C40.973,763.151,41.16,763.021,41.335,762.905z M38.478,769.87c0.085,0.193,0.257,0.369,0.478,0.492
	c0.205,0.113,0.402,0.422,0.643,0.242c0.244-0.182,0.195-0.518,0.092-0.791c-0.243-0.643-0.485-1.289-1-1.789
	c-0.161-0.156-0.271-0.49-0.583-0.293c-0.251,0.158-0.408,0.43-0.288,0.736C38.001,768.935,38.116,769.435,38.478,769.87z
	 M45.881,757.942c0.327-0.227,0.602-0.383,0.766-0.652c0.116-0.188,0.17-0.365-0.113-0.49c-0.663-0.293-2.281,0.355-2.533,1.027
	c-0.199,0.531,0.011,0.783,0.596,0.652C45.081,758.372,45.563,758.224,45.881,757.942z M48.758,756.198
	c0.426-0.283,0.472-0.473,0.063-0.668c-0.873-0.42-1.716-0.189-2.548,0.105c-0.224,0.078-0.296,0.328-0.312,0.561
	c-0.012,0.178,0.118,0.248,0.271,0.279C47.148,756.663,48.014,756.481,48.758,756.198z M43.804,760.593
	c0.31-0.447,0.894-0.791,1.021-1.457c0.06-0.314-0.025-0.439-0.384-0.418c-0.733,0.045-1.131,0.535-1.544,1.014
	c-0.293,0.34-0.422,0.803-0.155,1.109C43.058,761.204,43.396,760.757,43.804,760.593z M40.285,772.015
	c-0.403-0.563-0.869-0.994-1.38-1.377c-0.176-0.131-0.39-0.426-0.638-0.18c-0.233,0.23-0.117,0.52,0.056,0.775
	c0.347,0.516,0.801,0.934,1.299,1.299c0.3,0.221,0.775,0.588,1.018,0.357C40.912,772.632,40.432,772.274,40.285,772.015z
	 M53.554,754.579c-0.633-1.041-1.608-1.592-2.675-2.027c-0.23-0.096-0.473-0.082-0.617,0.135c-0.162,0.242,0.07,0.367,0.232,0.479
	c0.776,0.537,1.595,1.008,2.461,1.398C53.125,754.642,53.304,754.696,53.554,754.579z M40.192,767.905
	c0.255,0.102,0.323,0.559,0.667,0.424c0.29-0.113,0.279-0.467,0.27-0.752c-0.02-0.568-0.113-1.123-0.355-1.645
	c-0.091-0.197-0.174-0.451-0.469-0.404c-0.256,0.041-0.386,0.26-0.412,0.482C39.815,766.659,39.879,767.294,40.192,767.905z
	 M40.885,765.63c0.334,0.469,0.549,0.271,0.683,0.023c0.324-0.604,0.479-1.246,0.313-1.926c-0.05-0.205-0.034-0.492-0.315-0.535
	c-0.271-0.041-0.465,0.164-0.616,0.355C40.573,764.03,40.59,765.251,40.885,765.63z M51.562,755.335
	c-0.434-0.521-2.145-1.031-2.792-0.832c-0.194,0.061-0.338,0.178-0.362,0.377c-0.025,0.209,0.168,0.262,0.313,0.33
	c0.728,0.344,1.526,0.404,2.311,0.508c0.139,0.02,0.291-0.018,0.43-0.053C51.668,755.612,51.765,755.511,51.562,755.335z
	 M42.606,763.55c0.58-0.551,0.935-1.211,0.988-2.008c0.031-0.457-0.205-0.514-0.583-0.352c-0.639,0.271-1.198,1.545-0.972,2.18
	C42.153,763.687,42.32,763.741,42.606,763.55z M40.75,774.919c-0.075-0.293-0.233-0.441-0.424-0.578
	c-0.79-0.566-1.678-0.959-2.56-1.363c-0.16-0.072-0.366-0.199-0.496,0.025c-0.124,0.213,0.009,0.393,0.186,0.521
	C38.426,774.231,39.444,774.837,40.75,774.919z M40.223,770.116c0.105,0.197,0.293,0.355,0.503,0.492
	c0.131,0.088,0.254,0.256,0.438,0.145c0.169-0.104,0.124-0.293,0.096-0.445c-0.13-0.711-0.502-1.318-0.911-1.904
	c-0.126-0.182-0.309-0.391-0.566-0.256c-0.246,0.129-0.298,0.385-0.207,0.639C39.738,769.241,39.878,769.71,40.223,770.116z
	 M46.967,758.843c0.254-0.123,0.478-0.303,0.642-0.541c0.101-0.145,0.135-0.283-0.078-0.396c-0.663-0.348-2.323,0.475-2.431,1.195
	c-0.05,0.332,0.09,0.379,0.378,0.344C46.03,759.378,46.508,759.151,46.967,758.843z M44.748,761.433
	c0.396-0.34,0.84-0.707,1.044-1.26c0.169-0.457,0.036-0.602-0.465-0.486c-0.687,0.154-1.074,0.666-1.393,1.207
	c-0.132,0.225-0.246,0.578,0.04,0.771C44.233,761.841,44.475,761.595,44.748,761.433z M47.258,756.938
	c-0.103,0.107-0.24,0.238-0.245,0.436c-0.004,0.158,0.127,0.201,0.251,0.221c0.87,0.129,1.709,0.023,2.501-0.354
	c0.254-0.121,0.276-0.277,0.007-0.439C49.266,756.499,47.767,756.562,47.258,756.938z M42.195,772.997
	c-0.052-0.705-1.319-2.271-1.903-2.365c-0.43-0.068-0.381,0.277-0.279,0.471C40.477,771.989,41.192,772.62,42.195,772.997z
	 M43.876,763.979c0.369-0.445,0.725-1.006,0.768-1.701c0.026-0.426-0.196-0.484-0.549-0.336c-0.48,0.203-1.036,1.441-0.886,1.936
	C43.32,764.245,43.509,764.278,43.876,763.979z M41.691,768.308c0.138,0.082,0.177,0.389,0.42,0.34
	c0.273-0.057,0.247-0.354,0.272-0.559c0.072-0.596-0.104-1.16-0.311-1.713c-0.063-0.166-0.175-0.346-0.411-0.299
	c-0.208,0.043-0.334,0.217-0.338,0.396C41.312,767.091,41.233,767.729,41.691,768.308z M55.061,754.251
	c-0.144-0.799-0.698-1.359-1.138-1.973c-0.281-0.391-0.693-0.695-1.061-1.025c-0.147-0.131-0.342-0.338-0.54-0.186
	c-0.238,0.182,0.034,0.35,0.128,0.506c0.083,0.139,0.228,0.248,0.291,0.393c0.185,0.428,0.752,0.451,0.946,0.832
	C54.001,753.417,54.617,753.751,55.061,754.251z M49.369,756.368c0.286,0.307,2.411,0.68,2.756,0.529
	c0.266-0.117,0.164-0.23,0.014-0.346c-0.416-0.318-0.89-0.514-1.415-0.584c-0.367-0.049-0.743-0.176-1.104-0.004
	C49.45,756.044,49.216,756.144,49.369,756.368z M50.314,758.37c0.277-0.184,0.498-0.285,0.167-0.492
	c-0.422-0.262-1.932-0.182-2.306,0.139c-0.127,0.109-0.229,0.244-0.205,0.42c0.017,0.121,0.132,0.156,0.235,0.168
	C48.967,758.687,49.704,758.603,50.314,758.37z M54.209,756.163c-0.647-0.883-1.514-1.381-2.452-1.785
	c-0.178-0.076-0.399-0.125-0.517,0.055c-0.166,0.25,0.095,0.365,0.256,0.465c0.51,0.313,1.026,0.617,1.558,0.893
	C53.392,755.966,53.719,756.21,54.209,756.163z M39.479,773.378c0.757,0.668,1.665,1.055,2.646,1.299
	c0.081,0.02,0.182,0.033,0.22-0.055c0.06-0.139-0.048-0.223-0.15-0.293c-0.763-0.529-1.588-0.953-2.426-1.357
	c-0.122-0.059-0.288-0.139-0.392,0.023C39.286,773.138,39.391,773.263,39.479,773.378z M42.849,768.587
	c0.135,0.15,0.205,0.35,0.391,0.328c0.242-0.031,0.226-0.275,0.245-0.436c0.071-0.609-0.042-1.197-0.298-1.76
	c-0.058-0.127-0.1-0.291-0.276-0.287c-0.196,0.004-0.298,0.158-0.318,0.32C42.515,767.397,42.516,768.034,42.849,768.587z
	 M40.701,776.05c-0.399-0.107-0.8-0.213-1.199-0.324c-0.277-0.076-0.586,0.121-0.848-0.096c-0.442-0.367-1.008-0.352-1.536-0.449
	c-0.152-0.027-0.371-0.088-0.418,0.133c-0.045,0.209,0.169,0.256,0.322,0.303C38.214,775.974,39.429,776.19,40.701,776.05z
	 M42.987,770.567c0.015,0.018,0.068,0.111,0.149,0.17c0.161,0.115,0.321,0.363,0.521,0.25c0.193-0.109,0.084-0.373,0.041-0.563
	c-0.119-0.52-0.463-0.939-0.714-1.4c-0.084-0.156-0.201-0.361-0.425-0.266c-0.228,0.096-0.229,0.328-0.154,0.527
	C42.562,769.7,42.673,770.136,42.987,770.567z M52.975,757.929c-0.761-0.684-1.543-0.785-2.346-0.814
	c-0.17-0.006-0.33,0.086-0.414,0.238c-0.063,0.115,0.025,0.207,0.127,0.232C51.153,757.796,51.952,758.104,52.975,757.929z
	 M54.503,757.376c-0.522-0.822-1.357-1.207-2.223-1.541c-0.076-0.031-0.218,0.008-0.283,0.063c-0.104,0.09-0.016,0.191,0.068,0.248
	C52.816,756.663,53.576,757.167,54.503,757.376z M41.142,772.864c0.041,0.191,0.03,0.287,0.075,0.334
	c0.649,0.688,1.492,1.064,2.386,1.352c0.077,0.025,0.189,0.033,0.21-0.064c0.013-0.063-0.029-0.168-0.082-0.205
	C42.945,773.743,42.141,773.235,41.142,772.864z M55.517,756.042c0.045-0.037,0.09-0.074,0.135-0.111
	c-0.653-1.016-1.316-2.023-2.398-2.654c-0.062,0.055-0.123,0.107-0.184,0.162C53.885,754.308,54.701,755.175,55.517,756.042z"/>
<text transform="matrix(0.953 0 0 1 53.6484 775.7441)" fill="#FFFFFF" font-family="'BlackOpsOne-Regular'" font-size="23.6949">CARBON</text>
<text transform="matrix(1 0 0 1 23.0801 813.7451)" fill="#FFFFFF" font-family="'HelveticaNeue'" font-size="12">Desarrollado bajo la licencia MIT</text>
<path fill="#FFFFFF" d="M1032.381,746.036c9.816,0,18.688,3.973,25.121,10.406c6.433,6.432,10.406,15.303,10.406,25.119
	s-3.974,18.688-10.406,25.121s-15.305,10.406-25.121,10.406c-9.816,0-18.688-3.973-25.12-10.406s-10.406-15.305-10.406-25.121
	s3.974-18.688,10.406-25.119C1013.694,750.009,1022.565,746.036,1032.381,746.036L1032.381,746.036z M1055.555,758.409
	c-5.94-5.922-14.125-9.602-23.173-9.602c-9.048,0-17.232,3.68-23.153,9.602c-5.921,5.92-9.6,14.104-9.6,23.152
	s3.678,17.232,9.6,23.174c5.921,5.922,14.105,9.58,23.153,9.58c9.049,0,17.233-3.658,23.173-9.58
	c5.921-5.941,9.581-14.125,9.581-23.174S1061.476,764.329,1055.555,758.409L1055.555,758.409z"/>
<path fill="#FFFFFF" d="M1122.733,746.036c9.815,0,18.708,3.973,25.12,10.406c6.434,6.432,10.406,15.303,10.406,25.119
	s-3.973,18.688-10.406,25.121c-6.412,6.434-15.305,10.406-25.12,10.406c-9.796,0-18.688-3.973-25.121-10.406
	c-6.433-6.434-10.406-15.305-10.406-25.121s3.974-18.688,10.406-25.119C1104.045,750.009,1112.937,746.036,1122.733,746.036
	L1122.733,746.036z M1145.906,758.409c-5.94-5.922-14.124-9.602-23.173-9.602c-9.029,0-17.232,3.68-23.153,9.602
	c-5.922,5.92-9.6,14.104-9.6,23.152s3.678,17.232,9.6,23.174c5.92,5.922,14.124,9.58,23.153,9.58c9.049,0,17.232-3.658,23.173-9.58
	c5.922-5.941,9.58-14.125,9.58-23.174S1151.828,764.329,1145.906,758.409L1145.906,758.409z"/>
<path fill-rule="evenodd" clip-rule="evenodd" fill="#FFFFFF" d="M1035.096,774.304v-2.912c0-1.396,0.924-1.73,1.594-1.73
	c0.649,0,4.072,0,4.072,0v-6.217h-5.606c-6.235,0-7.632,4.604-7.632,7.594v3.266h-3.62v4.387v2.871h3.659c0,8.242,0,18.139,0,18.139
	h7.259c0,0,0-10.033,0-18.139h5.37l0.236-2.852l0.433-4.406H1035.096z"/>
<path fill-rule="evenodd" clip-rule="evenodd" fill="#FFFFFF" d="M1113.644,781.562c0-5.016,4.072-9.107,9.089-9.107
	c5.036,0,9.108,4.092,9.108,9.107c0,5.035-4.072,9.109-9.108,9.109C1117.716,790.671,1113.644,786.597,1113.644,781.562
	L1113.644,781.562z M1132.136,763.759h-18.786c-4.623,0-8.42,3.777-8.42,8.42v18.787c0,4.621,3.797,8.418,8.42,8.418h18.786
	c4.643,0,8.419-3.797,8.419-8.418v-18.787C1140.555,767.536,1136.779,763.759,1132.136,763.759L1132.136,763.759z M1113.35,765.864
	h18.786c3.482,0,6.314,2.832,6.314,6.314v18.787c0,3.48-2.832,6.313-6.314,6.313h-18.786c-3.483,0-6.315-2.832-6.315-6.313v-18.787
	C1107.035,768.696,1109.867,765.864,1113.35,765.864L1113.35,765.864z M1134.005,768.521c-1.023,0-1.85,0.826-1.85,1.848
	c0,1.023,0.826,1.85,1.85,1.85c1.022,0,1.849-0.826,1.849-1.85C1135.854,769.347,1135.028,768.521,1134.005,768.521
	L1134.005,768.521z M1134.22,781.562c0-6.334-5.133-11.488-11.487-11.488c-6.335,0-11.488,5.154-11.488,11.488
	c0,6.355,5.153,11.488,11.488,11.488C1129.087,793.05,1134.22,787.917,1134.22,781.562L1134.22,781.562z"/>
<text transform="matrix(1 0 0 1 246.2173 813.7451)" fill="#FFFFFF" font-family="'HelveticaNeue'" font-size="12">Términos y condiciones</text>
<text transform="matrix(1 0 0 1 405.0005 813.7451)" fill="#FFFFFF" font-family="'HelveticaNeue'" font-size="12">Preguntas frecuentes</text>
<text transform="matrix(1 0 0 1 557.0005 813.7451)" fill="#FFFFFF" font-family="'HelveticaNeue'" font-size="12">Pólítica de privacidad</text>
<path fill="#231F20" d="M207.717,51.686l-6,12v-18h6c0-0.819,0.295-1.524,0.885-2.115c0.59-0.589,1.295-0.885,2.115-0.885h9
	c0.819,0,1.524,0.296,2.114,0.885c0.59,0.591,0.886,1.296,0.886,2.115h15v6H207.717z M246.717,54.686l-9,21h-36l9-21H246.717z"/>
<path fill="#231F20" d="M401.582,42.325c2.739-1.6,5.729-2.399,8.97-2.399s6.229,0.8,8.97,2.399c2.74,1.601,4.91,3.771,6.511,6.51
	c1.6,2.741,2.399,5.73,2.399,8.971s-0.8,6.23-2.399,8.971c-1.601,2.74-3.771,4.91-6.511,6.51s-5.729,2.399-8.97,2.399
	s-6.23-0.8-8.97-2.399c-2.74-1.6-4.91-3.77-6.511-6.51c-1.6-2.74-2.399-5.73-2.399-8.971s0.8-6.229,2.399-8.971
	C396.671,46.096,398.841,43.926,401.582,42.325z M419.327,49.03c-2.431-2.43-5.355-3.645-8.775-3.645s-6.345,1.215-8.775,3.645
	c-2.43,2.43-3.645,5.355-3.645,8.775s1.215,6.346,3.645,8.775c2.431,2.43,5.355,3.645,8.775,3.645s6.345-1.215,8.775-3.645
	c2.43-2.43,3.645-5.355,3.645-8.775S421.756,51.46,419.327,49.03z M418.051,57.806h-4.5v9h-6v-9h-4.5l7.5-9L418.051,57.806z"/>
<text transform="matrix(1 0 0 1 257.5005 54.5186)"><tspan x="0" y="0" fill="#FFFFFF" font-family="'HelveticaNeue'" font-size="18">Búsqueda </tspan><tspan x="0" y="26" fill="#FFFFFF" font-family="'HelveticaNeue'" font-size="18">por carpetas</tspan></text>
<text transform="matrix(1 0 0 1 438.0508 54.5186)"><tspan x="0" y="0" fill="#FFFFFF" font-family="'HelveticaNeue'" font-size="18">Subir </tspan><tspan x="0" y="26" fill="#FFFFFF" font-family="'HelveticaNeue'" font-size="18">Material</tspan></text>
<path fill="#231F20" d="M568.648,65.456l9,9c0.139,0.16,0.209,0.34,0.209,0.54s-0.07,0.38-0.209,0.54l-3.271,3.27
	c-0.161,0.141-0.341,0.211-0.54,0.211c-0.2,0-0.381-0.07-0.54-0.211l-9-9c-2.38,1.561-4.99,2.34-7.83,2.34
	c-4.001,0-7.421-1.42-10.26-4.26c-2.841-2.84-4.261-6.26-4.261-10.26s1.42-7.42,4.261-10.26c2.839-2.84,6.259-4.26,10.26-4.26
	c4,0,7.42,1.42,10.261,4.26c2.839,2.84,4.26,6.26,4.26,10.26C570.988,60.466,570.208,63.076,568.648,65.456z M549.447,50.636
	c-1.939,1.94-2.91,4.271-2.91,6.99c0,2.721,0.971,5.051,2.91,6.99c1.94,1.939,4.28,2.91,7.021,2.91c2.739,0,5.075-0.965,7.005-2.896
	c1.93-1.93,2.895-4.265,2.895-7.005s-0.965-5.074-2.895-7.005c-1.93-1.93-4.266-2.896-7.005-2.896
	C553.727,47.726,551.387,48.696,549.447,50.636z"/>
<text transform="matrix(1 0 0 1 589.3896 55.8057)"><tspan x="0" y="0" fill="#FFFFFF" font-family="'HelveticaNeue'" font-size="18">Búsqueda </tspan><tspan x="0" y="26" fill="#FFFFFF" font-family="'HelveticaNeue'" font-size="18">Avanzada</tspan></text>
<path fill="#231F20" d="M751,61.846h-6v18h-9v-12h-9v12h-9v-18h-6l19.681-19.32L751,61.846z"/>
<text transform="matrix(1 0 0 1 763.0005 56.8057)"><tspan x="0" y="0" fill="#FFFFFF" font-family="'HelveticaNeue'" font-size="18">Ranking </tspan><tspan x="0" y="26" fill="#FFFFFF" font-family="'HelveticaNeue'" font-size="18">Universidades</tspan></text>
<text transform="matrix(1 0 0 1 110.7568 328.1963)" fill="#010101" font-family="'ArialMT'" font-size="30">USACH</text>
<text transform="matrix(1 0 0 1 110.7568 405.1963)" fill="#010101" font-family="'ArialMT'" font-size="30">UCHILE</text>
<text transform="matrix(1 0 0 1 110.7568 478.999)" fill="#010101" font-family="'ArialMT'" font-size="30">UTFSM</text>
<text transform="matrix(1 0 0 1 111.7568 553.999)" fill="#010101" font-family="'ArialMT'" font-size="30">UC</text>
<text transform="matrix(1 0 0 1 59.7563 276.8076)" fill="#D65677" font-family="'ArialMT'" font-size="30">Universidades</text>
<text transform="matrix(1 0 0 1 584.8569 278.8076)" fill="#D65677" font-family="'ArialMT'" font-size="30">Contribuciones</text>
<path fill="#231F20" d="M604.847,319.632l4.35,13.47l-11.52-8.25l-11.461,8.25l4.381-13.41l-11.641-8.399h14.37l4.38-12h0.061
	l4.379,12h14.16L604.847,319.632z"/>
<path fill="#231F20" d="M604.847,395.638l4.35,13.47l-11.52-8.25l-11.461,8.25l4.381-13.41l-11.641-8.399h14.37l4.38-12h0.061
	l4.379,12h14.16L604.847,395.638z"/>
<path fill="#231F20" d="M604.847,473.416l4.35,13.47l-11.52-8.25l-11.461,8.25l4.381-13.41l-11.641-8.399h14.37l4.38-12h0.061
	l4.379,12h14.16L604.847,473.416z"/>
<path fill="#231F20" d="M604.847,545.631l4.35,13.47l-11.52-8.25l-11.461,8.25l4.381-13.41l-11.641-8.399h14.37l4.38-12h0.061
	l4.379,12h14.16L604.847,545.631z"/>
<text transform="matrix(1 0 0 1 625.7568 328.1963)" fill="#010101" font-family="'ArialMT'" font-size="30">14321 Aportes de Usuarios</text>
<text transform="matrix(1 0 0 1 625.7568 403.4229)" fill="#010101" font-family="'ArialMT'" font-size="30">10343 Aportes de Usuarios</text>
<text transform="matrix(1 0 0 1 625.7568 482.999)" fill="#010101" font-family="'ArialMT'" font-size="30">9343   Aportes de Usuarios</text>
<text transform="matrix(1 0 0 1 627.7568 553.999)" fill="#010101" font-family="'ArialMT'" font-size="30">5342   Aportes de Usuarios</text>
<path fill="#231F20" d="M98.758,314.856h-6v18h-9v-12h-9v12h-9v-18h-6l19.681-19.32L98.758,314.856z"/>
<path fill="#231F20" d="M98.758,392.862h-6v18h-9v-12h-9v12h-9v-18h-6l19.681-19.32L98.758,392.862z"/>
<path fill="#231F20" d="M98.758,463.075h-6v18h-9v-12h-9v12h-9v-18h-6l19.681-19.32L98.758,463.075z"/>
<path fill="#231F20" d="M98.758,542.856h-6v18h-9v-12h-9v12h-9v-18h-6l19.681-19.32L98.758,542.856z"/>
</svg>
